<?xml version="1.0" encoding="utf-8"?>
<!-- Generator: Adobe Illustrator 20.1.0, SVG Export Plug-In . SVG Version: 6.00 Build 0)  -->
<svg version="1.1" id="Layer_1" xmlns="http://www.w3.org/2000/svg" xmlns:xlink="http://www.w3.org/1999/xlink" x="0px" y="0px"
	 viewBox="0 0 649.3 120" style="enable-background:new 0 0 649.3 120;" xml:space="preserve">
<style type="text/css">
	.st0{fill:#9D8E68;}
</style>
<g>
	<path class="st0" d="M6,71.2c4.4,2.6,11.4,4.7,16.1,4.7c8.5,0,13-3.6,13-10.1c0-13.6-29.8-6.4-29.8-25.6c0-9.5,6.6-15.1,18.2-15.1
		c6,0,11.9,1.6,16.3,4.1l-2.1,4.5c-4.3-2.2-9.2-3.7-13.8-3.7c-8.1,0-12.7,3.2-12.7,10c0,13.7,29.9,7.5,29.9,25.2
		c0,8.9-5.5,15.5-19,15.5c-5.4,0-12.9-2-18-5L6,71.2z"/>
	<path class="st0" d="M66,93.5c9.5,0,13.4-5,13.4-14.4v-7.7c-3.3,5.8-8.3,8.6-14.2,8.6C55.8,80,51,73.9,51,64V40h5.4v22.8
		c0,8.3,3.4,12.4,9.6,12.4c6.3,0,11-4.4,13.4-11.5V40h5.3v39.2c0,12.1-5.3,19.2-18.6,19.2c-4.7,0-10.9-1.4-14.8-3.3l1.7-4.4
		C57.2,92.4,62,93.5,66,93.5z"/>
	<path class="st0" d="M98.6,40h4.5l0.4,8.2c3.1-6.2,8-9.1,13.8-9.1c7.1,0,11.5,3.8,13,9.7c2.8-5.6,7.6-9.7,14.2-9.7
		c9.2,0,13.8,6.1,13.8,16V80H153V56.3c0-8.3-3.3-12.4-9.2-12.4c-5.4,0-9.8,3.7-12.7,11.5V80h-5.3V56.3c0-8.3-3.3-12.4-9.2-12.4
		c-5.8,0-10.1,4-12.7,11.5V80h-5.3V40z"/>
	<path class="st0" d="M176.9,114h-5.3V40h4.5l0.4,8.1c2.9-5.8,8.3-9,14.5-9c9.4,0,16,7.7,16,20.6c0,13.3-7.5,21.1-18.5,21.1
		c-4.6,0-8.5-1.3-11.6-3.6V114z M188.1,76.1c7.1,0,13.2-5.5,13.2-16.2c0-10.5-5-16-11-16c-5.6,0-10.6,3.2-13.4,11.4v16.5
		C179.7,74.2,183.5,76.1,188.1,76.1z"/>
	<path class="st0" d="M218.1,7.3h5.3v40.4c3.2-5.6,7.9-8.6,14.1-8.6c9.5,0,14.2,6.1,14.2,16V80h-5.3V56.3c0-8.3-3.4-12.4-9.7-12.4
		c-6.8,0-11.3,5.2-13.3,11.5V80h-5.3V7.3z"/>
	<path class="st0" d="M281.1,39.1c12,0,18.9,7.7,18.9,20.9s-6.9,20.9-18.9,20.9c-12,0-18.9-7.7-18.9-20.9S269.1,39.1,281.1,39.1z
		 M281.1,76.1c8.2,0,13.3-5.4,13.3-16.1s-5-16.1-13.3-16.1c-8.2,0-13.3,5.4-13.3,16.1S272.9,76.1,281.1,76.1z"/>
	<path class="st0" d="M311.1,40h4.5l0.4,8c3.3-6.1,8.4-8.9,14.5-8.9c9.5,0,14.2,6.1,14.2,16V80h-5.3V56.3c0-8.3-3.4-12.4-9.7-12.4
		c-6.2,0-10.9,4.4-13.3,11.5v34h-5.3V40z"/>
	<path class="st0" d="M372.4,93.5c9.5,0,13.4-5,13.4-14.4v-7.7c-3.2,5.8-8.3,8.6-14.2,8.6c-9.4,0-14.2-6.1-14.2-16V40h5.4v22.8
		c0,8.3,3.4,12.4,9.6,12.4c6.3,0,11-4.4,13.4-11.5V40h5.3v39.2c0,12.1-5.3,19.2-18.6,19.2c-4.7,0-10.9-1.4-14.8-3.3l1.7-4.4
		C363.6,92.4,368.4,93.5,372.4,93.5z"/>
	<path class="st0" d="M442.4,39.1c12,0,18.9,7.7,18.9,20.9s-6.9,20.9-18.9,20.9c-12,0-18.9-7.7-18.9-20.9S430.4,39.1,442.4,39.1z
		 M442.4,76.1c8.2,0,13.3-5.4,13.3-16.1s-5-16.1-13.3-16.1c-8.2,0-13.3,5.4-13.3,16.1S434.2,76.1,442.4,76.1z"/>
	<path class="st0" d="M474.8,44.2l-8.1-0.2V40h8.1v-5.1c0-8.9,4.9-14.5,13.6-14.5c3.8,0,6.8,0.9,9.8,2.5l-1.8,4.3
		c-2.4-1.3-4.6-2-7.4-2c-5.4,0-8.8,3.2-8.8,10.3V40h12.7l-0.9,4.3h-11.8v54.1h-5.3V44.2z"/>
	<path class="st0" d="M522.4,7.3h5.6V75h28l-0.9,5h-32.6V7.3z"/>
	<path class="st0" d="M567.4,44.2l-7.4-0.2V40h12.7v40h-5.3V44.2z M566.4,26.7c0-2.1,1.7-3.6,3.7-3.6c2,0,3.7,1.5,3.7,3.6
		s-1.7,3.7-3.7,3.7C568.1,30.4,566.4,28.8,566.4,26.7z"/>
	<path class="st0" d="M588.9,44.2l-8.1-0.2V40h8.1v-5.1c0-8.9,4.9-14.5,13.6-14.5c3.8,0,6.8,0.9,9.8,2.5l-1.8,4.3
		c-2.4-1.3-4.6-2-7.4-2c-5.4,0-8.8,3.2-8.8,10.3V40h12.7l-0.9,4.3h-11.8v45.2h-5.3V44.2z"/>
	<path class="st0" d="M629.5,39.1c10.9,0,16.5,7.3,16.5,20.7l-0.4,0.9h-28.9c0.1,9.8,4.9,15.3,14.9,15.3c3.7,0,8.6-1.4,11.9-3.2
		l1.6,4.4c-4,2.2-9.1,3.6-13.9,3.6c-13.9,0-20.2-8.6-20.2-20.9C611,46.9,618.2,39.1,629.5,39.1z M640.7,56.6
		c-0.4-8.2-3.8-12.7-11.1-12.7c-7.2,0-12,4.4-12.8,12.7H640.7z"/>
</g>
</svg>
