<?xml version="1.0" encoding="utf-8"?>
<!-- Generator: Adobe Illustrator 20.1.0, SVG Export Plug-In . SVG Version: 6.00 Build 0)  -->
<svg version="1.1" id="Layer_1" xmlns="http://www.w3.org/2000/svg" xmlns:xlink="http://www.w3.org/1999/xlink" x="0px" y="0px"
	 viewBox="0 0 278.4 172.1" style="enable-background:new 0 0 278.4 172.1;" xml:space="preserve">
<style type="text/css">
	.st0{fill:#FFFFFF;}
</style>
<g>
	<g>
		<path class="st0" d="M12.9,151.2h0.8l8.7,12.7h3.9L17.1,151c4.4-0.4,7.2-3.5,7.2-8c0-6.5-5.1-7.9-10.6-7.9h-4v28.8h3.2V151.2z
			 M12.9,138h1c3.9,0,7.4,0.5,7.4,5.2c0,4.5-3.7,5.2-7.3,5.2h-1L12.9,138L12.9,138z"/>
		<path class="st0" d="M47.1,155.6l3.4,8.2H54l-13-30.2l-13.3,30.2h3.5l3.5-8.2H47.1z M45.8,152.6H36l4.9-11.5L45.8,152.6z"/>
		<rect x="57.3" y="135" class="st0" width="3.2" height="28.8"/>
		<polygon class="st0" points="70,133.4 80.5,157.6 91,133.4 96.9,163.8 93.6,163.8 89.9,144.3 89.9,144.3 80.5,165 71.3,144.3 
			71.2,144.3 67.5,163.8 64.2,163.8 		"/>
		<path class="st0" d="M114.2,134.5c-8.2,0-15.1,6.7-15.1,15s6.8,14.9,15.1,14.9c8.2,0,15-6.6,15-14.9
			C129.2,141.2,122.4,134.5,114.2,134.5z M114.2,137.5c6.6,0,11.8,5.4,11.8,11.9s-5.3,11.9-11.8,11.9c-6.6,0-11.8-5.4-11.8-11.9
			C102.3,142.9,107.6,137.5,114.2,137.5z"/>
		<polygon class="st0" points="133.8,133.7 156.2,157.3 156.2,135 159.5,135 159.5,165.1 137,141.6 137,163.8 133.8,163.8 		"/>
		<polygon class="st0" points="180.5,160.9 188.4,160.9 188.4,163.8 177.3,163.8 177.3,135 180.5,135 		"/>
		<path class="st0" d="M208.2,155.6l3.4,8.2h3.6l-13-30.2l-13.3,30.2h3.5l3.5-8.2H208.2z M207,152.6h-9.7l4.9-11.5L207,152.6z"/>
		<polygon class="st0" points="218.5,133.7 241,157.3 241,135 244.2,135 244.2,165.1 221.7,141.6 221.7,163.8 218.5,163.8 		"/>
		<path class="st0" d="M250.2,163.8h5.3c4.5,0,8-0.6,11.4-3.6c3.2-2.8,4.7-6.6,4.7-10.7c0-4.3-1.5-8.2-4.8-11
			c-3.4-2.9-6.9-3.5-11.3-3.5h-5.4L250.2,163.8L250.2,163.8z M253.5,160.9V138h2.3c3.4,0,6.3,0.5,8.9,2.8c2.5,2.2,3.8,5.3,3.8,8.7
			c0,3.2-1.2,6.2-3.6,8.4c-2.7,2.5-5.6,3-9.1,3H253.5z"/>
	</g>
	<path class="st0" d="M75.3,88.4c2.5-0.1,4.7-0.7,6.8-1.7C82,89,81.8,91.5,81.6,94C79.7,92.4,77.3,90.3,75.3,88.4z M97.9,88.4
		c-2.1,1.9-4.5,4.1-6.3,5.6c-0.2-2.5-0.3-5.1-0.4-7.3C93.1,87.7,95.4,88.3,97.9,88.4z M125,75.8c3.4-0.1,6.6-0.9,9.5-2.4
		c-0.2,3.2-0.4,6.6-0.7,10.2C131.2,81.6,127.9,78.5,125,75.8z M156.4,75.8c-2.9,2.7-6.2,5.7-8.8,7.8c-0.2-3.6-0.5-7-0.6-10.2
		C149.8,74.9,153,75.7,156.4,75.8z M183.5,88.4c2.4-0.1,4.7-0.7,6.8-1.7c-0.1,2.3-0.3,4.8-0.5,7.3C188,92.4,185.6,90.3,183.5,88.4z
		 M206.1,88.4c-2.1,1.9-4.5,4.1-6.3,5.6c-0.2-2.5-0.3-5.1-0.5-7.3C201.4,87.7,203.7,88.3,206.1,88.4z M75.4,120.4
		c-17,0.9-33.7,2.4-47,4.5H253c-13.3-2.2-30-3.6-47-4.5c-1.8-1.4-2.8-2.6-3.4-4.5c-0.9-3-1.7-8.7-2.2-14.8l0,0
		c-0.1-0.7,0-1.2,0.2-1.8c0.9-1.9,6.8-8.2,9.9-11.5c1.1-0.2,2.1-0.6,3.1-1c2.3,1.9,5.2,3,8.4,3c7.3,0,13.3-5.9,13.3-13.3
		c0-5.3-3.1-9.8-7.6-12c-1.1-7.8-7.6-13.7-15.6-14.1c-2.7-7-9.4-11.9-17.3-11.9c-2,0-3.9,0.3-5.7,0.9c0.1,0.4,0.2,0.8,0.3,1.2
		c6.7,3.9,11,11.1,11,18.9c0,12.1-9.8,21.9-21.9,21.9c-4.3,0-8.5-1.4-12.1-3.7c-0.7,0.3-1.3,0.5-2,0.6c-2.6,2.8-4.8,5.2-6.5,7.1
		c2.4,2.7,6,4.4,9.9,4.4c3.2,0,6.1-1.1,8.4-3c1,0.5,2,0.8,3.1,1c3.1,3.3,8.9,9.6,9.9,11.5c0.3,0.5,0.3,1,0.2,1.7
		c-0.6,6.2-1.3,11.9-2.3,14.9c-0.5,1.5-1.2,2.5-2.4,3.6c-10.6-0.3-20.8-0.5-30-0.5c-1.5-1.5-2.5-2.9-3.1-4.9
		c-1.3-4.2-2.3-12.1-3.1-20.7c-0.1-0.9,0-1.6,0.3-2.3c1.3-2.5,9.4-11.3,13.7-15.9c1.5-0.4,2.9-0.9,4.3-1.5c3.2,2.6,7.2,4.2,11.6,4.2
		c10.2,0,18.5-8.3,18.5-18.5c0-7.4-4.3-13.7-10.5-16.7c-1.6-10.8-10.6-19.1-21.7-19.6c-3.7-9.7-13-16.5-24-16.5s-20.3,6.9-24,16.5
		C105.6,23.6,96.6,32,95,42.7c-6.2,3-10.5,9.3-10.5,16.7C84.5,69.7,92.8,78,103,78c4.4,0,8.5-1.6,11.7-4.1c1.3,0.6,2.8,1.1,4.3,1.4
		c4.3,4.6,12.4,13.4,13.8,15.9c0.4,0.8,0.4,1.5,0.3,2.4l0,0c-0.8,8.6-1.8,16.4-3.1,20.6c-0.6,2-1.6,3.4-3.1,4.9
		c-9.2,0-19.4,0.2-30,0.5c-1.2-1.1-1.9-2.2-2.4-3.6c-0.9-3-1.7-8.7-2.3-14.9c0-0.7,0-1.1,0.2-1.7c1-1.9,6.8-8.1,9.9-11.5
		c1.1-0.2,2.1-0.6,3.1-1c2.3,1.9,5.2,3,8.4,3c3.9,0,7.4-1.7,9.9-4.4c-1.8-2-3.9-4.3-6.6-7.1c-0.7-0.2-1.3-0.4-2-0.6
		c-3.6,2.4-7.8,3.7-12.1,3.7c-12.1,0-21.9-9.8-21.9-21.9c0-7.8,4.3-15,10.9-18.9c0.1-0.4,0.2-0.8,0.3-1.2c-1.8-0.6-3.7-0.9-5.7-0.9
		c-7.9,0-14.6,5-17.3,11.9c-8,0.4-14.5,6.4-15.7,14.1c-4.4,2.2-7.5,6.7-7.5,12c0,7.4,5.9,13.3,13.3,13.3c3.2,0,6.1-1.1,8.4-3
		c1,0.5,2,0.8,3.1,1c3.1,3.3,8.9,9.6,9.9,11.5c0.3,0.6,0.3,1.1,0.2,1.8l0,0c-0.6,6.1-1.3,11.8-2.2,14.8
		C78.2,117.8,77.1,119,75.4,120.4z"/>
</g>
</svg>
