<?xml version="1.0" encoding="UTF-8"?>
<!-- Generator: Adobe Illustrator 20.1.0, SVG Export Plug-In . SVG Version: 6.00 Build 0)  -->
<svg version="1.1" id="Layer_1" xmlns="http://www.w3.org/2000/svg" xmlns:xlink="http://www.w3.org/1999/xlink" x="0px" y="0px" viewBox="0 0 649.3 120" style="enable-background:new 0 0 649.3 120;" xml:space="preserve">
<style type="text/css">
	.st0{fill:#9D8E68;}
</style>
<g>
	<path class="st0" d="M5.7,70.5c4.4,2.6,11.4,4.7,16.1,4.7c8.5,0,13-3.6,13-10.1C34.8,51.6,5,58.7,5,39.6c0-9.5,6.6-15.1,18.2-15.1   c6,0,11.9,1.6,16.3,4.1l-2.1,4.5c-4.3-2.2-9.2-3.7-13.8-3.7c-8.1,0-12.7,3.2-12.7,10c0,13.7,29.9,7.5,29.9,25.2   c0,8.9-5.5,15.5-19,15.5c-5.4,0-12.9-2-18-5L5.7,70.5z"/>
	<path class="st0" d="M65.7,92.9c9.5,0,13.4-5,13.4-14.4v-7.7c-3.3,5.8-8.3,8.6-14.2,8.6c-9.4,0-14.2-6.1-14.2-16v-24h5.4v22.8   c0,8.3,3.4,12.4,9.6,12.4c6.3,0,11-4.4,13.4-11.5V39.3h5.3v39.2c0,12.1-5.3,19.2-18.6,19.2c-4.7,0-10.9-1.4-14.8-3.3l1.7-4.4   C56.9,91.8,61.7,92.9,65.7,92.9z"/>
	<path class="st0" d="M98.3,39.3h4.5l0.4,8.2c3.1-6.2,8-9.1,13.8-9.1c7.1,0,11.5,3.8,13,9.7c2.8-5.6,7.6-9.7,14.2-9.7   c9.2,0,13.8,6.1,13.8,16v24.9h-5.3V55.7c0-8.3-3.3-12.4-9.2-12.4c-5.4,0-9.8,3.7-12.7,11.5v24.6h-5.3V55.7c0-8.3-3.3-12.4-9.2-12.4   c-5.8,0-10.1,4-12.7,11.5v24.6h-5.3V39.3z"/>
	<path class="st0" d="M176.6,113.4h-5.3V39.3h4.5l0.4,8.1c2.9-5.8,8.3-9,14.5-9c9.4,0,16,7.7,16,20.6c0,13.3-7.5,21.1-18.5,21.1   c-4.6,0-8.5-1.3-11.6-3.6V113.4z M187.9,75.4c7.1,0,13.2-5.5,13.2-16.2c0-10.5-5-16-11-16c-5.6,0-10.6,3.2-13.4,11.4v16.5   C179.4,73.5,183.2,75.4,187.9,75.4z"/>
	<path class="st0" d="M217.8,6.6h5.3V47c3.2-5.6,7.9-8.6,14.1-8.6c9.5,0,14.2,6.1,14.2,16v24.9h-5.3V55.7c0-8.3-3.4-12.4-9.7-12.4   c-6.8,0-11.3,5.2-13.3,11.5v24.5h-5.3V6.6z"/>
	<path class="st0" d="M280.8,38.5c12,0,18.9,7.7,18.9,20.9s-6.9,20.9-18.9,20.9c-12,0-18.9-7.7-18.9-20.9S268.9,38.5,280.8,38.5z    M280.8,75.4c8.2,0,13.3-5.4,13.3-16.1s-5-16.1-13.3-16.1c-8.2,0-13.3,5.4-13.3,16.1S272.6,75.4,280.8,75.4z"/>
	<path class="st0" d="M310.9,39.3h4.5l0.4,8c3.3-6.1,8.4-8.9,14.5-8.9c9.5,0,14.2,6.1,14.2,16v24.9h-5.3V55.7   c0-8.3-3.4-12.4-9.7-12.4c-6.2,0-10.9,4.4-13.3,11.5v34h-5.3V39.3z"/>
	<path class="st0" d="M372.1,92.9c9.5,0,13.4-5,13.4-14.4v-7.7c-3.2,5.8-8.3,8.6-14.2,8.6c-9.4,0-14.2-6.1-14.2-16v-24h5.4v22.8   c0,8.3,3.4,12.4,9.6,12.4c6.3,0,11-4.4,13.4-11.5V39.3h5.3v39.2c0,12.1-5.3,19.2-18.6,19.2c-4.7,0-10.9-1.4-14.8-3.3l1.7-4.4   C363.3,91.8,368.1,92.9,372.1,92.9z"/>
	<path class="st0" d="M442.1,38.5c12,0,18.9,7.7,18.9,20.9s-6.9,20.9-18.9,20.9s-18.9-7.7-18.9-20.9S430.2,38.5,442.1,38.5z    M442.1,75.4c8.2,0,13.3-5.4,13.3-16.1s-5-16.1-13.3-16.1s-13.3,5.4-13.3,16.1S433.9,75.4,442.1,75.4z"/>
	<path class="st0" d="M474.6,43.6l-8.1-0.2v-4.1h8.1v-5.1c0-8.9,4.9-14.5,13.6-14.5c3.8,0,6.8,0.9,9.8,2.5l-1.8,4.3   c-2.4-1.3-4.6-2-7.4-2c-5.4,0-8.8,3.2-8.8,10.3v4.4h12.7l-0.9,4.3h-11.8v54.1h-5.3V43.6z"/>
	<path class="st0" d="M522.1,25.4h5.6v49h28l-0.9,5h-32.6V25.4z"/>
	<path class="st0" d="M567.1,43.6l-7.4-0.2v-4.1h12.7v40h-5.3V43.6z M566.1,26.1c0-2.1,1.7-3.6,3.7-3.6c2,0,3.7,1.5,3.7,3.6   s-1.7,3.7-3.7,3.7C567.8,29.7,566.1,28.1,566.1,26.1z"/>
	<path class="st0" d="M588.7,43.6l-8.1-0.2v-4.1h8.1v-5.1c0-8.9,4.9-14.5,13.6-14.5c3.8,0,6.8,0.9,9.8,2.5l-1.8,4.3   c-2.4-1.3-4.6-2-7.4-2c-5.4,0-8.8,3.2-8.8,10.3v4.4h12.7l-0.9,4.3H594v45.2h-5.3V43.6z"/>
	<path class="st0" d="M629.2,38.5c10.9,0,16.5,7.3,16.5,20.7l-0.4,0.9h-28.9c0.1,9.8,4.9,15.3,14.9,15.3c3.7,0,8.6-1.4,11.9-3.2   l1.6,4.4c-4,2.2-9.1,3.6-13.9,3.6c-13.9,0-20.2-8.6-20.2-20.9C610.7,46.2,617.9,38.5,629.2,38.5z M640.4,55.9   c-0.4-8.2-3.8-12.7-11.1-12.7c-7.2,0-12,4.4-12.8,12.7H640.4z"/>
</g>
</svg>