<?xml version="1.0" encoding="utf-8"?>
<!-- Generator: Adobe Illustrator 20.1.0, SVG Export Plug-In . SVG Version: 6.00 Build 0)  -->
<svg version="1.1" id="Layer_1" xmlns="http://www.w3.org/2000/svg" xmlns:xlink="http://www.w3.org/1999/xlink" x="0px" y="0px"
	 viewBox="0 0 227 163" style="enable-background:new 0 0 227 163;" xml:space="preserve">
<style type="text/css">
	.st0{fill:#FFFFFF;}
</style>
<g>
	<g>
		<path class="st0" d="M70.4,45.8h-8.6c-4.3,0-7.7,3.7-7.7,8v56.4c0,4.3,3.5,8,7.7,8h8.6c4.2,0,7.7-3.7,7.7-8V53.8
			C78.1,49.5,74.7,45.8,70.4,45.8 M74.7,110.2c0,2.6-1.8,4.5-4.3,4.5h-8.6c-2.6,0-4.3-2-4.3-4.5V53.8c0-2.5,1.7-4.5,4.3-4.5h8.6
			c2.6,0,4.3,2,4.3,4.5V110.2z"/>
		<polygon class="st0" points="146.4,45.8 146.4,49.2 157.7,49.2 157.7,118.1 161,118.1 161,49.2 172.2,49.2 172.2,45.8 		"/>
		<path class="st0" d="M211.4,77.6c-2.7-1.9-8.4-6-10.9-7.7c-2.8-1.9-4.3-2.8-4.3-7v-9.4c0-2.5,1.7-4.3,4.2-4.3h15.6v-3.4h-15.6
			c-5.7,0-7.7,2.5-7.7,7.7v10.3c0,3.4,1.4,5.8,5.3,8.3c3.4,2.4,7.1,5.1,10.4,7.5c2.8,2,4.2,3.1,4.2,6.5v24.3c0,2.6-1.2,4.3-4.2,4.3
			h-15.5v3.5h15.5c4.2,0,7.7-1.7,7.7-7.7V86.1C216,83.9,215.8,80.7,211.4,77.6"/>
		<path class="st0" d="M18.7,114.7c-2.5,0-4.2-1.9-4.3-4.4V45.8h-3.5v64.5h0c0.1,4.2,2.5,7.9,7.6,7.9v0h12.1v-3.5H18.7z"/>
		<path class="st0" d="M113.9,49.2h12.1v-3.4h-12.1c-5.5,0-7.7,3.5-7.7,7.7v9h-4.3V66h4.3v52.1h3.5V66h12.2v-3.5h-12.2h0v-9
			C109.6,51,111.3,49.2,113.9,49.2"/>
	</g>
	<g>
		<polygon class="st0" points="82.7,19.3 94.3,19.3 94.3,20.9 89.3,20.9 89.3,33.7 87.7,33.7 87.7,20.9 82.7,20.9 		"/>
		<polygon class="st0" points="108.5,19.3 110.3,19.3 110.3,25.6 117.5,25.6 117.5,19.3 119.2,19.3 119.2,33.7 117.5,33.7 
			117.5,27.2 110.3,27.2 110.3,33.7 108.5,33.7 		"/>
		<polygon class="st0" points="135,19.3 144.1,19.3 144.1,20.9 136.7,20.9 136.7,25.7 142.4,25.7 142.4,27.1 136.7,27.1 136.7,32.1 
			144.3,32.1 144.3,33.7 135,33.7 		"/>
	</g>
	<g>
		<g>
			<path class="st0" d="M56.7,139.3h1.6v1.4c0,0.7,0.6,1.4,1.4,1.4h4c0.8,0,1.4-0.6,1.4-1.4v-1.6c0-0.5-0.3-1.1-0.8-1.2l-5.9-1.8
				c-1-0.3-1.7-1.3-1.7-2.3v-1.9c0-1.5,1.2-2.7,2.7-2.7H64c1.5,0,2.7,1.2,2.7,2.7v1.7h-1.6v-1.4c0-0.7-0.6-1.4-1.4-1.4h-4
				c-0.8,0-1.4,0.6-1.4,1.4v1.5c0,0.5,0.3,1,0.8,1.2l5.9,1.9c1,0.3,1.7,1.3,1.7,2.3v2c0,1.4-1.2,2.7-2.7,2.7h-4.7
				c-1.5,0-2.7-1.2-2.7-2.7V139.3z"/>
			<path class="st0" d="M84.1,129.4h1.7v14h-1.7V129.4z"/>
			<path class="st0" d="M103.6,143.4v-14h1.7v12.4h7.3v1.5H103.6z"/>
			<path class="st0" d="M128.6,131.9c0-1.5,1.2-2.7,2.7-2.7h5.8c1.5,0,2.7,1.2,2.7,2.7v9.1c0,1.4-1.2,2.7-2.7,2.7h-5.8
				c-1.5,0-2.7-1.2-2.7-2.7V131.9z M131.7,142.1h5.1c0.8,0,1.4-0.6,1.4-1.4v-8.6c0-0.7-0.6-1.4-1.4-1.4h-5.1c-0.8,0-1.4,0.6-1.4,1.4
				v8.6C130.3,141.5,130.9,142.1,131.7,142.1z"/>
			<path class="st0" d="M157.2,129.4h1.2l5.4,11.3l5.4-11.3h1.2v14h-1.6v-9.5l-4.5,9.5h-0.9l-4.5-9.5v9.5h-1.6V129.4z"/>
		</g>
	</g>
</g>
</svg>
