<?xml version="1.0" standalone="no"?>
<!DOCTYPE svg PUBLIC "-//W3C//DTD SVG 1.1//EN" "http://www.w3.org/Graphics/SVG/1.1/DTD/svg11.dtd" >
<svg>
<metadata>
Created by FontForge 20090622 at Mon Aug 15 09:17:58 2016
 By deploy user
Copyright (c) 2013 by Ekaluck Peanpanawate. All rights reserved. EXCLUSIVE LICENSE to PACE Development Corporation Public Company Limited 87/2 CRC Tower, All Seasons Place 45th Floor Unit 3, Wireless Road, Lumpini, Pathumwan, Bangkok 10330 Thailand
</metadata>
<defs>
<font id="KaLaTeXaDisplayExtraBold" horiz-adv-x="0" >
  <font-face 
    font-family="KaLaTeXa Display ExtraBold"
    font-weight="800"
    font-stretch="normal"
    units-per-em="1000"
    panose-1="2 0 9 6 4 0 0 2 0 4"
    ascent="750"
    descent="-250"
    x-height="500"
    cap-height="684"
    bbox="-650 -545 4365 1098"
    underline-thickness="50"
    underline-position="0"
    unicode-range="U+000D-U+FB02"
  />
<missing-glyph horiz-adv-x="361" 
 />
    <glyph glyph-name="uni0E5A" unicode="&#xe2f;&#xe2f;" horiz-adv-x="578" 
d="M192 0h-89v123h89q53 0 73 20.5t20 80.5v150q-37 -54 -124 -54q-64 0 -99.5 38.5t-35.5 110.5v69h144v-64q0 -22 10.5 -29.5t32.5 -7.5q52 0 90 101h132v-301q0 -113 -57 -175t-186 -62zM500 0v538h151v-538h-151z" />
    <glyph glyph-name="uni0E4F.liga" unicode="&#xe4f;&#x22;" horiz-adv-x="625" 
d="M420 558h-60q-5 87 -5 149h74q0 -28 -2.5 -65t-4.5 -60zM260 558h-60q-9 87 -9 149h74zM554 272q0 -102 -73 -169.5t-170 -67.5q-100 0 -173 67.5t-73 169.5q0 105 73 172.5t173 67.5q98 0 170.5 -68t72.5 -172zM434 276q0 -51 -35.5 -86t-86.5 -35t-87.5 35t-36.5 86
q0 49 36.5 84t87.5 35t86.5 -34.5t35.5 -84.5zM485 273q0 73 -51.5 124t-124.5 51t-124 -51t-51 -124t51 -124.5t124 -51.5t124.5 51.5t51.5 124.5zM359 274q0 21 -14 34.5t-34 13.5q-21 0 -34.5 -13.5t-13.5 -34.5q0 -20 13.5 -34t34.5 -14q20 0 34 14t14 34z" />
    <glyph glyph-name="uni0E24.liga" unicode="&#xe24;&#xe32;" horiz-adv-x="880" 
d="M828 -195h-156v550q0 70 -60 70q-67 0 -67 -74v-546h-156v538q0 85 -93 85q-59 0 -91 -41l54 -33v-50q-32 -7 -32 -49v-126q0 -15 5.5 -20t18.5 -5h41v-104h-88q-133 0 -133 122v122q0 66 59 89l-82 40v43q32 46 99 87.5t149 41.5q106 0 168 -58q54 58 155 58
q108 0 158.5 -47.5t50.5 -142.5v-550z" />
    <glyph glyph-name="uni0E26.liga" unicode="&#xe26;&#xe32;" horiz-adv-x="900" 
d="M484 487q53 58 154 58q109 0 159.5 -47.5t50.5 -142.5v-550h-156v550q0 70 -60 70q-68 0 -68 -74v-546h-156v538q0 85 -88 85q-57 0 -87 -41l57 -33v-50q-31 -7 -31 -49v-133q0 -122 -133 -122h-75v104h28q13 0 18.5 5t5.5 20v115q0 67 58 89l-86 40v43q31 46 100 87.5
t151 41.5q98 0 158 -58z" />
    <glyph glyph-name="fi" unicode="fi" horiz-adv-x="615" 
d="M548 0h-148v403h-173v-403h-148v403h-79v97h79v63q0 76 41.5 115.5t122.5 39.5q42 0 108 -15v-104q-40 11 -70 11q-29 0 -41.5 -10.5t-12.5 -35.5v-64h321v-500zM548 565h-148v133h148v-133z" />
    <glyph glyph-name="fl" unicode="fl" horiz-adv-x="646" 
d="M227 0h-148v403h-79v97h79v63q0 76 41.5 115.5t122.5 39.5q42 0 108 -15v-104q-40 11 -70 11q-29 0 -41.5 -10.5t-12.5 -35.5v-64h98v-97h-98v-403zM548 721v-581q0 -31 11 -37.5t61 -6.5v-87q-39 -13 -91 -13q-67 0 -98 35.5t-31 121.5v568h148z" />
    <glyph glyph-name=".notdef" horiz-adv-x="361" 
 />
    <glyph glyph-name=".null" 
 />
    <glyph glyph-name=".null" 
 />
    <glyph glyph-name="nonmarkingreturn" unicode="&#xd;" horiz-adv-x="281" 
 />
    <glyph glyph-name="space" unicode=" " horiz-adv-x="286" 
 />
    <glyph glyph-name="exclam" unicode="!" horiz-adv-x="266" 
d="M182 224h-98l-26 340v120h151v-121zM208 0h-150v135h150v-135z" />
    <glyph glyph-name="quotedbl" unicode="&#x22;" horiz-adv-x="422" 
d="M168 451h-89q-17 124 -17 187v65h123v-65q0 -28 -4.5 -75t-8.5 -79zM343 451h-88q-17 124 -17 187v65h122v-65q0 -28 -4 -75t-8 -79z" />
    <glyph glyph-name="numbersign" unicode="#" horiz-adv-x="559" 
d="M396 0h-122l22 170h-93l-24 -170h-122l22 170h-60v91h73l20 148h-67v91h80l24 182h125l-26 -182h94l25 182h124l-26 -182h68v-91h-79l-21 -148h74v-91h-87zM309 261l20 148h-92l-21 -148h93z" />
    <glyph glyph-name="dollar" unicode="$" horiz-adv-x="594" 
d="M321 -116h-75v111q-91 9 -147 59.5t-56 148.5h104q4 -58 29 -83.5t70 -31.5v228q-34 12 -56.5 22t-50 27t-44 36.5t-28 48t-11.5 62.5q0 75 49.5 122.5t140.5 55.5v103h75v-104q81 -10 132 -59.5t51 -135.5h-102q0 88 -81 103v-198l61 -23t55 -27t50 -37t31.5 -48.5
t13.5 -64.5q0 -86 -55.5 -142t-155.5 -64v-109zM321 289v-202q47 6 73 34.5t26 66.5q0 35 -25.5 58t-73.5 43zM246 428v169q-38 -8 -59 -31t-21 -53q0 -53 80 -85z" />
    <glyph glyph-name="percent" unicode="%" horiz-adv-x="838" 
d="M208 339q-70 0 -114.5 44.5t-44.5 120.5t44.5 120.5t114.5 44.5t115 -44.5t45 -120.5t-44.5 -120.5t-115.5 -44.5zM208 433q29 0 45 19t16 52q0 35 -16 54t-45 19t-45.5 -19.5t-16.5 -53.5q0 -33 16.5 -52t45.5 -19zM270 -8h-93l396 688h96zM634 0q-70 0 -114 44t-44 120
q0 75 44.5 120.5t113.5 45.5q71 0 115.5 -45t44.5 -121t-44.5 -120t-115.5 -44zM634 92q29 0 46 19.5t17 52.5q0 35 -17 54.5t-46 19.5q-28 0 -44.5 -19.5t-16.5 -54.5q0 -32 16.5 -52t44.5 -20z" />
    <glyph glyph-name="ampersand" unicode="&#x26;" horiz-adv-x="682" 
d="M229 309q-80 -47 -80 -132q0 -43 34 -68t77 -25q60 0 109 38q-51 53 -140 187zM266 443q75 50 75 104q0 50 -49 50q-53 0 -53 -68q0 -41 27 -86zM611 90v-100q-63 2 -100.5 15.5t-72.5 45.5q-73 -59 -181 -59q-92 0 -155.5 48.5t-63.5 138.5q0 69 33 117.5t107 97.5
q-44 76 -44 142q0 77 42 117t115 40q69 0 111.5 -39.5t42.5 -108.5q0 -44 -19.5 -80t-41 -55t-63.5 -50q44 -75 114 -156q31 62 45 147l108 -21q-25 -122 -78 -201q43 -37 101 -39z" />
    <glyph glyph-name="quotesingle" unicode="'" horiz-adv-x="217" 
d="M148 451h-88q-17 124 -17 187v65h122v-65q0 -28 -4.5 -75t-8.5 -79z" />
    <glyph glyph-name="parenleft" unicode="(" horiz-adv-x="351" 
d="M322 -79h-118q-146 197 -146 414q0 215 146 412h118q-39 -52 -72 -170.5t-33 -241.5q0 -119 33.5 -241t71.5 -173z" />
    <glyph glyph-name="parenright" unicode=")" horiz-adv-x="351" 
d="M147 -79h-118q38 51 71.5 173t33.5 241q0 123 -33 241.5t-72 170.5h118q145 -195 145 -412q0 -219 -145 -414z" />
    <glyph glyph-name="asterisk" unicode="*" horiz-adv-x="558" 
d="M421 465l-86 -69l-66 136l-68 -134l-91 58l115 107l-161 26l35 101l138 -71l-24 157h109l-22 -157l135 73l33 -97l-160 -30z" />
    <glyph glyph-name="plus" unicode="+" horiz-adv-x="614" 
d="M369 23h-125v206h-205v119h205v206h125v-206h206v-119h-206v-206z" />
    <glyph glyph-name="comma" unicode="," horiz-adv-x="278" 
d="M122 -164h-66l18 28.5t29 61t18 74.5q-52 0 -52 60q0 32 17.5 48.5t46.5 16.5q63 0 63 -77q0 -48 -18.5 -101t-37.5 -82z" />
    <glyph glyph-name="hyphen" unicode="-" horiz-adv-x="435" 
d="M390 253h-345v97h345v-97z" />
    <glyph glyph-name="period" unicode="." horiz-adv-x="278" 
d="M200 62q0 -32 -18 -49.5t-49 -17.5t-49.5 18.5t-18.5 48.5q0 31 18.5 49.5t49.5 18.5t49 -18.5t18 -49.5z" />
    <glyph glyph-name="slash" unicode="/" horiz-adv-x="329" 
d="M355 684l-248 -684h-107l252 684h103z" />
    <glyph glyph-name="zero" unicode="0" horiz-adv-x="598" 
d="M299 110q120 0 120 227q0 236 -120 236t-120 -236q0 -227 120 -227zM299 -7q-137 0 -203.5 93.5t-66.5 250.5q0 165 66 259t204 94t204 -94t66 -259q0 -157 -66.5 -250.5t-203.5 -93.5z" />
    <glyph glyph-name="one" unicode="1" horiz-adv-x="598" 
d="M503 0h-403v110h129v427l-134 -34v107l197 74h88v-574h123v-110z" />
    <glyph glyph-name="two" unicode="2" horiz-adv-x="598" 
d="M532 0h-466v92l223 234q48 50 70.5 86t22.5 77q0 80 -73 80q-89 0 -89 -102h-154q0 105 64 165.5t179 60.5q108 0 165.5 -55.5t57.5 -148.5q0 -53 -30.5 -108.5t-77.5 -107t-148 -150.5h256v-123z" />
    <glyph glyph-name="three" unicode="3" horiz-adv-x="598" 
d="M292 298h-83v110h83q41 0 62.5 20.5t21.5 70.5q0 32 -20 52t-58 20q-84 0 -84 -91h-154q0 99 64.5 156.5t173.5 57.5q106 0 167 -52t61 -142q0 -105 -87 -137q104 -43 104 -156q0 -103 -62 -159t-181 -56q-120 0 -182.5 57t-62.5 169h154q0 -102 91 -102t91 87
q0 52 -25 73.5t-74 21.5z" />
    <glyph glyph-name="four" unicode="4" horiz-adv-x="598" 
d="M326 272v171l-125 -171h125zM476 0h-150v147h-297v92l312 445h135v-412h93v-125h-93v-147z" />
    <glyph glyph-name="five" unicode="5" horiz-adv-x="598" 
d="M513 555h-262l-4.5 -49.5t-4.5 -66.5q31 22 93 22q96 0 158 -59.5t62 -164.5q0 -115 -62.5 -180t-179.5 -65q-245 0 -245 200h153q0 -42 23 -59t69 -17q93 0 93 118q0 103 -88 103q-38 0 -63 -11t-48 -40l-121 14l28 377h399v-122z" />
    <glyph glyph-name="six" unicode="6" horiz-adv-x="598" 
d="M541 508h-152q-22 57 -72 57q-45 0 -77.5 -46t-35.5 -125q19 23 56.5 37.5t76.5 14.5q104 0 158.5 -62.5t54.5 -167.5q0 -94 -62.5 -158.5t-172.5 -64.5q-122 0 -194.5 88.5t-72.5 248.5q0 170 75.5 265t193.5 95q100 0 155.5 -44.5t68.5 -137.5zM315 116q38 0 59.5 27.5
t21.5 72.5q0 106 -79 106q-45 0 -68.5 -28t-23.5 -78q0 -46 23 -73t67 -27z" />
    <glyph glyph-name="seven" unicode="7" horiz-adv-x="598" 
d="M276 0h-163l248 555h-275v122h452v-84z" />
    <glyph glyph-name="eight" unicode="8" horiz-adv-x="598" 
d="M299 304q-95 -22 -95 -103q0 -85 95 -85t95 85q0 81 -95 103zM299 571q-38 0 -59.5 -20.5t-21.5 -51.5q0 -32 21.5 -56t58.5 -27q38 3 60 27t22 56q0 31 -21.5 51.5t-59.5 20.5zM299 -8q-116 0 -184 53t-68 153q0 117 114 166q-41 17 -69 57.5t-28 84.5q0 86 64.5 137
t170.5 51t170.5 -51t64.5 -137q0 -44 -28 -84.5t-69 -57.5q114 -49 114 -166q0 -99 -68.5 -152.5t-183.5 -53.5z" />
    <glyph glyph-name="nine" unicode="9" horiz-adv-x="598" 
d="M64 174h154q3 -36 18 -46.5t51 -10.5q43 0 69 42t30 114q-32 -36 -100 -36q-114 0 -172.5 64.5t-58.5 165.5q0 94 65.5 158.5t169.5 64.5q123 0 188 -83t65 -247q0 -178 -64.5 -272.5t-191.5 -94.5q-210 0 -223 181zM287 360q94 0 94 107q0 45 -23.5 72.5t-67.5 27.5
q-41 0 -63 -27.5t-22 -72.5q0 -107 82 -107z" />
    <glyph glyph-name="colon" unicode=":" horiz-adv-x="292" 
d="M209 390q0 -33 -18 -50.5t-49 -17.5t-49.5 19t-18.5 49t18.5 49t49.5 19q30 0 48.5 -19t18.5 -49zM209 94q0 -33 -18 -50.5t-49 -17.5t-49.5 18.5t-18.5 49.5q0 30 18.5 48.5t49.5 18.5t49 -18.5t18 -48.5z" />
    <glyph glyph-name="semicolon" unicode=";" horiz-adv-x="292" 
d="M122 -164h-66l18 28.5t29 61t18 74.5q-52 0 -52 60q0 32 18 48.5t47 16.5q31 0 50 -19.5t19 -57.5q0 -48 -20.5 -101t-40.5 -82zM203 390q0 -33 -18 -50.5t-50 -17.5q-30 0 -48.5 19t-18.5 49t18.5 49t48.5 19q31 0 49.5 -19t18.5 -49z" />
    <glyph glyph-name="less" unicode="&#x3c;" horiz-adv-x="632" 
d="M577 -20l-550 251v81l550 251v-104l-411 -187l411 -189v-103z" />
    <glyph glyph-name="equal" unicode="=" horiz-adv-x="520" 
d="M494 347h-468v107h468v-107zM494 116h-468v106h468v-106z" />
    <glyph glyph-name="greater" unicode="&#x3e;" horiz-adv-x="632" 
d="M577 231l-550 -251v103l410 189l-410 188v103l550 -251v-81z" />
    <glyph glyph-name="question" unicode="?" horiz-adv-x="461" 
d="M263 204h-98v61q0 40 25 76.5t55 60.5t55 55t25 60q0 41 -26 63.5t-65 22.5q-49 0 -76 -25.5t-27 -75.5h-99q0 93 56.5 142.5t148.5 49.5q90 0 141 -48t51 -130q0 -37 -17 -68t-41.5 -52l-49 -41.5t-41.5 -46.5t-17 -57v-47zM283 62q0 -32 -18 -49.5t-49 -17.5
t-49.5 18.5t-18.5 48.5q0 31 18.5 49.5t49.5 18.5t49 -18.5t18 -49.5z" />
    <glyph glyph-name="at" unicode="@" horiz-adv-x="900" 
d="M490 252v141q-13 3 -31 3q-28 0 -40 -27.5t-12 -92.5q0 -53 10 -75t31 -22q24 0 33 16.5t9 56.5zM542 146h-8q-10 -38 -40 -59.5t-73 -21.5q-170 0 -170 212q0 111 55.5 172.5t154.5 61.5q84 0 172 -44v-238q0 -38 27 -38q26 0 38 36t12 117q0 115 -65.5 180.5
t-184.5 65.5q-131 0 -208.5 -86.5t-77.5 -218.5q0 -143 73 -216.5t213 -73.5q44 0 100 7.5t90 15.5l34 8v-103q-82 -32 -224 -32q-204 0 -310 104t-106 288q0 182 117.5 296.5t297.5 114.5t279 -97t99 -254q0 -129 -46.5 -195t-136.5 -66q-41 0 -70 17.5t-42 46.5z" />
    <glyph glyph-name="A" unicode="A" horiz-adv-x="629" 
d="M463 0l-42 129h-214l-42 -129h-165l247 684h135l247 -684h-166zM259 290l-13 -39h136l-12 39q-55 175 -55 177q-2 -4 -56 -177z" />
    <glyph glyph-name="B" unicode="B" horiz-adv-x="585" 
d="M305 0h-256v684h263q109 0 163 -55.5t54 -135.5q0 -45 -24.5 -82.5t-63.5 -51.5q52 -11 83.5 -50.5t31.5 -95.5q0 -99 -62 -156t-189 -57zM203 404h84q40 0 63 22.5t23 63.5q0 31 -17.5 50.5t-51.5 19.5h-101v-156zM203 123h84q60 0 86 21t26 69q0 36 -22.5 56.5
t-65.5 20.5h-108v-167z" />
    <glyph glyph-name="C" unicode="C" horiz-adv-x="581" 
d="M417 205h148q0 -95 -65.5 -154.5t-171.5 -59.5q-144 0 -221.5 92.5t-77.5 272.5q0 163 82.5 251t216.5 88q108 0 172.5 -60t64.5 -157h-148q-10 93 -91 93q-64 0 -101 -52t-37 -163q0 -240 138 -240q81 0 91 89z" />
    <glyph glyph-name="D" unicode="D" horiz-adv-x="624" 
d="M204 122h56q79 0 126 59t47 160q0 105 -49 163t-125 58h-55v-440zM260 0h-211v684h210q151 0 240 -92.5t89 -250.5t-86.5 -249.5t-241.5 -91.5z" />
    <glyph glyph-name="E" unicode="E" horiz-adv-x="541" 
d="M494 0h-446v684h439v-122h-284v-162h268v-122h-268v-156h291v-122z" />
    <glyph glyph-name="F" unicode="F" horiz-adv-x="520" 
d="M203 0h-155v684h446v-122h-291v-160h255v-123h-255v-279z" />
    <glyph glyph-name="G" unicode="G" horiz-adv-x="643" 
d="M586 0h-105l-23 73q-29 -82 -158 -82q-132 0 -201.5 93.5t-69.5 258.5q0 166 88 259t222 93q121 0 186.5 -59t65.5 -158h-149q-2 20 -6.5 34t-14.5 29t-31 22.5t-52 7.5q-71 0 -112 -56t-41 -172q0 -105 38.5 -166t100.5 -61q56 0 83.5 29t27.5 72v35h-98v115h249v-367z
" />
    <glyph glyph-name="H" unicode="H" horiz-adv-x="642" 
d="M590 0h-155v281h-228v-281h-155v684h155v-281h228v281h155v-684z" />
    <glyph glyph-name="I" unicode="I" horiz-adv-x="351" 
d="M253 0h-156v684h156v-684z" />
    <glyph glyph-name="J" unicode="J" horiz-adv-x="545" 
d="M330 187v497h154v-497q0 -89 -62 -142.5t-172 -53.5q-102 0 -168 58.5t-66 166.5h146q0 -109 88 -109q34 0 57 21t23 59z" />
    <glyph glyph-name="K" unicode="K" horiz-adv-x="599" 
d="M597 0h-168l-194 269l-31 -17v-252h-155v684h155v-288l12 8l204 280h171l-244 -330q37 -60 124.5 -176.5t125.5 -177.5z" />
    <glyph glyph-name="L" unicode="L" horiz-adv-x="494" 
d="M481 0h-433v684h156v-562h277v-122z" />
    <glyph glyph-name="M" unicode="M" horiz-adv-x="754" 
d="M695 0h-156v390l-114 -204h-97l-114 201v-387h-156v684h145l174 -310l172 310h146v-684z" />
    <glyph glyph-name="N" unicode="N" horiz-adv-x="660" 
d="M602 0h-135l-254 378v-378h-155v684h130l260 -402v402h154v-684z" />
    <glyph glyph-name="O" unicode="O" horiz-adv-x="653" 
d="M328 116q73 0 105 54t32 168q0 122 -31.5 176.5t-105.5 54.5q-77 0 -109 -54t-32 -177q0 -114 32.5 -168t108.5 -54zM328 -8q-151 0 -224 91.5t-73 254.5q0 355 297 355q293 0 293 -355q0 -163 -71.5 -254.5t-221.5 -91.5z" />
    <glyph glyph-name="P" unicode="P" horiz-adv-x="585" 
d="M203 347h78q66 0 93.5 26.5t27.5 78.5q0 58 -24.5 84t-83.5 26h-91v-215zM203 0h-154v684h245q143 0 202.5 -57.5t59.5 -174.5q0 -227 -287 -227h-66v-225z" />
    <glyph glyph-name="Q" unicode="Q" horiz-adv-x="653" 
d="M521 -150h-152l-69 142q-129 7 -199 99.5t-70 246.5q0 356 297 356q293 0 293 -356q0 -263 -191 -329zM328 116q73 0 105 54t32 168q0 123 -31.5 178t-105.5 55q-77 0 -109 -55t-32 -178q0 -114 32.5 -168t108.5 -54z" />
    <glyph glyph-name="R" unicode="R" horiz-adv-x="602" 
d="M563 0h-174l-119 239h-67v-239h-154v684h249q258 0 258 -224q0 -76 -37 -126.5t-100 -70.5zM203 359h102q45 0 70 29t25 72q0 49 -26 75.5t-76 26.5h-95v-203z" />
    <glyph glyph-name="S" unicode="S" horiz-adv-x="588" 
d="M536 472h-149q0 56 -23.5 79.5t-68.5 23.5q-46 0 -70.5 -20t-24.5 -56q0 -30 36.5 -51t89 -36.5t104.5 -36t88.5 -63.5t36.5 -107q0 -95 -68.5 -154t-191.5 -59q-118 0 -190.5 56.5t-72.5 175.5h149q5 -65 29.5 -88.5t85.5 -23.5q49 0 76 24t27 59t-36.5 58.5t-88 39
t-103 36t-88 63t-36.5 106.5q0 91 66.5 142.5t181.5 51.5q103 0 172 -56t69 -164z" />
    <glyph glyph-name="T" unicode="T" horiz-adv-x="537" 
d="M346 0h-155v562h-185v122h524v-122h-184v-562z" />
    <glyph glyph-name="U" unicode="U" horiz-adv-x="651" 
d="M438 263v421h156v-421q0 -137 -67 -204t-207 -67q-142 0 -209.5 67t-67.5 204v421h156v-421q0 -79 28.5 -113t92.5 -34q62 0 90 35t28 112z" />
    <glyph glyph-name="V" unicode="V" horiz-adv-x="646" 
d="M394 0h-141l-247 684h166l153 -454l151 454h164z" />
    <glyph glyph-name="W" unicode="W" horiz-adv-x="920" 
d="M724 0h-148l-116 409l-117 -409h-147l-186 684h162l109 -398l112 398h133l115 -397l106 397h163z" />
    <glyph glyph-name="X" unicode="X" horiz-adv-x="640" 
d="M633 0h-181l-135 227l-130 -227h-181l215 348l-199 336h178l117 -213l117 213h180l-199 -337z" />
    <glyph glyph-name="Y" unicode="Y" horiz-adv-x="627" 
d="M390 0h-155v266l-229 418h171l138 -267l136 267h169l-230 -416v-268z" />
    <glyph glyph-name="Z" unicode="Z" horiz-adv-x="536" 
d="M507 0h-491v94l304 468h-288v122h476v-98l-301 -464h300v-122z" />
    <glyph glyph-name="bracketleft" unicode="[" horiz-adv-x="365" 
d="M330 -103h-272v858h272v-84h-129v-689h129v-85z" />
    <glyph glyph-name="backslash" unicode="\" horiz-adv-x="342" 
d="M373 0h-140l-259 684h138z" />
    <glyph glyph-name="bracketright" unicode="]" horiz-adv-x="365" 
d="M309 -103h-271v85h128v689h-128v84h271v-858z" />
    <glyph glyph-name="asciicircum" unicode="^" horiz-adv-x="616" 
d="M230 695h112l229 -439h-162l-123 256l-124 -256h-161z" />
    <glyph glyph-name="underscore" unicode="_" horiz-adv-x="617" 
d="M617 -182h-617v117h617v-117z" />
    <glyph glyph-name="grave" unicode="`" horiz-adv-x="292" 
d="M285 550h-149l-159 186h183z" />
    <glyph glyph-name="a" unicode="a" horiz-adv-x="565" 
d="M247 99q43 0 71 29.5t28 75.5h-95q-63 0 -63 -56q0 -26 14 -37.5t45 -11.5zM468 -4q-37 0 -69 21t-34 58q-17 -40 -56 -62t-91 -22q-85 0 -129.5 43t-44.5 115q0 71 50.5 111t156.5 40h97v34q0 77 -71 77q-77 0 -77 -76h-142q0 80 55.5 131t164.5 51q217 0 217 -189v-180
q0 -35 7.5 -43.5t38.5 -8.5v-87q-24 -13 -73 -13z" />
    <glyph glyph-name="b" unicode="b" horiz-adv-x="586" 
d="M195 0h-121v721h146v-274q38 64 128 64q97 0 151.5 -68.5t54.5 -192.5t-54 -192t-150 -68q-49 0 -85.5 21t-53.5 51zM304 97q99 0 99 153q0 154 -99 154q-88 0 -88 -154q0 -81 20.5 -117t67.5 -36z" />
    <glyph glyph-name="c" unicode="c" horiz-adv-x="541" 
d="M351 177h144q0 -84 -57.5 -135t-158.5 -51q-135 0 -192 68t-57 193q0 129 65 194t186 65q98 0 156 -48.5t58 -138.5h-141q0 80 -73 80q-55 0 -78.5 -34.5t-23.5 -117.5q0 -76 21.5 -114.5t78.5 -38.5q34 0 53 21.5t19 56.5z" />
    <glyph glyph-name="d" unicode="d" horiz-adv-x="599" 
d="M541 0h-121l-16 62q-43 -72 -139 -72q-97 0 -150.5 68t-53.5 192t54.5 192.5t150.5 68.5q47 0 80 -19t49 -45v274h146v-721zM311 97q47 0 67.5 36.5t20.5 116.5q0 154 -88 154q-99 0 -99 -154q0 -153 99 -153z" />
    <glyph glyph-name="e" unicode="e" horiz-adv-x="556" 
d="M500 217h-322q5 -118 100 -118q18 0 29.5 2t25.5 7.5t21 19.5t7 36h143q0 -91 -64.5 -132t-162.5 -41q-115 0 -180 67.5t-65 194.5t66.5 194.5t184.5 67.5q109 0 168.5 -61t59.5 -163q0 -41 -11 -74zM182 315h183q-2 44 -23.5 68.5t-60.5 24.5q-45 0 -70 -25t-29 -68z
" />
    <glyph glyph-name="f" unicode="f" horiz-adv-x="343" 
d="M227 0h-148v403h-79v97h79v63q0 76 41.5 115.5t122.5 39.5q42 0 108 -15v-104q-40 11 -70 11q-29 0 -41.5 -10.5t-12.5 -35.5v-64h98v-97h-98v-403z" />
    <glyph glyph-name="g" unicode="g" horiz-adv-x="565" 
d="M525 -62v-6q0 -81 -64 -128.5t-179 -47.5q-127 0 -185 43t-58 116v6q0 40 24 65.5t59 31.5q-23 7 -38.5 27t-15.5 54q0 36 19.5 58t46.5 29q-87 33 -87 139q0 89 61.5 137.5t165.5 48.5h265v-109h-32l-47 7q19 -10 30.5 -34.5t11.5 -49.5q0 -90 -61 -138t-167 -48h-50
q-33 0 -33 -27q0 -28 30 -28h134q170 0 170 -146zM274 406q-38 0 -60.5 -21.5t-22.5 -59.5t22.5 -58t60.5 -20q41 0 63 20t22 58q0 81 -85 81zM380 -65v4q0 38 -30 38h-133q-34 0 -34 -41v-4q0 -24 21.5 -43t77.5 -19q52 0 75 18.5t23 46.5z" />
    <glyph glyph-name="h" unicode="h" horiz-adv-x="616" 
d="M545 0h-149v321q0 79 -76 79q-63 0 -98 -62v-338h-148v721h148v-276q19 30 59 48t88 18q85 0 130.5 -50t45.5 -139v-322z" />
    <glyph glyph-name="i" unicode="i" horiz-adv-x="283" 
d="M216 0h-148v500h148v-500zM216 565h-148v133h148v-133z" />
    <glyph glyph-name="j" unicode="j" horiz-adv-x="295" 
d="M-60 -192v105q41 -5 79 -5q28 0 41 17.5t13 60.5v514h148v-512q0 -89 -51 -141t-138 -52q-51 0 -92 13zM221 565h-148v133h148v-133z" />
    <glyph glyph-name="k" unicode="k" horiz-adv-x="562" 
d="M562 0h-171l-141 212h-28v-212h-148v721h148v-395h22l134 174h174l-183 -226z" />
    <glyph glyph-name="l" unicode="l" horiz-adv-x="311" 
d="M213 721v-581q0 -31 11 -37.5t61 -6.5v-87q-39 -13 -91 -13q-67 0 -98 35.5t-31 121.5v568h148z" />
    <glyph glyph-name="m" unicode="m" horiz-adv-x="902" 
d="M831 0h-149v328q0 74 -63 74q-53 0 -83 -60v-342h-149v335q0 67 -70 67q-62 0 -91 -63v-339h-148v500h125l9 -57q20 34 61 51.5t90 17.5q89 0 128 -84q23 33 64 58.5t95 25.5q89 0 135 -46t46 -128v-338z" />
    <glyph glyph-name="n" unicode="n" horiz-adv-x="614" 
d="M542 0h-148v328q0 74 -78 74q-34 0 -61.5 -23t-34.5 -51v-328h-149v500h127l11 -66q56 78 151 78q88 0 135 -48.5t47 -130.5v-333z" />
    <glyph glyph-name="o" unicode="o" horiz-adv-x="562" 
d="M281 99q54 0 77 38t23 119q0 80 -23 118.5t-77 38.5t-77 -38.5t-23 -118.5q0 -81 23 -119t77 -38zM281 -9q-118 0 -183.5 68.5t-65.5 196.5t66 196.5t183 68.5t182.5 -68.5t65.5 -196.5t-65.5 -196.5t-182.5 -68.5z" />
    <glyph glyph-name="p" unicode="p" horiz-adv-x="599" 
d="M74 500h121l16 -62q43 73 139 73t150 -68.5t54 -191.5q0 -124 -54.5 -192.5t-151.5 -68.5q-45 0 -79 18.5t-49 44.5v-248h-146v695zM304 403q-47 0 -67.5 -36t-20.5 -116q0 -155 88 -155q99 0 99 155q0 152 -99 152z" />
    <glyph glyph-name="q" unicode="q" horiz-adv-x="597" 
d="M386 500h121v-695h-146v248q-16 -27 -49.5 -45t-78.5 -18q-97 0 -151.5 68.5t-54.5 192.5q0 123 54 191.5t150 68.5q49 0 85.5 -21.5t53.5 -51.5zM277 403q-99 0 -99 -152q0 -155 99 -155q88 0 88 155q0 80 -20.5 116t-67.5 36z" />
    <glyph glyph-name="r" unicode="r" horiz-adv-x="402" 
d="M220 0h-149v500h134l8 -74q15 28 26.5 42.5t37.5 26t65 11.5h52v-126q-75 6 -77 6q-97 0 -97 -129v-257z" />
    <glyph glyph-name="s" unicode="s" horiz-adv-x="507" 
d="M467 352h-143q-4 34 -22 47t-54 13q-22 0 -37 -12t-15 -32q0 -19 28.5 -32.5t69.5 -25t82 -27.5t69.5 -49.5t28.5 -81.5q0 -75 -59 -118t-159 -43q-111 0 -167.5 46t-56.5 129h149q4 -39 22.5 -52t53.5 -13q33 0 50 14t17 37t-28.5 38t-69 25t-81.5 24.5t-69.5 46.5
t-28.5 81q0 72 59 113t145 41q40 0 76 -8t68.5 -26t52 -52.5t19.5 -82.5z" />
    <glyph glyph-name="t" unicode="t" horiz-adv-x="412" 
d="M383 109v-101q-62 -17 -132 -17q-88 0 -125.5 33.5t-37.5 108.5v266h-84v101h87l21 132h125v-132h140v-101h-140v-256q0 -46 46 -46q22 0 100 12z" />
    <glyph glyph-name="u" unicode="u" horiz-adv-x="614" 
d="M536 0h-123l-10 65q-50 -74 -148 -74q-93 0 -141.5 47t-48.5 132v330h148v-325q0 -74 72 -74q40 0 66.5 22t35.5 55v322h149v-500z" />
    <glyph glyph-name="v" unicode="v" horiz-adv-x="524" 
d="M277 225l83 275h157l-186 -500h-137l-188 500h159l86 -275l12 -52h2q5 28 12 52z" />
    <glyph glyph-name="w" unicode="w" horiz-adv-x="737" 
d="M568 0h-121l-80 248l-81 -248h-121l-157 500h149l77 -274l79 274h111l78 -274l75 274h152z" />
    <glyph glyph-name="x" unicode="x" horiz-adv-x="529" 
d="M523 0h-172l-88 147l-88 -147h-169l169 251l-161 249h165l84 -148l84 148h168l-167 -249z" />
    <glyph glyph-name="y" unicode="y" horiz-adv-x="532" 
d="M291 272l76 228h157l-199 -510q-37 -98 -82.5 -136.5t-139.5 -38.5q-48 0 -90 11v109q37 -7 69 -7q41 0 63.5 22t45.5 89l-181 461h156l78 -228l24 -72q13 43 23 72z" />
    <glyph glyph-name="z" unicode="z" horiz-adv-x="478" 
d="M461 0h-451v74l247 316h-226v110h427v-72l-247 -318h250v-110z" />
    <glyph glyph-name="braceleft" unicode="{" horiz-adv-x="369" 
d="M330 -17v-84h-74q-81 0 -120 41.5t-39 103.5v148q0 52 -19.5 73t-61.5 26v74q42 6 61.5 27t19.5 71v148q0 62 39 104t120 42h74v-85h-51q-39 0 -39 -39v-156q0 -118 -93 -147v-4q93 -29 93 -148v-156q0 -39 39 -39h51z" />
    <glyph glyph-name="bar" unicode="|" horiz-adv-x="229" 
d="M186 -130h-143v828h143v-828z" />
    <glyph glyph-name="braceright" unicode="}" horiz-adv-x="369" 
d="M31 -101v84h51q39 0 39 39v156q0 118 93 148v4q-93 30 -93 147v156q0 39 -39 39h-51v85h74q81 0 120 -42t39 -104v-148q0 -50 19.5 -71t62.5 -27v-74q-43 -5 -62.5 -26t-19.5 -73v-148q0 -62 -39 -103.5t-120 -41.5h-74z" />
    <glyph glyph-name="asciitilde" unicode="~" horiz-adv-x="616" 
d="M452 370l100 -79q-14 -52 -63 -85.5t-109 -33.5q-65 0 -125 36q-44 21 -57 21q-33 0 -68 -86l-104 81q14 46 62 85t112 39q51 0 117 -33h-1q46 -24 64 -24q20 0 36.5 20t35.5 59z" />
    <glyph glyph-name="nbspace" unicode="&#xa0;" 
 />
    <glyph glyph-name="exclamdown" unicode="&#xa1;" horiz-adv-x="240" 
d="M-182 276h98l26 -340v-120h-151v121zM-208 500h150v-135h-150v135z" />
    <glyph glyph-name="cent" unicode="&#xa2;" horiz-adv-x="520" 
d="M143 -96h-55l52 118q-95 58 -95 230q0 129 60.5 194.5t172.5 65.5q37 0 77 -10l48 109h55l-58 -129q74 -43 74 -138h-100q0 27 -13 50l-139 -311q24 -9 55 -9q45 0 70.5 22.5t25.5 59.5h101q0 -75 -52 -120t-145 -45q-53 0 -90 12zM152 252q0 -96 30 -138l138 310
q-15 5 -42 5q-66 0 -96 -40.5t-30 -136.5z" />
    <glyph glyph-name="sterling" unicode="&#xa3;" horiz-adv-x="602" 
d="M420 205h145q0 -99 -56.5 -156.5t-157.5 -57.5q-121 0 -173 66q-41 -65 -166 -65v115q101 4 101 141q0 25 -4 42h-101v108h83q-10 37 -10 83q0 94 68.5 154t174.5 60q101 0 159 -52.5t58 -157.5h-142q-6 93 -77 93q-92 0 -92 -100q0 -19 14 -80h134v-108h-118
q1 -11 1 -30q0 -74 -19 -125q31 -25 84 -25q46 0 70 25.5t24 69.5z" />
    <glyph glyph-name="currency" unicode="&#xa4;" horiz-adv-x="550" 
d="M520 122l-68 -66l-50 51q-58 -41 -139 -41t-138 41l-54 -50l-65 65l51 51q-41 54 -41 140q0 80 41 139l-51 50l67 66l53 -52q56 42 137 42q79 0 137 -42l52 52l68 -66l-51 -50q42 -60 42 -139q0 -84 -42 -140zM263 153q63 0 107.5 47.5t44.5 112.5q0 63 -45 111t-107 48
t-106.5 -48t-44.5 -111q0 -66 44 -113t107 -47z" />
    <glyph glyph-name="yen" unicode="&#xa5;" horiz-adv-x="550" 
d="M338 0h-112v173h-140v67h140v25l-32 61h-120v69h83l-151 289h123l154 -311l154 311h122l-153 -289h81v-69h-118l-31 -60v-26h138v-67h-138v-173z" />
    <glyph glyph-name="brokenbar" unicode="&#xa6;" horiz-adv-x="220" 
d="M153 -9h-96v295h96v-295zM153 409h-96v296h96v-296z" />
    <glyph glyph-name="section" unicode="&#xa7;" horiz-adv-x="494" 
d="M26 160h101q0 -82 98 -82q39 0 59.5 17t20.5 45q0 30 -27.5 47t-67 25.5t-79.5 20.5t-67.5 43t-27.5 81q0 63 67 94q-69 35 -69 103q0 70 48.5 109t124.5 39q96 0 141 -38.5t45 -122.5h-102q0 74 -84 74q-33 0 -51 -14.5t-18 -41.5q0 -26 29 -40t70 -23t82.5 -22.5
t70.5 -47.5t29 -88q0 -57 -58 -98q48 -33 48 -97q0 -71 -50 -111.5t-138 -40.5q-195 0 -195 169zM194 419q-23 -5 -38.5 -20.5t-15.5 -35.5q0 -10 3 -18.5t11.5 -15t15 -11t21 -10t22.5 -8l26.5 -8t26.5 -7.5q50 20 50 50q0 15 -7.5 27t-16.5 19.5t-29 15.5t-31.5 11.5
t-37.5 10.5z" />
    <glyph glyph-name="dieresis" unicode="&#xa8;" horiz-adv-x="318" 
d="M108 581h-108v116h108v-116zM318 581h-106v116h106v-116z" />
    <glyph glyph-name="copyright" unicode="&#xa9;" horiz-adv-x="870" 
d="M749 342q0 -145 -103.5 -248t-249.5 -103t-249 102.5t-103 248.5q0 144 103 247t249 103t249.5 -103t103.5 -247zM396 48q123 0 205.5 84t82.5 210q0 123 -82.5 207.5t-205.5 84.5q-121 0 -203.5 -84.5t-82.5 -207.5q0 -126 82 -210t204 -84zM481 269h92
q-14 -63 -60.5 -99t-106.5 -36q-91 0 -146.5 59.5t-55.5 149.5t53 148t145 58q63 0 110 -36t60 -100h-91q-8 25 -29 39.5t-49 14.5q-53 0 -79 -34t-26 -90q0 -54 27.5 -90t80.5 -36q26 0 47 14t28 38z" />
    <glyph glyph-name="ordfeminine" unicode="&#xaa;" horiz-adv-x="354" 
d="M315 376h-69l-7 40q-18 -19 -46.5 -32.5t-56.5 -13.5q-44 0 -70.5 26t-26.5 69q0 29 12 48.5t27.5 29.5t45.5 15t48.5 5.5t54.5 0.5v29q0 17 -11.5 28t-30.5 11q-45 0 -89 -35l-47 49q66 59 139 59q63 0 95 -31.5t32 -89.5v-208zM227 471v33q-11 2 -41 2q-57 0 -57 -34
q0 -13 7.5 -21.5t19.5 -8.5q47 0 71 29z" />
    <glyph glyph-name="guillemotleft" unicode="&#xab;" horiz-adv-x="559" 
d="M512 70h-117l-126 189l127 183h117l-132 -182zM300 70h-119l-125 189l126 183h118l-130 -182z" />
    <glyph glyph-name="logicalnot" unicode="&#xac;" horiz-adv-x="593" 
d="M543 120h-96v180h-422v94h518v-274z" />
    <glyph glyph-name="registered" unicode="&#xae;" horiz-adv-x="870" 
d="M575 144h-102l-75 150h-37v-150h-92v393h156q137 0 137 -124q0 -44 -21.5 -72.5t-58.5 -38.5zM361 372h37q33 0 51.5 8.5t18.5 34.5q0 40 -53 40h-54v-83zM749 342q0 -145 -103.5 -248t-249.5 -103t-249 102.5t-103 248.5q0 144 103 247t249 103t249.5 -103t103.5 -247z
M396 48q123 0 205.5 84t82.5 210q0 123 -82.5 207.5t-205.5 84.5q-121 0 -203.5 -84.5t-82.5 -207.5q0 -126 82 -210t204 -84z" />
    <glyph glyph-name="overscore" unicode="&#xaf;" horiz-adv-x="381" 
d="M348 571h-316v83h316v-83z" />
    <glyph glyph-name="degree" unicode="&#xb0;" horiz-adv-x="395" 
d="M188 480q29 0 48 20t19 51q0 30 -19 51t-48 21q-30 0 -48.5 -20.5t-18.5 -51.5t18.5 -51t48.5 -20zM188 396q-66 0 -111 45t-45 110q0 64 45 109t111 45t110.5 -45t44.5 -109q0 -65 -44.5 -110t-110.5 -45z" />
    <glyph glyph-name="plusminus" unicode="&#xb1;" horiz-adv-x="571" 
d="M545 281h-211v-168h-97v168h-211v91h211v166h97v-166h211v-91zM545 0h-519v91h519v-91z" />
    <glyph glyph-name="twosuperior" unicode="&#xb2;" horiz-adv-x="390" 
d="M351 256h-309v75l53.5 36l52.5 35t43 32t37 35.5t21.5 36.5t9.5 43q0 27 -16.5 44t-43.5 17q-74 0 -74 -68h-86q0 73 47 111.5t110 38.5q70 0 112.5 -39t42.5 -106q0 -24 -5 -44.5t-17 -38.5t-22.5 -31t-29.5 -27.5t-30 -22l-33 -21.5t-29 -18h166v-88z" />
    <glyph glyph-name="threesuperior" unicode="&#xb3;" horiz-adv-x="390" 
d="M198 439h-42v73h34q36 0 49.5 15t13.5 45q0 18 -15.5 29t-39.5 11q-40 0 -54.5 -16.5t-17.5 -50.5h-83q0 68 43 107.5t110 39.5q61 0 106.5 -31t45.5 -88q0 -70 -61 -88q35 -8 54.5 -34.5t19.5 -63.5q0 -62 -48 -98.5t-122 -36.5q-66 0 -114 36.5t-48 107.5h93
q0 -35 18 -50.5t55 -15.5q32 0 50 16t18 40q0 28 -14 40.5t-51 12.5z" />
    <glyph glyph-name="acute" unicode="&#xb4;" horiz-adv-x="281" 
d="M136 575h-100l106 163h130z" />
    <glyph glyph-name="mu" unicode="&#xb5;" horiz-adv-x="614" 
d="M65 -166v666h148v-332q4 -67 72 -67q40 0 66.5 22t35.5 55v322h149v-500h-123l-10 65q-40 -74 -122 -74q-41 0 -68 18v-175h-148z" />
    <glyph glyph-name="paragraph" unicode="&#xb6;" horiz-adv-x="559" 
d="M472 -130h-94v814h94v-814zM294 684v-814h-94v424q-81 7 -134 62t-53 129q0 96 59 147.5t166 51.5h56z" />
    <glyph glyph-name="middot" unicode="&#xb7;" horiz-adv-x="274" 
d="M200 257q0 -28 -20.5 -47.5t-48.5 -19.5q-27 0 -48.5 20t-21.5 47t21.5 47t48.5 20q28 0 48.5 -19.5t20.5 -47.5z" />
    <glyph glyph-name="cedilla" unicode="&#xb8;" horiz-adv-x="220" 
d="M9 -169l13 86q26 -15 55 -15q15 0 21.5 6t6.5 22q0 18 -7.5 42t-15.5 39l-8 15h96q43 -68 43 -116q0 -45 -29 -72t-88 -27q-19 0 -47 6.5t-40 13.5z" />
    <glyph glyph-name="onesuperior" unicode="&#xb9;" horiz-adv-x="325" 
d="M231 281h-93v333l-99 -23v71l127 43h65v-424z" />
    <glyph glyph-name="ordmasculine" unicode="&#xba;" horiz-adv-x="341" 
d="M172 446q53 0 53 88q0 89 -53 89q-56 0 -56 -89q0 -88 56 -88zM172 370q-71 0 -108.5 44.5t-37.5 119.5q0 76 37.5 120t108.5 44q68 0 105.5 -44.5t37.5 -119.5t-37.5 -119.5t-105.5 -44.5z" />
    <glyph glyph-name="guillemotright" unicode="&#xbb;" horiz-adv-x="559" 
d="M174 70h-117l131 190l-132 182h117l127 -183zM389 70h-120l130 190l-130 182h118l126 -183z" />
    <glyph glyph-name="onequarter" unicode="&#xbc;" horiz-adv-x="884" 
d="M640 175v114l-95 -114h95zM738 0h-98v91h-198v75l196 251h100v-242h61v-84h-61v-91zM260 -10h-96l417 715h96zM231 281h-93v333l-99 -23v71l127 43h65v-424z" />
    <glyph glyph-name="onehalf" unicode="&#xbd;" horiz-adv-x="931" 
d="M269 -10h-96l417 715h96zM257 281h-93v333l-99 -23v71l127 43h65v-424zM846 0h-309v75q17 12 62.5 42t63.5 43.5t44.5 37.5t36.5 46t10 48q0 28 -16 45t-44 17q-74 0 -74 -68h-86q0 73 47 111t111 38q70 0 112 -38.5t42 -105.5q0 -24 -5 -44.5t-17 -38.5t-22.5 -31
t-29.5 -27.5t-30 -22l-33 -21.5t-29 -18h166v-88z" />
    <glyph glyph-name="threequarters" unicode="&#xbe;" horiz-adv-x="962" 
d="M718 175v114l-95 -114h95zM816 0h-98v91h-197v75l195 251h100v-242h61v-84h-61v-91zM338 -10h-96l417 715h96zM198 439h-42v73h34q36 0 49.5 15t13.5 45q0 18 -15.5 29t-39.5 11q-40 0 -54.5 -16.5t-17.5 -50.5h-83q0 68 43 107.5t110 39.5q61 0 106.5 -31t45.5 -88
q0 -70 -61 -88q35 -8 54.5 -34.5t19.5 -63.5q0 -62 -48 -98.5t-122 -36.5q-66 0 -114 36.5t-48 107.5h93q0 -35 18 -50.5t55 -15.5q32 0 50 16t18 40q0 28 -14 40.5t-51 12.5z" />
    <glyph glyph-name="questiondown" unicode="&#xbf;" horiz-adv-x="461" 
d="M198 304h98v-61q0 -40 -25 -76.5t-55 -60.5t-55 -55t-25 -60q0 -41 26 -63.5t65 -22.5q49 0 76 25.5t27 75.5h99q0 -93 -56.5 -142.5t-148.5 -49.5q-90 0 -141 48t-51 130q0 37 17 68t41.5 52l49 41.5t41.5 46.5t17 57v47zM178 446q0 32 18 49.5t49 17.5t49.5 -18.5
t18.5 -48.5q0 -31 -18.5 -49.5t-49.5 -18.5t-49 18.5t-18 49.5z" />
    <glyph glyph-name="Agrave" unicode="&#xc0;" horiz-adv-x="606" 
d="M456 0l-42 129h-214l-42 -129h-165l247 684h135l247 -684h-166zM252 290l-13 -39h136l-12 39q-55 175 -55 177q-2 -4 -56 -177zM444 733h-149l-159 186h183z" />
    <glyph glyph-name="Aacute" unicode="&#xc1;" horiz-adv-x="606" 
d="M456 0l-42 129h-214l-42 -129h-165l247 684h135l247 -684h-166zM252 290l-13 -39h136l-12 39q-55 175 -55 177q-2 -4 -56 -177zM297 758h-100l106 163h130z" />
    <glyph glyph-name="Acircumflex" unicode="&#xc2;" horiz-adv-x="606" 
d="M456 0l-42 129h-214l-42 -129h-165l247 684h135l247 -684h-166zM252 290l-13 -39h136l-12 39q-55 175 -55 177q-2 -4 -56 -177zM479 754h-114l-61 74l-62 -74h-116l143 154h69z" />
    <glyph glyph-name="Atilde" unicode="&#xc3;" horiz-adv-x="606" 
d="M456 0l-42 129h-214l-42 -129h-165l247 684h135l247 -684h-166zM252 290l-13 -39h136l-12 39q-55 175 -55 177q-2 -4 -56 -177zM403 889h75q0 -60 -24 -95.5t-72 -35.5q-29 0 -74.5 20.5t-66.5 20.5q-37 0 -37 -45h-77q1 58 27 94.5t80 36.5q26 0 70.5 -20t64.5 -20
q31 0 34 44z" />
    <glyph glyph-name="Adieresis" unicode="&#xc4;" horiz-adv-x="606" 
d="M456 0l-42 129h-214l-42 -129h-165l247 684h135l247 -684h-166zM252 290l-13 -39h136l-12 39q-55 175 -55 177q-2 -4 -56 -177zM251 764h-108v116h108v-116zM461 764h-106v116h106v-116z" />
    <glyph glyph-name="Aring" unicode="&#xc5;" horiz-adv-x="630" 
d="M456 0l-42 129h-214l-42 -129h-165l247 684h135l247 -684h-166zM252 290l-13 -39h136l-12 39q-55 175 -55 177q-2 -4 -56 -177zM347 848q0 42 -39 42t-39 -42q0 -41 39 -41t39 41zM430 848q0 -56 -32.5 -87.5t-89.5 -31.5q-58 0 -90.5 31.5t-32.5 87.5q0 57 32.5 88.5
t90.5 31.5q57 0 89.5 -31.5t32.5 -88.5z" />
    <glyph glyph-name="AE" unicode="&#xc6;" horiz-adv-x="952" 
d="M905 0h-446v129h-222l-72 -129h-165l377 684h521v-122h-284v-162h267v-122h-267v-156h291v-122zM389 403l-85 -152h155v309q-37 -96 -70 -157z" />
    <glyph glyph-name="Ccedilla" unicode="&#xc7;" horiz-adv-x="581" 
d="M417 205h148q0 -95 -65.5 -154.5t-171.5 -59.5q-144 0 -221.5 92.5t-77.5 272.5q0 163 82.5 251t216.5 88q108 0 172.5 -60t64.5 -157h-148q-10 93 -91 93q-64 0 -101 -52t-37 -163q0 -240 138 -240q81 0 91 89zM195 -169l13 86q26 -15 55 -15q15 0 21.5 6t6.5 22
q0 18 -7.5 42t-15.5 39l-8 15h96q43 -68 43 -116q0 -45 -29 -72t-88 -27q-19 0 -47 6.5t-40 13.5z" />
    <glyph glyph-name="Egrave" unicode="&#xc8;" horiz-adv-x="520" 
d="M494 0h-446v684h439v-122h-284v-162h268v-122h-268v-156h291v-122zM394 733h-149l-159 186h183z" />
    <glyph glyph-name="Eacute" unicode="&#xc9;" horiz-adv-x="520" 
d="M494 0h-446v684h439v-122h-284v-162h268v-122h-268v-156h291v-122zM248 758h-100l106 163h130z" />
    <glyph glyph-name="Ecircumflex" unicode="&#xca;" horiz-adv-x="520" 
d="M494 0h-446v684h439v-122h-284v-162h268v-122h-268v-156h291v-122zM438 754h-114l-61 74l-62 -74h-116l143 154h69z" />
    <glyph glyph-name="Edieresis" unicode="&#xcb;" horiz-adv-x="520" 
d="M494 0h-446v684h439v-122h-284v-162h268v-122h-268v-156h291v-122zM215 764h-108v116h108v-116zM425 764h-106v116h106v-116z" />
    <glyph glyph-name="Igrave" unicode="&#xcc;" horiz-adv-x="394" 
d="M276 0h-156v684h156v-684zM295 733h-149l-159 186h183z" />
    <glyph glyph-name="Iacute" unicode="&#xcd;" horiz-adv-x="394" 
d="M276 0h-156v684h156v-684zM245 758h-100l106 163h130z" />
    <glyph glyph-name="Icircumflex" unicode="&#xce;" horiz-adv-x="394" 
d="M276 0h-156v684h156v-684zM374 754h-114l-61 74l-62 -74h-116l143 154h69z" />
    <glyph glyph-name="Idieresis" unicode="&#xcf;" horiz-adv-x="394" 
d="M276 0h-156v684h156v-684zM146 764h-108v116h108v-116zM356 764h-106v116h106v-116z" />
    <glyph glyph-name="Eth" unicode="&#xd0;" horiz-adv-x="693" 
d="M357 294h-344v93h344v-93zM256 122h56q79 0 126 59t47 160q0 105 -49 163t-125 58h-55v-440zM312 0h-211v684h210q151 0 240 -92.5t89 -250.5t-86.5 -249.5t-241.5 -91.5z" />
    <glyph glyph-name="Ntilde" unicode="&#xd1;" horiz-adv-x="619" 
d="M593 0h-135l-254 378v-378h-155v684h130l260 -402v402h154v-684zM410 889h75q0 -60 -24 -95.5t-72 -35.5q-29 0 -74.5 20.5t-66.5 20.5q-37 0 -37 -45h-77q1 58 27 94.5t80 36.5q26 0 70.5 -20t64.5 -20q31 0 34 44z" />
    <glyph glyph-name="Ograve" unicode="&#xd2;" horiz-adv-x="627" 
d="M327 116q73 0 105 54t32 168q0 122 -31.5 176.5t-105.5 54.5q-77 0 -109 -54t-32 -177q0 -114 32.5 -168t108.5 -54zM327 -8q-151 0 -224 91.5t-73 254.5q0 355 297 355q293 0 293 -355q0 -163 -71.5 -254.5t-221.5 -91.5zM402 733h-149l-159 186h183z" />
    <glyph glyph-name="Oacute" unicode="&#xd3;" horiz-adv-x="627" 
d="M327 116q73 0 105 54t32 168q0 122 -31.5 176.5t-105.5 54.5q-77 0 -109 -54t-32 -177q0 -114 32.5 -168t108.5 -54zM327 -8q-151 0 -224 91.5t-73 254.5q0 355 297 355q293 0 293 -355q0 -163 -71.5 -254.5t-221.5 -91.5zM308 758h-100l106 163h130z" />
    <glyph glyph-name="Ocircumflex" unicode="&#xd4;" horiz-adv-x="627" 
d="M327 116q73 0 105 54t32 168q0 122 -31.5 176.5t-105.5 54.5q-77 0 -109 -54t-32 -177q0 -114 32.5 -168t108.5 -54zM327 -8q-151 0 -224 91.5t-73 254.5q0 355 297 355q293 0 293 -355q0 -163 -71.5 -254.5t-221.5 -91.5zM488 754h-114l-61 74l-62 -74h-116l143 154h69z
" />
    <glyph glyph-name="Otilde" unicode="&#xd5;" horiz-adv-x="627" 
d="M327 116q73 0 105 54t32 168q0 122 -31.5 176.5t-105.5 54.5q-77 0 -109 -54t-32 -177q0 -114 32.5 -168t108.5 -54zM327 -8q-151 0 -224 91.5t-73 254.5q0 355 297 355q293 0 293 -355q0 -163 -71.5 -254.5t-221.5 -91.5zM412 889h75q0 -60 -24 -95.5t-72 -35.5
q-29 0 -74.5 20.5t-66.5 20.5q-37 0 -37 -45h-77q1 58 27 94.5t80 36.5q26 0 70.5 -20t64.5 -20q31 0 34 44z" />
    <glyph glyph-name="Odieresis" unicode="&#xd6;" horiz-adv-x="627" 
d="M327 116q73 0 105 54t32 168q0 122 -31.5 176.5t-105.5 54.5q-77 0 -109 -54t-32 -177q0 -114 32.5 -168t108.5 -54zM327 -8q-151 0 -224 91.5t-73 254.5q0 355 297 355q293 0 293 -355q0 -163 -71.5 -254.5t-221.5 -91.5zM261 764h-108v116h108v-116zM471 764h-106v116
h106v-116z" />
    <glyph glyph-name="multiply" unicode="&#xd7;" horiz-adv-x="499" 
d="M408 -10l-169 169l-169 -169l-61 59l169 169l-169 171l61 61l169 -171l169 171l60 -61l-169 -171l169 -169z" />
    <glyph glyph-name="Oslash" unicode="&#xd8;" horiz-adv-x="653" 
d="M582 723l-412 -762h-87l416 762h83zM328 116q73 0 105 54t32 168q0 122 -31.5 176.5t-105.5 54.5q-77 0 -109 -54t-32 -177q0 -114 32.5 -168t108.5 -54zM328 -8q-151 0 -224 91.5t-73 254.5q0 355 297 355q293 0 293 -355q0 -163 -71.5 -254.5t-221.5 -91.5z" />
    <glyph glyph-name="Ugrave" unicode="&#xd9;" horiz-adv-x="627" 
d="M438 263v421h156v-421q0 -137 -67 -204t-207 -67q-142 0 -209.5 67t-67.5 204v421h156v-421q0 -79 28.5 -113t92.5 -34q62 0 90 35t28 112zM389 733h-149l-159 186h183z" />
    <glyph glyph-name="Uacute" unicode="&#xda;" horiz-adv-x="627" 
d="M438 263v421h156v-421q0 -137 -67 -204t-207 -67q-142 0 -209.5 67t-67.5 204v421h156v-421q0 -79 28.5 -113t92.5 -34q62 0 90 35t28 112zM347 758h-100l106 163h130z" />
    <glyph glyph-name="Ucircumflex" unicode="&#xdb;" horiz-adv-x="627" 
d="M438 263v421h156v-421q0 -137 -67 -204t-207 -67q-142 0 -209.5 67t-67.5 204v421h156v-421q0 -79 28.5 -113t92.5 -34q62 0 90 35t28 112zM490 754h-114l-61 74l-62 -74h-116l143 154h69z" />
    <glyph glyph-name="Udieresis" unicode="&#xdc;" horiz-adv-x="627" 
d="M438 263v421h156v-421q0 -137 -67 -204t-207 -67q-142 0 -209.5 67t-67.5 204v421h156v-421q0 -79 28.5 -113t92.5 -34q62 0 90 35t28 112zM264 764h-108v116h108v-116zM474 764h-106v116h106v-116z" />
    <glyph glyph-name="Yacute" unicode="&#xdd;" horiz-adv-x="565" 
d="M364 0h-155v266l-229 418h171l138 -267l136 267h169l-230 -416v-268zM330 758h-100l106 163h130z" />
    <glyph glyph-name="Thorn" unicode="&#xde;" horiz-adv-x="585" 
d="M203 247h67q134 0 134 109q0 56 -29.5 79t-91.5 23h-80v-211zM203 0h-154v684h154v-104h80q143 0 209.5 -56t66.5 -168q0 -107 -70.5 -169t-219.5 -62h-66v-125z" />
    <glyph glyph-name="germandbls" unicode="&#xdf;" horiz-adv-x="572" 
d="M295 610q-52 0 -70 -26.5t-18 -89.5v-494h-149v493q0 105 62.5 165t173.5 60q106 0 167.5 -54.5t61.5 -150.5q0 -107 -93 -143q57 -13 88.5 -56t31.5 -106q0 -110 -46 -163t-160 -53q-64 0 -115 21l31 113q23 -10 64 -10q38 0 56 22.5t18 73.5q0 41 -26 64.5t-76 23.5
h-31v104q60 6 83.5 30.5t23.5 77.5q0 98 -77 98z" />
    <glyph glyph-name="agrave" unicode="&#xe0;" horiz-adv-x="543" 
d="M247 99q43 0 71 29.5t28 75.5h-95q-63 0 -63 -56q0 -26 14 -37.5t45 -11.5zM468 -4q-37 0 -69 21t-34 58q-17 -40 -56 -62t-91 -22q-85 0 -129.5 43t-44.5 115q0 71 50.5 111t156.5 40h97v34q0 77 -71 77q-77 0 -77 -76h-142q0 80 55.5 131t164.5 51q217 0 217 -189v-180
q0 -35 7.5 -43.5t38.5 -8.5v-87q-24 -13 -73 -13zM369 550h-149l-159 186h183z" />
    <glyph glyph-name="aacute" unicode="&#xe1;" horiz-adv-x="543" 
d="M247 99q43 0 71 29.5t28 75.5h-95q-63 0 -63 -56q0 -26 14 -37.5t45 -11.5zM468 -4q-37 0 -69 21t-34 58q-17 -40 -56 -62t-91 -22q-85 0 -129.5 43t-44.5 115q0 71 50.5 111t156.5 40h97v34q0 77 -71 77q-77 0 -77 -76h-142q0 80 55.5 131t164.5 51q217 0 217 -189v-180
q0 -35 7.5 -43.5t38.5 -8.5v-87q-24 -13 -73 -13zM315 575h-100l106 163h130z" />
    <glyph glyph-name="acircumflex" unicode="&#xe2;" horiz-adv-x="543" 
d="M247 99q43 0 71 29.5t28 75.5h-95q-63 0 -63 -56q0 -26 14 -37.5t45 -11.5zM468 -4q-37 0 -69 21t-34 58q-17 -40 -56 -62t-91 -22q-85 0 -129.5 43t-44.5 115q0 71 50.5 111t156.5 40h97v34q0 77 -71 77q-77 0 -77 -76h-142q0 80 55.5 131t164.5 51q217 0 217 -189v-180
q0 -35 7.5 -43.5t38.5 -8.5v-87q-24 -13 -73 -13zM456 571h-114l-61 74l-62 -74h-116l143 154h69z" />
    <glyph glyph-name="atilde" unicode="&#xe3;" horiz-adv-x="543" 
d="M247 99q43 0 71 29.5t28 75.5h-95q-63 0 -63 -56q0 -26 14 -37.5t45 -11.5zM468 -4q-37 0 -69 21t-34 58q-17 -40 -56 -62t-91 -22q-85 0 -129.5 43t-44.5 115q0 71 50.5 111t156.5 40h97v34q0 77 -71 77q-77 0 -77 -76h-142q0 80 55.5 131t164.5 51q217 0 217 -189v-180
q0 -35 7.5 -43.5t38.5 -8.5v-87q-24 -13 -73 -13zM367 706h75q0 -60 -24 -95.5t-72 -35.5q-29 0 -74.5 20.5t-66.5 20.5q-37 0 -37 -45h-77q1 58 27 94.5t80 36.5q26 0 70.5 -20t64.5 -20q31 0 34 44z" />
    <glyph glyph-name="adieresis" unicode="&#xe4;" horiz-adv-x="543" 
d="M247 99q43 0 71 29.5t28 75.5h-95q-63 0 -63 -56q0 -26 14 -37.5t45 -11.5zM468 -4q-37 0 -69 21t-34 58q-17 -40 -56 -62t-91 -22q-85 0 -129.5 43t-44.5 115q0 71 50.5 111t156.5 40h97v34q0 77 -71 77q-77 0 -77 -76h-142q0 80 55.5 131t164.5 51q217 0 217 -189v-180
q0 -35 7.5 -43.5t38.5 -8.5v-87q-24 -13 -73 -13zM226 581h-108v116h108v-116zM436 581h-106v116h106v-116z" />
    <glyph glyph-name="aring" unicode="&#xe5;" horiz-adv-x="543" 
d="M247 99q43 0 71 29.5t28 75.5h-95q-63 0 -63 -56q0 -26 14 -37.5t45 -11.5zM468 -4q-37 0 -69 21t-34 58q-17 -40 -56 -62t-91 -22q-85 0 -129.5 43t-44.5 115q0 71 50.5 111t156.5 40h97v34q0 77 -71 77q-77 0 -77 -76h-142q0 80 55.5 131t164.5 51q217 0 217 -189v-180
q0 -35 7.5 -43.5t38.5 -8.5v-87q-24 -13 -73 -13zM319 695q0 42 -39 42t-39 -42q0 -41 39 -41t39 41zM402 695q0 -56 -32.5 -87.5t-89.5 -31.5q-58 0 -90.5 31.5t-32.5 87.5q0 57 32.5 88.5t90.5 31.5q57 0 89.5 -31.5t32.5 -88.5z" />
    <glyph glyph-name="ae" unicode="&#xe6;" horiz-adv-x="848" 
d="M792 217h-323q5 -118 100 -118q14 0 23.5 1t22 4.5t20 10t13 19t5.5 30.5h143q0 -62 -33.5 -102t-82.5 -55.5t-112 -15.5q-108 0 -174 66q-71 -66 -176 -66q-85 0 -129.5 43t-44.5 115q0 71 50.5 111t156.5 40h75q5 39 16 69q-15 42 -65 42q-77 0 -77 -76h-142
q0 81 52.5 131.5t161.5 50.5q96 0 141 -49q64 47 162 47q109 0 168 -61t59 -163q0 -38 -10 -74zM473 315h183q-2 44 -23.5 68.5t-60.5 24.5q-45 0 -70 -25.5t-29 -67.5zM247 99q32 0 56 15t32 41q-6 23 -9 49h-75q-63 0 -63 -56q0 -26 14 -37.5t45 -11.5z" />
    <glyph glyph-name="ccedilla" unicode="&#xe7;" horiz-adv-x="520" 
d="M351 177h144q0 -84 -57.5 -135t-158.5 -51q-135 0 -192 68t-57 193q0 129 65 194t186 65q98 0 156 -48.5t58 -138.5h-141q0 80 -73 80q-55 0 -78.5 -34.5t-23.5 -117.5q0 -76 21.5 -114.5t78.5 -38.5q34 0 53 21.5t19 56.5zM185 -163l13 67q26 -15 50 -15q38 0 38 34
q0 18 -8 44t-16 43l-7 16h75q17 -22 30.5 -55.5t13.5 -60.5q0 -41 -28.5 -66.5t-81.5 -25.5q-50 0 -79 19z" />
    <glyph glyph-name="egrave" unicode="&#xe8;" horiz-adv-x="536" 
d="M500 217h-322q5 -118 100 -118q18 0 29.5 2t25.5 7.5t21 19.5t7 36h143q0 -91 -64.5 -132t-162.5 -41q-115 0 -180 67.5t-65 194.5t66.5 194.5t184.5 67.5q109 0 168.5 -61t59.5 -163q0 -41 -11 -74zM182 315h183q-2 44 -23.5 68.5t-60.5 24.5q-45 0 -70 -25t-29 -68z
M384 550h-149l-159 186h183z" />
    <glyph glyph-name="eacute" unicode="&#xe9;" horiz-adv-x="536" 
d="M500 217h-322q5 -118 100 -118q18 0 29.5 2t25.5 7.5t21 19.5t7 36h143q0 -91 -64.5 -132t-162.5 -41q-115 0 -180 67.5t-65 194.5t66.5 194.5t184.5 67.5q109 0 168.5 -61t59.5 -163q0 -41 -11 -74zM182 315h183q-2 44 -23.5 68.5t-60.5 24.5q-45 0 -70 -25t-29 -68z
M317 575h-100l106 163h130z" />
    <glyph glyph-name="ecircumflex" unicode="&#xea;" horiz-adv-x="536" 
d="M500 217h-322q5 -118 100 -118q18 0 29.5 2t25.5 7.5t21 19.5t7 36h143q0 -91 -64.5 -132t-162.5 -41q-115 0 -180 67.5t-65 194.5t66.5 194.5t184.5 67.5q109 0 168.5 -61t59.5 -163q0 -41 -11 -74zM182 315h183q-2 44 -23.5 68.5t-60.5 24.5q-45 0 -70 -25t-29 -68z
M457 571h-114l-61 74l-62 -74h-116l143 154h69z" />
    <glyph glyph-name="edieresis" unicode="&#xeb;" horiz-adv-x="536" 
d="M500 217h-322q5 -118 100 -118q18 0 29.5 2t25.5 7.5t21 19.5t7 36h143q0 -91 -64.5 -132t-162.5 -41q-115 0 -180 67.5t-65 194.5t66.5 194.5t184.5 67.5q109 0 168.5 -61t59.5 -163q0 -41 -11 -74zM182 315h183q-2 44 -23.5 68.5t-60.5 24.5q-45 0 -70 -25t-29 -68z
M229 581h-108v116h108v-116zM439 581h-106v116h106v-116z" />
    <glyph glyph-name="igrave" unicode="&#xec;" horiz-adv-x="273" 
d="M212 0h-148v500h148v-500zM239 550h-149l-159 186h183z" />
    <glyph glyph-name="iacute" unicode="&#xed;" horiz-adv-x="273" 
d="M212 0h-148v500h148v-500zM174 575h-100l106 163h130z" />
    <glyph glyph-name="icircumflex" unicode="&#xee;" horiz-adv-x="273" 
d="M212 0h-148v500h148v-500zM313 571h-114l-61 74l-62 -74h-116l143 154h69z" />
    <glyph glyph-name="idieresis" unicode="&#xef;" horiz-adv-x="273" 
d="M212 0h-148v500h148v-500zM88 581h-108v116h108v-116zM298 581h-106v116h106v-116z" />
    <glyph glyph-name="eth" unicode="&#xf0;" horiz-adv-x="516" 
d="M234 513h-95l51 90q-82 -2 -143 -26v92q56 28 149 28q16 0 46 -4l27 47h95l-43 -74q71 -40 110.5 -126t39.5 -214q0 -171 -50 -252t-177 -81q-94 0 -153 63.5t-59 159.5q0 98 53 162.5t157 64.5q44 0 71 -13.5t50 -42.5q0 65 -25 116t-66 77zM244 87q54 0 82 38t28 91
q0 134 -112 134q-104 0 -104 -134q0 -53 26.5 -91t79.5 -38z" />
    <glyph glyph-name="ntilde" unicode="&#xf1;" horiz-adv-x="593" 
d="M545 0h-148v328q0 74 -78 74q-34 0 -61.5 -23t-34.5 -51v-328h-149v500h127l11 -66q56 78 151 78q88 0 135 -48.5t47 -130.5v-333zM414 706h75q0 -60 -24 -95.5t-72 -35.5q-29 0 -74.5 20.5t-66.5 20.5q-37 0 -37 -45h-77q1 58 27 94.5t80 36.5q26 0 70.5 -20t64.5 -20
q31 0 34 44z" />
    <glyph glyph-name="ograve" unicode="&#xf2;" horiz-adv-x="546" 
d="M276 99q54 0 77 38t23 119q0 80 -23 118.5t-77 38.5t-77 -38.5t-23 -118.5q0 -81 23 -119t77 -38zM276 -9q-118 0 -183.5 68.5t-65.5 196.5t66 196.5t183 68.5t182.5 -68.5t65.5 -196.5t-65.5 -196.5t-182.5 -68.5zM356 550h-149l-159 186h183z" />
    <glyph glyph-name="oacute" unicode="&#xf3;" horiz-adv-x="546" 
d="M276 99q54 0 77 38t23 119q0 80 -23 118.5t-77 38.5t-77 -38.5t-23 -118.5q0 -81 23 -119t77 -38zM276 -9q-118 0 -183.5 68.5t-65.5 196.5t66 196.5t183 68.5t182.5 -68.5t65.5 -196.5t-65.5 -196.5t-182.5 -68.5zM315 575h-100l106 163h130z" />
    <glyph glyph-name="ocircumflex" unicode="&#xf4;" horiz-adv-x="546" 
d="M276 99q54 0 77 38t23 119q0 80 -23 118.5t-77 38.5t-77 -38.5t-23 -118.5q0 -81 23 -119t77 -38zM276 -9q-118 0 -183.5 68.5t-65.5 196.5t66 196.5t183 68.5t182.5 -68.5t65.5 -196.5t-65.5 -196.5t-182.5 -68.5zM452 571h-114l-61 74l-62 -74h-116l143 154h69z" />
    <glyph glyph-name="otilde" unicode="&#xf5;" horiz-adv-x="546" 
d="M276 99q54 0 77 38t23 119q0 80 -23 118.5t-77 38.5t-77 -38.5t-23 -118.5q0 -81 23 -119t77 -38zM276 -9q-118 0 -183.5 68.5t-65.5 196.5t66 196.5t183 68.5t182.5 -68.5t65.5 -196.5t-65.5 -196.5t-182.5 -68.5zM377 706h75q0 -60 -24 -95.5t-72 -35.5
q-29 0 -74.5 20.5t-66.5 20.5q-37 0 -37 -45h-77q1 58 27 94.5t80 36.5q26 0 70.5 -20t64.5 -20q31 0 34 44z" />
    <glyph glyph-name="odieresis" unicode="&#xf6;" horiz-adv-x="546" 
d="M276 99q54 0 77 38t23 119q0 80 -23 118.5t-77 38.5t-77 -38.5t-23 -118.5q0 -81 23 -119t77 -38zM276 -9q-118 0 -183.5 68.5t-65.5 196.5t66 196.5t183 68.5t182.5 -68.5t65.5 -196.5t-65.5 -196.5t-182.5 -68.5zM224 581h-108v116h108v-116zM434 581h-106v116h106
v-116z" />
    <glyph glyph-name="divide" unicode="&#xf7;" horiz-adv-x="499" 
d="M481 242h-442v84h442v-84zM328 450q0 -26 -20.5 -45.5t-47.5 -19.5q-28 0 -48 19.5t-20 45.5t20 45.5t48 19.5q27 0 47.5 -19.5t20.5 -45.5zM328 118q0 -25 -20.5 -44t-47.5 -19q-28 0 -48 18.5t-20 44.5q0 28 19.5 46.5t48.5 18.5q27 0 47.5 -19t20.5 -46z" />
    <glyph glyph-name="oslash" unicode="&#xf8;" horiz-adv-x="546" 
d="M273 510q52 0 95 -16l40 73h70l-56 -104q82 -66 82 -212q0 -128 -60.5 -194t-170.5 -66q-54 0 -98 15l-31 -58h-74l50 91q-78 66 -78 212q0 127 60.5 193t170.5 66zM273 74q68 0 96.5 42t28.5 135q0 84 -24 125l-157 -293q24 -9 56 -9zM148 251q0 -80 21 -122l157 288
q-18 9 -53 9q-68 0 -96.5 -41.5t-28.5 -133.5z" />
    <glyph glyph-name="ugrave" unicode="&#xf9;" horiz-adv-x="590" 
d="M536 0h-123l-10 65q-50 -74 -148 -74q-93 0 -141.5 47t-48.5 132v330h148v-325q0 -74 72 -74q40 0 66.5 22t35.5 55v322h149v-500zM412 550h-149l-159 186h183z" />
    <glyph glyph-name="uacute" unicode="&#xfa;" horiz-adv-x="590" 
d="M536 0h-123l-10 65q-50 -74 -148 -74q-93 0 -141.5 47t-48.5 132v330h148v-325q0 -74 72 -74q40 0 66.5 22t35.5 55v322h149v-500zM328 575h-100l106 163h130z" />
    <glyph glyph-name="ucircumflex" unicode="&#xfb;" horiz-adv-x="590" 
d="M536 0h-123l-10 65q-50 -74 -148 -74q-93 0 -141.5 47t-48.5 132v330h148v-325q0 -74 72 -74q40 0 66.5 22t35.5 55v322h149v-500zM470 571h-114l-61 74l-62 -74h-116l143 154h69z" />
    <glyph glyph-name="udieresis" unicode="&#xfc;" horiz-adv-x="590" 
d="M536 0h-123l-10 65q-50 -74 -148 -74q-93 0 -141.5 47t-48.5 132v330h148v-325q0 -74 72 -74q40 0 66.5 22t35.5 55v322h149v-500zM246 581h-108v116h108v-116zM456 581h-106v116h106v-116z" />
    <glyph glyph-name="yacute" unicode="&#xfd;" horiz-adv-x="487" 
d="M290 272l76 228h157l-199 -510q-37 -98 -82.5 -136.5t-139.5 -38.5q-48 0 -90 11v109q37 -7 69 -7q41 0 63.5 22t45.5 89l-181 461h156l78 -228l24 -72q13 43 23 72zM304 575h-100l106 163h130z" />
    <glyph glyph-name="thorn" unicode="&#xfe;" horiz-adv-x="599" 
d="M74 684h144v-238q39 65 132 65q96 0 150 -68.5t54 -191.5q0 -124 -54.5 -192.5t-151.5 -68.5q-45 0 -79.5 18.5t-50.5 44.5v-248h-144v879zM304 403q-47 0 -67.5 -36t-20.5 -116q0 -155 88 -155q99 0 99 155q0 152 -99 152z" />
    <glyph glyph-name="ydieresis" unicode="&#xff;" horiz-adv-x="487" 
d="M290 272l76 228h157l-199 -510q-37 -98 -82.5 -136.5t-139.5 -38.5q-48 0 -90 11v109q37 -7 69 -7q41 0 63.5 22t45.5 89l-181 461h156l78 -228l24 -72q13 43 23 72zM213 581h-108v116h108v-116zM423 581h-106v116h106v-116z" />
    <glyph glyph-name="dotlessi" unicode="&#x131;" horiz-adv-x="283" 
d="M212 0h-148v500h148v-500z" />
    <glyph glyph-name="Lslash" unicode="&#x141;" horiz-adv-x="533" 
d="M357 387l-357 -139v94l357 142v-97zM520 0h-433v684h156v-562h277v-122z" />
    <glyph glyph-name="lslash" unicode="&#x142;" horiz-adv-x="311" 
d="M273 389l-260 -128v95q140 73 260 125v-92zM213 721v-581q0 -31 11 -37.5t61 -6.5v-87q-39 -13 -91 -13q-67 0 -98 35.5t-31 121.5v568h148z" />
    <glyph glyph-name="OE" unicode="&#x152;" horiz-adv-x="945" 
d="M898 0h-420v52q-18 -27 -57.5 -43.5t-92.5 -16.5q-151 0 -224 91.5t-73 254.5q0 355 297 355q54 0 94.5 -16.5t55.5 -44.5v52h414v-122h-272v-155h255v-122h-255v-163h278v-122zM328 116q73 0 105 54t32 168q0 122 -31.5 176.5t-105.5 54.5q-77 0 -109 -54t-32 -177
q0 -114 32.5 -168t108.5 -54z" />
    <glyph glyph-name="oe" unicode="&#x153;" horiz-adv-x="887" 
d="M276 99q54 0 77 38t23 119q0 80 -23 118.5t-77 38.5q-55 0 -78 -38t-23 -119t23 -119t78 -38zM459 435v-357q-55 -87 -183 -87q-118 0 -183.5 68.5t-65.5 196.5t66 196.5t183 68.5q64 0 113.5 -23t69.5 -63zM831 217h-323q5 -118 100 -118q14 0 23.5 1t22 4.5t20 10
t13 19t5.5 30.5h143q0 -62 -33.5 -102t-82.5 -55.5t-112 -15.5q-115 0 -179.5 67.5t-64.5 194.5t66.5 194.5t184.5 67.5q109 0 168 -61t59 -163q0 -38 -10 -74zM512 315h183q-2 44 -23.5 68.5t-60.5 24.5q-45 0 -70 -25.5t-29 -67.5z" />
    <glyph glyph-name="Scaron" unicode="&#x160;" horiz-adv-x="571" 
d="M532 472h-149q0 56 -23.5 79.5t-68.5 23.5q-46 0 -70.5 -20t-24.5 -56q0 -30 36.5 -51t89 -36.5t104.5 -36t88.5 -63.5t36.5 -107q0 -95 -68.5 -154t-191.5 -59q-118 0 -190.5 56.5t-72.5 175.5h149q5 -65 29.5 -88.5t85.5 -23.5q49 0 76 24t27 59t-36.5 58.5t-88 39
t-103 36t-88 63t-36.5 106.5q0 91 66.5 142.5t181.5 51.5q103 0 172 -56t69 -164zM320 754h-69l-143 154h116l62 -74l61 74h114z" />
    <glyph glyph-name="scaron" unicode="&#x161;" horiz-adv-x="465" 
d="M460 352h-143q-4 34 -22 47t-54 13q-22 0 -37 -12t-15 -32q0 -19 28.5 -32.5t69.5 -25t82 -27.5t69.5 -49.5t28.5 -81.5q0 -75 -59 -118t-159 -43q-111 0 -167.5 46t-56.5 129h149q4 -39 22.5 -52t53.5 -13q33 0 50 14t17 37t-28.5 38t-69 25t-81.5 24.5t-69.5 46.5
t-28.5 81q0 72 59 113t145 41q40 0 76 -8t68.5 -26t52 -52.5t19.5 -82.5zM281 571h-69l-143 154h116l62 -74l61 74h114z" />
    <glyph glyph-name="Ydieresis" unicode="&#x178;" horiz-adv-x="565" 
d="M364 0h-155v266l-229 418h171l138 -267l136 267h169l-230 -416v-268zM233 764h-108v116h108v-116zM443 764h-106v116h106v-116z" />
    <glyph glyph-name="Zcaron" unicode="&#x17d;" horiz-adv-x="515" 
d="M507 0h-491v94l304 468h-288v122h476v-98l-301 -464h300v-122zM293 754h-69l-143 154h116l62 -74l61 74h114z" />
    <glyph glyph-name="zcaron" unicode="&#x17e;" horiz-adv-x="460" 
d="M461 0h-451v74l247 316h-226v110h427v-72l-247 -318h250v-110zM280 571h-69l-143 154h116l62 -74l61 74h114z" />
    <glyph glyph-name="florin" unicode="&#x192;" horiz-adv-x="498" 
d="M3 -152l13 84q24 -9 55 -9q37 0 53.5 20t23.5 79l42 319h-91v84h102q5 39 10 68t17.5 68.5t30.5 64.5t48.5 43.5t70.5 18.5q36 0 81 -11l-17 -80q-7 1 -18.5 2t-18.5 2t-11 1q-12 0 -21.5 -2t-17 -8t-13 -11.5t-10.5 -17t-7.5 -19.5t-5.5 -25l-5 -27.5t-5 -32t-5 -34.5
h94v-84h-107l-45 -324q-13 -86 -54.5 -132t-122.5 -46q-23 0 -66 9z" />
    <glyph glyph-name="circumflex" unicode="&#x2c6;" horiz-adv-x="413" 
d="M383 571h-114l-61 74l-62 -74h-116l143 154h69z" />
    <glyph glyph-name="caron" unicode="&#x2c7;" horiz-adv-x="413" 
d="M242 571h-69l-143 154h116l62 -74l61 74h114z" />
    <glyph glyph-name="breve" unicode="&#x2d8;" horiz-adv-x="380" 
d="M266 725h85q-5 -72 -49.5 -114.5t-111.5 -42.5q-68 0 -112.5 42.5t-48.5 114.5h84q6 -37 27 -55.5t50 -18.5t50 18.5t26 55.5z" />
    <glyph glyph-name="dotaccent" unicode="&#x2d9;" horiz-adv-x="257" 
d="M179 614h-101v109h101v-109z" />
    <glyph glyph-name="ring" unicode="&#x2da;" horiz-adv-x="344" 
d="M211 695q0 42 -39 42t-39 -42q0 -41 39 -41t39 41zM294 695q0 -56 -32.5 -87.5t-89.5 -31.5q-58 0 -90.5 31.5t-32.5 87.5q0 57 32.5 88.5t90.5 31.5q57 0 89.5 -31.5t32.5 -88.5z" />
    <glyph glyph-name="ogonek" unicode="&#x2db;" horiz-adv-x="220" 
d="M194 -96l13 -67q-30 -19 -80 -19q-53 0 -81.5 25.5t-28.5 66.5q0 27 13.5 60t30.5 56h75q-31 -62 -31 -103q0 -34 38 -34q23 0 51 15z" />
    <glyph glyph-name="tilde" unicode="&#x2dc;" horiz-adv-x="403" 
d="M302 706h75q0 -60 -24 -95.5t-72 -35.5q-29 0 -74.5 20.5t-66.5 20.5q-37 0 -37 -45h-77q1 58 27 94.5t80 36.5q26 0 70.5 -20t64.5 -20q31 0 34 44z" />
    <glyph glyph-name="hungarumlaut" unicode="&#x2dd;" horiz-adv-x="484" 
d="M159 571h-104l83 167h136zM348 571h-104l97 167h136z" />
    <glyph glyph-name="Omega" unicode="&#x3a9;" horiz-adv-x="650" 
d="M601 91v-91h-244v65q145 134 145 318q0 103 -51.5 159t-125.5 56q-75 0 -126 -55t-51 -160q0 -184 143 -318v-65h-242v91h115q-56 62 -89 129.5t-33 159.5q0 145 82 229t201 84q120 0 201.5 -83t81.5 -230q0 -92 -33 -159.5t-89 -129.5h115z" />
    <glyph glyph-name="pi" unicode="&#x3c0;" horiz-adv-x="585" 
d="M523 92v-79q-38 -17 -75 -17q-89 0 -89 100v313h-132v-409h-102v409h-83v91h501v-91h-83v-315q0 -13 16 -13q20 0 47 11z" />
    <glyph glyph-name="uni0E00" unicode="&#xe00;" 
 />
    <glyph glyph-name="uni0E01" unicode="&#xe01;" horiz-adv-x="590" 
d="M538 0h-156v343q0 39 -23.5 62t-62.5 23q-63 0 -95 -41l58 -33v-50q-33 -7 -33 -49v-255h-155v244q0 66 59 89l-82 40v43q32 46 99 87.5t149 41.5q242 0 242 -210v-335z" />
    <glyph glyph-name="uni0E02" unicode="&#xe02;" horiz-adv-x="551" 
d="M151 415q0 13 -16 13h-70v110h86q78 0 108 -23.5t30 -77.5q0 -45 -36.5 -103t-36.5 -92v-78q0 -55 66 -55q30 0 49 14.5t19 41.5v373h149v-372q0 -77 -58.5 -125.5t-158.5 -48.5t-158.5 46t-58.5 126v92q0 32 21.5 62t43 54.5t21.5 42.5z" />
    <glyph glyph-name="uni0E03" unicode="&#xe03;" horiz-adv-x="565" 
d="M79 160v71q0 34 15 63.5t33 47t36 40t22 42.5l-32 -21h-9l-87 32v103h65l52 -41l52 44q38 0 61.5 -22t23.5 -56v-18q0 -44 -40 -108.5t-40 -98.5v-77q0 -26 17.5 -39t46.5 -13q66 0 66 53v376h152v-376q0 -76 -59 -123t-159 -47q-101 0 -158.5 44t-57.5 124z" />
    <glyph glyph-name="uni0E04" unicode="&#xe04;" horiz-adv-x="601" 
d="M203 320v-85q7 34 34 53.5t66 19.5h53v-130h-80q-73 0 -73 -94v-84h-154v322q0 224 249 224q251 0 251 -224v-322h-156v320q0 57 -23 83t-72 26t-72 -26t-23 -83z" />
    <glyph glyph-name="uni0E05" unicode="&#xe05;" horiz-adv-x="603" 
d="M551 326v-326h-156v326q0 70 -27 87l-65 -36l-70 35q-16 -8 -23 -26t-7 -58v-93q7 34 34 53.5t66 19.5h53v-130h-80q-73 0 -73 -94v-84h-154v325q0 180 169 225l81 -53l71 53q105 -9 143 -63t38 -161z" />
    <glyph glyph-name="uni0E06" unicode="&#xe06;" horiz-adv-x="599" 
d="M214 238v-55q22 -73 102 -73q39 0 57 24.5t18 60.5v343h156v-347q0 -96 -50 -148t-146 -52q-51 0 -88 20.5t-56 52.5l-13 -64h-136v231q0 34 16 63.5t36 47t39 40t23 42.5l-32 -21h-9l-87 32v103h65l52 -41l52 44q38 0 61.5 -22t23.5 -56v-18q0 -44 -42 -108.5t-42 -98.5
z" />
    <glyph glyph-name="uni0E07" unicode="&#xe07;" horiz-adv-x="526" 
d="M324 201v206q0 19 -21 19h-70v112h106q65 0 100 -32.5t35 -88.5v-218q0 -104 -55.5 -155t-158.5 -51q-26 0 -55 4.5t-45 8.5l-16 4l-139 385h154l101 -292q33 0 48.5 19.5t15.5 78.5z" />
    <glyph glyph-name="uni0E08" unicode="&#xe08;" horiz-adv-x="546" 
d="M133 178h-50v111h65q69 0 92.5 -13t36.5 -62l22 -81l20 53t24.5 76.5t7.5 62.5q0 103 -83 103q-94 0 -94 -87h-152q0 96 70.5 150t175.5 54q114 0 176.5 -61t62.5 -159q0 -49 -24 -103.5t-58 -116.5t-48 -105h-160l-62 161q-6 17 -22 17z" />
    <glyph glyph-name="uni0E09" unicode="&#xe09;" horiz-adv-x="588" 
d="M230 279v-111q0 -34 11.5 -47t47.5 -13q35 0 60.5 20.5t32.5 56.5v157q0 86 -96 86q-47 0 -73 -25t-26 -72h-153q0 99 75 156.5t177 57.5q119 0 184.5 -54t65.5 -149v-342h-149v62q-17 -35 -54.5 -53t-84.5 -18q-170 0 -170 175h-44v113h196z" />
    <glyph glyph-name="uni0E0A" unicode="&#xe0a;" horiz-adv-x="559" 
d="M363 166v133q0 25 -17 41.5t-44 16.5v78q39 5 50 25.5t11 84.5h149q0 -66 -20 -99t-62 -46q39 -7 60.5 -34.5t21.5 -62.5v-137q0 -77 -61.5 -125.5t-161.5 -48.5q-101 0 -162.5 46.5t-61.5 125.5v99q0 30 19.5 58t39 50t19.5 40q0 11 -3.5 14t-13.5 3h-61v110h78
q78 0 108 -22t30 -79q0 -34 -32.5 -94t-32.5 -95v-84q0 -55 73 -55q34 0 54 15t20 42z" />
    <glyph glyph-name="uni0E0B" unicode="&#xe0b;" horiz-adv-x="572" 
d="M231 238v-74q0 -55 71 -55q34 0 54 15t20 42v133q0 57 -54 57v79q39 5 50 26.5t11 83.5h150q0 -65 -20 -99t-62 -52q35 -9 54.5 -33t19.5 -58v-137q0 -77 -61.5 -125.5t-161.5 -48.5q-101 0 -162.5 46.5t-60.5 125.5v67q0 34 14 63.5t30.5 47t33.5 40t21 42.5l-31 -21h-9
l-81 32v103h59l52 -41l52 44q37 0 60.5 -22t23.5 -56v-18q0 -44 -36.5 -108.5t-36.5 -98.5z" />
    <glyph glyph-name="uni0E0C" unicode="&#xe0c;" horiz-adv-x="890" 
d="M529 335v-152q5 -36 27.5 -54.5t57.5 -18.5q71 0 71 85v343h153v-347q0 -97 -45.5 -148.5t-136.5 -51.5q-88 0 -135 73l-8 -64h-137v343q0 42 -18.5 63.5t-63.5 21.5q-57 0 -89 -41l54 -33v-50q-32 -7 -32 -49v-126q0 -15 5.5 -20t18.5 -5h41v-104h-88q-133 0 -133 122
v122q0 66 59 89l-82 40v43q32 47 98 88t148 41q117 0 177 -51.5t58 -158.5z" />
    <glyph glyph-name="uni0E0D" unicode="&#xe0d;" horiz-adv-x="879" 
d="M376 205v138q0 42 -18.5 63.5t-63.5 21.5q-57 0 -89 -41l54 -33v-50q-32 -7 -32 -49v-126q0 -15 5.5 -20t18.5 -5h41v-104h-88q-133 0 -133 122v122q0 66 59 89l-82 40v43q32 47 98 88t148 41q117 0 177 -51.5t58 -158.5v-122q0 -65 66 -65q35 0 55.5 19t20.5 53v318h156
v-459q0 -111 -71.5 -171.5t-203.5 -60.5q-41 0 -80 5.5t-58 11.5l-18 6v120q82 -26 155 -26q67 0 94 28t27 98q-35 -61 -134 -61q-77 0 -119.5 44t-42.5 132z" />
    <glyph glyph-name="uni0E0E" unicode="&#xe0e;" horiz-adv-x="616" 
d="M408 -96v439q0 85 -88 85q-57 0 -87 -41l57 -33v-50q-31 -7 -31 -49v-133q0 -122 -133 -122h-75v104h28q13 0 18.5 5t5.5 20v115q0 67 58 89l-86 40v43q31 46 100 87.5t151 41.5q238 0 238 -210v-434q0 -69 -43.5 -109t-117.5 -40h-43l-69 58q-19 -26 -42 -39t-62 -13
h-84v117h75q29 0 50.5 12.5t28.5 34.5h46l67 -53h6q32 0 32 35z" />
    <glyph glyph-name="uni0E0F" unicode="&#xe0f;" horiz-adv-x="616" 
d="M564 335v-439q0 -67 -36.5 -103.5t-127.5 -36.5l-49 42l-61 -50l-59 48q-29 -44 -96 -44h-60v118h58q51 0 74 45h36l47 -46l43 46h23l52 -49v477q0 85 -88 85q-57 0 -87 -41l57 -33v-50q-31 -7 -31 -49v-133q0 -122 -133 -122h-75v104h28q13 0 18.5 5t5.5 20v115
q0 67 58 89l-86 40v43q31 46 100 87.5t151 41.5q238 0 238 -210z" />
    <glyph glyph-name="uni0E10" unicode="&#xe10;" horiz-adv-x="563" 
d="M363 226v91q0 51 -24 79t-70 28q-42 0 -71 -22.5t-29 -63.5h-150q0 94 77.5 148.5t172.5 54.5q25 0 54.5 -4.5t31.5 -4.5q20 0 27.5 11.5t7.5 40.5h152q0 -45 -26.5 -80t-59.5 -45q30 -21 42.5 -56.5t12.5 -97.5v-67q0 -150 -99 -193q86 -23 86 -105v-4q0 -153 -167 -153
h-39l-54 47q-17 -22 -38 -32t-60 -10h-102v114h97q28 0 43 10.5t26 35.5h48l56 -49h8q15 0 27.5 13.5t12.5 35.5v6q0 20 -14.5 33t-43.5 13h-106l-41 151q-4 13 -9.5 17t-19.5 4h-40v117h56q68 0 100 -20.5t48 -78.5l19 -70q26 4 42 31t16 75z" />
    <glyph glyph-name="uni0E11" unicode="&#xe11;" horiz-adv-x="621" 
d="M172 387v37l-38 -21h-9l-81 32v103h59l52 -41l52 44q40 0 65.5 -16.5t25.5 -48.5q19 27 54.5 46t76.5 19q74 0 107 -37.5t33 -112.5v-391h-150v386q0 27 -29 27q-30 0 -70 -54l-60 -78q-22 -28 -22 -57v-224h-151v238q0 42 44 88l10.5 10t12 12t9 11t7.5 14t2 14z" />
    <glyph glyph-name="uni0E12" unicode="&#xe12;" horiz-adv-x="933" 
d="M572 315v-132q15 -73 91 -73q65 0 65 85v343h153v-347q0 -200 -184 -200q-95 0 -133 73l-8 -64h-137v315q0 84 -41 115l-69 -49l-76 49q-42 -39 -42 -136q0 -114 21 -180l32 52q15 25 15 56h-43v104h175v-67q0 -49 -10.5 -80.5t-38.5 -65.5l-99 -113h-140
q-67 173 -67 294q0 202 184 256l84 -55l68 56q100 -15 150 -71.5t50 -164.5z" />
    <glyph glyph-name="uni0E13" unicode="&#xe13;" horiz-adv-x="903" 
d="M376 191v152q0 85 -86 85q-53 0 -85 -41l54 -33v-50q-32 -7 -32 -49v-126q0 -15 5.5 -20t18.5 -5h41v-104h-88q-133 0 -133 122v122q0 66 59 89l-82 40v43q33 47 96.5 88t145.5 41q242 0 242 -210v-140q0 -46 17 -66.5t54 -20.5q35 0 63 26.5t29 63.5v340h156v-538h-140
l-8 70q-44 -79 -147 -79q-84 0 -132 49.5t-48 150.5z" />
    <glyph glyph-name="uni0E14" unicode="&#xe14;" horiz-adv-x="606" 
d="M188 294q0 -85 17 -180l30 52q15 28 15 56h-43v104h175v-67q0 -47 -11 -78.5t-38 -67.5l-90 -113h-140q-67 173 -67 294q0 117 74 184.5t186 67.5q129 0 193.5 -56.5t64.5 -177.5v-312h-154v312q0 67 -25.5 90.5t-78.5 23.5q-108 0 -108 -132z" />
    <glyph glyph-name="uni0E15" unicode="&#xe15;" horiz-adv-x="624" 
d="M212 114l30 52q14 26 14 56h-43v104h176v-67q0 -48 -10.5 -80t-39.5 -66l-96 -113h-140q-67 173 -67 294q0 201 186 256l85 -55l67 56q100 -14 149 -71t49 -165v-315h-153v315q0 86 -38 115l-69 -49l-77 49q-44 -42 -44 -136q0 -114 21 -180z" />
    <glyph glyph-name="uni0E16" unicode="&#xe16;" horiz-adv-x="597" 
d="M71 122v122q0 66 59 89l-82 40v43q32 46 99 87.5t149 41.5q119 0 184 -51.5t65 -158.5v-335h-156v343q0 85 -93 85q-59 0 -91 -41l54 -33v-50q-32 -7 -32 -49v-126q0 -15 5.5 -20t18.5 -5h41v-104h-88q-133 0 -133 122z" />
    <glyph glyph-name="uni0E17" unicode="&#xe17;" horiz-adv-x="588" 
d="M204 537v-35l-6 -39h2q22 36 62 57.5t89 21.5q91 0 138 -51.5t47 -151.5v-339h-154v338q0 79 -66 79q-52 0 -82 -37t-30 -102v-278h-152v537h152z" />
    <glyph glyph-name="uni0E18" unicode="&#xe18;" horiz-adv-x="573" 
d="M277 246q-37 1 -60 2.5t-57.5 9t-54.5 21t-35 39.5t-15 62q0 71 65 117t165 46q107 0 169 -43.5t69 -131.5h-150q-11 58 -88 58q-37 0 -58.5 -11t-21.5 -29q0 -16 18 -22t69 -8q36 -2 56.5 -3.5t53 -7t51 -16t38 -27t28.5 -43.5t9 -63v-45q0 -72 -61.5 -115t-172.5 -43
q-116 0 -169.5 38t-53.5 118v73h151v-71q0 -24 17 -32.5t55 -8.5q42 0 62 8.5t20 32.5v39q0 33 -18 43.5t-81 12.5z" />
    <glyph glyph-name="uni0E19" unicode="&#xe19;" horiz-adv-x="593" 
d="M541 0h-141l-7 70q-19 -32 -61.5 -55.5t-85.5 -23.5q-194 0 -194 200v347h156v-343q0 -87 71 -87q40 0 68.5 25.5t37.5 64.5v340h156v-538z" />
    <glyph glyph-name="uni0E1A" unicode="&#xe1a;" horiz-adv-x="611" 
d="M305 -10q-127 0 -190 54t-63 173v321h156v-322q0 -57 24 -83t73 -26q50 0 74 26t24 83v322h156v-321q0 -119 -63.5 -173t-190.5 -54z" />
    <glyph glyph-name="uni0E1B" unicode="&#xe1b;" horiz-adv-x="611" 
d="M305 -10q-127 0 -190 54t-63 173v321h156v-322q0 -57 24 -83t73 -26q50 0 74 26t24 83v499h156v-498q0 -119 -63.5 -173t-190.5 -54z" />
    <glyph glyph-name="uni0E1C" unicode="&#xe1c;" horiz-adv-x="630" 
d="M205 416v-160l-4 -56l91 107h42l92 -107q-4 29 -4 56v282h156v-538h-131l-10 29q-6 16 -37 49t-59 58l-28 24q-102 -96 -117 -133l-10 -27h-134v420q0 118 135 118h89v-104h-52q-19 0 -19 -18z" />
    <glyph glyph-name="uni0E1D" unicode="&#xe1d;" horiz-adv-x="630" 
d="M205 416v-160l-4 -56l91 107h42l92 -107q-4 29 -4 56v459h156v-715h-131l-10 29q-6 16 -37 49t-59 58l-28 24q-102 -96 -117 -133l-10 -27h-134v420q0 118 135 118h89v-104h-52q-19 0 -19 -18z" />
    <glyph glyph-name="uni0E1E" unicode="&#xe1e;" horiz-adv-x="699" 
d="M303 520h95l78 -286l43 304h158l-100 -538h-138l-11 45q-7 25 -26.5 82.5l-35.5 102.5l-16 46q-58 -168 -76 -231l-13 -45h-139l-100 538h157l45 -304z" />
    <glyph glyph-name="uni0E1F" unicode="&#xe1f;" horiz-adv-x="699" 
d="M303 520h95l78 -286l67 481h159l-125 -715h-138l-11 45q-7 25 -26.5 82.5l-35.5 102.5l-16 46q-58 -168 -76 -231l-13 -45h-139l-100 538h157l45 -304z" />
    <glyph glyph-name="uni0E20" unicode="&#xe20;" horiz-adv-x="617" 
d="M104 129v115q0 67 58 89l-85 40v43q30 46 99 87.5t152 41.5q237 0 237 -210v-335h-156v343q0 85 -88 85q-57 0 -87 -41l57 -33v-50q-31 -7 -31 -49v-133q0 -122 -133 -122h-75v104h29q13 0 18 5t5 20z" />
    <glyph glyph-name="uni0E21" unicode="&#xe21;" horiz-adv-x="593" 
d="M192 0h-140v538h156v-355q21 -73 101 -73q39 0 57.5 24.5t18.5 60.5v343h156v-347q0 -96 -50 -148t-147 -52q-98 0 -144 73z" />
    <glyph glyph-name="uni0E22" unicode="&#xe22;" horiz-adv-x="586" 
d="M48 166v16q0 41 25.5 74t66.5 44q-42 9 -65.5 42.5t-23.5 76.5q0 119 163 119h85v-110h-73q-34 0 -34 -32q0 -26 12 -35.5t40 -9.5h56v-111h-56q-44 0 -44 -45v-20q0 -32 23 -50t68 -18t66 18t21 57v356h156v-363q0 -81 -62.5 -133t-180.5 -52q-116 0 -179.5 47
t-63.5 129z" />
    <glyph glyph-name="uni0E23" unicode="&#xe23;" horiz-adv-x="520" 
d="M257 426q-29 0 -45 -12.5t-16 -31.5t29 -33t70 -25.5t82 -27.5t70 -48.5t29 -78.5q0 -75 -52.5 -122t-170.5 -47q-99 0 -154 45.5t-55 132.5h150q0 -61 67 -61q38 0 51.5 11t13.5 36q0 17 -29 28t-70 21.5t-82.5 26.5t-70.5 51t-29 87q0 71 60 118t152 47q219 0 219 -188
h-147q0 42 -16 56.5t-56 14.5z" />
    <glyph glyph-name="uni0E24" unicode="&#xe24;" horiz-adv-x="597" 
d="M71 122v122q0 66 59 89l-82 40v43q32 46 99 87.5t149 41.5q119 0 184 -51.5t65 -158.5v-530h-156v538q0 85 -93 85q-59 0 -91 -41l54 -33v-50q-32 -7 -32 -49v-126q0 -15 5.5 -20t18.5 -5h41v-104h-88q-133 0 -133 122z" />
    <glyph glyph-name="uni0E25" unicode="&#xe25;" horiz-adv-x="589" 
d="M537 351v-351h-151v138q0 28 -31.5 52t-71.5 24q-71 0 -71 -50v-7q0 -50 49 -50l47 6v-108q-34 -13 -79 -13q-78 0 -123 45t-45 118v7q0 72 56.5 119.5t159.5 47.5q64 0 109 -33v55q0 75 -79 75q-41 0 -63.5 -18.5t-22.5 -53.5h-150q0 96 66 142.5t167 46.5
q111 0 172 -50t61 -142z" />
    <glyph glyph-name="uni0E26" unicode="&#xe26;" horiz-adv-x="616" 
d="M103 129v115q0 67 58 89l-86 40v43q31 46 100 87.5t151 41.5q238 0 238 -210v-530h-156v538q0 85 -88 85q-57 0 -87 -41l57 -33v-50q-31 -7 -31 -49v-133q0 -122 -133 -122h-75v104h28q13 0 18.5 5t5.5 20z" />
    <glyph glyph-name="uni0E27" unicode="&#xe27;" horiz-adv-x="551" 
d="M365 246v45q0 73 -23 102t-68 29q-36 0 -61.5 -22.5t-25.5 -64.5h-148q0 98 66 152.5t169 54.5q120 0 179 -69.5t59 -194.5v-17q0 -125 -61 -197t-181 -72q-105 0 -166.5 52t-61.5 141h145q0 -36 22 -54.5t61 -18.5q46 0 70.5 30.5t24.5 103.5z" />
    <glyph glyph-name="uni0E28" unicode="&#xe28;" horiz-adv-x="593" 
d="M547 322v-322h-156v320q0 57 -22 83t-71 26q-97 0 -97 -109v-72q11 27 38.5 43.5t56.5 16.5h59v-130h-81q-73 0 -73 -94v-84h-153v322q0 224 250 224q31 0 68 -7t40 -7q26 0 26 52h143q0 -53 -21 -80t-63 -43q56 -46 56 -139z" />
    <glyph glyph-name="uni0E29" unicode="&#xe29;" horiz-adv-x="611" 
d="M305 -10q-127 0 -190 54t-63 173v321h156v-322q0 -57 24 -83t73 -26q50 0 74 26t24 83v5h-95v126h95v191h156v-191h52v-104l-52 -16v-10q0 -119 -63.5 -173t-190.5 -54z" />
    <glyph glyph-name="uni0E2A" unicode="&#xe2a;" horiz-adv-x="589" 
d="M537 351v-351h-151v138q0 28 -31.5 52t-71.5 24q-71 0 -71 -50v-7q0 -50 49 -50l47 6v-108q-34 -13 -79 -13q-78 0 -123 45t-45 118v7q0 72 56.5 119.5t159.5 47.5q64 0 109 -33v55q0 75 -79 75q-41 0 -63.5 -18.5t-22.5 -53.5h-150q0 96 67 142.5t169 46.5
q25 0 54.5 -5.5t31.5 -5.5q20 0 27.5 11.5t7.5 40.5h152q0 -46 -25 -79t-57 -42q39 -23 39 -112z" />
    <glyph glyph-name="uni0E2B" unicode="&#xe2b;" horiz-adv-x="615" 
d="M205 365l107 17q92 11 92 83v73h154v-79q0 -101 -103 -126q108 -12 108 -130v-203h-152v194q0 34 -18.5 52t-50.5 18q-25 0 -137 -20v-244h-150v538h150v-173z" />
    <glyph glyph-name="uni0E2C" unicode="&#xe2c;" horiz-adv-x="666" 
d="M450 250v49q0 57 -54 57v79q40 5 54 27.5t14 82.5h150q0 -65 -20 -99t-62 -52q67 -29 67 -91v-303h-131l-10 29q-6 16 -39 42.5t-63 44.5l-30 18q-110 -70 -125 -107l-10 -27h-131v538h151v-287l-4 -57l105 87h29l113 -87q-4 28 -4 56z" />
    <glyph glyph-name="uni0E2D" unicode="&#xe2d;" horiz-adv-x="552" 
d="M251 190h-52q-11 0 -11 -9v-15q0 -57 80 -57q91 0 91 111v100q0 58 -21 83t-66 25q-86 0 -86 -86h-151q0 98 70 151.5t167 53.5q110 0 175.5 -61t65.5 -179v-69q0 -118 -62.5 -182t-182.5 -64q-113 0 -169.5 50t-56.5 141v26q0 91 106 91h103v-110z" />
    <glyph glyph-name="uni0E2E" unicode="&#xe2e;" horiz-adv-x="552" 
d="M513 307v-69q0 -118 -62.5 -182t-182.5 -64q-113 0 -169.5 50t-56.5 141v26q0 91 106 91h103v-110h-52q-11 0 -11 -9v-15q0 -57 80 -57q91 0 91 111v100q0 58 -21 83t-66 25q-86 0 -86 -86h-151q0 98 70 151.5t167 53.5q31 0 60 -7.5t35 -7.5q26 0 26 52h143
q0 -54 -19.5 -80.5t-60.5 -42.5q57 -38 57 -154z" />
    <glyph glyph-name="uni0E2F" unicode="&#xe2f;" horiz-adv-x="474" 
d="M192 0h-89v123h89q53 0 73 20.5t20 80.5v150q-37 -54 -124 -54q-64 0 -99.5 38.5t-35.5 110.5v69h144v-64q0 -22 10.5 -29.5t32.5 -7.5q52 0 90 101h132v-301q0 -113 -57 -175t-186 -62z" />
    <glyph glyph-name="uni0E30" unicode="&#xe30;" horiz-adv-x="399" 
d="M39 201h136v-35q0 -15 17 -15h155v-117h-200q-60 0 -84 29t-24 86v52zM39 482h136v-35q0 -15 17 -15h155v-117h-200q-60 0 -84 29t-24 86v52z" />
    <glyph glyph-name="uni0E31" unicode="&#xe31;" 
d="M-339 796h128v-50q0 -13 13 -13h323v-119h-354q-58 0 -84 27t-26 80v75z" />
    <glyph glyph-name="uni0E32" unicode="&#xe32;" horiz-adv-x="497" 
d="M445 0h-156v355q0 70 -60 70q-68 0 -68 -74h-151q0 98 61 146t158 48q216 0 216 -190v-355z" />
    <glyph glyph-name="uni0E33" unicode="&#xe33;" horiz-adv-x="472" 
d="M445 0h-156v355q0 70 -60 70q-68 0 -68 -74h-151q0 98 61 146t158 48q216 0 216 -190v-355zM-159 721q0 -35 38 -35t38 35q0 36 -38 36t-38 -36zM1 721q0 -50 -33 -80t-89 -30t-89 30t-33 80q0 51 33 81t89 30t89 -30t33 -81z" />
    <glyph glyph-name="uni0E34" unicode="&#xe34;" 
d="M-504 733h440v-119h-440v119z" />
    <glyph glyph-name="uni0E35" unicode="&#xe35;" 
d="M-194 805h130v-191h-440v119h310v72z" />
    <glyph glyph-name="uni0E36" unicode="&#xe36;" 
d="M-157 677q28 0 28 28q0 11 -7.5 19t-20.5 8q-14 0 -21.5 -8t-7.5 -19q0 -28 29 -28zM-504 733h253q4 29 30.5 47.5t67.5 18.5q45 0 69.5 -26t24.5 -67q0 -92 -94 -92h-351v119z" />
    <glyph glyph-name="uni0E37" unicode="&#xe37;" 
d="M-504 731h161v74h110v-74h55v74h114v-191h-440v117z" />
    <glyph glyph-name="uni0E38" unicode="&#xe38;" 
d="M-204 -319v114q0 32 -34 32h-49v98h75q67 0 102.5 -27t35.5 -93v-124h-130z" />
    <glyph glyph-name="uni0E39" unicode="&#xe39;" 
d="M-400 -221v32q0 20 -21 20h-28v94h75q54 0 75.5 -21t21.5 -67v-44q0 -34 38 -34q39 0 39 34v122h123v-136q0 -59 -47 -85t-115 -26q-161 0 -161 111z" />
    <glyph glyph-name="uni0E3A" unicode="&#xe3a;" 
d="M-124 -207q-35 0 -57 22t-22 54t22 53.5t57 21.5q36 0 58 -21.5t22 -53.5t-22 -54t-58 -22z" />
    <glyph glyph-name="uni0E3F" unicode="&#xe3f;" horiz-adv-x="580" 
d="M315 -107h-71v107h-197v633h197v101h71v-102q211 -10 211 -167q0 -50 -26 -85t-67 -49q46 -9 83.5 -47t37.5 -98q0 -181 -239 -186v-107zM244 118v154h-50v-154h50zM244 376v135h-50v-135h50zM315 510v-133q34 4 50 20t16 51q0 32 -15 46t-51 16zM315 272v-152
q49 4 69 20.5t20 58.5q0 68 -89 73z" />
    <glyph glyph-name="uni0E40" unicode="&#xe40;" horiz-adv-x="308" 
d="M58 122v416h156v-409q0 -15 5.5 -20t18.5 -5h41v-104h-88q-133 0 -133 122z" />
    <glyph glyph-name="uni0E41" unicode="&#xe41;" horiz-adv-x="591" 
d="M58 122v416h156v-409q0 -15 5.5 -20t18.5 -5h41v-104h-88q-133 0 -133 122zM341 122v416h156v-409q0 -15 5.5 -20t18.5 -5h41v-104h-88q-133 0 -133 122z" />
    <glyph glyph-name="uni0E42" unicode="&#xe42;" horiz-adv-x="305" 
d="M58 122v475q0 77 -19 111.5t-64 42.5v102h351v-111h-184q36 -19 54 -50t18 -88v-475q0 -15 5.5 -20t18.5 -5h41v-104h-88q-133 0 -133 122z" />
    <glyph glyph-name="uni0E43" unicode="&#xe43;" horiz-adv-x="305" 
d="M214 528v-399q0 -15 5.5 -20t18.5 -5h41v-104h-88q-133 0 -133 122v406q0 30 15.5 60t34 50.5t34 45t15.5 44.5q0 26 -35 26t-35 -27l3 -47h-142q-10 25 -10 51q0 64 50 102t134 38q82 0 133.5 -36t51.5 -94q0 -39 -46.5 -106t-46.5 -107z" />
    <glyph glyph-name="uni0E44" unicode="&#xe44;" horiz-adv-x="304" 
d="M58 122v482q0 37 18 66.5t36.5 43t47.5 28.5h-185v111h351v-102q-112 -19 -112 -154v-468q0 -15 5.5 -20t18.5 -5h41v-104h-88q-133 0 -133 122z" />
    <glyph glyph-name="uni0E45" unicode="&#xe45;" horiz-adv-x="497" 
d="M445 -195h-156v550q0 70 -60 70q-68 0 -68 -74h-151q0 98 61 146t158 48q216 0 216 -190v-550z" />
    <glyph glyph-name="uni0E46" unicode="&#xe46;" horiz-adv-x="526" 
d="M328 -195v591q0 24 -17 24l-41 -34h-18q-38 33 -54 33q-10 0 -16.5 -8.5t-6.5 -19.5q0 -36 28 -36h45v-117h-60q-67 0 -111.5 37t-44.5 110q0 75 37.5 114.5t94.5 39.5q24 0 42 -7.5t27 -16t28 -29.5l55 52h17q72 0 110.5 -39.5t38.5 -108.5v-585h-154z" />
    <glyph glyph-name="uni0E47" unicode="&#xe47;" 
d="M-95 697v-96h-100l-65 44l-66 -44h-54q-57 0 -90.5 32.5t-33.5 77.5v25q0 56 43.5 89.5t125.5 33.5h240v-91h-233q-53 0 -53 -32v-11q0 -28 26 -28h27l58 31h22l66 -31h87z" />
    <glyph glyph-name="uni0E48" unicode="&#xe48;" 
d="M-68 863h-122v185h122v-185z" />
    <glyph glyph-name="uni0E49" unicode="&#xe49;" 
d="M-70 994v-41h180v-91h-304v93q0 24 -22 24h-66v84h126q40 0 63 -17.5t23 -51.5z" />
    <glyph glyph-name="uni0E4A" unicode="&#xe4a;" 
d="M-137 1001l28 23q17 13 47 13q58 0 90.5 -26t32.5 -69v-5h88v-78h-96h-106v57q0 30 -28 30h-10l-36 -31h-17l-39 31h-11q-28 0 -28 -43v-44h-124v65q0 113 138 113q29 0 45 -13z" />
    <glyph glyph-name="uni0E4B" unicode="&#xe4b;" 
d="M22 926h-92l-3 -67h-110l-3 67h-94v104h93v68h117v-68h92v-104z" />
    <glyph glyph-name="uni0E4C" unicode="&#xe4c;" 
d="M-215 858v-40h-130v37q0 145 160 145h154v-111h-150q-34 0 -34 -31z" />
    <glyph glyph-name="uni0E4D" unicode="&#xe4d;" 
d="M-159 721q0 -35 38 -35t38 35q0 36 -38 36t-38 -36zM1 721q0 -50 -33 -80t-89 -30t-89 30t-33 80q0 51 33 81t89 30t89 -30t33 -81z" />
    <glyph glyph-name="uni0E4E" unicode="&#xe4e;" 
d="M-138 538h-79q-81 0 -81 79q0 39 18 59.5t62 20.5q-24 11 -24 43q0 70 85 70h101v-78h-51q-31 0 -31 -20q0 -4 1 -7t4.5 -5t5.5 -2.5t7 -2t7 -2.5l-11 -56h-42q-37 0 -40 -6q-1 -3 -1 -7q0 -7 4.5 -10t10 -3.5t16.5 -0.5h38v-72z" />
    <glyph glyph-name="uni0E4F" unicode="&#xe4f;" horiz-adv-x="619" 
d="M554 272q0 -102 -73 -169.5t-170 -67.5q-100 0 -173 67.5t-73 169.5q0 105 73 172.5t173 67.5q98 0 170.5 -68t72.5 -172zM434 276q0 -51 -35.5 -86t-86.5 -35t-87.5 35t-36.5 86q0 49 36.5 84t87.5 35t86.5 -34.5t35.5 -84.5zM485 273q0 73 -51.5 124t-124.5 51
t-124 -51t-51 -124t51 -124.5t124 -51.5t124.5 51.5t51.5 124.5zM359 274q0 21 -14 34.5t-34 13.5q-21 0 -34.5 -13.5t-13.5 -34.5q0 -20 13.5 -34t34.5 -14q20 0 34 14t14 34z" />
    <glyph glyph-name="uni0E50" unicode="&#xe50;" horiz-adv-x="559" 
d="M274 -10q-115 0 -180 62t-65 170q0 110 65 171.5t180 61.5q116 0 181 -61.5t65 -171.5q0 -108 -65 -170t-181 -62zM274 338q-47 0 -72 -26t-25 -90q0 -63 24 -89t73 -26q47 0 71.5 26.5t24.5 88.5q0 64 -24.5 90t-71.5 26z" />
    <glyph glyph-name="uni0E51" unicode="&#xe51;" horiz-adv-x="559" 
d="M212 264h130v-64q0 -51 -41.5 -82.5t-101.5 -31.5q-84 0 -131 44.5t-47 125.5q0 85 71.5 140.5t181.5 55.5q116 0 185 -63t69 -168q0 -268 -329 -285l-33 113q115 5 163.5 42.5t48.5 129.5q0 55 -28.5 83.5t-75.5 28.5q-46 0 -75 -19.5t-29 -58.5q0 -59 31 -59
q11 0 11 22v46z" />
    <glyph glyph-name="uni0E52" unicode="&#xe52;" horiz-adv-x="619" 
d="M333 264h-134v60q0 61 26.5 92t85.5 31q9 0 17.5 -2t14.5 -5t13 -8t10.5 -8t9.5 -9l7 -7q3 2 13 10.5t17 13.5t19 10t24 5q124 0 124 -126v-120q0 -109 -73.5 -161t-198.5 -52q-276 0 -276 221v281h151v-279q0 -62 30 -82.5t95 -20.5t94.5 19.5t29.5 73.5v133l-37 -34
h-22l-40 34v-70z" />
    <glyph glyph-name="uni0E53" unicode="&#xe53;" horiz-adv-x="593" 
d="M190 298v-171q0 -18 17 -18h40v-109h-70q-133 0 -133 120v178q0 69 40.5 108.5t113.5 39.5q33 0 63 -19t41 -40q8 20 42.5 39.5t71.5 19.5q72 0 109 -38t37 -110v-298h-147v298q0 30 -22 30q-24 0 -24 -37v-140h-130v140q0 23 -6 30t-17 7q-26 0 -26 -30z" />
    <glyph glyph-name="uni0E54" unicode="&#xe54;" horiz-adv-x="559" 
d="M445 179h-80q3 -65 99 -65h59v-114h-71q-77 0 -113 31q-17 -14 -51 -22.5t-63 -8.5q-92 0 -144 53.5t-52 166.5q0 228 279 228h51q36 0 36 51h151q0 -76 -45 -123t-132 -47h-57q-73 0 -103.5 -25.5t-30.5 -81.5q0 -58 19 -81t54 -23h13q-29 29 -29 69q0 49 27.5 74
t72.5 25h110v-107z" />
    <glyph glyph-name="uni0E55" unicode="&#xe55;" horiz-adv-x="559" 
d="M178 222q0 -58 19 -81t54 -23h13q-29 29 -29 69q0 49 27.5 74t72.5 25h110v-107h-80q3 -65 99 -65h59v-114h-71q-77 0 -113 31q-17 -14 -51 -22.5t-63 -8.5q-92 0 -144 53.5t-52 166.5q0 181 161 217q5 41 34.5 67t75.5 26q40 0 66.5 -20.5t33.5 -53.5q13 10 13 39h143
q0 -78 -47.5 -124t-152.5 -46h-79q-52 0 -75.5 -22t-23.5 -81zM300 403q29 0 29 27q0 28 -29 28q-28 0 -28 -28q0 -27 28 -27z" />
    <glyph glyph-name="uni0E56" unicode="&#xe56;" horiz-adv-x="541" 
d="M78 60v114h136v-49q23 -15 63 -15q46 0 64.5 25.5t18.5 89.5q0 55 -19.5 80t-62.5 25q-60 0 -87 -62h-105q-6 62 -26 110l-44 117h141l18 -49q10 -27 11 -38q36 39 109 39q106 0 160.5 -59.5t54.5 -162.5q0 -109 -62 -170.5t-171 -61.5q-124 0 -199 67z" />
    <glyph glyph-name="uni0E57" unicode="&#xe57;" horiz-adv-x="658" 
d="M179 295v-144q0 -27 6 -34.5t26 -7.5h39v-109h-51q-163 0 -163 156v138q0 68 36.5 110t100.5 42q35 0 59.5 -16.5t31.5 -40.5q10 24 37 40.5t62 16.5q115 0 115 -152v-167q15 0 24 9.5t9 24.5v329h143v-321q0 -46 -20 -80.5t-53 -53t-70 -27t-77 -8.5h-99v296
q0 32 -14 32q-18 0 -30 -34h-66q-6 22 -10.5 28t-15.5 6q-20 0 -20 -33z" />
    <glyph glyph-name="uni0E58" unicode="&#xe58;" horiz-adv-x="559" 
d="M395 146v11v11t-1.5 5.5t-4.5 4t-9 0.5h-34v111h48q63 0 100.5 -33t37.5 -97v-8q0 -152 -145 -152q-34 0 -79.5 26t-59.5 26q-15 0 -26 -13.5t-11 -37.5h-102q-87 74 -87 195q0 126 74.5 187t180.5 61h75q23 0 33 9.5t10 37.5h150q0 -90 -46 -127.5t-145 -37.5h-71
q-53 0 -85.5 -34t-32.5 -95q0 -46 14 -69q22 50 69 50q31 0 69 -29.5t53 -29.5q25 0 25 28z" />
    <glyph glyph-name="uni0E59" unicode="&#xe59;" horiz-adv-x="550" 
d="M22 194v62q0 92 49 140.5t133 48.5q62 0 91 -21.5t55 -68.5l14 51q24 84 114 84h59v-116h-31q-16 0 -23.5 -7.5t-13.5 -24.5l-39 -126l102 -216h-154l-131 291q-17 37 -43 37q-39 -3 -39 -71v-75q0 -42 12.5 -57.5t46.5 -15.5h50v-109h-63q-100 0 -144.5 48t-44.5 146z
" />
    <glyph glyph-name="uni0E5B" unicode="&#xe5b;" 
 />
    <glyph glyph-name="zerowidthnonjoiner" unicode="&#x200c;" 
d="M26 -330h-52v698h52v-698z" />
    <glyph glyph-name="zerowidthjoiner" unicode="&#x200d;" 
d="M26 -330h-52v577l-33 -26l-24 38l54 37l-50 43l32 33l47 -44l47 44l32 -33l-50 -43l54 -37l-26 -38l-31 26v-577z" />
    <glyph glyph-name="lefttorightmark" unicode="&#x200e;" 
d="M26 -330h-52v652h179l-30 37l34 21l61 -84l-61 -83l-34 22l30 37h-127v-602z" />
    <glyph glyph-name="righttoleftmark" unicode="&#x200f;" 
d="M26 -330h-52v602h-127l29 -37l-33 -22l-61 83l61 84l33 -21l-29 -37h179v-652z" />
    <glyph glyph-name="endash" unicode="&#x2013;" horiz-adv-x="494" 
d="M455 235h-416v91h416v-91z" />
    <glyph glyph-name="emdash" unicode="&#x2014;" horiz-adv-x="988" 
d="M936 235h-884v91h884v-91z" />
    <glyph glyph-name="quoteleft" unicode="&#x2018;" horiz-adv-x="234" 
d="M185 424h-133v91q0 42 15 87t30 69l15 24h63q-6 -8 -14 -22t-22 -53t-14 -73h60v-123z" />
    <glyph glyph-name="quoteright" unicode="&#x2019;" horiz-adv-x="234" 
d="M49 695h133v-91q0 -42 -15 -87t-30 -69l-15 -24h-64q6 8 14.5 22.5t22.5 53.5t14 72h-60v123z" />
    <glyph glyph-name="quotesinglbase" unicode="&#x201a;" horiz-adv-x="220" 
d="M116 -161h-77l64 161h-47v123h139v-104z" />
    <glyph glyph-name="quotedblleft" unicode="&#x201c;" horiz-adv-x="429" 
d="M191 424h-133v91q0 42 15 87t30 69l15 24h64q-6 -8 -14.5 -22t-23 -53t-14.5 -73h61v-123zM370 424h-132v91q0 42 15 87t30 69l15 24h63q-6 -8 -14.5 -22t-23 -53t-14.5 -73h61v-123z" />
    <glyph glyph-name="quotedblright" unicode="&#x201d;" horiz-adv-x="429" 
d="M238 695h132v-91q0 -42 -15 -87t-29 -69l-15 -24h-64q6 8 14.5 22.5t23 53.5t14.5 72h-61v123zM58 695h133v-91q0 -42 -15 -87t-30 -69l-15 -24h-63q6 8 14.5 22.5t23 53.5t14.5 72h-62v123z" />
    <glyph glyph-name="quotedblbase" unicode="&#x201e;" horiz-adv-x="448" 
d="M116 -161h-77l64 161h-47v123h139v-104zM311 -161h-77l64 161h-47v123h139v-104z" />
    <glyph glyph-name="dagger" unicode="&#x2020;" horiz-adv-x="494" 
d="M303 -79h-112v539h-135v78h135v186h112v-186h135v-78h-135v-539z" />
    <glyph glyph-name="daggerdbl" unicode="&#x2021;" horiz-adv-x="494" 
d="M303 -79h-112v186h-135v78h135v275h-135v78h135v186h112v-186h135v-78h-135v-275h135v-78h-135v-186z" />
    <glyph glyph-name="bullet" unicode="&#x2022;" horiz-adv-x="395" 
d="M348 277q0 -61 -43.5 -104.5t-106.5 -43.5t-107 43.5t-44 104.5q0 62 44 103.5t107 41.5t106.5 -41.5t43.5 -103.5z" />
    <glyph glyph-name="ellipsis" unicode="&#x2026;" horiz-adv-x="988" 
d="M235 0h-126v123h126v-123zM534 0h-123v123h123v-123zM837 0h-126v123h126v-123z" />
    <glyph glyph-name="perthousand" unicode="&#x2030;" horiz-adv-x="1199" 
d="M208 339q-70 0 -114.5 44.5t-44.5 120.5t44.5 120.5t114.5 44.5t115 -44.5t45 -120.5t-44.5 -120.5t-115.5 -44.5zM208 433q29 0 45 19t16 52q0 35 -16 54t-45 19t-45.5 -19.5t-16.5 -53.5q0 -33 16.5 -52t45.5 -19zM270 -8h-93l396 688h96zM634 0q-70 0 -114 44t-44 120
q0 75 44.5 120.5t113.5 45.5q71 0 115.5 -45t44.5 -121t-44.5 -120t-115.5 -44zM634 92q29 0 46 19.5t17 52.5q0 35 -17 54.5t-46 19.5q-28 0 -44.5 -19.5t-16.5 -54.5q0 -32 16.5 -52t44.5 -20zM996 0q-70 0 -114.5 44t-44.5 120q0 75 45 120.5t114 45.5q70 0 115 -45.5
t45 -120.5q0 -76 -44.5 -120t-115.5 -44zM996 92q29 0 45 19.5t16 52.5q0 35 -16 54.5t-45 19.5t-46 -19.5t-17 -54.5q0 -32 17.5 -52t45.5 -20z" />
    <glyph glyph-name="minute" unicode="&#x2032;" horiz-adv-x="214" 
d="M143 456h-72v210h72v-210z" />
    <glyph glyph-name="second" unicode="&#x2033;" horiz-adv-x="357" 
d="M136 456h-71v210h71v-210zM292 456h-71v210h71v-210z" />
    <glyph glyph-name="guilsinglleft" unicode="&#x2039;" horiz-adv-x="329" 
d="M281 70h-119l-127 189l129 183h117l-130 -182z" />
    <glyph glyph-name="guilsinglright" unicode="&#x203a;" horiz-adv-x="329" 
d="M152 70h-117l130 183l-130 189h118l126 -187z" />
    <glyph glyph-name="fraction" unicode="&#x2044;" horiz-adv-x="415" 
d="M61 -9h-87l380 650h87z" />
    <glyph glyph-name="Euro" unicode="&#x20ac;" horiz-adv-x="552" 
d="M467 153l109 -41q-41 -121 -208 -121q-111 0 -174 53t-84 169h-84v89h75v71h-75v90h84q19 118 82 172t176 54q101 0 190 -77l-65 -80q-62 53 -126 53q-69 0 -104 -29.5t-39 -92.5h235v-90h-243v-71h243v-89h-238q7 -61 42.5 -89t103.5 -28q39 0 61 13t39 44z" />
    <glyph glyph-name="uni2113" unicode="&#x2113;" horiz-adv-x="381" 
d="M303 88v-69q-44 -23 -102 -23q-104 0 -104 113v92l-53 -35l-30 68l83 56v272q0 69 33 101t78 32q54 0 90.5 -44t36.5 -127q0 -176 -153 -278v-137q0 -26 8.5 -35.5t30.5 -9.5q39 0 82 24zM250 520q0 49 -13.5 77t-28.5 28q-13 0 -19.5 -11t-6.5 -45v-231q34 29 51 69.5
t17 112.5z" />
    <glyph glyph-name="trademark" unicode="&#x2122;" horiz-adv-x="780" 
d="M239 339h-114v265h-93v80h294v-80h-87v-265zM728 339h-100v216l-52 -101h-72l-53 101v-216h-100v345h126l64 -125l62 125h125v-345z" />
    <glyph glyph-name="Ohm" unicode="&#x2126;" horiz-adv-x="650" 
d="M320 575q-80 0 -123 -46.5t-43 -132.5q0 -179 146 -315v-81h-266v112h113v5q-125 119 -125 275q0 145 83 223t215 78t214.5 -77t82.5 -224q0 -157 -124 -275v-5h113v-112h-266v81q146 136 146 315q0 84 -43.5 131.5t-122.5 47.5z" />
    <glyph glyph-name="estimated" unicode="&#x212e;" horiz-adv-x="780" 
d="M728 321h-572v-155q37 -60 97.5 -94t136.5 -34q71 0 132 31.5t102 86.5l43 -30q-49 -63 -122 -99.5t-155 -36.5q-145 0 -241.5 102.5t-96.5 248.5t96.5 248.5t241.5 102.5q144 0 241 -102.5t97 -248.5v-20zM390 645q-76 0 -136.5 -34.5t-97.5 -94.5v-149h468v145
q-37 62 -97.5 97.5t-136.5 35.5z" />
    <glyph glyph-name="partialdiff" unicode="&#x2202;" horiz-adv-x="536" 
d="M60 556v93q68 35 174 35q237 0 237 -358q0 -171 -50 -252t-177 -81q-94 0 -153 63.5t-59 159.5q0 98 53 162.5t157 64.5q44 0 71 -13.5t50 -42.5q-16 203 -129 203q-92 0 -174 -34zM244 87q54 0 82 38t28 91q0 134 -112 134q-104 0 -104 -134q0 -53 26.5 -91t79.5 -38z
" />
    <glyph glyph-name="Delta" unicode="&#x2206;" horiz-adv-x="562" 
d="M549 0h-536l282 545zM387 74l-119 252l-134 -252h253z" />
    <glyph glyph-name="product" unicode="&#x220f;" horiz-adv-x="585" 
d="M519 -241h-150v803h-178v-803h-149v925h477v-925z" />
    <glyph glyph-name="summation" unicode="&#x2211;" horiz-adv-x="585" 
d="M536 -216h-511v111l210 349l-206 333v105h488v-118h-305l178 -296v-44l-192 -320h338v-120z" />
    <glyph glyph-name="minus" unicode="&#x2212;" horiz-adv-x="441" 
d="M399 266v-61h-368v61h368z" />
    <glyph glyph-name="radical" unicode="&#x221a;" horiz-adv-x="520" 
d="M270 -95h-88l-95 290h-75v88h147l65 -222l193 623h102z" />
    <glyph glyph-name="infinity" unicode="&#x221e;" horiz-adv-x="803" 
d="M337 282q-70 72 -120 72q-38 0 -57.5 -21.5t-19.5 -49.5q0 -35 20 -57t58 -22q33 0 66 23t53 55zM382 220q-73 -93 -165 -93q-72 0 -116.5 42.5t-44.5 115.5q0 59 40.5 101.5t119.5 42.5t170 -91q72 91 166 91q72 0 116 -42.5t44 -114.5q0 -60 -39.5 -102.5t-118.5 -42.5
q-93 0 -172 93zM433 274q25 -30 57 -50.5t62 -20.5q38 0 57 21t19 49q0 35 -20 57t-57 22q-31 0 -64.5 -23.5t-53.5 -54.5z" />
    <glyph glyph-name="integral" unicode="&#x222b;" horiz-adv-x="433" 
d="M13 -157l17 80q36 -13 66 -13q15 0 24 3.5t16 19.5t7 47v531q0 82 41 129.5t108 47.5q52 0 97 -21l-24 -83q-29 18 -73 18q-48 0 -48 -91v-531q0 -72 -39 -113t-111 -41q-46 0 -81 17z" />
    <glyph glyph-name="approxequal" unicode="&#x2248;" horiz-adv-x="572" 
d="M472 221l67 -56q-47 -99 -149 -99q-50 0 -111 33.5t-85 33.5q-48 0 -80 -73l-69 56q11 41 51.5 75.5t95.5 34.5q46 0 104 -33t81 -33q30 0 49 13.5t46 47.5zM459 424l67 -56q-12 -47 -52.5 -78t-92.5 -31q-50 0 -106.5 33.5t-80.5 33.5q-26 0 -46.5 -14.5t-46.5 -48.5
l-69 68q64 89 151 89q47 0 109 -34t85 -34q30 0 48 18.5t34 53.5z" />
    <glyph glyph-name="notequal" unicode="&#x2260;" horiz-adv-x="520" 
d="M494 116h-283l-60 -116h-95l60 116h-90v93h138l63 125h-201v94h251l62 121h96l-62 -121h121v-94h-170l-64 -125h234v-93z" />
    <glyph glyph-name="lessequal" unicode="&#x2264;" horiz-adv-x="520" 
d="M459 17h-398v84h398v-84zM459 136l-398 149v83l398 148v-96l-274 -94l274 -95v-95z" />
    <glyph glyph-name="greaterequal" unicode="&#x2265;" horiz-adv-x="520" 
d="M459 17h-398v84h398v-84zM459 285l-398 -149v95l274 95l-274 94v96l398 -148v-83z" />
    <glyph glyph-name="lozenge" unicode="&#x25ca;" horiz-adv-x="520" 
d="M261 97l141 249l-141 240l-139 -242zM300 0h-78l-203 344l203 340h78l200 -340z" />
    <glyph glyph-name="dottedcircle" unicode="&#x25cc;" horiz-adv-x="520" 
d="M283 478q0 -10 -6.5 -17t-17.5 -7t-18 6.5t-7 17.5q0 25 25 25q11 0 17.5 -7t6.5 -18zM283 53q0 -11 -6.5 -17.5t-17.5 -6.5t-18 6.5t-7 17.5q0 25 25 25q11 0 17.5 -7t6.5 -18zM70 266q0 -23 -25 -23q-23 0 -23 23q0 25 23 25q25 0 25 -25zM497 266q0 -10 -7 -16.5
t-18 -6.5q-24 0 -24 23q0 11 6.5 18t17.5 7t18 -7t7 -18zM87 346q0 -24 -25 -24q-23 0 -23 24t23 24q11 0 18 -6.5t7 -17.5zM133 417q0 -10 -7 -16.5t-18 -6.5q-24 0 -24 23q0 11 6.5 18t17.5 7t18 -7t7 -18zM201 463q0 -24 -24 -24t-24 24t24 24q11 0 17.5 -6.5t6.5 -17.5z
M478 346q0 -24 -23 -24q-25 0 -25 24q0 10 7 17t18 7q23 0 23 -24zM433 417q0 -23 -24 -23t-24 23q0 11 6.5 18t17.5 7q24 0 24 -25zM364 463q0 -24 -23 -24q-25 0 -25 24q0 11 7 17.5t18 6.5q23 0 23 -24zM87 186q0 -11 -7 -18t-18 -7q-10 0 -16.5 7t-6.5 18q0 23 23 23
q25 0 25 -23zM133 114q0 -10 -7 -17t-18 -7q-10 0 -17 7t-7 17q0 24 24 24q25 0 25 -24zM201 69q0 -11 -7 -18t-17 -7q-24 0 -24 25q0 23 24 23t24 -23zM456 161q-10 0 -17 7t-7 18q0 23 24 23t24 -23q0 -25 -24 -25zM411 90q-11 0 -18 6.5t-7 17.5q0 24 25 24q23 0 23 -24
t-23 -24zM342 44q-10 0 -17.5 7t-7.5 18q0 10 7 16.5t18 6.5q23 0 23 -23q0 -11 -6.5 -18t-16.5 -7z" />
    <glyph glyph-name="uni0E10.alt1" unicode="&#xf700;" horiz-adv-x="563" 
d="M285 0h-93l-41 151q-4 13 -9.5 17t-19.5 4h-40v117h56q68 0 100 -20.5t48 -78.5l19 -70q26 4 42 31t16 75v91q0 51 -24 79t-70 28q-42 0 -71 -22.5t-29 -63.5h-150q0 94 77.5 148.5t172.5 54.5q25 0 54.5 -4.5t31.5 -4.5q20 0 27.5 11.5t7.5 40.5h152q0 -45 -26.5 -80
t-59.5 -45q30 -21 42.5 -56.5t12.5 -97.5v-67q0 -41 -13 -81.5t-38.5 -76.5t-71 -58t-103.5 -22z" />
    <glyph glyph-name="uni0E34.alt1" unicode="&#xf701;" 
d="M-650 733h402v-119h-402v119z" />
    <glyph glyph-name="uni0E35.alt1" unicode="&#xf702;" 
d="M-376 805h130v-191h-401v119h271v72z" />
    <glyph glyph-name="uni0E36.alt1" unicode="&#xf703;" 
d="M-339 677q28 0 28 28q0 11 -7.5 19t-20.5 8q-14 0 -21.5 -8t-7.5 -19q0 -28 29 -28zM-647 733h214q4 29 30.5 47.5t67.5 18.5q45 0 69.5 -26t24.5 -67q0 -92 -94 -92h-312v119z" />
    <glyph glyph-name="uni0E37.alt1" unicode="&#xf704;" 
d="M-647 731h154v74h102v-74h41v74h104v-191h-401v117z" />
    <glyph glyph-name="uni0E48.alt1" unicode="&#xf705;" 
d="M-244 606h-143v184h143v-184z" />
    <glyph glyph-name="uni0E49.alt1" unicode="&#xf706;" 
d="M-315 734v-35h181v-97h-311v87q0 13 -4.5 18t-17.5 5h-66v91h133q39 0 62 -17.5t23 -51.5z" />
    <glyph glyph-name="uni0E4A.alt1" unicode="&#xf707;" 
d="M-428 759l33 26q17 13 49 13q59 0 91 -28t32 -73v-5h88v-85h-96h-113v57q0 30 -28 30h-10l-36 -31h-17l-39 31h-11q-28 0 -28 -43v-44h-130v65q0 62 35 94t101 32q32 0 48 -13z" />
    <glyph glyph-name="uni0E4B.alt1" unicode="&#xf708;" 
d="M-199 671h-91v-65h-130v65h-91v108h91v71h130v-71h91v-108z" />
    <glyph glyph-name="uni0E4C.alt1" unicode="&#xf709;" 
d="M-356 664v-40h-130v38q0 70 39 110t121 40h153v-117h-150q-33 0 -33 -31z" />
    <glyph glyph-name="uni0E48.alt2" unicode="&#xf70a;" 
d="M-75 606h-143v184h143v-184z" />
    <glyph glyph-name="uni0E49.alt2" unicode="&#xf70b;" 
d="M-198 734v-35h181v-97h-311v87q0 13 -4.5 18t-17.5 5h-66v91h133q39 0 62 -17.5t23 -51.5z" />
    <glyph glyph-name="uni0E4A.alt2" unicode="&#xf70c;" 
d="M-306 759l33 26q17 13 49 13q59 0 91 -28t32 -73v-5h88v-85h-96h-113v57q0 30 -28 30h-10l-36 -31h-17l-39 31h-11q-28 0 -28 -43v-44h-130v65q0 62 35 94t101 32q32 0 48 -13z" />
    <glyph glyph-name="uni0E4B.alt2" unicode="&#xf70d;" 
d="M9 671h-91v-65h-130v65h-91v108h91v71h130v-71h91v-108z" />
    <glyph glyph-name="uni0E4C.alt2" unicode="&#xf70e;" 
d="M-235 664v-40h-130v38q0 70 39 110t121 40h153v-117h-150q-33 0 -33 -31z" />
    <glyph glyph-name="uni0E0D.alt1" unicode="&#xf70f;" horiz-adv-x="868" 
d="M376 322v21q0 42 -18.5 63.5t-63.5 21.5q-57 0 -89 -41l54 -33v-50q-32 -7 -32 -49v-126q0 -15 5.5 -20t18.5 -5h41v-104h-88q-133 0 -133 122v122q0 66 59 89l-82 40v43q32 47 98 88t148 41q117 0 177 -51.5t58 -158.5v-5q0 -65 66 -65q35 0 55.5 19t20.5 53v201h156
v-342q0 -109 -70.5 -164t-204.5 -55q-41 0 -80 5.5t-58 11.5l-18 6v120q82 -26 155 -26q63 0 92 25.5t29 87.5q-35 -61 -134 -61q-77 0 -119.5 44t-42.5 132z" />
    <glyph glyph-name="uni0E31.alt1" unicode="&#xf710;" 
d="M-456 796h128v-50q0 -13 13 -13h323v-119h-354q-58 0 -84 27t-26 80v75z" />
    <glyph glyph-name="uni0E4D.alt1" unicode="&#xf711;" 
d="M-391 721q0 -35 37 -35q38 0 38 35q0 36 -38 36q-37 0 -37 -36zM-231 721q0 -50 -33 -80t-90 -30q-56 0 -89 30t-33 80q0 51 33 81t89 30q57 0 90 -30t33 -81z" />
    <glyph glyph-name="uni0E47.alt1" unicode="&#xf712;" 
d="M-241 697v-96h-100l-65 44l-66 -44h-54q-57 0 -90.5 32.5t-33.5 77.5v25q0 56 43.5 89.5t125.5 33.5h240v-91h-233q-53 0 -53 -32v-11q0 -28 26 -28h27l58 31h22l66 -31h87z" />
    <glyph glyph-name="uni0E48.alt3" unicode="&#xf713;" 
d="M-251 863h-122v185h122v-185z" />
    <glyph glyph-name="uni0E49.alt3" unicode="&#xf714;" 
d="M-253 994v-41h180v-91h-304v93q0 24 -22 24h-66v84h126q40 0 63 -17.5t23 -51.5z" />
    <glyph glyph-name="uni0E4A.alt3" unicode="&#xf715;" 
d="M-314 1001l28 23q17 13 47 13q58 0 90.5 -26t32.5 -69v-5h88v-78h-96h-106v57q0 30 -28 30h-10l-36 -31h-17l-39 31h-11q-28 0 -28 -43v-44h-124v65q0 113 138 113q29 0 45 -13z" />
    <glyph glyph-name="uni0E4B.alt3" unicode="&#xf716;" 
d="M-159 926h-92l-3 -67h-110l-3 67h-94v104h93v68h117v-68h92v-104z" />
    <glyph glyph-name="uni0E4C.alt3" unicode="&#xf717;" 
d="M-407 858v-40h-130v37q0 145 160 145h154v-111h-150q-34 0 -34 -31z" />
    <glyph glyph-name="uni0E38.alt1" unicode="&#xf718;" 
d="M-204 -530v113q0 32 -34 32h-49v98h75q67 0 102.5 -27t35.5 -93v-123h-130z" />
    <glyph glyph-name="uni0E39.alt1" unicode="&#xf719;" 
d="M-400 -434v32q0 20 -21 20h-28v93h75q54 0 75.5 -20.5t21.5 -66.5v-44q0 -34 38 -34q39 0 39 34v122h123v-136q0 -59 -47 -85t-115 -26q-161 0 -161 111z" />
    <glyph glyph-name="uni0E3A.alt1" unicode="&#xf71a;" 
d="M-124 -441q-35 0 -57 22t-22 54t22 53.5t57 21.5q36 0 58 -21.5t22 -53.5t-22 -54t-58 -22z" />
    <glyph glyph-name="uni0E0E.alt1" unicode="&#xf71b;" horiz-adv-x="616" 
d="M408 -96v439q0 85 -88 85q-57 0 -87 -41l57 -33v-50q-31 -7 -31 -49v-133q0 -122 -133 -122h-75v104h28q13 0 18.5 5t5.5 20v115q0 67 58 89l-86 40v43q31 46 100 87.5t151 41.5q238 0 238 -210v-434q0 -69 -43.5 -109t-117.5 -40h-43l-69 58q-19 -26 -42 -39t-62 -13
h-84v117h75q29 0 50.5 12.5t28.5 34.5h46l67 -53h6q32 0 32 35z" />
    <glyph glyph-name="uni0E0F.alt1" unicode="&#xf71c;" horiz-adv-x="616" 
d="M564 335v-439q0 -67 -36.5 -103.5t-127.5 -36.5l-49 42l-61 -50l-59 48q-29 -44 -96 -44h-60v118h58q51 0 74 45h36l47 -46l43 46h23l52 -49v477q0 85 -88 85q-57 0 -87 -41l57 -33v-50q-31 -7 -31 -49v-133q0 -122 -133 -122h-75v104h28q13 0 18.5 5t5.5 20v115
q0 67 58 89l-86 40v43q31 46 100 87.5t151 41.5q238 0 238 -210z" />
    <glyph glyph-name="uni0E2C.alt1" unicode="&#xf71d;" horiz-adv-x="668" 
d="M450 250v49q0 57 -54 57v79q40 5 54 27.5t14 82.5h150q0 -65 -20 -99t-62 -52q67 -29 67 -91v-303h-131l-10 29q-6 16 -39 42.5t-63 44.5l-30 18q-110 -70 -125 -107l-10 -27h-131v538h151v-287l-4 -57l105 87h29l113 -87q-4 28 -4 56z" />
    <glyph glyph-name="apple" unicode="&#xf8ff;" horiz-adv-x="772" 
d="M764 90l-278 -154q-8 -2 -18 -2h-166q-7 0 -15 2l-275 152q-12 5 -12 20v0v0v0v0v0v0v0v0v0v0v0v0v0v0v0v0v0v0v0v0v0v0v0v0v0v1v0v0v0v0v0v0v0v0v0v0v1v0v0v0v0v0v0v1v0v0v0v0v0v1v0v0v0v0v1v0v0v0v1v0v0v0v1v0v0v0v1v0v0v1v0v0v1v0v0v1v0v0v1v0v0v1v0v0v1v0v1v0v1v0v1
v0v0v1v0v1v0v1v0v1v0v1v0v1v0v1v0v1v0v1v0v1v0v1v0v1v0v1v0v1v0v1v0v1v1v0v1v0v1v0v1v1v0v1v0v1v1v0v1v1v0v1v1v0v1v1v0v1v1v1v0v1v1v1v0v1v1v1v1v0v1v1v1v1v1v1v1v0v1v1v1v1v1v1v1v1v1v1v1v1v1v1v1v1v1v1v1v1v1v1v1v1v1v1v1v1v1v1v1v1v1v1v1v1v1v1v1v1v1v1v1v1v1v1v1v1v1v1
v1v1v1v1v1v1v1v1v1v1v1v1v1v1v1v1v1v1v1v1v1v1v1v1v1v1v1v1v1v1v1v1v1v1v1v1v1v1v1v1v1v1v1v1v1v1v1v1v1v1v1v1v1v1v1v1v1v1v1v1v1v1v1v1v1v1v1v1v1v1v1v1v1v1v1v1v1v1v1v1v1v1v1v1v1v1v1v1v1v1v1v1v1v1v1v1v1v1v1v1v1v1v1v1v1v1v1v1v1v1v1v1v1v1v1v1v1v1v1v1v1v1v1v1v1v1v1
v1v1v1v1v1v1v1v1v1v1v1v1v1v1v1v1v1v1v1v1v1v1v1v1v1v1v1v1v1v1v1v1v1v1v1v1v1v1v1v1v1v1v1v1v1v1v1v1v1v1v1v1v1v1v1v1v1v1v1v1v1v1v1v1v1v1v1v1v1v1v1v1v1v1v1v1v1v1v1v1v1v1v1v1v1v1v1v1v1v1v1v1v1v1v1v1v1v1v1v1v1v1v1v1v1v1v1v1v1v1v1v1v1v1v1v1v1v1v1v1v1v1v1v1v1v1v1
v1v1v1v1v1v1v1v1v1v1v1v1v1v1v1v1v1v1v1v1v1v1v1v1v1v9q0 7 8 15l408 202q6 2 9 2q5 0 9 -2l298 -151q13 -7 17 -13l22 -44q1 -3 1 -9v-407q0 -10 -8 -13zM738 517l-17 34l-296 148l-380 -189l255 -138h173l68 36v51q0 14 11 14h107zM744 110v377l-254 -140v-156l125 68v87
q0 11 14 11q16 0 16 -11v-95q0 -11 -8 -14l-147 -77v-72l134 72q4 1 8 1q13 0 13 -14q0 -10 -8 -12l-146 -77q-12 -5 -15 -5q-13 0 -13 15v0v0v0v0v0v0v0v0v0v0v0v0v0v0v0v0v0v0v0v0v0v0v0v0v0v0v0v0v0v0v0v1v0v0v0v0v0v0v1v0v0v0v0v1v0v0v0v1v0v0v1v0v0v0v1v0v0v1v0v0v1v0
v0v1v0v1v0v0v1v0v1v0v1v0v1v0v1v0v1v0v1v0v1v0v1v0v1v0v1v0v1v0v1v0v1v1v0v1v0v1v1v0v1v1v0v1v1v0v1v1v1v1v0v1v1v1v1v1v0v1v1v1v1v1v1v1v1v1v1v1v1v1v1v1v1v1v1v1v1v1v1v1v1v1v1v1v1v1v1v1v1v1v1v1v1v1v1v1v1v1v1v1v1v1v1v1v1v1v1v1v1v1v1v1v1v1v1v1v1v1v1v1v1v1v1v1v1v1v1
v1v1v1v1v1v1v1v1v1v1v1v1v1v1v1v1v1v1v1v1v1v1v1v1v1v1v1v1v1v1v1v1v1v1v1v1v1v1v1v1v1v1v1v1v1v1v1v1v1v1v1v1v1v1v1v1v1v1v1v1v1v1v1v1v1v1v1v1v1v1v1v1v1v1v1v1v1v1v1v1v1v1v1v1v1v1v1v1v1v1v1v1v1v1v1v1v1v1v1v1v1v1v1v1v1v1v1v1v1v1v1v1v1v1v1v1v1v1v1v1v1v1v1v1v1v1v1
v1v1v1v1v1v1v1v1v1v1v1v1v1v1v1v1v1v1v1v1v1v1v1v1v1v1v10h-160q-11 0 -18 5l-255 140v-189l122 -69q7 -7 7 -15v-96q0 -14 -13 -14q-16 0 -16 14v90l-100 56v-154l253 -137v257l-171 99q-8 2 -8 12q0 15 13 15q2 0 10 -2l176 -102q8 -5 8 -13v-277h162zM395 472
q0 -6 -13 -15t-19 -9q-9 0 -44.5 21t-35.5 26q0 8 13 16.5t22 8.5q11 0 44 -19t33 -29zM549 550q0 -6 -13.5 -15t-20.5 -9q-8 0 -44 21t-36 26q0 8 13.5 16.5t23.5 8.5q11 0 44 -19t33 -29z" />
    <glyph glyph-name="uni0E33.alt1" horiz-adv-x="472" 
d="M445 0h-156v355q0 70 -60 70q-68 0 -68 -74h-151q0 98 61 146t158 48q216 0 216 -190v-355zM-365 721q0 -35 37 -35q38 0 38 35q0 36 -38 36q-37 0 -37 -36zM-205 721q0 -50 -33 -80t-90 -30q-56 0 -89 30t-33 80q0 51 33 81t89 30q57 0 90 -30t33 -81z" />
    <glyph glyph-name="uni0E4E.alt1" 
d="M-229 525h-79q-81 0 -81 79q0 39 18 59.5t62 20.5q-24 11 -24 43q0 70 85 70h101v-78h-51q-31 0 -31 -20q0 -4 1 -7t4.5 -5t5.5 -2.5t7 -2t7 -2.5l-11 -56h-42q-37 0 -40 -6q-1 -3 -1 -7q0 -7 4.5 -10t10 -3.5t16.5 -0.5h38v-72z" />
    <glyph glyph-name="B513" horiz-adv-x="4532" 
d="M3103 633h101q0 -139 -3.5 -252t-6.5 -157l-4 -43h-74q-13 144 -13 452zM3211 0h-114v107h114v-107zM3969 0h-90v633h130l268 -460v460h88v-633h-85l-311 524v-524zM526 472q0 -90 -63 -131q44 -19 71.5 -60.5t27.5 -88.5q0 -93 -51 -142.5t-170 -49.5h-242v633h244
q94 0 138.5 -46t44.5 -115zM343 556h-152v-189h120q41 0 67 8.5t37.5 25t15 32.5t3.5 39q0 38 -19 61t-72 23zM191 73h135q83 0 114.5 26t31.5 93q0 57 -36.5 80.5t-128.5 23.5h-116v-223zM2774 64q68 1 107.5 27.5t39.5 77.5q0 24 -10 42.5t-24 30t-39 22t-44 15.5t-51 12
q-37 9 -53.5 13.5t-47.5 15.5t-46 22t-33 28.5t-25.5 41t-7.5 53.5q0 78 60.5 124.5t168.5 46.5q104 0 162.5 -53t58.5 -144h-91q0 58 -34.5 91.5t-95.5 33.5q-66 0 -101.5 -27t-35.5 -72q0 -20 9 -36t21.5 -25.5t36.5 -18.5t41 -13.5t48 -11.5l48 -11.5t44.5 -13t44 -17.5
t35 -22.5t30.5 -30.5t17.5 -39t7.5 -51q0 -84 -64.5 -133.5t-176.5 -49.5q-244 0 -244 229h89q0 -81 35 -119t120 -38zM3789 0h-88v42q-60 -50 -140 -50q-129 0 -201 83t-72 234q0 161 71 244.5t202 83.5q104 0 164 -53.5t68 -148.5h-93q-7 60 -43 92.5t-96 32.5
q-91 0 -134.5 -59t-43.5 -192q0 -238 178 -238q62 0 101 38t39 98v61h-133v73h221v-341zM2060 73h103q92 0 147.5 60.5t55.5 179.5q0 127 -54.5 187t-148.5 60h-103v-487zM1968 633h195q135 0 216.5 -81.5t81.5 -238.5q0 -149 -82.5 -231t-215.5 -82h-195v633zM1638 0h-524
v68h109v496h-489l-13 -160q48 31 129 31q91 0 151 -60.5t60 -153.5q0 -101 -61.5 -165t-166.5 -64q-104 0 -160 50.5t-56 130.5h88q0 -47 35 -79t93 -32q71 0 107 41t36 114q0 71 -35.5 108.5t-96.5 37.5q-105 0 -145 -72l-67 9l31 334h646v-566h329q63 0 96 28.5t33 78.5
q0 114 -138 114h-79v70h79q55 0 87 25.5t32 76.5q0 108 -115 108q-52 0 -86 -31t-34 -79h-88q0 77 58 129t150 52t144.5 -45t52.5 -132q0 -53 -23 -84.5t-68 -52.5q112 -30 112 -148q0 -86 -54.5 -132t-158.5 -46z" />
    <glyph glyph-name="macron" horiz-adv-x="381" 
d="M348 571h-316v83h316v-83z" />
    <glyph glyph-name="periodcentered" horiz-adv-x="274" 
d="M200 257q0 -28 -20.5 -47.5t-48.5 -19.5q-27 0 -48.5 20t-21.5 47t21.5 47t48.5 20q28 0 48.5 -19.5t20.5 -47.5z" />
    <glyph glyph-name="B513DS" 
 />
    <glyph glyph-name="zero.fitted" horiz-adv-x="559" 
d="M279 594q-143 0 -143 -257q0 -249 143 -249t143 249q0 125 -33.5 191t-109.5 66zM279 -7q-125 0 -186.5 94t-61.5 250q0 164 61 258.5t187 94.5q127 0 188 -94t61 -259q0 -156 -61.5 -250t-187.5 -94z" />
    <glyph glyph-name="one.fitted" horiz-adv-x="559" 
d="M474 0h-357v84h129v485l-136 -35v78l181 72h60v-600h123v-84z" />
    <glyph glyph-name="two.fitted" horiz-adv-x="559" 
d="M493 0h-422v81l153 167q115 129 132 152q33 45 33 89q0 105 -98 105q-52 0 -82.5 -35t-30.5 -92h-108q0 98 59.5 162t161.5 64q97 0 149.5 -56.5t52.5 -147.5q0 -75 -59.5 -155.5t-211.5 -233.5h271v-100z" />
    <glyph glyph-name="three.fitted" horiz-adv-x="559" 
d="M287 311h-78v93h78q94 0 94 107q0 39 -25.5 62.5t-74.5 23.5q-51 0 -79.5 -29.5t-28.5 -80.5h-108q0 92 59 149.5t157 57.5q95 0 150 -48t55 -134q0 -111 -91 -151q44 -12 76 -53t32 -108q0 -99 -57 -153.5t-165 -54.5q-109 0 -166 57t-57 162h110q0 -59 29 -90t84 -31
q59 0 88 28t29 78q0 115 -111 115z" />
    <glyph glyph-name="four.fitted" horiz-adv-x="559" 
d="M341 253v254l-171 -254h171zM445 0h-104v153h-299v80l291 451h112v-431h93v-100h-93v-153z" />
    <glyph glyph-name="five.fitted" horiz-adv-x="559" 
d="M468 581h-264l-10 -162q36 32 104 32q99 0 155.5 -57.5t56.5 -162.5q0 -112 -57 -175.5t-163 -63.5q-111 0 -167.5 52.5t-56.5 145.5h108q0 -47 30.5 -73.5t85.5 -26.5q57 0 86.5 36.5t29.5 102.5q0 123 -111 123q-91 0 -129 -65l-80 11l26 379h356v-96z" />
    <glyph glyph-name="six.fitted" horiz-adv-x="559" 
d="M494 511h-108q-9 43 -29.5 61.5t-62.5 18.5q-112 0 -126 -224q49 68 132 68q103 0 153.5 -62.5t50.5 -161.5q0 -92 -59 -155t-154 -63q-128 0 -179.5 82.5t-51.5 254.5t64 266t170 94q87 0 137.5 -46.5t62.5 -132.5zM291 90q51 0 79 33t28 88q0 126 -104 126
q-57 0 -86.5 -33t-29.5 -93q0 -55 29 -88t84 -33z" />
    <glyph glyph-name="seven.fitted" horiz-adv-x="559" 
d="M239 0h-116l251 581h-284v96h408v-69z" />
    <glyph glyph-name="eight.fitted" horiz-adv-x="559" 
d="M281 320q-119 -27 -119 -125q0 -105 119 -105q118 0 118 105q0 98 -118 125zM281 404q48 4 75 33t27 69t-27 65.5t-75 25.5q-49 0 -76 -25.5t-27 -65.5t27 -69t76 -33zM394 364q57 -20 86.5 -66t29.5 -107q0 -96 -62.5 -147.5t-166.5 -51.5t-166.5 51.5t-62.5 147.5
q0 61 29.5 107t86.5 66q-100 47 -100 142q0 88 58.5 138t154.5 50t154.5 -50t58.5 -138q0 -95 -100 -142z" />
    <glyph glyph-name="nine.fitted" horiz-adv-x="559" 
d="M66 172h108q6 -81 91 -81q60 0 93 61t33 150q-46 -55 -127 -55q-103 0 -156 63.5t-53 161.5q0 91 59.5 154.5t153.5 63.5q118 0 174.5 -76t56.5 -253q0 -178 -59 -273t-175 -95q-88 0 -141 47.5t-58 131.5zM265 346q57 0 87 33t30 93q0 54 -29.5 87.5t-84.5 33.5
q-51 0 -79.5 -33.5t-28.5 -87.5q0 -126 105 -126z" />
    <glyph glyph-name="slash.Nothai" horiz-adv-x="390" 
d="M361 511l-222 -560h-107l227 560h102z" />
    <glyph glyph-name="slash.Nothai2" horiz-adv-x="526" 
d="M311 -75h-97v612h97v-612z" />
    <glyph glyph-name="EK" horiz-adv-x="1709" 
d="M690 732v32q202 55 281 86v-351q0 -23 10 -23q7 0 16 6t12 11l91 100q143 161 216 210q68 47 140 47q43 0 77.5 -18t34.5 -55q0 -25 -22 -39.5t-47 -14.5q-19 0 -52.5 13.5t-51.5 13.5q-41 0 -91 -36q-50 -38 -135 -137l-55 -64l286 -365q47 -61 87 -88q44 -28 85 -28
v-32h-392v32q39 0 63 8q21 6 21 18q0 29 -37 71l-220 274l-36 -39v-364h-155v208q-56 -52 -93 -82.5t-95.5 -69.5t-120.5 -57.5t-130 -18.5q-140 0 -226 62.5t-86 174.5q0 77 46.5 130t122.5 79q-70 23 -115 70t-45 114q0 69 47 117.5t108 68t125 19.5q35 0 76 -7
t83.5 -21.5t70.5 -42.5t28 -65q0 -28 -18 -45.5t-44 -17.5q-33 0 -55.5 22.5t-34.5 49t-41 49t-73 22.5q-60 0 -88.5 -44.5t-28.5 -106.5t28 -109t85 -47q22 0 61.5 12t59.5 12q24 0 40 -14.5t16 -37.5q0 -27 -15.5 -42t-40.5 -15q-21 0 -60 16t-61 16q-41 0 -68.5 -26.5
t-38 -61.5t-10.5 -74q0 -95 44 -141.5t140 -46.5q98 0 194.5 61t212.5 179v327q0 63 -17.5 90t-71.5 27q-26 0 -37 -1zM1607 936v-13h-15v-48h-14v48h-17v13h46zM1641 875l-12 41h-1l-3 -41h-13l5 61h16l14 -46h1l15 46h15l5 -61h-13l-2 41h-1l-13 -41h-13z" />
    <glyph glyph-name="uni0E01.001" horiz-adv-x="584" 
d="M532 0h-156v341q0 38 -24 62.5t-66 24.5q-73 0 -109 -43l15 -11q34 -22 34 -63v-311h-156v311q0 14 -9 20l-31 26v32q21 62 96.5 109t159.5 47q110 0 178 -52t68 -152v-341z" />
    <glyph glyph-name="uni0E02.001" horiz-adv-x="551" 
d="M151 415q0 13 -16 13h-70v110h86q78 0 108 -23.5t30 -77.5q0 -45 -36.5 -103t-36.5 -92v-78q0 -55 66 -55q30 0 49 14.5t19 41.5v373h149v-372q0 -77 -58.5 -125.5t-158.5 -48.5t-158.5 46t-58.5 126v92q0 32 21.5 62t43 54.5t21.5 42.5z" />
    <glyph glyph-name="uni0E03.001" horiz-adv-x="565" 
d="M79 160v71q0 34 13 63.5t28.5 47t31.5 40t20 42.5l-32 -21h-9l-87 32v103h65l52 -41l52 44q38 0 61.5 -22t23.5 -56v-18q0 -44 -33.5 -108.5t-33.5 -98.5v-77q0 -26 17.5 -39t46.5 -13q66 0 66 53v376h152v-376q0 -76 -59 -123t-159 -47q-101 0 -158.5 44t-57.5 124z" />
    <glyph glyph-name="uni0E04.001" horiz-adv-x="599" 
d="M201 320v-72q11 27 38.5 43.5t56.5 16.5h59v-130h-81q-73 0 -73 -94v-84h-153v322q0 224 250 224q249 0 249 -224v-322h-156v320q0 57 -22 83t-71 26q-97 0 -97 -109z" />
    <glyph glyph-name="uni0E05.001" horiz-adv-x="616" 
d="M203 328v-80q10 27 37.5 43.5t57.5 16.5h58v-130h-80q-73 0 -73 -94v-84h-154v325q0 177 180 225l76 -53l68 53q106 -9 148.5 -64t42.5 -160v-326h-156v326q0 71 -38 87l-61 -36l-66 35q-40 -19 -40 -84z" />
    <glyph glyph-name="uni0E06.001" horiz-adv-x="599" 
d="M214 238v-55q22 -73 102 -73q39 0 57 24.5t18 60.5v343h156v-347q0 -96 -50 -148t-146 -52q-51 0 -88 20.5t-56 52.5l-13 -64h-136v231q0 34 16 63.5t36 47t39 40t23 42.5l-32 -21h-9l-87 32v103h65l52 -41l52 44q38 0 61.5 -22t23.5 -56v-18q0 -44 -42 -108.5t-42 -98.5
z" />
    <glyph glyph-name="uni0E07.001" horiz-adv-x="526" 
d="M324 201v206q0 19 -21 19h-70v112h106q65 0 100 -32.5t35 -88.5v-218q0 -104 -55.5 -155t-158.5 -51q-26 0 -55 4.5t-45 8.5l-16 4l-139 385h154l101 -292q33 0 48.5 19.5t15.5 78.5z" />
    <glyph glyph-name="uni0E08.001" horiz-adv-x="554" 
d="M269 209l27 -100q71 20 71 104v105q0 51 -25.5 78.5t-72.5 27.5q-41 0 -68.5 -22.5t-27.5 -64.5h-148q0 95 75 150t169 55q117 0 181.5 -59.5t64.5 -175.5v-56q0 -63 -21 -113t-55.5 -79t-75 -44t-84.5 -15h-87l-49 161q-6 17 -22 17h-50v111h78q56 0 82.5 -18.5
t37.5 -61.5z" />
    <glyph glyph-name="uni0E09.001" horiz-adv-x="593" 
d="M385 198v145q0 82 -96 82q-46 0 -74.5 -20.5t-28.5 -58.5h-150q0 89 73 142.5t180 53.5q122 0 187 -50.5t65 -148.5v-343h-141l-7 70q-19 -32 -61.5 -55.5t-85.5 -23.5q-194 0 -194 200v64h156v-60q0 -87 71 -87q40 0 68.5 25.5t37.5 64.5z" />
    <glyph glyph-name="uni0E0A.001" horiz-adv-x="559" 
d="M363 166v133q0 57 -54 57v79q40 5 54 27.5t14 82.5h149q0 -65 -19.5 -99t-61.5 -52q67 -29 67 -91v-137q0 -77 -61.5 -125.5t-161.5 -48.5q-101 0 -162.5 46.5t-61.5 125.5v99q0 30 21.5 58t43 50t21.5 40q0 11 -3.5 14t-13.5 3h-69v110h86q78 0 108 -22t30 -79
q0 -34 -36.5 -94t-36.5 -95v-84q0 -55 73 -55q34 0 54 15t20 42z" />
    <glyph glyph-name="uni0E0B.001" horiz-adv-x="572" 
d="M231 238v-74q0 -55 71 -55q34 0 54 15t20 42v133q0 57 -54 57v79q40 5 54 27.5t14 82.5h149q0 -65 -19.5 -99t-61.5 -52q67 -29 67 -91v-137q0 -77 -61.5 -125.5t-161.5 -48.5q-101 0 -162.5 46.5t-60.5 125.5v67q0 34 13 63.5t28.5 47t31.5 40t20 42.5l-32 -21h-9
l-87 32v103h65l52 -41l52 44q38 0 61.5 -22t23.5 -56v-18q0 -44 -33.5 -108.5t-33.5 -98.5z" />
    <glyph glyph-name="uni0E0C.001" horiz-adv-x="890" 
d="M529 341l1 -158q22 -73 90 -73q38 0 50 22.5t12 62.5v343h156v-347q0 -200 -183 -200q-87 0 -131 73l-8 -64h-140v341q0 38 -24.5 62.5t-66.5 24.5q-72 0 -108 -43l15 -11q34 -22 34 -63v-182q0 -15 5.5 -20t18.5 -5h41v-104h-88q-133 0 -133 122v189q0 14 -9 20l-31 26
v32q21 63 95.5 109.5t159.5 46.5q109 0 175.5 -51.5t68.5 -152.5z" />
    <glyph glyph-name="uni0E0D.001" horiz-adv-x="879" 
d="M529 341v-121q0 -65 70 -65q34 0 53 18t19 53v312h156v-467q0 -224 -254 -224q-41 0 -85 6.5t-68 13.5l-24 7v117q95 -27 168 -27q55 0 81.5 29.5t26.5 92.5q-44 -51 -126 -51q-77 0 -123.5 47.5t-46.5 135.5v123q0 38 -24.5 62.5t-66.5 24.5q-72 0 -108 -43l15 -11
q34 -22 34 -63v-182q0 -15 5.5 -20t18.5 -5h41v-104h-88q-133 0 -133 122v189q0 14 -9 20l-31 26v32q21 63 95.5 109.5t159.5 46.5q110 0 177 -52t67 -152z" />
    <glyph glyph-name="uni0E0E.001" horiz-adv-x="610" 
d="M558 341v-440q0 -69 -44 -109t-118 -40h-42l-69 58q-21 -27 -43 -39.5t-61 -12.5h-85v117h76q28 0 49.5 12.5t29.5 34.5h45l68 -53h5q33 0 33 35v437q0 40 -25.5 63.5t-71.5 23.5q-79 0 -115 -43l15 -11q47 -30 47 -63v-189q0 -122 -132 -122h-76v104h29q13 0 18 5t5 20
v182q0 14 -9 20l-44 26v32q20 62 98.5 109t163.5 47q112 0 182.5 -52t70.5 -152z" />
    <glyph glyph-name="uni0E0F.001" horiz-adv-x="610" 
d="M558 341v-454q0 -57 -41.5 -93t-118.5 -36l-80 56l-66 -55h-25q-24 26 -66 26h-65v117h65q30 0 48 -8.5t39 -28.5l61 57h19l74 -53v472q0 40 -25.5 63.5t-71.5 23.5q-79 0 -115 -43l15 -11q47 -30 47 -63v-189q0 -122 -132 -122h-76v104h29q13 0 18 5t5 20v182
q0 14 -9 20l-44 26v32q20 62 98.5 109t163.5 47q112 0 182.5 -52t70.5 -152z" />
    <glyph glyph-name="uni0E10.001" horiz-adv-x="563" 
d="M138 291q68 0 99 -19t49 -78l21 -71q56 28 56 103v91q0 105 -94 105q-42 0 -71 -21.5t-29 -62.5h-150q0 94 77.5 148.5t172.5 54.5q25 0 54.5 -4.5t31.5 -4.5q20 0 27.5 11.5t7.5 40.5h152q0 -45 -26.5 -80t-59.5 -45q30 -21 42.5 -56.5t12.5 -97.5v-67q0 -150 -99 -193
q86 -23 86 -105v-4q0 -153 -167 -153h-39l-54 47q-17 -22 -38 -32t-60 -10h-102v114h97q28 0 43 10.5t26 35.5h48l56 -49h8q15 0 27.5 13.5t12.5 35.5v6q0 20 -14.5 33t-43.5 13h-108l-47 162q-3 10 -8 10h-66v119h69z" />
    <glyph glyph-name="uni0E11.001" horiz-adv-x="621" 
d="M172 387v37l-38 -21h-9l-81 32v103h59l52 -41l52 44q40 0 65.5 -16.5t25.5 -48.5q19 27 54.5 46t76.5 19q74 0 107 -37.5t33 -112.5v-391h-150v386q0 27 -29 27q-30 0 -70 -54l-60 -78q-22 -28 -22 -57v-224h-151v238q0 42 44 88l10.5 10t12 12t9 11t7.5 14t2 14z" />
    <glyph glyph-name="uni0E12.001" horiz-adv-x="924" 
d="M560 339l-1 -152q22 -77 95 -77q38 0 50 22.5t12 62.5v343h156v-347q0 -200 -183 -200q-87 0 -131 73l-8 -64h-141v339q0 60 -32 76l-72 -47l-79 45q-44 -36 -44 -130v-43q0 -73 24.5 -102t75.5 -29l79 5v-111q-52 -10 -92 -10q-108 0 -171 65t-63 193v19q0 212 187 273
l80 -54l67 54q102 -15 147 -61.5t44 -142.5z" />
    <glyph glyph-name="uni0E13.001" horiz-adv-x="890" 
d="M376 191v150q0 38 -24.5 62.5t-66.5 24.5q-72 0 -108 -43l15 -11q34 -22 34 -63v-182q0 -15 5.5 -20t18.5 -5h41v-104h-88q-133 0 -133 122v189q0 14 -9 20l-31 26v32q21 63 95.5 109.5t159.5 46.5q109 0 175.5 -51.5t68.5 -152.5v-146q0 -85 65 -85q67 0 88 73v355h156
v-538h-140l-8 64q-44 -73 -131 -73q-183 0 -183 200z" />
    <glyph glyph-name="uni0E14.001" horiz-adv-x="602" 
d="M27 251v15q0 123 75 201t196 78q118 0 185 -58.5t67 -170.5v-316h-152v316q0 61 -24.5 85.5t-75.5 24.5q-123 0 -123 -147v-40q0 -130 106 -130l79 5v-108q-38 -13 -84 -13q-113 0 -181 66.5t-68 191.5z" />
    <glyph glyph-name="uni0E15.001" horiz-adv-x="612" 
d="M182 283v-43q0 -73 24.5 -102t75.5 -29l79 5v-111q-52 -10 -92 -10q-108 0 -171 65t-63 193v19q0 212 187 273l80 -54l67 54q101 -14 146 -61t45 -143v-339h-151v339q0 60 -32 76l-72 -47l-79 45q-44 -36 -44 -130z" />
    <glyph glyph-name="uni0E16.001" horiz-adv-x="597" 
d="M70 122v189q0 14 -9 20l-31 26v32q20 62 98.5 109t163.5 47q112 0 182.5 -52t70.5 -152v-341h-156v341q0 37 -27 62t-70 25q-79 0 -115 -43l15 -11q34 -22 34 -63v-182q0 -15 5.5 -20t18.5 -5h41v-104h-88q-133 0 -133 122z" />
    <glyph glyph-name="uni0E17.001" horiz-adv-x="601" 
d="M204 537v-35l-6 -35h2q45 75 151 75q95 0 146.5 -51t51.5 -152v-339h-154v338q0 42 -19 60.5t-60 18.5q-52 0 -82 -37t-30 -102v-278h-152v537h152z" />
    <glyph glyph-name="uni0E18.001" horiz-adv-x="573" 
d="M277 246q-37 1 -60 2.5t-57.5 9t-54.5 21t-35 39.5t-15 62q0 71 65 117t165 46q107 0 169 -43.5t69 -131.5h-150q-11 58 -88 58q-37 0 -58.5 -11t-21.5 -29q0 -16 18 -22t69 -8q36 -2 56.5 -3.5t53 -7t51 -16t38 -27t28.5 -43.5t9 -63v-45q0 -72 -61.5 -115t-172.5 -43
q-116 0 -169.5 38t-53.5 118v73h151v-71q0 -24 17 -32.5t55 -8.5q42 0 62 8.5t20 32.5v39q0 33 -18 43.5t-81 12.5z" />
    <glyph glyph-name="uni0E19.001" horiz-adv-x="593" 
d="M541 0h-141l-7 70q-19 -32 -61.5 -55.5t-85.5 -23.5q-194 0 -194 200v347h156v-343q0 -87 71 -87q40 0 68.5 25.5t37.5 64.5v340h156v-538z" />
    <glyph glyph-name="uni0E1A.001" horiz-adv-x="611" 
d="M305 -10q-127 0 -190 54t-63 173v321h156v-322q0 -57 24 -83t73 -26q50 0 74 26t24 83v322h156v-321q0 -119 -63.5 -173t-190.5 -54z" />
    <glyph glyph-name="uni0E1B.001" horiz-adv-x="611" 
d="M305 -10q-127 0 -190 54t-63 173v321h156v-322q0 -57 24 -83t73 -26q50 0 74 26t24 83v499h156v-498q0 -119 -63.5 -173t-190.5 -54z" />
    <glyph glyph-name="uni0E1C.001" horiz-adv-x="630" 
d="M205 416v-160l-4 -56l91 107h42l92 -107q-4 29 -4 56v282h156v-538h-131l-10 29q-6 16 -37 49t-59 58l-28 24q-102 -96 -117 -133l-10 -27h-134v420q0 118 135 118h89v-104h-52q-19 0 -19 -18z" />
    <glyph glyph-name="uni0E1D.001" horiz-adv-x="630" 
d="M205 416v-160l-4 -56l91 107h42l92 -107q-4 29 -4 56v459h156v-715h-131l-10 29q-6 16 -37 49t-59 58l-28 24q-102 -96 -117 -133l-10 -27h-134v420q0 118 135 118h89v-104h-52q-19 0 -19 -18z" />
    <glyph glyph-name="uni0E1E.001" horiz-adv-x="699" 
d="M303 520h95l78 -286l43 304h158l-100 -538h-138l-11 45q-7 25 -26.5 82.5l-35.5 102.5l-16 46q-58 -168 -76 -231l-13 -45h-139l-100 538h157l45 -304z" />
    <glyph glyph-name="uni0E1F.001" horiz-adv-x="699" 
d="M303 520h95l78 -286l67 481h159l-125 -715h-138l-11 45q-7 25 -26.5 82.5l-35.5 102.5l-16 46q-58 -168 -76 -231l-13 -45h-139l-100 538h157l45 -304z" />
    <glyph glyph-name="uni0E20.001" horiz-adv-x="610" 
d="M252 311v-189q0 -122 -132 -122h-76v104h29q13 0 18 5t5 20v182q0 14 -9 20l-44 26v32q20 62 98.5 109t163.5 47q112 0 182.5 -52t70.5 -152v-341h-156v341q0 40 -25.5 63.5t-71.5 23.5q-79 0 -115 -43l15 -11q47 -30 47 -63z" />
    <glyph glyph-name="uni0E21.001" horiz-adv-x="593" 
d="M192 0h-140v538h156v-355q21 -73 101 -73q39 0 57.5 24.5t18.5 60.5v343h156v-347q0 -96 -50 -148t-147 -52q-98 0 -144 73z" />
    <glyph glyph-name="uni0E22.001" horiz-adv-x="586" 
d="M48 166v16q0 41 25.5 74t66.5 44q-42 9 -65.5 42.5t-23.5 76.5q0 119 163 119h85v-110h-73q-34 0 -34 -32q0 -26 12 -35.5t40 -9.5h56v-111h-56q-44 0 -44 -45v-20q0 -32 23 -50t68 -18t66 18t21 57v356h156v-363q0 -81 -62.5 -133t-180.5 -52q-116 0 -179.5 47
t-63.5 129z" />
    <glyph glyph-name="uni0E23.001" horiz-adv-x="520" 
d="M257 426q-29 0 -45 -12.5t-16 -31.5t29 -33t70 -25.5t82 -27.5t70 -48.5t29 -78.5q0 -75 -52.5 -122t-170.5 -47q-99 0 -154 45.5t-55 132.5h150q0 -61 67 -61q38 0 51.5 11t13.5 36q0 17 -29 28t-70 21.5t-82.5 26.5t-70.5 51t-29 87q0 71 60 118t152 47q219 0 219 -188
h-147q0 42 -16 56.5t-56 14.5z" />
    <glyph glyph-name="uni0E24.001" horiz-adv-x="597" 
d="M70 122v189q0 14 -9 20l-31 26v32q20 62 98.5 109t163.5 47q112 0 182.5 -52t70.5 -152v-527h-156v527q0 37 -27 62t-70 25q-79 0 -115 -43l15 -11q34 -22 34 -63v-182q0 -15 5.5 -20t18.5 -5h41v-104h-88q-133 0 -133 122z" />
    <glyph glyph-name="uni0E25.001" horiz-adv-x="589" 
d="M537 351v-351h-151v138q0 28 -31.5 51.5t-71.5 23.5q-71 0 -71 -49v-7q0 -49 49 -49l47 6v-109q-34 -13 -79 -13q-78 0 -123 45t-45 118v7q0 72 56.5 119.5t159.5 47.5q64 0 109 -33v55q0 75 -79 75q-41 0 -63.5 -18.5t-22.5 -53.5h-150q0 96 66 142.5t167 46.5
q111 0 172 -50t61 -142z" />
    <glyph glyph-name="uni0E26.001" horiz-adv-x="610" 
d="M252 311v-189q0 -122 -132 -122h-76v104h29q13 0 18 5t5 20v182q0 14 -9 20l-44 26v32q20 62 98.5 109t163.5 47q112 0 182.5 -52t70.5 -152v-528h-156v528q0 40 -25.5 63.5t-71.5 23.5q-79 0 -115 -43l15 -11q47 -30 47 -63z" />
    <glyph glyph-name="uni0E27.001" horiz-adv-x="551" 
d="M365 246v45q0 73 -23 102t-68 29q-36 0 -61.5 -22.5t-25.5 -64.5h-148q0 98 66 152.5t169 54.5q120 0 179 -69.5t59 -194.5v-17q0 -125 -61 -197t-181 -72q-105 0 -166.5 52t-61.5 141h145q0 -36 22 -54.5t61 -18.5q46 0 70.5 30.5t24.5 103.5z" />
    <glyph glyph-name="uni0E28.001" horiz-adv-x="593" 
d="M547 322v-322h-156v320q0 57 -22 83t-71 26q-97 0 -97 -109v-72q11 27 38.5 43.5t56.5 16.5h59v-130h-81q-73 0 -73 -94v-84h-153v322q0 224 250 224q31 0 68 -7t40 -7q26 0 26 52h143q0 -53 -21 -80t-63 -43q56 -46 56 -139z" />
    <glyph glyph-name="uni0E29.001" horiz-adv-x="611" 
d="M533 221h-225v126h255h48v-104zM305 -10q-127 0 -190 54t-63 173v321h156v-322q0 -57 24 -83t73 -26q50 0 74 26t24 83v322h156v-321q0 -119 -63.5 -173t-190.5 -54z" />
    <glyph glyph-name="uni0E2A.001" horiz-adv-x="589" 
d="M537 351v-351h-151v138q0 28 -31.5 51.5t-71.5 23.5q-71 0 -71 -49v-7q0 -49 49 -49l47 6v-109q-34 -13 -79 -13q-78 0 -123 45t-45 118v7q0 72 56.5 119.5t159.5 47.5q64 0 109 -33v55q0 75 -79 75q-41 0 -63.5 -18.5t-22.5 -53.5h-150q0 96 66 142.5t167 46.5
q31 0 63.5 -5.5t35.5 -5.5q26 0 26 52h143q0 -53 -21 -80t-62 -43q48 -31 48 -110z" />
    <glyph glyph-name="uni0E2B.001" horiz-adv-x="615" 
d="M205 360l107 17q92 10 92 83v73h154v-79q0 -102 -103 -126q108 -14 108 -130v-198h-152v188q0 34 -18.5 52.5t-50.5 18.5q-19 0 -137 -20v-239h-150v533h150v-173z" />
    <glyph glyph-name="uni0E2C.001" horiz-adv-x="666" 
d="M450 250v49q0 57 -54 57v79q40 5 54 27.5t14 82.5h150q0 -65 -20 -99t-62 -52q67 -29 67 -91v-303h-131l-10 29q-6 16 -39 42.5t-63 44.5l-30 18q-110 -70 -125 -107l-10 -27h-131v538h151v-287l-4 -57l105 87h29l113 -87q-4 28 -4 56z" />
    <glyph glyph-name="uni0E2D.001" horiz-adv-x="552" 
d="M251 190h-52q-11 0 -11 -9v-15q0 -57 80 -57q91 0 91 111v100q0 58 -21 83t-66 25q-86 0 -86 -86h-151q0 98 70 151.5t167 53.5q110 0 175.5 -61t65.5 -179v-69q0 -118 -62.5 -182t-182.5 -64q-113 0 -169.5 50t-56.5 141v26q0 91 106 91h103v-110z" />
    <glyph glyph-name="uni0E2E.001" horiz-adv-x="552" 
d="M513 307v-69q0 -118 -62.5 -182t-182.5 -64q-113 0 -169.5 50t-56.5 141v26q0 91 106 91h103v-110h-52q-11 0 -11 -9v-15q0 -57 80 -57q91 0 91 111v100q0 58 -21 83t-66 25q-86 0 -86 -86h-151q0 98 70 151.5t167 53.5q31 0 60 -7.5t35 -7.5q26 0 26 52h143
q0 -54 -19.5 -80.5t-60.5 -42.5q57 -38 57 -154z" />
    <glyph glyph-name="uni0E42.001" horiz-adv-x="305" 
d="M58 122v475q0 77 -19 111.5t-64 42.5v102h351v-111h-184q36 -19 54 -50t18 -88v-475q0 -15 5.5 -20t18.5 -5h41v-104h-88q-133 0 -133 122z" />
    <glyph glyph-name="uni0E43.001" horiz-adv-x="305" 
d="M214 528v-399q0 -15 5.5 -20t18.5 -5h41v-104h-88q-133 0 -133 122v406q0 30 15.5 60t34 50.5t34 45t15.5 44.5q0 26 -35 26t-35 -27l3 -47h-142q-10 25 -10 51q0 64 50 102t134 38q82 0 133.5 -36t51.5 -94q0 -39 -46.5 -106t-46.5 -107z" />
    <glyph glyph-name="uni0E44.001" horiz-adv-x="304" 
d="M58 122v482q0 37 18 66.5t36.5 43t47.5 28.5h-185v111h351v-102q-112 -19 -112 -154v-468q0 -15 5.5 -20t18.5 -5h41v-104h-88q-133 0 -133 122z" />
    <glyph glyph-name="uni0E47.001" 
d="M-95 697v-96h-100l-65 44l-66 -44h-54q-57 0 -90.5 32.5t-33.5 77.5v25q0 56 43.5 89.5t125.5 33.5h240v-91h-233q-53 0 -53 -32v-11q0 -28 26 -28h27l58 31h22l66 -31h87z" />
    <glyph glyph-name="uni0E48.001" 
d="M-65 837h-108l-5 105v94h118v-94z" />
    <glyph glyph-name="uni0E49.001" 
d="M-83 946v-39h183v-84h-274v82q0 11 -3.5 15t-14.5 4h-73v78h123q32 0 45.5 -13t13.5 -43z" />
    <glyph glyph-name="uni0E4A.001" 
d="M-335 889q0 44 25 69t68 25q18 0 32.5 -7.5t20.5 -15.5l6 -7q15 28 58 28q30 0 51 -20.5t21 -57.5v-35h91v-62h-159v92q0 25 -23 25q-11 0 -19.5 -5.5t-12.5 -10.5l-3 -5h-11q-19 24 -44 24q-30 0 -30 -28v-8q0 -22 26 -22v-62h-31q-31 0 -48.5 22t-17.5 61z" />
    <glyph glyph-name="uni0E4B.001" 
d="M-8 892h-69v-60h-73v60h-70v61h70v62h73v-62h69v-61z" />
    <glyph glyph-name="uni0E4C.001" 
d="M-222 819v-40h-130v37q0 71 39 111t121 40h166v-117h-163q-33 0 -33 -31z" />
    <glyph glyph-name="uni0E48.alt1.001" 
d="M-244 606h-143v184h143v-184z" />
    <glyph glyph-name="uni0E49.alt1.001" 
d="M-315 747v-48h181v-97h-311v100q0 13 -4.5 18t-17.5 5h-66v91h133q39 0 62 -17.5t23 -51.5z" />
    <glyph glyph-name="uni0E4A.alt1.001" 
d="M-595 708q0 49 31 76t81 27q10 0 19.5 -2t19.5 -7t15.5 -8t15.5 -9.5l13 -8.5q2 1 15.5 10t20.5 13t21.5 8t30.5 4q39 0 61 -21t22 -57v-41h94v-85h-198v98q0 19 -26 19q-10 0 -19 -6t-12 -12l-4 -7h-15q-15 28 -39 28q-29 0 -29 -19v-5q0 -18 18 -18h21v-78h-44
q-51 0 -82 26t-31 75z" />
    <glyph glyph-name="uni0E4B.alt1.001" 
d="M-182 645h-91v-65h-130v65h-91v108h91v71h130v-71h91v-108z" />
    <glyph glyph-name="uni0E4C.alt1.001" 
d="M-343 664v-40h-130v38q0 70 39 110t121 40h166v-117h-163q-33 0 -33 -31z" />
    <glyph glyph-name="uni0E48.alt2.001" 
d="M-75 606h-143v184h143v-184z" />
    <glyph glyph-name="uni0E49.alt2.001" 
d="M-198 747v-48h181v-97h-311v100q0 13 -4.5 18t-17.5 5h-66v91h133q39 0 62 -17.5t23 -51.5z" />
    <glyph glyph-name="uni0E4A.alt2.001" 
d="M-473 708q0 49 31 76t81 27q10 0 19.5 -2t19.5 -7t15.5 -8t15.5 -9.5l13 -8.5q2 1 15.5 10t20.5 13t21.5 8t30.5 4q39 0 61 -21t22 -57v-41h94v-85h-198v98q0 19 -26 19q-10 0 -19 -6t-12 -12l-4 -7h-15q-15 28 -39 28q-29 0 -29 -19v-5q0 -18 18 -18h21v-78h-44
q-51 0 -82 26t-31 75z" />
    <glyph glyph-name="uni0E4B.alt2.001" 
d="M26 645h-91v-65h-130v65h-91v108h91v71h130v-71h91v-108z" />
    <glyph glyph-name="uni0E4C.alt2.001" 
d="M-222 664v-40h-130v38q0 70 39 110t121 40h166v-117h-163q-33 0 -33 -31z" />
    <glyph glyph-name="uni0E47.alt1.001" 
d="M-215 697v-96h-100l-65 44l-66 -44h-54q-57 0 -90.5 32.5t-33.5 77.5v25q0 56 43.5 89.5t125.5 33.5h240v-91h-233q-53 0 -53 -32v-11q0 -28 26 -28h27l58 31h22l66 -31h87z" />
    <glyph glyph-name="uni0E48.alt3.001" 
d="M-216 863h-122v185h122v-185z" />
    <glyph glyph-name="uni0E49.alt3.001" 
d="M-138 946v-39h183v-84h-274v82q0 11 -3.5 15t-14.5 4h-73v78h123q32 0 45.5 -13t13.5 -43z" />
    <glyph glyph-name="uni0E4A.alt3.001" 
d="M-241 1001l28 23q17 13 47 13q58 0 90.5 -26t32.5 -69v-5h88v-78h-96h-106v57q0 30 -28 30h-10l-36 -31h-17l-39 31h-11q-28 0 -28 -43v-44h-124v65q0 113 138 113q29 0 45 -13z" />
    <glyph glyph-name="uni0E4B.alt3.001" 
d="M-81 926h-92l-3 -67h-110l-3 67h-94v104h93v68h117v-68h92v-104z" />
    <glyph glyph-name="uni0E4C.alt3.001" 
d="M-293 858v-40h-130v37q0 145 160 145h154v-111h-150q-34 0 -34 -31z" />
    <glyph glyph-name="uni0E01.002" horiz-adv-x="584" 
d="M532 0h-156v343q0 39 -23.5 62t-62.5 23q-53 0 -85 -41l54 -33v-50q-33 -7 -33 -49v-255h-155v244q0 66 59 89l-82 40v43q33 47 96.5 88t145.5 41q242 0 242 -210v-335z" />
    <glyph glyph-name="uni0E02.002" horiz-adv-x="550" 
d="M147 411q0 17 -14 17h-71v110h98q70 0 98.5 -29t28.5 -90q0 -12 -1.5 -23.5t-7 -24.5t-8 -20t-12 -22.5t-12 -19l-15 -21.5t-13.5 -19v-104q0 -57 60 -57q30 0 47 15t17 43v372h156v-372q0 -78 -59 -128t-161 -50q-101 0 -158.5 47t-57.5 129v115l20 23t23.5 27.5
t19.5 26.5t16.5 29.5t5.5 25.5z" />
    <glyph glyph-name="uni0E03.002" horiz-adv-x="577" 
d="M79 160v125q83 69 107 147l-39 -26h-12l-73 35v97h73l44 -34l46 34h82v-92q0 -94 -72 -181v-104q0 -27 18.5 -40t45.5 -13q31 0 50.5 13.5t19.5 39.5v377h156v-377q0 -78 -61.5 -125.5t-164.5 -47.5t-161.5 45.5t-58.5 126.5z" />
    <glyph glyph-name="uni0E04.002" horiz-adv-x="599" 
d="M201 320v-72q11 27 38.5 43.5t56.5 16.5h59v-130h-81q-73 0 -73 -94v-84h-153v322q0 224 250 224q249 0 249 -224v-322h-156v320q0 57 -22 83t-71 26q-97 0 -97 -109z" />
    <glyph glyph-name="uni0E05.002" horiz-adv-x="603" 
d="M203 328v-73q20 53 82 53h65v-130h-81q-32 0 -49 -20.5t-17 -73.5v-84h-154v325q0 180 169 225l81 -53l71 53q105 -9 143 -63t38 -161v-326h-156v326q0 70 -27 87l-65 -36l-70 35q-16 -8 -23 -26t-7 -58z" />
    <glyph glyph-name="uni0E06.002" horiz-adv-x="599" 
d="M58 0v283q105 88 124 149l-39 -26h-12l-73 35v97h73l44 -34l46 34h82v-92q0 -75 -89 -182v-81q19 -75 102 -75q39 0 57 25t18 62v343h156v-347q0 -96 -50 -148t-146 -52q-50 0 -87 23t-57 56l-15 -70h-134z" />
    <glyph glyph-name="uni0E07.002" horiz-adv-x="524" 
d="M317 409q0 11 -4 15t-14 4h-68v110h104q137 0 137 -125v-247q0 -84 -54 -128.5t-148 -44.5q-32 0 -63.5 5t-47.5 10l-16 5l-133 382h158l93 -291q29 0 42.5 12.5t13.5 42.5v250z" />
    <glyph glyph-name="uni0E08.002" horiz-adv-x="546" 
d="M133 178h-50v111h65q69 0 92.5 -13t36.5 -62l22 -81l20 53t24.5 76.5t7.5 62.5q0 103 -83 103q-94 0 -94 -87h-152q0 96 70.5 150t175.5 54q114 0 176.5 -61t62.5 -159q0 -49 -24 -103.5t-58 -116.5t-48 -105h-160l-62 161q-6 17 -22 17z" />
    <glyph glyph-name="uni0E09.002" horiz-adv-x="588" 
d="M230 279v-111q0 -33 11 -45.5t48 -12.5q35 0 60.5 19.5t32.5 55.5v157q0 37 -25.5 58.5t-70.5 21.5q-41 0 -70 -24t-29 -67h-153q0 99 75 156.5t177 57.5q119 0 184.5 -54t65.5 -149v-342h-149v62q-17 -35 -54.5 -53t-84.5 -18q-170 0 -170 175h-44v113h196z" />
    <glyph glyph-name="uni0E0A.002" horiz-adv-x="559" 
d="M511 328v-162q0 -78 -61.5 -128t-163.5 -50q-103 0 -163.5 47.5t-60.5 128.5v115l20 23t23.5 27.5t19.5 26.5t16.5 29.5t5.5 25.5q0 17 -14 17h-71v110h98q70 0 98.5 -29t28.5 -90q0 -12 -1.5 -23.5t-7 -24.5t-8 -20t-12 -22.5t-12 -19l-15 -21.5t-13.5 -19v-104
q0 -28 19 -42.5t49 -14.5q31 0 50 15.5t19 42.5v163q0 21 -20 21h-11l-20 85q47 17 69 43t30 95l138 -39q-9 -98 -74 -132q44 -16 44 -74z" />
    <glyph glyph-name="uni0E0B.002" horiz-adv-x="591" 
d="M235 265v-100q0 -27 22 -42t52 -15q32 0 54 15.5t22 42.5v163q0 21 -20 21h-11l-20 85q47 17 69 43t30 95l138 -39q-10 -99 -74 -132q44 -16 44 -74v-162q0 -77 -64.5 -127.5t-167.5 -50.5t-166.5 48t-63.5 128v121q83 69 107 147l-39 -26h-12l-73 35v97h73l44 -34l46 34
h82v-92q0 -94 -72 -181z" />
    <glyph glyph-name="uni0E0C.002" horiz-adv-x="890" 
d="M529 335v-152q5 -36 27.5 -54.5t57.5 -18.5q71 0 71 85v343h153v-347q0 -97 -45.5 -148.5t-136.5 -51.5q-88 0 -135 73l-8 -64h-137v343q0 42 -18.5 63.5t-63.5 21.5q-57 0 -89 -41l54 -33v-50q-32 -7 -32 -49v-126q0 -15 5.5 -20t18.5 -5h41v-104h-88q-133 0 -133 122
v122q0 66 59 89l-82 40v43q32 47 98 88t148 41q117 0 177 -51.5t58 -158.5z" />
    <glyph glyph-name="uni0E0D.002" horiz-adv-x="879" 
d="M376 212v131q0 42 -18.5 63.5t-63.5 21.5q-57 0 -89 -41l54 -33v-50q-32 -7 -32 -49v-126q0 -15 5.5 -20t18.5 -5h41v-104h-88q-133 0 -133 122v122q0 66 59 89l-82 40v43q32 47 98 88t148 41q117 0 177 -51.5t58 -158.5v-122q0 -65 70 -65q34 0 53 18.5t19 53.5v318h156
v-467q0 -110 -66.5 -167t-195.5 -57q-41 0 -83 5.5t-64 11.5l-22 6v120q95 -26 168 -26q56 0 82 27t26 90q-13 -16 -24.5 -25.5t-38 -18t-63.5 -8.5q-77 0 -123.5 47.5t-46.5 135.5z" />
    <glyph glyph-name="uni0E0E.002" horiz-adv-x="616" 
d="M408 -96v439q0 85 -88 85q-57 0 -87 -41l57 -33v-50q-31 -7 -31 -49v-133q0 -122 -133 -122h-75v104h28q13 0 18.5 5t5.5 20v115q0 67 58 89l-86 40v43q31 46 100 87.5t151 41.5q238 0 238 -210v-434q0 -69 -43.5 -109t-117.5 -40h-43l-69 58q-19 -26 -42 -39t-62 -13
h-84v117h75q29 0 50.5 12.5t28.5 34.5h46l67 -53h6q32 0 32 35z" />
    <glyph glyph-name="uni0E0F.002" horiz-adv-x="616" 
d="M564 335v-439q0 -67 -36.5 -103.5t-127.5 -36.5l-49 42l-61 -50l-59 48q-29 -44 -96 -44h-60v118h58q51 0 74 45h36l47 -46l43 46h23l52 -49v477q0 85 -88 85q-57 0 -87 -41l57 -33v-50q-31 -7 -31 -49v-133q0 -122 -133 -122h-75v104h28q13 0 18.5 5t5.5 20v115
q0 67 58 89l-86 40v43q31 46 100 87.5t151 41.5q238 0 238 -210z" />
    <glyph glyph-name="uni0E10.002" horiz-adv-x="563" 
d="M325 -117v92h57q122 0 122 -110v-11q0 -59 -39.5 -91.5t-117.5 -32.5h-51l-56 48q-37 -43 -85 -43h-119v114h100q28 0 43 10.5t28 35.5h41l77 -56h4q26 0 26 18v8q0 10 -5.5 14t-24.5 4zM269 209l27 -100q71 20 71 104v105q0 51 -25.5 78.5t-72.5 27.5q-41 0 -68.5 -22.5
t-27.5 -64.5h-148q0 95 75 150t169 55q111 0 178.5 -62t67.5 -173v-56q0 -63 -21 -113t-55.5 -79t-75 -44t-84.5 -15h-87l-49 161q-6 17 -22 17h-50v111h78q56 0 82.5 -18.5t37.5 -61.5zM456 426l-97 72l44 75h162z" />
    <glyph glyph-name="uni0E11.002" horiz-adv-x="628" 
d="M185 400l1 32l-39 -26h-12l-73 35v97h73l44 -34l46 34h82v-52q43 55 114 55q74 0 114.5 -42.5t40.5 -117.5v-381h-156v381q0 30 -25 30q-5 0 -9.5 -0.5t-8.5 -2.5t-7 -3t-7 -5l-6 -6t-6.5 -7.5t-6.5 -8.5l-7 -10.5t-8 -11.5l-69 -95v-261h-156v282q3 4 27.5 31.5t39 49.5
t14.5 37z" />
    <glyph glyph-name="uni0E12.002" horiz-adv-x="933" 
d="M572 315v-132q15 -73 91 -73q65 0 65 85v343h153v-347q0 -200 -184 -200q-95 0 -133 73l-8 -64h-137v315q0 84 -41 115l-69 -49l-76 49q-42 -39 -42 -136q0 -114 21 -180l32 52q15 25 15 56h-43v104h175v-67q0 -49 -10.5 -80.5t-38.5 -65.5l-99 -113h-140
q-67 173 -67 294q0 202 184 256l84 -55l68 56q100 -15 150 -71.5t50 -164.5z" />
    <glyph glyph-name="uni0E13.002" horiz-adv-x="903" 
d="M376 191v152q0 85 -86 85q-53 0 -85 -41l54 -33v-50q-32 -7 -32 -49v-126q0 -15 5.5 -20t18.5 -5h41v-104h-88q-133 0 -133 122v122q0 66 59 89l-82 40v43q33 47 96.5 88t145.5 41q242 0 242 -210v-140q0 -46 17 -66.5t54 -20.5q35 0 63 26.5t29 63.5v340h156v-538h-140
l-8 70q-44 -79 -147 -79q-84 0 -132 49.5t-48 150.5z" />
    <glyph glyph-name="uni0E14.002" horiz-adv-x="606" 
d="M188 294q0 -85 17 -180l30 52q15 28 15 56h-43v104h175v-67q0 -47 -11 -78.5t-38 -67.5l-90 -113h-140q-67 173 -67 294q0 117 74 184.5t186 67.5q129 0 193.5 -56.5t64.5 -177.5v-312h-154v312q0 67 -25.5 90.5t-78.5 23.5q-108 0 -108 -132z" />
    <glyph glyph-name="uni0E15.002" horiz-adv-x="624" 
d="M212 114l30 52q14 26 14 56h-43v104h176v-67q0 -48 -10.5 -80t-39.5 -66l-96 -113h-140q-67 173 -67 294q0 201 186 256l85 -55l67 56q100 -14 149 -71t49 -165v-315h-153v315q0 86 -38 115l-69 -49l-77 49q-44 -42 -44 -136q0 -114 21 -180z" />
    <glyph glyph-name="uni0E16.002" horiz-adv-x="597" 
d="M71 122v122q0 66 59 89l-82 40v43q32 46 99 87.5t149 41.5q119 0 184 -51.5t65 -158.5v-335h-156v343q0 85 -93 85q-59 0 -91 -41l54 -33v-50q-32 -7 -32 -49v-126q0 -15 5.5 -20t18.5 -5h41v-104h-88q-133 0 -133 122z" />
    <glyph glyph-name="uni0E17.002" horiz-adv-x="588" 
d="M204 537v-35l-6 -39h2q22 36 62 57.5t89 21.5q91 0 138 -51.5t47 -151.5v-339h-154v338q0 79 -66 79q-52 0 -82 -37t-30 -102v-278h-152v537h152z" />
    <glyph glyph-name="uni0E18.002" horiz-adv-x="580" 
d="M205 389q0 -12 89 -16q61 -2 100 -9t71.5 -24.5t47.5 -50.5t15 -84v-46q0 -76 -58.5 -122.5t-171.5 -46.5q-120 0 -175 41.5t-55 125.5v73h153v-71q0 -50 77 -50q75 0 75 50v39q0 33 -18 43.5t-83 11.5q-117 3 -169 33t-52 101q0 75 68 116.5t185 41.5q102 0 206 -34
v-126q-122 40 -206 40q-58 0 -78.5 -9.5t-20.5 -26.5z" />
    <glyph glyph-name="uni0E19.002" horiz-adv-x="593" 
d="M541 0h-141l-7 70q-19 -32 -61.5 -55.5t-85.5 -23.5q-194 0 -194 200v347h156v-343q0 -87 71 -87q40 0 68.5 25.5t37.5 64.5v340h156v-538z" />
    <glyph glyph-name="uni0E1A.002" horiz-adv-x="611" 
d="M305 -10q-127 0 -190 54t-63 173v321h156v-322q0 -57 24 -83t73 -26q50 0 74 26t24 83v322h156v-321q0 -119 -63.5 -173t-190.5 -54z" />
    <glyph glyph-name="uni0E1B.002" horiz-adv-x="611" 
d="M305 -10q-127 0 -190 54t-63 173v321h156v-322q0 -57 24 -83t73 -26q50 0 74 26t24 83v499h156v-498q0 -119 -63.5 -173t-190.5 -54z" />
    <glyph glyph-name="uni0E1C.002" horiz-adv-x="638" 
d="M213 416v-160l-4 -56l91 107h42l92 -107q-4 29 -4 56v282h156v-538h-131l-10 29q-6 16 -37 49t-59 58l-28 24q-103 -96 -117 -133l-10 -27h-134v420q0 118 135 118h88v-104h-52q-18 0 -18 -18z" />
    <glyph glyph-name="uni0E1D.002" horiz-adv-x="638" 
d="M213 416v-160l-4 -56l91 107h42l92 -107q-4 29 -4 56v459h156v-715h-131l-10 29q-6 16 -37 49t-59 58l-28 24q-103 -96 -117 -133l-10 -27h-134v420q0 118 135 118h88v-104h-52q-18 0 -18 -18z" />
    <glyph glyph-name="uni0E1E.002" horiz-adv-x="703" 
d="M303 520h95l78 -286l43 304h158l-100 -538h-138l-11 45q-7 25 -26.5 82.5l-35.5 102.5l-16 46q-58 -168 -76 -231l-13 -45h-139l-100 538h157l45 -304z" />
    <glyph glyph-name="uni0E1F.002" horiz-adv-x="690" 
d="M303 520h95l78 -286l67 481h159l-125 -715h-138l-11 45q-7 25 -26.5 82.5l-35.5 102.5l-16 46q-58 -168 -76 -231l-13 -45h-139l-100 538h157l45 -304z" />
    <glyph glyph-name="uni0E20.002" horiz-adv-x="617" 
d="M104 129v115q0 67 58 89l-85 40v43q30 46 99 87.5t152 41.5q237 0 237 -210v-335h-156v343q0 85 -88 85q-57 0 -87 -41l57 -33v-50q-31 -7 -31 -49v-133q0 -122 -133 -122h-75v104h29q13 0 18 5t5 20z" />
    <glyph glyph-name="uni0E21.002" horiz-adv-x="593" 
d="M192 0h-140v538h156v-355q21 -73 101 -73q39 0 57.5 24.5t18.5 60.5v343h156v-347q0 -96 -50 -148t-147 -52q-98 0 -144 73z" />
    <glyph glyph-name="uni0E22.002" horiz-adv-x="586" 
d="M48 166v16q0 41 25.5 74t66.5 44q-42 9 -65.5 42.5t-23.5 76.5q0 119 163 119h85v-110h-73q-34 0 -34 -32q0 -26 12 -35.5t40 -9.5h56v-111h-56q-44 0 -44 -45v-20q0 -32 23 -50t68 -18t66 18t21 57v356h156v-363q0 -81 -62.5 -133t-180.5 -52q-116 0 -179.5 47
t-63.5 129z" />
    <glyph glyph-name="uni0E23.002" horiz-adv-x="507" 
d="M468 173q0 -77 -54 -127t-174 -50q-37 0 -77 5.5t-62 10.5l-22 6v129q85 -27 161 -27q40 0 56 9.5t16 34.5q0 20 -27 33t-66 23.5t-77.5 25.5t-65.5 49.5t-27 86.5q0 74 61.5 118.5t162.5 44.5q97 0 181 -37v-128q-102 41 -181 41q-70 0 -70 -39q0 -14 19.5 -24t49 -17
t64 -19.5t64 -28.5t49 -47t19.5 -73z" />
    <glyph glyph-name="uni0E24.002" horiz-adv-x="597" 
d="M71 122v122q0 66 59 89l-82 40v43q32 46 99 87.5t149 41.5q119 0 184 -51.5t65 -158.5v-530h-156v538q0 85 -93 85q-59 0 -91 -41l54 -33v-50q-32 -7 -32 -49v-126q0 -15 5.5 -20t18.5 -5h41v-104h-88q-133 0 -133 122z" />
    <glyph glyph-name="uni0E25.002" horiz-adv-x="598" 
d="M213 159v-7q0 -48 42 -48l41 4v-103q-28 -12 -78 -12q-76 0 -114.5 42.5t-38.5 112.5v14q0 72 56.5 117t154.5 45q75 0 114 -29v53q0 40 -18 60t-60 20q-47 0 -66.5 -19.5t-19.5 -57.5h-152q0 90 67 142t174 52q108 0 169.5 -52t61.5 -145v-348h-156v147q0 31 -29.5 46.5
t-75.5 15.5q-34 0 -53 -14t-19 -36z" />
    <glyph glyph-name="uni0E26.002" horiz-adv-x="623" 
d="M103 129v115q0 67 58 89l-86 40v43q31 46 100 87.5t151 41.5q238 0 238 -210v-530h-156v538q0 85 -88 85q-57 0 -87 -41l57 -33v-50q-31 -7 -31 -49v-133q0 -122 -133 -122h-75v104h28q13 0 18.5 5t5.5 20z" />
    <glyph glyph-name="uni0E27.002" horiz-adv-x="543" 
d="M118 9v112q39 -12 120 -12q48 0 78 24.5t30 75.5v119q0 100 -86 100q-38 0 -61.5 -22t-23.5 -67h-153q0 98 68 152t170 54q118 0 177.5 -64t59.5 -172v-83q0 -108 -69.5 -171t-189.5 -63q-69 0 -120 17z" />
    <glyph glyph-name="uni0E28.002" horiz-adv-x="593" 
d="M48 0v322q0 102 70.5 163t179.5 61q81 0 121 -20l31 49h166l-101 -121q32 -46 32 -132v-322h-156v320q0 57 -22 83t-71 26q-42 0 -69.5 -29t-27.5 -80v-72q11 27 38.5 43.5t56.5 16.5h59v-130h-81q-73 0 -73 -94v-84h-153z" />
    <glyph glyph-name="uni0E29.002" horiz-adv-x="611" 
d="M533 221h-225v126h255h48v-104zM305 -10q-127 0 -190 54t-63 173v321h156v-322q0 -57 24 -83t73 -26q50 0 74 26t24 83v322h156v-321q0 -119 -63.5 -173t-190.5 -54z" />
    <glyph glyph-name="uni0E2A.002" horiz-adv-x="601" 
d="M482 426l-97 72l44 75h162zM212 161v-4q0 -44 44 -44l44 4v-111q-32 -13 -87 -13q-72 0 -113.5 40.5t-41.5 114.5v18q0 72 59 116t161 44q64 0 105 -24v46q0 77 -81 77q-47 0 -68 -15.5t-21 -58.5h-151q0 98 67.5 146t172.5 48q103 0 169 -55t66 -142v-348h-154v144
q0 28 -28.5 45.5t-69.5 17.5q-39 0 -56 -10.5t-17 -35.5z" />
    <glyph glyph-name="uni0E2B.002" horiz-adv-x="614" 
d="M205 538v-99l-6 -71q33 79 100 124.5t152 45.5h92v-126h-95q-77 0 -98 -38q204 0 204 -186v-188h-154v175q0 48 -22 68t-66 20t-75.5 -27t-31.5 -61v-175h-153v538h153z" />
    <glyph glyph-name="uni0E2C.002" horiz-adv-x="668" 
d="M599 0h-131l-10 29q-6 16 -38.5 42.5t-61.5 44.5l-30 18q-110 -70 -124 -107l-10 -27h-134v538h153v-287l-4 -57l104 87h29l105 -87q-4 28 -4 56v91q0 9 -3.5 12t-14.5 3h-16l-20 82q94 37 102 148l138 -52q-4 -39 -24.5 -73.5t-49.5 -52.5q44 -16 44 -74v-334z" />
    <glyph glyph-name="uni0E2D.002" horiz-adv-x="576" 
d="M251 190h-52q-11 0 -11 -9v-15q0 -57 80 -57q91 0 91 111v100q0 58 -21 83t-66 25q-86 0 -86 -86h-151q0 98 70 151.5t167 53.5q110 0 175.5 -61t65.5 -179v-69q0 -118 -62.5 -182t-182.5 -64q-113 0 -169.5 50t-56.5 141v26q0 91 106 91h103v-110z" />
    <glyph glyph-name="uni0E2E.002" horiz-adv-x="564" 
d="M251 190h-52q-11 0 -11 -9v-15q0 -57 80 -57q91 0 91 111v100q0 58 -21 83t-66 25q-86 0 -86 -86h-151q0 98 70 151.5t167 53.5q110 0 175.5 -61t65.5 -179v-69q0 -118 -62.5 -182t-182.5 -64q-113 0 -169.5 50t-56.5 141v26q0 91 106 91h103v-110zM437 426l-111 72
l57 75h176z" />
    <glyph glyph-name="uni0E42.002" horiz-adv-x="312" 
d="M214 585v-456q0 -15 5.5 -20t18.5 -5h41v-104h-88q-133 0 -133 122v463q0 92 -92 122v51q15 47 65.5 80t137.5 33q90 0 152 -23v-121q-84 27 -152 27q-40 0 -56 -7q101 -52 101 -162z" />
    <glyph glyph-name="uni0E43.002" horiz-adv-x="312" 
d="M58 122v406q0 30 15.5 60t34 50.5t34 45t15.5 44.5q0 26 -35 26t-35 -27l7 -54h-146q-10 32 -10 58q0 64 50 102t134 38q82 0 133.5 -36t51.5 -94q0 -39 -46.5 -106t-46.5 -107v-399q0 -15 5.5 -20t18.5 -5h41v-104h-88q-133 0 -133 122z" />
    <glyph glyph-name="uni0E44.002" horiz-adv-x="311" 
d="M58 122v445q0 98 85 164q-30 -10 -62 -10q-28 0 -59 4.5t-48 9.5l-17 5v123q68 -22 159 -22q84 0 169 21l45 -85q-116 -89 -116 -204v-444q0 -15 5.5 -20t18.5 -5h41v-104h-88q-133 0 -133 122z" />
    <glyph glyph-name="uni0E47.002" 
d="M-192 728h110v-18q0 -61 -24 -85t-77 -24h-26l-69 40l-67 -40h-39q-50 0 -85 32.5t-35 87.5v13q0 64 43 96t113 32h105q26 0 35 10t9 29h116q0 -68 -32.5 -99t-104.5 -31h-100q-33 0 -47 -7t-14 -30v-5q0 -15 7.5 -23.5t18.5 -8.5h14l50 31h22l52 -30q25 0 25 18v12z" />
    <glyph glyph-name="uni0E48.002" 
d="M-65 863h-108l-5 105v94h118v-94z" />
    <glyph glyph-name="uni0E49.002" 
d="M-61 1024q0 -44 -33 -69q45 2 80.5 35t42.5 82h139q-19 -101 -99 -155.5t-209 -54.5l-90 4l-4 65q40 16 40 57q0 21 -26 21h-28v84h93q49 0 71.5 -16t22.5 -53z" />
    <glyph glyph-name="uni0E4A.002" 
d="M-273 937v-78h-38q-48 0 -74.5 25.5t-26.5 70.5q0 52 30 78t78 26q46 0 69 -35q9 15 28.5 26t45.5 11q37 0 56.5 -19.5t19.5 -54.5v-37q26 10 26 57v54h117v-42q0 -70 -50 -113t-113 -47h-64v93q0 24 -26 24q-8 0 -16.5 -5.5t-12.5 -10.5l-5 -6h-14q-12 25 -39 25
q-31 0 -31 -21t20 -21h20z" />
    <glyph glyph-name="uni0E4B.002" 
d="M29 926h-93l-2 -67h-111l-2 67h-94v104h92v68h117v-68h93v-104z" />
    <glyph glyph-name="uni0E4C.002" 
d="M-215 858v-40h-130v37q0 145 160 145h154v-111h-150q-34 0 -34 -31z" />
    <glyph glyph-name="uni0E48.alt1.002" 
d="M-246 599h-67l-11 113v78h89v-78z" />
    <glyph glyph-name="uni0E49.alt1.002" 
d="M-315 724q0 -38 -30 -64q79 2 119.5 29.5t52.5 90.5h78q-8 -57 -34.5 -95t-68.5 -55t-80.5 -22.5t-90.5 -5.5l-56 4l-4 41q23 10 33 22t10 34t-26 22h-37v63h50q84 0 84 -64z" />
    <glyph glyph-name="uni0E4A.alt1.002" 
d="M-556 693q0 91 95 91q18 0 32.5 -7.5t19.5 -14.5l5 -8q18 29 65 29q33 0 52 -19t19 -49v-35q37 18 37 96h80q0 -63 -39 -110.5t-96 -58.5h-49v88q0 29 -26 29q-11 0 -20.5 -5t-14.5 -11l-4 -5h-11q-19 24 -44 24q-30 0 -30 -26q0 -15 6.5 -22t23.5 -7h20v-65h-42
q-37 0 -58 23.5t-21 62.5z" />
    <glyph glyph-name="uni0E4B.alt1.002" 
d="M-208 658h-78l-5 -78h-68l-5 78h-78v69h77v71h79v-71h78v-69z" />
    <glyph glyph-name="uni0E4C.alt1.002" 
d="M-330 664v-40h-78v38q0 105 108 105h140v-72h-137q-33 0 -33 -31z" />
    <glyph glyph-name="uni0E48.alt2.002" 
d="M-77 599h-67l-11 113v78h89v-78z" />
    <glyph glyph-name="uni0E49.alt2.002" 
d="M-198 724q0 -38 -30 -64q79 2 119.5 29.5t52.5 90.5h78q-8 -57 -34.5 -95t-68.5 -55t-80.5 -22.5t-90.5 -5.5l-56 4l-4 41q23 10 33 22t10 34t-26 22h-37v63h50q84 0 84 -64z" />
    <glyph glyph-name="uni0E4A.alt2.002" 
d="M-373 693q0 91 95 91q18 0 32.5 -7.5t19.5 -14.5l5 -8q18 29 65 29q33 0 52 -19t19 -49v-35q37 18 37 96h80q0 -63 -39 -110.5t-96 -58.5h-49v88q0 29 -26 29q-11 0 -20.5 -5t-13.5 -11l-5 -5h-11q-19 24 -44 24q-30 0 -30 -26q0 -15 6.5 -22t23.5 -7h20v-65h-42
q-37 0 -58 23.5t-21 62.5z" />
    <glyph glyph-name="uni0E4B.alt2.002" 
d="M0 658h-78l-5 -78h-68l-5 78h-78v69h77v71h79v-71h78v-69z" />
    <glyph glyph-name="uni0E4C.alt2.002" 
d="M-209 664v-40h-78v38q0 105 108 105h140v-72h-137q-33 0 -33 -31z" />
    <glyph glyph-name="uni0E47.alt1.002" 
d="M-323 728h110v-18q0 -61 -24 -85t-77 -24h-26l-69 40l-67 -40h-39q-50 0 -85 32.5t-35 87.5v13q0 64 43 96t113 32h105q26 0 35 10t9 29h116q0 -68 -32.5 -99t-104.5 -31h-100q-33 0 -47 -7t-14 -30v-5q0 -15 7.5 -23.5t18.5 -8.5h14l50 31h22l52 -30q25 0 25 18v12z" />
    <glyph glyph-name="uni0E48.alt3.002" 
d="M-216 863h-122v185h122v-185z" />
    <glyph glyph-name="uni0E49.alt3.002" 
d="M-125 994v-41h180v-91h-304v93q0 24 -22 24h-66v84h126q40 0 63 -17.5t23 -51.5z" />
    <glyph glyph-name="uni0E4A.alt3.002" 
d="M-241 1001l28 23q17 13 47 13q58 0 90.5 -26t32.5 -69v-5h88v-78h-96h-106v57q0 30 -28 30h-10l-36 -31h-17l-39 31h-11q-28 0 -28 -43v-44h-124v65q0 113 138 113q29 0 45 -13z" />
    <glyph glyph-name="uni0E4B.alt3.002" 
d="M-81 926h-92l-3 -67h-110l-3 67h-94v104h93v68h117v-68h92v-104z" />
    <glyph glyph-name="uni0E4C.alt3.002" 
d="M-293 858v-40h-130v37q0 145 160 145h154v-111h-150q-34 0 -34 -31z" />
    <glyph glyph-name="a.alt" horiz-adv-x="543" 
d="M247 99q43 0 71 29.5t28 75.5h-95q-63 0 -63 -56q0 -26 14 -37.5t45 -11.5zM495 0h-115l-15 75q-17 -40 -56 -62t-91 -22q-85 0 -129.5 43t-44.5 115q0 71 50.5 111t156.5 40h97v34q0 77 -71 77q-77 0 -77 -76h-142q0 80 55.5 131t164.5 51q217 0 217 -189v-328z" />
    <glyph glyph-name="l.alt" horiz-adv-x="311" 
d="M213 721v-721h-148v721h148z" />
    <glyph glyph-name="g.alt" horiz-adv-x="597" 
d="M277 403q-99 0 -99 -152q0 -155 99 -155q88 0 88 155q0 80 -20.5 116t-67.5 36zM361 -17v70q-16 -27 -49.5 -45t-78.5 -18q-97 0 -151.5 68.5t-54.5 192.5q0 123 54 191.5t150 68.5q53 0 88 -23t51 -56l16 68h121v-516q0 -94 -59 -153.5t-179 -59.5q-115 0 -171 48
t-56 129h145q0 -73 82 -73q50 0 71 25t21 83z" />
    <glyph glyph-name="y.alt" horiz-adv-x="532" 
d="M95 -208l99 237l-184 471h156l78 -236l24 -72q13 43 23 72l76 236h157l-276 -708h-153z" />
    <glyph glyph-name="quotedblleft.001" horiz-adv-x="416" 
d="M175 425h-130v65q0 42 17.5 90.5t34.5 75.5l17 28h61v-259zM368 425h-130v65q0 42 17 90.5t33 75.5l17 28h63v-259z" />
    <glyph glyph-name="quotedblright.001" horiz-adv-x="416" 
d="M238 684h130v-65q0 -42 -17 -90.5t-35 -76.5l-17 -27h-61v259zM45 684h130v-65q0 -42 -16.5 -90.5t-33.5 -76.5l-17 -27h-63v259z" />
    <glyph glyph-name="quoteleft.001" horiz-adv-x="240" 
d="M175 425h-130v65q0 42 20.5 90.5t40.5 75.5l21 28h48v-259z" />
    <glyph glyph-name="quoteright.001" horiz-adv-x="240" 
d="M65 684h130v-65q0 -42 -20.5 -90.5t-40.5 -76.5l-20 -27h-49v259z" />
    </font>
</defs>
</svg>
