<?xml version="1.0" standalone="no"?>
<!DOCTYPE svg PUBLIC "-//W3C//DTD SVG 1.1//EN" "http://www.w3.org/Graphics/SVG/1.1/DTD/svg11.dtd" >
<svg>
<metadata>
Created by FontForge 20090622 at Mon Aug 15 09:17:06 2016
 By deploy user
Copyright (c) 2013 by Ekaluck Peanpanawate. All rights reserved. EXCLUSIVE LICENSE to PACE Development Corporation Public Company Limited 87/2 CRC Tower, All Seasons Place 45th Floor Unit 3, Wireless Road, Lumpini, Pathumwan, Bangkok 10330 Thailand
</metadata>
<defs>
<font id="KaLaTeXaDisplay" horiz-adv-x="0" >
  <font-face 
    font-family="KaLaTeXa Display"
    font-weight="400"
    font-stretch="normal"
    units-per-em="1000"
    panose-1="2 0 5 1 4 0 0 2 0 4"
    ascent="750"
    descent="-250"
    x-height="500"
    cap-height="684"
    bbox="-610 -519 4402 1015"
    underline-thickness="50"
    underline-position="0"
    unicode-range="U+000D-U+FB02"
  />
<missing-glyph horiz-adv-x="361" 
 />
    <glyph glyph-name="uni0E5A" unicode="&#xe2f;&#xe2f;" horiz-adv-x="578" 
d="M513 0h-84v520h84v-520zM162 0h-58v75h58q63 0 93 36t30 116v167q-39 -52 -126 -52q-64 0 -100 32t-36 91v55h81v-55q0 -28 13 -40t47 -12q53 0 87 27.5t41 79.5h80v-293q0 -111 -46.5 -169t-163.5 -58z" />
    <glyph glyph-name="uni0E4F.liga" unicode="&#xe4f;&#x22;" horiz-adv-x="625" 
d="M420 558h-60q-5 87 -5 149h74q0 -28 -2.5 -65t-4.5 -60zM260 558h-60q-9 87 -9 149h74zM554 272q0 -102 -73 -169.5t-170 -67.5q-100 0 -173 67.5t-73 169.5q0 105 73 172.5t173 67.5q98 0 170.5 -68t72.5 -172zM434 276q0 -51 -35.5 -86t-86.5 -35t-87.5 35t-36.5 86
q0 49 36.5 84t87.5 35t86.5 -34.5t35.5 -84.5zM485 273q0 73 -51.5 124t-124.5 51t-124 -51t-51 -124t51 -124.5t124 -51.5t124.5 51.5t51.5 124.5zM359 274q0 21 -14 34.5t-34 13.5q-21 0 -34.5 -13.5t-13.5 -34.5q0 -20 13.5 -34t34.5 -14q20 0 34 14t14 34z" />
    <glyph glyph-name="uni0E24.liga" unicode="&#xe24;&#xe32;" horiz-adv-x="862" 
d="M500 -195h-91v523q0 63 -32.5 96.5t-90.5 33.5q-41 0 -78.5 -19t-50.5 -39l68 -36v-53q-51 -15 -51 -56v-151q0 -39 33 -39h54v-65h-67q-108 0 -108 103v149q0 54 53 81l-79 39v45q33 42 92 79t134 37q116 0 172 -77q21 37 63 57t95 20q88 0 137.5 -48.5t49.5 -136.5
v-543h-88v543q0 54 -27 82.5t-72 28.5q-49 0 -82.5 -26t-33.5 -73v-555z" />
    <glyph glyph-name="uni0E26.liga" unicode="&#xe26;&#xe32;" horiz-adv-x="903" 
d="M450 -195v523q0 62 -33.5 96t-91.5 34q-41 0 -76.5 -19t-48.5 -39l68 -36v-53q-52 -16 -52 -58v-153q0 -100 -113 -100h-48v65h39q33 0 33 32v160q0 25 16 46t39 30l-79 39v45q34 43 90.5 79.5t131.5 36.5q118 0 174 -77q45 77 159 77q87 0 137 -48.5t50 -136.5v-543h-88
v543q0 53 -27 82t-72 29q-49 0 -82.5 -26t-33.5 -73v-555h-92z" />
    <glyph glyph-name="fi" unicode="fi" horiz-adv-x="508" 
d="M425 500v-500h-82v435h-174v-435h-83v435h-85v65h85v73q0 71 32.5 106.5t102.5 35.5q12 0 47 -7q4 0 15 -1t13 -1v-72q-53 15 -71 15q-56 0 -56 -69v-80h256zM425 581h-84v95h84v-95z" />
    <glyph glyph-name="fl" unicode="fl" horiz-adv-x="537" 
d="M451 555v-555h-87v555q0 43 -22.5 67.5t-63.5 24.5q-47 0 -75 -25.5t-28 -75.5v-46h110v-65h-110v-435h-85v435h-87v65h87v46q0 77 50.5 123t135.5 46q76 0 125.5 -44.5t49.5 -115.5z" />
    <glyph glyph-name=".notdef" horiz-adv-x="361" 
 />
    <glyph glyph-name=".null" 
 />
    <glyph glyph-name=".null" 
 />
    <glyph glyph-name="nonmarkingreturn" unicode="&#xd;" horiz-adv-x="281" 
 />
    <glyph glyph-name="space" unicode=" " horiz-adv-x="268" 
 />
    <glyph glyph-name="exclam" unicode="!" horiz-adv-x="229" 
d="M166 0h-98v97h98v-97zM164 684v-121q0 -28 -5.5 -122.5l-10.5 -174.5l-6 -80h-50q-22 314 -22 377v121h94z" />
    <glyph glyph-name="quotedbl" unicode="&#x22;" horiz-adv-x="396" 
d="M134 451h-50q-16 124 -16 187v65h83v-65q0 -28 -4.5 -75t-8.5 -79zM312 451h-49q-17 124 -17 187v65h83v-65q0 -28 -4.5 -75t-8.5 -79z" />
    <glyph glyph-name="numbersign" unicode="#" horiz-adv-x="506" 
d="M235 682l-95 -682h-70l92 682h73zM274 0l93 682h72l-95 -682h-70zM481 435h-436v65h436v-65zM19 235h436v-65h-436v65z" />
    <glyph glyph-name="dollar" unicode="$" horiz-adv-x="565" 
d="M140 205q0 -69 28 -103t91 -38v258q-39 14 -60.5 22.5t-52.5 25.5t-47.5 35t-29 46t-12.5 62q0 74 52.5 121t149.5 51v95h56v-96q87 -9 135.5 -58t48.5 -129h-91q0 47 -24.5 76t-68.5 38v-221q48 -16 76.5 -29t63.5 -37t52 -59t17 -82q0 -79 -56 -130.5t-153 -59.5v-105
h-56v105q-105 5 -157.5 57t-52.5 155h91zM432 177q0 46 -30.5 74.5t-86.5 50.5v-237q117 13 117 112zM148 513q0 -38 28 -61t83 -44v206q-111 -8 -111 -101z" />
    <glyph glyph-name="percent" unicode="%" horiz-adv-x="836" 
d="M208 419q34 0 52 22.5t18 62.5q0 41 -18 64t-52 23q-70 0 -70 -87q0 -40 18 -62.5t52 -22.5zM257 -8h-74l397 688h76zM208 339q-70 0 -114.5 44.5t-44.5 120.5t44.5 120.5t114.5 44.5t114.5 -44.5t44.5 -120.5t-44.5 -120.5t-114.5 -44.5zM628 79q33 0 51.5 23t18.5 63
q0 41 -18 64t-52 23q-70 0 -70 -87q0 -40 18 -63t52 -23zM628 0q-70 0 -114.5 44.5t-44.5 120.5t44.5 120.5t114.5 44.5t114 -44.5t44 -120.5t-44 -120.5t-114 -44.5z" />
    <glyph glyph-name="ampersand" unicode="&#x26;" horiz-adv-x="638" 
d="M225 547q0 -18 7 -39t13.5 -34.5t23 -43.5l23.5 -43l49 -85.5t57 -84.5t66 -79.5t70 -53.5t76 -22v-71q-35 0 -67.5 8t-57.5 20t-51.5 35t-44 42t-42.5 53.5t-39.5 57l-41 65l-41.5 65.5q-42 64 -61.5 109.5t-19.5 99.5q0 64 43.5 105t108.5 41q64 0 104.5 -40t40.5 -102
q0 -56 -32 -99.5t-77.5 -71.5l-91 -55t-77.5 -64.5t-32 -84.5q0 -54 34 -85.5t94 -31.5q75 0 128.5 37t80.5 93t39 132l81 -15q-16 -139 -101.5 -226.5t-229.5 -87.5q-99 0 -153.5 54.5t-54.5 131.5q0 62 32 109.5t77.5 76.5t91 55t77.5 60t32 76q0 30 -18.5 50t-45.5 20
q-29 0 -49.5 -19.5t-20.5 -57.5z" />
    <glyph glyph-name="quotesingle" unicode="'" horiz-adv-x="208" 
d="M129 451h-50q-17 124 -17 187v65h84v-65q0 -28 -4 -75t-8 -79z" />
    <glyph glyph-name="parenleft" unicode="(" horiz-adv-x="360" 
d="M196 760h89q-126 -188 -126 -421q0 -229 126 -422h-89q-61 96 -94.5 208t-33.5 214t33 214t95 207z" />
    <glyph glyph-name="parenright" unicode=")" horiz-adv-x="360" 
d="M75 760h89q62 -95 95 -207t33 -214t-33.5 -214t-94.5 -208h-89q126 193 126 422q0 233 -126 421z" />
    <glyph glyph-name="asterisk" unicode="*" horiz-adv-x="573" 
d="M326 818l-11 -151q50 19 140 57l26 -75l-153 -37l98 -109l-72 -55l-69 129l-76 -127l-75 45l104 116l-157 31l27 79l143 -53l-6.5 74.5t-7.5 75.5h89z" />
    <glyph glyph-name="plus" unicode="+" horiz-adv-x="681" 
d="M292 329v227h84v-227h234v-76h-234v-228h-84v228h-235v76h235z" />
    <glyph glyph-name="comma" unicode="," horiz-adv-x="286" 
d="M56 -152q60 91 67 152q-45 7 -45 55q0 25 15.5 40t42.5 15q63 0 63 -71q0 -95 -74 -191h-69z" />
    <glyph glyph-name="hyphen" unicode="-" horiz-adv-x="446" 
d="M391 266h-346v76h346v-76z" />
    <glyph glyph-name="period" unicode="." horiz-adv-x="286" 
d="M205 56q0 -25 -18.5 -42.5t-46.5 -17.5q-27 0 -45 17.5t-18 42.5t18 42.5t45 17.5q28 0 46.5 -17.5t18.5 -42.5z" />
    <glyph glyph-name="slash" unicode="/" horiz-adv-x="300" 
d="M328 732l-259 -781h-76l267 781h68z" />
    <glyph glyph-name="zero" unicode="0" horiz-adv-x="580" 
d="M290 62q157 0 157 273q0 285 -157 285t-157 -285q0 -273 157 -273zM290 -7q-238 0 -238 342q0 176 57 264.5t181 88.5t181 -88.5t57 -264.5q0 -342 -238 -342z" />
    <glyph glyph-name="one" unicode="1" horiz-adv-x="452" 
d="M398 0h-325v68h125v529l-130 -30v65l166 53h47v-617h117v-68z" />
    <glyph glyph-name="two" unicode="2" horiz-adv-x="525" 
d="M263 690q103 0 158 -52.5t55 -142.5q0 -65 -33 -123t-117 -141l-161 -160h311v-71h-425v62l189 193q89 91 121 140t32 100q0 58 -34.5 91.5t-95.5 33.5q-56 0 -90.5 -36.5t-34.5 -92.5h-89q0 85 58.5 142t155.5 57z" />
    <glyph glyph-name="three" unicode="3" horiz-adv-x="512" 
d="M452 506q0 -105 -91 -147q56 -16 84 -56.5t28 -117.5q0 -90 -60 -141.5t-165 -51.5q-102 0 -155.5 51.5t-53.5 142.5h86q0 -58 32 -91t91 -33q67 0 104 32.5t37 87.5q0 70 -32.5 104.5t-105.5 34.5h-92v70h92q53 0 86 30.5t33 82.5q0 57 -30 87t-87 30q-51 0 -84.5 -31
t-33.5 -79h-88q0 77 57.5 129t148.5 52t145 -49t54 -137z" />
    <glyph glyph-name="four" unicode="4" horiz-adv-x="511" 
d="M109 211h216v353zM13 139v61l299 484h96v-473h83v-72h-83v-139h-83v139h-312z" />
    <glyph glyph-name="five" unicode="5" horiz-adv-x="516" 
d="M494 227q0 -110 -57 -172.5t-165 -62.5q-104 0 -158 50t-54 131h87q0 -48 33 -79.5t92 -31.5q69 0 103 45t34 118q0 71 -34 109t-101 38q-92 0 -131 -63l-65 9l25 367h348v-70h-274l-13 -204q39 32 113 32q99 0 158 -57.5t59 -158.5z" />
    <glyph glyph-name="six" unicode="6" horiz-adv-x="537" 
d="M308 617q-65 0 -111 -64.5t-49 -192.5q15 32 56.5 53.5t86.5 21.5q104 0 156.5 -60.5t52.5 -162.5q0 -97 -60 -158t-151 -61q-109 0 -168 82t-59 250q0 188 67 275.5t179 87.5q91 0 138.5 -51t47.5 -131h-90q0 111 -96 111zM289 62q59 0 93.5 44t34.5 106
q0 70 -30.5 111.5t-95.5 41.5q-67 0 -99.5 -42t-32.5 -111q0 -65 33.5 -107.5t96.5 -42.5z" />
    <glyph glyph-name="seven" unicode="7" horiz-adv-x="448" 
d="M49 615v70h401v-49l-272 -636h-91l267 615h-305z" />
    <glyph glyph-name="eight" unicode="8" horiz-adv-x="525" 
d="M276 62q71 0 105.5 33.5t34.5 91.5q0 59 -32.5 89t-107.5 40q-76 -10 -108.5 -40t-32.5 -89q0 -58 35 -91.5t106 -33.5zM276 395q62 7 92 36t30 85q0 46 -33.5 75t-88.5 29q-56 0 -89.5 -29t-33.5 -75q0 -108 123 -121zM276 -8q-100 0 -162.5 53.5t-62.5 141.5
q0 128 131 170q-111 37 -111 156q0 78 57 127.5t148 49.5q90 0 147 -49.5t57 -127.5q0 -119 -111 -156q131 -42 131 -170q0 -88 -62 -141.5t-162 -53.5z" />
    <glyph glyph-name="nine" unicode="9" horiz-adv-x="549" 
d="M270 64q70 0 105.5 60t35.5 193q-14 -32 -56.5 -51.5t-88.5 -19.5q-104 0 -154 60t-50 163q0 97 58 158t149 61q120 0 174 -86t54 -254q0 -355 -227 -355q-91 0 -143 51.5t-52 130.5h90q0 -50 27.5 -80.5t77.5 -30.5zM269 619q-59 0 -91 -43.5t-32 -106.5
q0 -153 120 -153q67 0 100.5 42t33.5 111q0 65 -34 107.5t-97 42.5z" />
    <glyph glyph-name="colon" unicode=":" horiz-adv-x="299" 
d="M212 81q0 -25 -18.5 -42.5t-46.5 -17.5t-46 17.5t-18 42.5t18 42t46 17t46.5 -17.5t18.5 -41.5zM212 360q0 -25 -18.5 -43t-46.5 -18t-46 18t-18 43q0 24 18 42t46 18t46.5 -18t18.5 -42z" />
    <glyph glyph-name="semicolon" unicode=";" horiz-adv-x="300" 
d="M65 -152q61 91 68 152q-46 7 -46 55q0 25 15.5 40t43.5 15q63 0 63 -71q0 -98 -75 -191h-69zM212 360q0 -24 -19 -42.5t-46 -18.5q-28 0 -46 18t-18 43q0 24 18 42t46 18q27 0 46 -18t19 -42z" />
    <glyph glyph-name="less" unicode="&#x3c;" horiz-adv-x="650" 
d="M602 68v-81l-568 252v66l568 253v-80l-459 -205z" />
    <glyph glyph-name="equal" unicode="=" horiz-adv-x="516" 
d="M473 411v-74h-441v74h441zM473 208v-73h-441v73h441z" />
    <glyph glyph-name="greater" unicode="&#x3e;" horiz-adv-x="650" 
d="M34 -13v81l460 205l-460 205v80l568 -253v-66z" />
    <glyph glyph-name="question" unicode="?" horiz-adv-x="441" 
d="M212 614q-49 0 -79 -30.5t-30 -83.5h-90q0 81 54 136.5t145 55.5q92 0 143.5 -47.5t51.5 -136.5q0 -42 -17.5 -75t-42 -54l-49 -40.5t-42 -45t-17.5 -56.5v-36h-80v36q0 43 17 78.5t40.5 58t47.5 42.5t41 43.5t17 50.5q0 50 -28 77t-82 27zM255 55q0 -26 -16 -42.5
t-44 -16.5q-26 0 -42.5 17t-16.5 42t16.5 41.5t42.5 16.5q28 0 44 -16.5t16 -41.5z" />
    <glyph glyph-name="at" unicode="@" horiz-adv-x="863" 
d="M526 244v180q-22 11 -70 11q-58 0 -94 -40t-36 -126q0 -74 21 -106t65 -32q46 0 80 34t34 79zM666 0v-69q-93 -38 -228 -38q-185 0 -285.5 103.5t-100.5 281.5q0 194 112 305t286 111q169 0 266.5 -99t97.5 -249q0 -131 -43.5 -195.5t-123.5 -64.5q-79 0 -97 61h-5
q-14 -38 -51.5 -60.5t-87.5 -22.5q-173 0 -173 205q0 106 63.5 174t162.5 68q75 0 149 -38v-262q0 -55 45 -55q38 0 61.5 45.5t23.5 145.5q0 122 -79 202t-208 80q-144 0 -232.5 -98.5t-88.5 -251.5q0 -156 80.5 -235t228.5 -79q47 0 104 8.5t90 17.5z" />
    <glyph glyph-name="A" unicode="A" horiz-adv-x="604" 
d="M493 0l-60 177h-265l-61 -177h-94l240 684h98l240 -684h-98zM302 564l-108 -312h213z" />
    <glyph glyph-name="B" unicode="B" horiz-adv-x="598" 
d="M313 610h-145v-229h143q50 0 82 32.5t32 84.5q0 50 -27 81t-85 31zM313 311h-145v-237h161q123 0 123 116q0 121 -139 121zM516 498q0 -47 -27.5 -89t-67.5 -57q58 -12 91.5 -53t33.5 -112q0 -86 -61 -136.5t-156 -50.5h-251v684h235q104 0 153.5 -51.5t49.5 -134.5z" />
    <glyph glyph-name="C" unicode="C" horiz-adv-x="598" 
d="M464 183h95q-20 -191 -234 -191q-132 0 -202.5 92.5t-70.5 249.5q0 166 69.5 260t203.5 94q212 0 230 -188h-94q-7 51 -41.5 81t-94.5 30q-88 0 -133.5 -70.5t-45.5 -206.5q0 -125 46 -194t133 -69q62 0 97 30t42 82z" />
    <glyph glyph-name="D" unicode="D" horiz-adv-x="630" 
d="M168 73h106q93 0 148.5 69.5t55.5 195.5q0 136 -55 204.5t-149 68.5h-106v-538zM78 684h196q134 0 216 -91t82 -255q0 -156 -83 -247t-215 -91h-196v684z" />
    <glyph glyph-name="E" unicode="E" horiz-adv-x="513" 
d="M168 316v-243h310v-73h-400v684h398v-73h-308v-222h273v-73h-273z" />
    <glyph glyph-name="F" unicode="F" horiz-adv-x="513" 
d="M168 308v-308h-90v684h404v-73h-314v-230h273v-73h-273z" />
    <glyph glyph-name="G" unicode="G" horiz-adv-x="614" 
d="M552 0h-87v61q-17 -28 -58.5 -48.5t-88.5 -20.5q-126 0 -196 93t-70 249q0 164 72 259t201 95q103 0 162 -50.5t68 -137.5h-94q-7 50 -42 80.5t-94 30.5q-178 0 -178 -277q0 -263 171 -263q70 0 108.5 37.5t38.5 98.5v85h-132v73h219v-365z" />
    <glyph glyph-name="H" unicode="H" horiz-adv-x="640" 
d="M168 390h304v294h90v-684h-90v316h-304v-316h-90v684h90v-294z" />
    <glyph glyph-name="I" unicode="I" horiz-adv-x="300" 
d="M195 684v-684h-90v684h90z" />
    <glyph glyph-name="J" unicode="J" horiz-adv-x="521" 
d="M357 168v516h90v-516q0 -82 -50.5 -129.5t-155.5 -47.5q-103 0 -152.5 52t-49.5 145h90q0 -124 112 -124q116 0 116 104z" />
    <glyph glyph-name="K" unicode="K" horiz-adv-x="597" 
d="M554 0h-100l-194 317l-92 -67v-250h-90v684h90v-340l83 60l201 280h103l-227 -316z" />
    <glyph glyph-name="L" unicode="L" horiz-adv-x="494" 
d="M168 684v-611h313v-73h-403v684h90z" />
    <glyph glyph-name="M" unicode="M" horiz-adv-x="741" 
d="M369 300l210 384h84v-684h-90v500l-166 -310h-74l-165 310v-500h-90v684h86z" />
    <glyph glyph-name="N" unicode="N" horiz-adv-x="650" 
d="M168 0h-90v684h87l317 -519v519h90v-684h-87l-317 516v-516z" />
    <glyph glyph-name="O" unicode="O" horiz-adv-x="647" 
d="M324 68q177 0 177 266q0 143 -44 210.5t-133 67.5q-90 0 -134 -67.5t-44 -210.5q0 -266 178 -266zM324 -8q-132 0 -202 89t-70 253q0 171 67.5 262.5t204.5 91.5t204 -91t67 -263q0 -164 -70 -253t-201 -89z" />
    <glyph glyph-name="P" unicode="P" horiz-adv-x="584" 
d="M291 611h-123v-294h109q94 0 137 35t43 109q0 78 -38.5 114t-127.5 36zM277 244h-109v-244h-90v684h213q258 0 258 -223q0 -101 -65.5 -159t-206.5 -58z" />
    <glyph glyph-name="Q" unicode="Q" horiz-adv-x="643" 
d="M361 -137l-61 130q-121 8 -184.5 96t-63.5 245q0 171 67.5 262.5t204.5 91.5t204 -91t67 -263q0 -141 -52 -227t-152 -108l70 -136h-100zM324 68q177 0 177 266q0 143 -44 210.5t-133 67.5q-90 0 -134 -67.5t-44 -210.5q0 -266 178 -266z" />
    <glyph glyph-name="R" unicode="R" horiz-adv-x="597" 
d="M78 684h227q120 0 178.5 -58.5t58.5 -148.5q0 -72 -41.5 -122t-106.5 -66l155 -289h-98l-146 273h-137v-273h-90v684zM168 611v-265h137q69 0 106 34.5t37 96.5q0 67 -34.5 100.5t-108.5 33.5h-137z" />
    <glyph glyph-name="S" unicode="S" horiz-adv-x="615" 
d="M315 64q67 1 107.5 31t40.5 82q0 35 -21.5 60.5t-55.5 41t-75.5 29t-83 29t-75.5 36t-55.5 55.5t-21.5 82q0 78 63.5 127t169.5 49q105 0 163.5 -50t58.5 -139h-91q0 57 -34.5 87.5t-96.5 30.5q-71 0 -106.5 -29.5t-35.5 -75.5q0 -37 29 -63.5t72 -39.5t93.5 -31
t93.5 -37.5t72 -59.5t29 -96q0 -85 -65 -138t-175 -53q-129 0 -188 51t-59 162h91q0 -74 34.5 -107.5t121.5 -33.5z" />
    <glyph glyph-name="T" unicode="T" horiz-adv-x="504" 
d="M297 611v-611h-90v611h-199v73h488v-73h-199z" />
    <glyph glyph-name="U" unicode="U" horiz-adv-x="673" 
d="M337 -8q-120 0 -189.5 68t-69.5 193v431h90v-431q0 -182 169 -182q168 0 168 182v431h90v-431q0 -125 -69 -193t-189 -68z" />
    <glyph glyph-name="V" unicode="V" horiz-adv-x="604" 
d="M303 113l183 571h100l-232 -684h-99l-237 684h99z" />
    <glyph glyph-name="W" unicode="W" horiz-adv-x="822" 
d="M368 684h86l122 -516l127 516h99l-172 -684h-100l-119 512l-119 -512h-101l-172 684h99l129 -519z" />
    <glyph glyph-name="X" unicode="X" horiz-adv-x="560" 
d="M221 339l-203 345h109l150 -271l148 271h109l-200 -346l221 -338h-110l-168 264l-165 -264h-107z" />
    <glyph glyph-name="Y" unicode="Y" horiz-adv-x="577" 
d="M289 369h1l171 315h102l-228 -402v-282h-92v282l-227 402h101z" />
    <glyph glyph-name="Z" unicode="Z" horiz-adv-x="541" 
d="M52 65l331 545h-334v74h436v-70l-326 -541h332v-73h-439v65z" />
    <glyph glyph-name="bracketleft" unicode="[" horiz-adv-x="360" 
d="M82 750h220v-57h-132v-709h132v-58h-220v824z" />
    <glyph glyph-name="backslash" unicode="\" horiz-adv-x="300" 
d="M233 -10l-260 770h84l264 -770h-88z" />
    <glyph glyph-name="bracketright" unicode="]" horiz-adv-x="360" 
d="M272 -74h-220v58h131v709h-131v57h220v-824z" />
    <glyph glyph-name="asciicircum" unicode="^" horiz-adv-x="610" 
d="M264 705h69l222 -424h-92l-167 317l-161 -317h-93z" />
    <glyph glyph-name="underscore" unicode="_" horiz-adv-x="636" 
d="M628 -148h-635v79h635v-79z" />
    <glyph glyph-name="grave" unicode="`" horiz-adv-x="225" 
d="M0 710h109l83 -139h-79z" />
    <glyph glyph-name="a" unicode="a" horiz-adv-x="536" 
d="M452 341v-211q0 -41 10.5 -57t43.5 -16v-58q-12 -3 -45 -3q-79 0 -85 86q-13 -39 -55.5 -65.5t-107.5 -26.5q-81 0 -128 41t-47 111q0 77 54.5 115t147.5 38h125v46q0 48 -29.5 75t-84.5 27q-61 0 -88.5 -28t-27.5 -71h-86q0 73 51 120t151 47q96 0 148.5 -45.5
t52.5 -124.5zM365 198v29h-125q-122 0 -122 -84q0 -38 25 -62t75 -24q68 0 107.5 41.5t39.5 99.5z" />
    <glyph glyph-name="b" unicode="b" horiz-adv-x="586" 
d="M74 0v714h83v-263q20 26 61 43t87 17q109 0 167 -68t58 -193t-58 -192.5t-167 -67.5q-92 0 -148 59v-49h-83zM298 57q148 0 148 193t-148 193q-66 0 -103.5 -49.5t-37.5 -143.5t37.5 -143.5t103.5 -49.5z" />
    <glyph glyph-name="c" unicode="c" horiz-adv-x="515" 
d="M265 57q55 0 88.5 27.5t33.5 71.5h86q0 -75 -56 -120.5t-152 -45.5q-117 0 -175.5 68.5t-58.5 192.5q0 126 60.5 193t174.5 67q98 0 153 -42.5t55 -124.5h-84q0 99 -124 99q-150 0 -150 -192q0 -194 149 -194z" />
    <glyph glyph-name="d" unicode="d" horiz-adv-x="588" 
d="M502 714v-714h-85v56q-21 -29 -62 -47.5t-87 -18.5q-108 0 -166 67.5t-58 192.5t58 193t166 68q94 0 149 -60v263h85zM276 57q66 0 103.5 49.5t37.5 143.5t-37.5 143.5t-103.5 49.5q-72 0 -109.5 -49t-37.5 -144t37.5 -144t109.5 -49z" />
    <glyph glyph-name="e" unicode="e" horiz-adv-x="521" 
d="M259 57q57 0 88 27t31 72h86q0 -76 -54 -121t-151 -45q-109 0 -169 64.5t-60 196.5q0 125 60 192.5t170 67.5q102 0 155.5 -67.5t53.5 -173.5q0 -27 -1 -40h-354q6 -173 145 -173zM114 298h272q0 70 -32.5 107.5t-96.5 37.5q-67 0 -102.5 -40.5t-40.5 -104.5z" />
    <glyph glyph-name="f" unicode="f" horiz-adv-x="321" 
d="M303 435h-111v-435h-84v435h-89v65h89v80q0 64 39 104t108 40q38 0 70 -9v-69q-31 10 -68 10q-65 0 -65 -76v-80h111v-65z" />
    <glyph glyph-name="g" unicode="g" horiz-adv-x="578" 
d="M269 140h-56q-40 0 -40 -35q0 -14 9 -23t25 -9h139q71 0 115.5 -37.5t44.5 -103.5v-7q0 -76 -60 -117.5t-169 -41.5q-232 0 -232 149v10q0 38 23 66.5t57 37.5q-33 24 -33 68q0 25 16 45t39 26q-40 16 -66 57.5t-26 100.5q0 84 59 134.5t152 50.5h244v-66h-32l-54 5
q58 -41 58 -124q0 -84 -54.5 -135t-158.5 -51zM269 445q-59 0 -94 -32t-35 -87q0 -56 34.5 -87.5t94.5 -31.5q61 0 95 31t34 88q0 56 -34 87.5t-95 31.5zM130 -75v-10q0 -79 147 -79q144 0 144 89v7q0 71 -78 71h-131q-35 0 -58.5 -23.5t-23.5 -54.5z" />
    <glyph glyph-name="h" unicode="h" horiz-adv-x="582" 
d="M162 0h-84v714h84v-273q48 70 151 70q185 0 185 -196v-315h-86v312q0 131 -113 131q-60 0 -98.5 -32.5t-38.5 -90.5v-320z" />
    <glyph glyph-name="i" unicode="i" horiz-adv-x="244" 
d="M162 500v-500h-84v500h84zM162 607h-84v88h84v-88z" />
    <glyph glyph-name="j" unicode="j" horiz-adv-x="235" 
d="M-33 -176v69q23 -6 58 -6q46 0 46 49v564h86v-560q0 -60 -35.5 -91.5t-96.5 -31.5q-37 0 -58 7zM157 607h-86v88h86v-88z" />
    <glyph glyph-name="k" unicode="k" horiz-adv-x="529" 
d="M162 0h-84v714h84v-415h55l178 201h102l-208 -232l221 -268h-103l-193 233h-52v-233z" />
    <glyph glyph-name="l" unicode="l" horiz-adv-x="286" 
d="M157 714v-601q0 -30 7.5 -40.5t23.5 -10.5q17 0 49 4v-62q-36 -9 -62 -9q-102 0 -102 109v610h84z" />
    <glyph glyph-name="m" unicode="m" horiz-adv-x="880" 
d="M165 0h-84v500h84v-53q41 64 134 64q54 0 90 -24.5t49 -65.5q16 38 60.5 64t103.5 26q92 0 137 -47t45 -134v-330h-89v329q0 53 -26 85t-79 32q-51 0 -82.5 -33.5t-31.5 -83.5v-329h-86v329q0 51 -28.5 84t-78.5 33q-49 0 -83.5 -33.5t-34.5 -83.5v-329z" />
    <glyph glyph-name="n" unicode="n" horiz-adv-x="582" 
d="M162 0h-84v500h84v-59q48 70 151 70q185 0 185 -196v-315h-86v312q0 131 -113 131q-60 0 -98.5 -32.5t-38.5 -90.5v-320z" />
    <glyph glyph-name="o" unicode="o" horiz-adv-x="532" 
d="M261 446q-145 0 -145 -195t145 -195q143 0 143 195t-143 195zM261 511q112 0 170 -66.5t58 -193.5q0 -128 -58 -194.5t-170 -66.5q-113 0 -171.5 66.5t-58.5 194.5q0 127 58.5 193.5t171.5 66.5z" />
    <glyph glyph-name="p" unicode="p" horiz-adv-x="586" 
d="M74 -182v682h83v-50q21 25 60.5 43t87.5 18q109 0 167 -68t58 -192q0 -126 -58 -193.5t-167 -67.5q-100 0 -148 61v-233h-83zM298 443q-66 0 -103.5 -49.5t-37.5 -142.5q0 -95 37.5 -144.5t103.5 -49.5q148 0 148 194q0 192 -148 192z" />
    <glyph glyph-name="q" unicode="q" horiz-adv-x="578" 
d="M491 500v-682h-83v233q-50 -61 -149 -61q-109 0 -167 68t-58 193q0 124 58.5 192t166.5 68q99 0 149 -60v49h83zM266 443q-72 0 -110 -48.5t-38 -143.5q0 -194 148 -194q66 0 104 49.5t38 144.5q0 93 -38 142.5t-104 49.5z" />
    <glyph glyph-name="r" unicode="r" horiz-adv-x="355" 
d="M157 0h-87v500h87v-76h2q17 41 52 64t80 23h56v-76h-56q-51 0 -92.5 -45t-41.5 -114v-276z" />
    <glyph glyph-name="s" unicode="s" horiz-adv-x="478" 
d="M233 443q-43 0 -71 -20t-28 -54q0 -33 31 -51t75 -27t88.5 -21.5t75.5 -45t31 -86.5q0 -68 -56 -108t-142 -40q-205 0 -205 161h85q0 -51 30 -72.5t90 -21.5q49 0 81 23t32 58q0 34 -31.5 53t-76 27.5t-89.5 20.5t-76.5 43.5t-31.5 84.5q0 66 55.5 105t132.5 39
q196 0 196 -161h-83q0 51 -28 72t-85 21z" />
    <glyph glyph-name="t" unicode="t" horiz-adv-x="357" 
d="M13 500h83l12 142h71v-142h133v-65h-133v-325q0 -50 51 -50q44 0 82 9v-69q-40 -10 -90 -10q-68 0 -97 30.5t-29 89.5v325h-83v65z" />
    <glyph glyph-name="u" unicode="u" horiz-adv-x="589" 
d="M78 192v308h84v-308q0 -67 30 -101t80 -34q69 0 106.5 36.5t37.5 106.5v300h83v-500h-83v60q-18 -32 -59 -51t-88 -19q-97 0 -144 53t-47 149z" />
    <glyph glyph-name="v" unicode="v" horiz-adv-x="468" 
d="M229 123h2l43.5 118.5l50.5 141.5l42 117h91l-189 -500h-78l-190 500h91z" />
    <glyph glyph-name="w" unicode="w" horiz-adv-x="705" 
d="M344 363h-2l-108 -363h-81l-154 500h87l106 -366h3l108 366h82l106 -365h3l110 365h89l-160 -500h-82z" />
    <glyph glyph-name="x" unicode="x" horiz-adv-x="468" 
d="M230 190l-134 -190h-99l185 259l-166 241h98l116 -174l116 174h100l-167 -241q18 -27 84 -119t98 -140h-96z" />
    <glyph glyph-name="y" unicode="y" horiz-adv-x="468" 
d="M460 500l-194 -499q-42 -107 -81 -145t-123 -38q-43 0 -75 10v69q37 -11 77 -11q47 0 72 26t51 105l-186 483h93l136 -374l137 374h93z" />
    <glyph glyph-name="z" unicode="z" horiz-adv-x="468" 
d="M39 433v67h389v-49l-294 -383h303v-68h-419v51l294 382h-273z" />
    <glyph glyph-name="braceleft" unicode="{" horiz-adv-x="339" 
d="M31 292v52q34 0 47.5 17t13.5 51v185q0 56 26 87t72 31h74v-55h-61q-15 0 -21.5 -10t-6.5 -42v-187q0 -77 -50 -104q50 -27 50 -101v-187q0 -32 6.5 -42t21.5 -10h61v-55h-74q-46 0 -72 31t-26 87v185q0 67 -61 67z" />
    <glyph glyph-name="bar" unicode="|" horiz-adv-x="225" 
d="M73 -10v725h78v-725h-78z" />
    <glyph glyph-name="braceright" unicode="}" horiz-adv-x="339" 
d="M298 344v-52q-33 0 -46 -17t-13 -50v-185q0 -57 -25 -87.5t-72 -30.5h-73v55h61q13 0 19.5 10.5t6.5 41.5v187q0 77 52 104q-28 11 -40 34.5t-12 66.5v187q0 31 -6.5 41.5t-19.5 10.5h-61v55h73q47 0 72 -30.5t25 -87.5v-185q0 -34 13 -51t46 -17z" />
    <glyph glyph-name="asciitilde" unicode="~" horiz-adv-x="610" 
d="M504 337l51 -59q-47 -90 -146 -90q-45 0 -120 33q-81 30 -103 30q-37 0 -92 -77l-55 60q55 91 149 91q46 0 121 -33q73 -29 103 -29q41 0 92 74z" />
    <glyph glyph-name="nbspace" unicode="&#xa0;" 
 />
    <glyph glyph-name="exclamdown" unicode="&#xa1;" horiz-adv-x="225" 
d="M165 -192h-110l19 494h75zM55 513h110v-105h-110v105z" />
    <glyph glyph-name="cent" unicode="&#xa2;" horiz-adv-x="565" 
d="M170 84l104 319q-15 3 -21 3q-128 0 -128 -177q0 -97 45 -145zM337 360l-104 -307q5 -1 20 -1q41 0 70.5 23t57.5 71l66 -30q-38 -59 -83.5 -92t-110.5 -33q-27 0 -39 2q-5 -17 -17 -49t-16 -45h-72l40 119q-50 30 -77 85t-27 126q0 114 57 175t151 61q28 0 43 -4
q4 13 9.5 27.5l12.5 32t10 26.5h72l-41 -113q53 -38 73 -105l-69 -18q-5 8 -13 26t-13 23z" />
    <glyph glyph-name="sterling" unicode="&#xa3;" horiz-adv-x="565" 
d="M6 -10v75q63 7 87 50.5t24 141.5q0 31 -4 54h-95v65h86q-13 101 -13 113q0 91 53 144t146 53q98 0 144 -49.5t53 -143.5h-80q-6 67 -32 94t-85 27q-53 0 -83 -33t-30 -95q0 -44 10 -110h135v-65h-123q0 -3 2 -22.5t2 -29.5q0 -111 -22 -149q52 -49 122 -49q54 0 83.5 29
t29.5 85h83q0 -88 -52 -136.5t-144 -48.5q-63 0 -96.5 14t-70.5 44q-53 -57 -130 -58z" />
    <glyph glyph-name="currency" unicode="&#xa4;" horiz-adv-x="565" 
d="M481 567l56 -52l-56 -54q52 -67 52 -145q0 -81 -51 -147l55 -53l-56 -52l-55 53q-67 -47 -149 -47q-85 0 -150 47q-9 -8 -28.5 -27t-27.5 -26l-52 52l54 53q-50 65 -50 147q0 81 50 147l-54 52l52 52l56 -54q61 47 150 47q86 0 149 -47zM277 136q73 0 125 53t52 127
q0 72 -52.5 125.5t-124.5 53.5t-124.5 -53.5t-52.5 -125.5q0 -74 52.5 -127t124.5 -53z" />
    <glyph glyph-name="yen" unicode="&#xa5;" horiz-adv-x="565" 
d="M452 390v-61h-127q-3 -6 -18.5 -29t-21.5 -35v-25h153v-59h-153v-181h-85v181h-156v59h156v25l-40 64h-129v61h96l-145 237h88l169 -286l183 286h85l-150 -237h95z" />
    <glyph glyph-name="brokenbar" unicode="&#xa6;" horiz-adv-x="225" 
d="M73 -10v286h78v-286h-78zM73 429v286h78v-286h-78z" />
    <glyph glyph-name="section" unicode="&#xa7;" horiz-adv-x="508" 
d="M421 335q0 -61 -60 -100q50 -36 50 -102t-52.5 -104.5t-132.5 -38.5q-92 0 -144.5 45t-52.5 121h85q0 -98 112 -98q98 0 98 75q0 35 -29 53.5t-70.5 26t-83 18t-70.5 40.5t-29 81q0 71 84 103q-74 33 -74 110q0 65 53 104t125 39q90 0 137.5 -44.5t47.5 -121.5h-86
q0 98 -99 98q-39 0 -65.5 -20t-26.5 -52q0 -33 29 -51t71 -27t83.5 -21.5t70.5 -45.5t29 -88zM337 335q0 17 -7.5 30.5t-16 22t-28 16.5t-31 11.5t-37.5 10.5q-38 -4 -62.5 -22.5t-24.5 -48.5q0 -15 6.5 -26t15 -18t26 -14t29.5 -10l36 -9l36 -9q58 25 58 66z" />
    <glyph glyph-name="dieresis" unicode="&#xa8;" horiz-adv-x="390" 
d="M138 606h-86v95h86v-95zM338 606h-87v95h87v-95z" />
    <glyph glyph-name="copyright" unicode="&#xa9;" horiz-adv-x="812" 
d="M352 636q139 0 236.5 -95t97.5 -228q0 -132 -97.5 -227t-236.5 -95t-236 95t-97 227q0 133 97 228t236 95zM352 53q110 0 184 75.5t74 184.5t-74 184.5t-184 75.5q-108 0 -182 -75.5t-74 -184.5q0 -108 74 -184t182 -76zM458 259h72q-10 -70 -55.5 -111t-111.5 -41
q-95 0 -147 55.5t-52 152.5q0 96 49.5 150.5t143.5 54.5q73 0 121 -40t51 -111h-71q-5 39 -31 64t-68 25q-58 0 -88.5 -38.5t-30.5 -104.5q0 -63 33 -104.5t90 -41.5q40 0 65 25t30 65z" />
    <glyph glyph-name="ordfeminine" unicode="&#xaa;" horiz-adv-x="304" 
d="M302 389h-56l-7 40q-44 -46 -109 -46q-43 0 -70.5 25.5t-27.5 67.5q0 35 16.5 57t50 31t59 11t69.5 2v21q0 29 -13.5 41t-41.5 12q-41 0 -69 -45l-65 30q41 82 137 82q63 0 95 -34t32 -95v-200zM227 478v46q-11 1 -41 1q-77 0 -77 -47q0 -36 40 -36q55 0 78 36z" />
    <glyph glyph-name="guillemotleft" unicode="&#xab;" horiz-adv-x="508" 
d="M435 412l-130 -152l129 -159h-92l-128 159l128 152h93zM291 412l-130 -152l129 -159h-95l-124 159l124 152h96z" />
    <glyph glyph-name="logicalnot" unicode="&#xac;" horiz-adv-x="610" 
d="M487 126v190h-456v73h534v-263h-78z" />
    <glyph glyph-name="registered" unicode="&#xae;" horiz-adv-x="812" 
d="M298 259v-142h-76v391h158q136 0 136 -125q0 -88 -82 -117l92 -149h-88l-83 142h-57zM298 320h56q41 0 62 14.5t21 50.5q0 62 -69 62h-70v-127zM352 636q139 0 236.5 -95t97.5 -228q0 -132 -97.5 -227t-236.5 -95t-236 95t-97 227q0 133 97 228t236 95zM352 53
q110 0 184 75.5t74 184.5t-74 184.5t-184 75.5q-108 0 -182 -75.5t-74 -184.5q0 -108 74 -184t182 -76z" />
    <glyph glyph-name="overscore" unicode="&#xaf;" horiz-adv-x="225" 
d="M-48 585v62h316v-62h-316z" />
    <glyph glyph-name="degree" unicode="&#xb0;" horiz-adv-x="407" 
d="M199 654q-36 0 -60.5 -25.5t-24.5 -61.5q0 -38 24.5 -63.5t60.5 -25.5q37 0 61.5 25.5t24.5 63.5q0 36 -25 61.5t-61 25.5zM199 715q65 0 110 -43.5t45 -104.5q0 -62 -45 -106t-110 -44q-66 0 -110.5 44t-44.5 106q0 61 44.5 104.5t110.5 43.5z" />
    <glyph glyph-name="plusminus" unicode="&#xb1;" horiz-adv-x="610" 
d="M260 338v175h79v-175h226v-72h-226v-175h-79v175h-229v72h229zM31 0v71h534v-71h-534z" />
    <glyph glyph-name="twosuperior" unicode="&#xb2;" horiz-adv-x="390" 
d="M348 256h-291v55l52 39.5l52.5 40t42.5 36t37.5 40t21 38.5t9.5 44q0 40 -18.5 60t-49.5 20q-79 0 -79 -87h-73q0 74 44 112t108 38q68 0 107.5 -40t39.5 -105q0 -25 -10.5 -50.5t-22 -43.5t-36 -42.5t-36.5 -34.5t-41.5 -32.5t-32.5 -25.5h176v-62z" />
    <glyph glyph-name="threesuperior" unicode="&#xb3;" horiz-adv-x="390" 
d="M207 446h-51v53h43q37 0 53.5 17.5t16.5 55.5q0 27 -18 43.5t-50 16.5q-42 0 -61 -21.5t-20 -65.5h-71q0 68 42 107.5t109 39.5q68 0 108 -32t40 -87q0 -74 -61 -92q35 -7 54.5 -32.5t19.5 -61.5q0 -62 -46.5 -98.5t-119.5 -36.5q-70 0 -113.5 36t-43.5 108h78
q0 -85 83 -85q38 0 58.5 21t20.5 54q0 31 -15.5 45.5t-55.5 14.5z" />
    <glyph glyph-name="acute" unicode="&#xb4;" horiz-adv-x="225" 
d="M116 710h109l-113 -139h-80z" />
    <glyph glyph-name="mu" unicode="&#xb5;" horiz-adv-x="565" 
d="M396 513h84v-513h-84v53q-65 -63 -159 -63q-50 0 -78 22v-186h-85v687h85v-353q0 -104 88 -104q78 0 149 95v362z" />
    <glyph glyph-name="paragraph" unicode="&#xb6;" horiz-adv-x="508" 
d="M465 -130h-78v814h78v-814zM285 684v-814h-78v424q-81 7 -134.5 62t-53.5 129q0 96 59 147.5t166 51.5h41z" />
    <glyph glyph-name="middot" unicode="&#xb7;" horiz-adv-x="283" 
d="M138 315q24 0 42.5 -17t18.5 -41q0 -23 -18.5 -40t-42.5 -17t-42.5 17t-18.5 40q0 24 18.5 41t42.5 17z" />
    <glyph glyph-name="cedilla" unicode="&#xb8;" horiz-adv-x="225" 
d="M-12 -172l18 52q48 -19 71 -19q48 0 48 30q0 26 -29 26q-24 0 -44 -11l-30 22l62 91h72l-33 -42q89 0 89 -84q0 -41 -30 -66t-86 -25t-108 26z" />
    <glyph glyph-name="onesuperior" unicode="&#xb9;" horiz-adv-x="325" 
d="M218 281h-71v346l-82 -23v58l110 43h43v-424z" />
    <glyph glyph-name="ordmasculine" unicode="&#xba;" horiz-adv-x="338" 
d="M164 658q-39 0 -53.5 -28.5t-14.5 -78.5q0 -49 14.5 -76.5t53.5 -27.5q40 0 55 27t15 77q0 51 -15 79t-55 28zM164 389q-72 0 -106.5 43.5t-34.5 118.5q0 76 34.5 120.5t106.5 44.5q73 0 108 -44.5t35 -120.5q0 -75 -35 -118.5t-108 -43.5z" />
    <glyph glyph-name="guillemotright" unicode="&#xbb;" horiz-adv-x="508" 
d="M61 101l131 154l-130 157h95l128 -157l-128 -154h-96zM207 101l130 154l-129 157h94l126 -157l-126 -154h-95z" />
    <glyph glyph-name="onequarter" unicode="&#xbc;" horiz-adv-x="884" 
d="M660 153v162l-128 -162h128zM738 0h-78v91h-218v53l217 273h79v-264h61v-62h-61v-91zM234 -10h-70l417 715h70zM218 281h-71v346l-82 -23v58l110 43h43v-424z" />
    <glyph glyph-name="onehalf" unicode="&#xbd;" horiz-adv-x="931" 
d="M234 -10h-70l417 715h70zM218 281h-71v346l-82 -23v58l110 43h43v-424zM828 0h-291v55l52 39.5l52.5 40t42.5 36t37.5 40t21 38.5t9.5 44q0 40 -18.5 60t-49.5 20q-79 0 -79 -87h-73q0 74 44 112t108 38q68 0 107.5 -40t39.5 -105q0 -25 -10.5 -50.5t-22 -43.5t-36 -42.5
t-36.5 -34.5t-41.5 -32.5t-32.5 -25.5h176v-62z" />
    <glyph glyph-name="threequarters" unicode="&#xbe;" horiz-adv-x="962" 
d="M312 -10h-70l417 715h70zM740 153v162l-129 -162h129zM818 0h-78v91h-219v53l217 273h80v-264h61v-62h-61v-91zM207 446h-51v53h43q37 0 53.5 17.5t16.5 55.5q0 27 -18 43.5t-50 16.5q-42 0 -61 -21.5t-20 -65.5h-71q0 68 42 107.5t109 39.5q68 0 108 -32t40 -87
q0 -74 -61 -92q35 -7 54.5 -32.5t19.5 -61.5q0 -62 -46.5 -98.5t-119.5 -36.5q-70 0 -113.5 36t-43.5 108h78q0 -85 83 -85q38 0 58.5 21t20.5 54q0 31 -15.5 45.5t-55.5 14.5z" />
    <glyph glyph-name="questiondown" unicode="&#xbf;" horiz-adv-x="395" 
d="M300 -35l70 -35q-47 -133 -176 -133q-72 0 -122.5 45t-50.5 122q0 45 22.5 79t65.5 75q24 23 38.5 39.5t26.5 41.5t12 51v54h79v-78q0 -12 -3.5 -24.5t-7.5 -21t-13.5 -22.5t-14.5 -19.5t-18.5 -22t-17.5 -20.5q-26 -28 -39 -44t-27 -45t-14 -56q0 -38 24.5 -59.5
t60.5 -21.5q67 0 105 95zM175 513h108v-105h-108v105z" />
    <glyph glyph-name="Agrave" unicode="&#xc0;" horiz-adv-x="604" 
d="M493 0l-60 177h-265l-61 -177h-94l240 684h98l240 -684h-98zM302 564l-108 -312h213zM161 859h109l83 -139h-79z" />
    <glyph glyph-name="Aacute" unicode="&#xc1;" horiz-adv-x="604" 
d="M493 0l-60 177h-265l-61 -177h-94l240 684h98l240 -684h-98zM302 564l-108 -312h213zM315 859h109l-113 -139h-80z" />
    <glyph glyph-name="Acircumflex" unicode="&#xc2;" horiz-adv-x="604" 
d="M493 0l-60 177h-265l-61 -177h-94l240 684h98l240 -684h-98zM302 564l-108 -312h213zM344 872l127 -152h-98l-71 89l-74 -89h-95l130 152h81z" />
    <glyph glyph-name="Atilde" unicode="&#xc3;" horiz-adv-x="604" 
d="M493 0l-60 177h-265l-61 -177h-94l240 684h98l240 -684h-98zM302 564l-108 -312h213zM191 720h-62q2 44 29.5 79t68.5 35q27 0 76 -21.5t65 -21.5q24 0 32 46h61q-17 -112 -100 -112q-24 0 -68 21.5t-70 21.5q-11 0 -20.5 -15t-11.5 -33z" />
    <glyph glyph-name="Adieresis" unicode="&#xc4;" horiz-adv-x="604" 
d="M493 0l-60 177h-265l-61 -177h-94l240 684h98l240 -684h-98zM302 564l-108 -312h213zM245 742h-86v95h86v-95zM445 742h-87v95h87v-95z" />
    <glyph glyph-name="Aring" unicode="&#xc5;" horiz-adv-x="604" 
d="M493 0l-60 177h-265l-61 -177h-94l240 684h98l240 -684h-98zM302 564l-108 -312h213zM295 912q44 0 77 -30.5t33 -74.5t-33 -74t-77 -30q-45 0 -76.5 30t-31.5 74q0 45 31.5 75t76.5 30zM295 860q-22 0 -36.5 -15t-14.5 -38q0 -22 14.5 -37t36.5 -15q21 0 35.5 15
t14.5 37t-14.5 37.5t-35.5 15.5z" />
    <glyph glyph-name="AE" unicode="&#xc6;" horiz-adv-x="872" 
d="M532 300v-227h301v-73h-386v178h-234l-101 -178h-99l360 633h464v-73h-305v-187h266v-73h-266zM250 253h197v309h-23z" />
    <glyph glyph-name="Ccedilla" unicode="&#xc7;" horiz-adv-x="564" 
d="M461 183h95q-20 -191 -234 -191q-132 0 -202.5 92.5t-70.5 249.5q0 166 69.5 260t203.5 94q212 0 230 -188h-94q-7 51 -41.5 81t-94.5 30q-88 0 -133.5 -70.5t-45.5 -206.5q0 -125 46 -194t133 -69q62 0 97 30t42 82zM167 -172l18 52q47 -19 71 -19q48 0 48 30
q0 26 -29 26q-24 0 -44 -11l-30 22l62 91h72l-33 -42q89 0 89 -84q0 -41 -30 -66t-86 -25t-108 26z" />
    <glyph glyph-name="Egrave" unicode="&#xc8;" horiz-adv-x="489" 
d="M167 316v-243h310v-73h-400v684h398v-73h-308v-222h273v-73h-273zM160 859h109l83 -139h-79z" />
    <glyph glyph-name="Eacute" unicode="&#xc9;" horiz-adv-x="489" 
d="M167 316v-243h310v-73h-400v684h398v-73h-308v-222h273v-73h-273zM298 859h109l-113 -139h-80z" />
    <glyph glyph-name="Ecircumflex" unicode="&#xca;" horiz-adv-x="489" 
d="M167 316v-243h310v-73h-400v684h398v-73h-308v-222h273v-73h-273zM320 872l127 -152h-98l-71 89l-74 -89h-95l130 152h81z" />
    <glyph glyph-name="Edieresis" unicode="&#xcb;" horiz-adv-x="489" 
d="M167 316v-243h310v-73h-400v684h398v-73h-308v-222h273v-73h-273zM321 742h-86v95h86v-95zM521 742h-87v95h87v-95z" />
    <glyph glyph-name="Igrave" unicode="&#xcc;" horiz-adv-x="403" 
d="M258 684v-684h-90v684h90zM88 859h109l83 -139h-79z" />
    <glyph glyph-name="Iacute" unicode="&#xcd;" horiz-adv-x="403" 
d="M258 684v-684h-90v684h90zM211 859h109l-113 -139h-80z" />
    <glyph glyph-name="Icircumflex" unicode="&#xce;" horiz-adv-x="403" 
d="M258 684v-684h-90v684h90zM246 872l127 -152h-98l-71 89l-74 -89h-95l130 152h81z" />
    <glyph glyph-name="Idieresis" unicode="&#xcf;" horiz-adv-x="403" 
d="M258 684v-684h-90v684h90zM234 742h-86v95h86v-95zM434 742h-87v95h87v-95z" />
    <glyph glyph-name="Eth" unicode="&#xd0;" horiz-adv-x="669" 
d="M203 73h114q90 0 140.5 71t50.5 194q0 134 -50 203.5t-141 69.5h-114v-538zM109 684h208q131 0 209 -92.5t78 -253.5q0 -152 -79 -245t-208 -93h-208v684zM18 369h351v-70h-351v70z" />
    <glyph glyph-name="Ntilde" unicode="&#xd1;" horiz-adv-x="637" 
d="M168 0h-90v684h87l317 -519v519h90v-684h-87l-317 516v-516zM212 720h-62q2 44 29.5 79t68.5 35q28 0 77 -21.5t64 -21.5q24 0 32 46h61q-17 -112 -100 -112q-24 0 -68 21.5t-70 21.5q-11 0 -20.5 -15t-11.5 -33z" />
    <glyph glyph-name="Ograve" unicode="&#xd2;" horiz-adv-x="647" 
d="M324 68q177 0 177 266q0 143 -44 210.5t-133 67.5q-90 0 -134 -67.5t-44 -210.5q0 -266 178 -266zM324 -8q-132 0 -202 89t-70 253q0 171 67.5 262.5t204.5 91.5t204 -91t67 -263q0 -164 -70 -253t-201 -89zM208 859h109l83 -139h-79z" />
    <glyph glyph-name="Oacute" unicode="&#xd3;" horiz-adv-x="647" 
d="M324 68q177 0 177 266q0 143 -44 210.5t-133 67.5q-90 0 -134 -67.5t-44 -210.5q0 -266 178 -266zM324 -8q-132 0 -202 89t-70 253q0 171 67.5 262.5t204.5 91.5t204 -91t67 -263q0 -164 -70 -253t-201 -89zM255 859h109l-113 -139h-80z" />
    <glyph glyph-name="Ocircumflex" unicode="&#xd4;" horiz-adv-x="647" 
d="M324 68q177 0 177 266q0 143 -44 210.5t-133 67.5q-90 0 -134 -67.5t-44 -210.5q0 -266 178 -266zM324 -8q-132 0 -202 89t-70 253q0 171 67.5 262.5t204.5 91.5t204 -91t67 -263q0 -164 -70 -253t-201 -89zM358 872l127 -152h-98l-71 89l-74 -89h-95l130 152h81z" />
    <glyph glyph-name="Otilde" unicode="&#xd5;" horiz-adv-x="647" 
d="M324 68q177 0 177 266q0 143 -44 210.5t-133 67.5q-90 0 -134 -67.5t-44 -210.5q0 -266 178 -266zM324 -8q-132 0 -202 89t-70 253q0 171 67.5 262.5t204.5 91.5t204 -91t67 -263q0 -164 -70 -253t-201 -89zM214 720h-62q2 44 29.5 79t68.5 35q28 0 77 -21.5t64 -21.5
q24 0 32 46h61q-17 -112 -100 -112q-24 0 -68 21.5t-70 21.5q-11 0 -20.5 -15t-11.5 -33z" />
    <glyph glyph-name="Odieresis" unicode="&#xd6;" horiz-adv-x="647" 
d="M324 68q177 0 177 266q0 143 -44 210.5t-133 67.5q-90 0 -134 -67.5t-44 -210.5q0 -266 178 -266zM324 -8q-132 0 -202 89t-70 253q0 171 67.5 262.5t204.5 91.5t204 -91t67 -263q0 -164 -70 -253t-201 -89zM261 742h-86v95h86v-95zM461 742h-87v95h87v-95z" />
    <glyph glyph-name="multiply" unicode="&#xd7;" horiz-adv-x="499" 
d="M408 -10l-169 169l-169 -169l-61 59l169 169l-169 171l61 61l169 -171l169 171l60 -61l-169 -171l169 -169z" />
    <glyph glyph-name="Oslash" unicode="&#xd8;" horiz-adv-x="647" 
d="M545 723l-384 -762h-56l385 762h55zM324 68q177 0 177 266q0 143 -44 210.5t-133 67.5q-90 0 -134 -67.5t-44 -210.5q0 -266 178 -266zM324 -8q-132 0 -202 89t-70 253q0 171 67.5 262.5t204.5 91.5t204 -91t67 -263q0 -164 -70 -253t-201 -89z" />
    <glyph glyph-name="Ugrave" unicode="&#xd9;" horiz-adv-x="659" 
d="M336 -8q-120 0 -189.5 68t-69.5 193v431h90v-431q0 -182 169 -182q168 0 168 182v431h90v-431q0 -125 -69 -193t-189 -68zM205 859h109l83 -139h-79z" />
    <glyph glyph-name="Uacute" unicode="&#xda;" horiz-adv-x="659" 
d="M336 -8q-120 0 -189.5 68t-69.5 193v431h90v-431q0 -182 169 -182q168 0 168 182v431h90v-431q0 -125 -69 -193t-189 -68zM325 859h109l-113 -139h-80z" />
    <glyph glyph-name="Ucircumflex" unicode="&#xdb;" horiz-adv-x="659" 
d="M336 -8q-120 0 -189.5 68t-69.5 193v431h90v-431q0 -182 169 -182q168 0 168 182v431h90v-431q0 -125 -69 -193t-189 -68zM375 872l127 -152h-98l-71 89l-74 -89h-95l130 152h81z" />
    <glyph glyph-name="Udieresis" unicode="&#xdc;" horiz-adv-x="659" 
d="M336 -8q-120 0 -189.5 68t-69.5 193v431h90v-431q0 -182 169 -182q168 0 168 182v431h90v-431q0 -125 -69 -193t-189 -68zM272 742h-86v95h86v-95zM472 742h-87v95h87v-95z" />
    <glyph glyph-name="Yacute" unicode="&#xdd;" horiz-adv-x="565" 
d="M289 369h1l171 315h102l-228 -402v-282h-92v282l-227 402h101zM278 893h109l-113 -139h-80z" />
    <glyph glyph-name="Thorn" unicode="&#xde;" horiz-adv-x="563" 
d="M285 494h-123v-286h108q168 0 168 139q0 78 -34.5 112.5t-118.5 34.5zM270 135h-108v-135h-91v684h91v-117h123q130 0 187 -55.5t57 -164.5q0 -212 -259 -212z" />
    <glyph glyph-name="germandbls" unicode="&#xdf;" horiz-adv-x="508" 
d="M160 0h-91v498q0 96 52.5 149.5t151.5 53.5q90 0 142 -52.5t52 -135.5q0 -58 -31 -101.5t-81 -54.5q152 -23 152 -172q0 -197 -200 -197q-59 0 -104 26l30 69q38 -23 79 -23q48 0 76 29.5t28 85.5q0 141 -181 141v70q72 2 106.5 32.5t34.5 97.5q0 56 -29 84t-78 28
q-109 0 -109 -125v-503z" />
    <glyph glyph-name="agrave" unicode="&#xe0;" horiz-adv-x="508" 
d="M440 341v-211q0 -41 10.5 -57t43.5 -16v-58q-12 -3 -45 -3q-79 0 -85 86q-13 -39 -55.5 -65.5t-107.5 -26.5q-81 0 -128 41t-47 111q0 77 54.5 115t147.5 38h125v46q0 48 -29.5 75t-84.5 27q-61 0 -88.5 -28t-27.5 -71h-86q0 73 51 120t151 47q96 0 148.5 -45.5
t52.5 -124.5zM353 198v29h-125q-122 0 -122 -84q0 -38 25 -62t75 -24q68 0 107.5 41.5t39.5 99.5zM160 710h109l83 -139h-79z" />
    <glyph glyph-name="aacute" unicode="&#xe1;" horiz-adv-x="508" 
d="M440 341v-211q0 -41 10.5 -57t43.5 -16v-58q-12 -3 -45 -3q-79 0 -85 86q-13 -39 -55.5 -65.5t-107.5 -26.5q-81 0 -128 41t-47 111q0 77 54.5 115t147.5 38h125v46q0 48 -29.5 75t-84.5 27q-61 0 -88.5 -28t-27.5 -71h-86q0 73 51 120t151 47q96 0 148.5 -45.5
t52.5 -124.5zM353 198v29h-125q-122 0 -122 -84q0 -38 25 -62t75 -24q68 0 107.5 41.5t39.5 99.5zM271 710h109l-113 -139h-80z" />
    <glyph glyph-name="acircumflex" unicode="&#xe2;" horiz-adv-x="508" 
d="M440 341v-211q0 -41 10.5 -57t43.5 -16v-58q-12 -3 -45 -3q-79 0 -85 86q-13 -39 -55.5 -65.5t-107.5 -26.5q-81 0 -128 41t-47 111q0 77 54.5 115t147.5 38h125v46q0 48 -29.5 75t-84.5 27q-61 0 -88.5 -28t-27.5 -71h-86q0 73 51 120t151 47q96 0 148.5 -45.5
t52.5 -124.5zM353 198v29h-125q-122 0 -122 -84q0 -38 25 -62t75 -24q68 0 107.5 41.5t39.5 99.5zM293 723l127 -152h-98l-71 89l-74 -89h-95l130 152h81z" />
    <glyph glyph-name="atilde" unicode="&#xe3;" horiz-adv-x="508" 
d="M440 341v-211q0 -41 10.5 -57t43.5 -16v-58q-12 -3 -45 -3q-79 0 -85 86q-13 -39 -55.5 -65.5t-107.5 -26.5q-81 0 -128 41t-47 111q0 77 54.5 115t147.5 38h125v46q0 48 -29.5 75t-84.5 27q-61 0 -88.5 -28t-27.5 -71h-86q0 73 51 120t151 47q96 0 148.5 -45.5
t52.5 -124.5zM353 198v29h-125q-122 0 -122 -84q0 -38 25 -62t75 -24q68 0 107.5 41.5t39.5 99.5zM125 584h-62q2 44 29.5 79t68.5 35q27 0 76 -21.5t65 -21.5q24 0 32 46h61q-17 -112 -100 -112q-24 0 -68 21.5t-70 21.5q-11 0 -20.5 -15t-11.5 -33z" />
    <glyph glyph-name="adieresis" unicode="&#xe4;" horiz-adv-x="508" 
d="M440 341v-211q0 -41 10.5 -57t43.5 -16v-58q-12 -3 -45 -3q-79 0 -85 86q-13 -39 -55.5 -65.5t-107.5 -26.5q-81 0 -128 41t-47 111q0 77 54.5 115t147.5 38h125v46q0 48 -29.5 75t-84.5 27q-61 0 -88.5 -28t-27.5 -71h-86q0 73 51 120t151 47q96 0 148.5 -45.5
t52.5 -124.5zM353 198v29h-125q-122 0 -122 -84q0 -38 25 -62t75 -24q68 0 107.5 41.5t39.5 99.5zM271 606h-86v95h86v-95zM471 606h-87v95h87v-95z" />
    <glyph glyph-name="aring" unicode="&#xe5;" horiz-adv-x="508" 
d="M440 341v-211q0 -41 10.5 -57t43.5 -16v-58q-12 -3 -45 -3q-79 0 -85 86q-13 -39 -55.5 -65.5t-107.5 -26.5q-81 0 -128 41t-47 111q0 77 54.5 115t147.5 38h125v46q0 48 -29.5 75t-84.5 27q-61 0 -88.5 -28t-27.5 -71h-86q0 73 51 120t151 47q96 0 148.5 -45.5
t52.5 -124.5zM353 198v29h-125q-122 0 -122 -84q0 -38 25 -62t75 -24q68 0 107.5 41.5t39.5 99.5zM236 776q44 0 77 -30.5t33 -74.5t-33 -74t-77 -30q-45 0 -76.5 30t-31.5 74q0 45 31.5 75t76.5 30zM236 724q-22 0 -36.5 -15t-14.5 -38q0 -22 14.5 -37t36.5 -15
q21 0 35.5 15t14.5 37t-14.5 37.5t-35.5 15.5z" />
    <glyph glyph-name="ae" unicode="&#xe6;" horiz-adv-x="835" 
d="M563 57q56 0 88.5 30t32.5 83h86q0 -83 -55.5 -131.5t-151.5 -48.5q-120 0 -178 76q-28 -30 -74 -53t-100 -23q-83 0 -131 41t-48 111q0 76 55.5 114.5t149.5 38.5h100q2 39 22 91q-13 27 -42 42t-65 15q-56 0 -88.5 -30.5t-32.5 -82.5h-84q0 83 55 132t150 49
q101 0 157 -56q62 56 155 56q103 0 157.5 -67t54.5 -170q0 -19 -3 -44h-353q3 -84 40.5 -128.5t102.5 -44.5zM216 57q40 0 76.5 22t58.5 52q-11 45 -17 96h-97q-121 0 -121 -84q0 -38 25 -62t75 -24zM420 298h272q-2 66 -37 105.5t-93 39.5q-62 0 -100 -41.5t-42 -103.5z
" />
    <glyph glyph-name="ccedilla" unicode="&#xe7;" horiz-adv-x="508" 
d="M264 57q55 0 88.5 27.5t33.5 71.5h86q0 -75 -56 -120.5t-152 -45.5q-117 0 -175.5 68.5t-58.5 192.5q0 126 60.5 193t174.5 67q98 0 153 -42.5t55 -124.5h-84q0 99 -124 99q-150 0 -150 -192q0 -194 149 -194zM124 -172l18 52q48 -19 71 -19q48 0 48 30q0 26 -29 26
q-24 0 -44 -11l-30 22l62 91h72l-33 -42q89 0 89 -84q0 -41 -30 -66t-86 -25t-108 26z" />
    <glyph glyph-name="egrave" unicode="&#xe8;" horiz-adv-x="508" 
d="M259 57q57 0 88 27t31 72h86q0 -76 -54 -121t-151 -45q-109 0 -169 64.5t-60 196.5q0 125 60 192.5t170 67.5q102 0 155.5 -67.5t53.5 -173.5q0 -27 -1 -40h-354q6 -173 145 -173zM114 298h272q0 70 -32.5 107.5t-96.5 37.5q-67 0 -102.5 -40.5t-40.5 -104.5zM147 710
h109l83 -139h-79z" />
    <glyph glyph-name="eacute" unicode="&#xe9;" horiz-adv-x="508" 
d="M259 57q57 0 88 27t31 72h86q0 -76 -54 -121t-151 -45q-109 0 -169 64.5t-60 196.5q0 125 60 192.5t170 67.5q102 0 155.5 -67.5t53.5 -173.5q0 -27 -1 -40h-354q6 -173 145 -173zM114 298h272q0 70 -32.5 107.5t-96.5 37.5q-67 0 -102.5 -40.5t-40.5 -104.5zM271 710
h109l-113 -139h-80z" />
    <glyph glyph-name="ecircumflex" unicode="&#xea;" horiz-adv-x="508" 
d="M259 57q57 0 88 27t31 72h86q0 -76 -54 -121t-151 -45q-109 0 -169 64.5t-60 196.5q0 125 60 192.5t170 67.5q102 0 155.5 -67.5t53.5 -173.5q0 -27 -1 -40h-354q6 -173 145 -173zM114 298h272q0 70 -32.5 107.5t-96.5 37.5q-67 0 -102.5 -40.5t-40.5 -104.5zM302 723
l127 -152h-98l-71 89l-74 -89h-95l130 152h81z" />
    <glyph glyph-name="edieresis" unicode="&#xeb;" horiz-adv-x="508" 
d="M259 57q57 0 88 27t31 72h86q0 -76 -54 -121t-151 -45q-109 0 -169 64.5t-60 196.5q0 125 60 192.5t170 67.5q102 0 155.5 -67.5t53.5 -173.5q0 -27 -1 -40h-354q6 -173 145 -173zM114 298h272q0 70 -32.5 107.5t-96.5 37.5q-67 0 -102.5 -40.5t-40.5 -104.5zM284 606
h-86v95h86v-95zM484 606h-87v95h87v-95z" />
    <glyph glyph-name="igrave" unicode="&#xec;" horiz-adv-x="225" 
d="M162 500v-500h-84v500h84zM1 710h109l83 -139h-79z" />
    <glyph glyph-name="iacute" unicode="&#xed;" horiz-adv-x="225" 
d="M162 500v-500h-84v500h84zM85 710h109l-113 -139h-80z" />
    <glyph glyph-name="icircumflex" unicode="&#xee;" horiz-adv-x="225" 
d="M162 500v-500h-84v500h84zM152 723l127 -152h-98l-71 89l-74 -89h-95l130 152h81z" />
    <glyph glyph-name="idieresis" unicode="&#xef;" horiz-adv-x="225" 
d="M162 500v-500h-84v500h84zM138 606h-86v95h86v-95zM338 606h-87v95h87v-95z" />
    <glyph glyph-name="eth" unicode="&#xf0;" horiz-adv-x="516" 
d="M221 513h-82l64 112q-95 -1 -156 -24v68q56 28 149 28q16 0 46 -4l27 47h82l-43 -68q79 -46 121 -126t42 -220q0 -171 -50 -252t-177 -81q-94 0 -153 63.5t-59 159.5q0 98 53 162.5t157 64.5q85 0 138 -69q0 172 -108 228zM244 68q65 0 97 42t32 112q0 147 -131 147
q-65 0 -93 -39t-28 -114q0 -67 31 -107.5t92 -40.5z" />
    <glyph glyph-name="ntilde" unicode="&#xf1;" horiz-adv-x="565" 
d="M163 0h-84v500h84v-59q48 70 151 70q185 0 185 -196v-315h-86v312q0 131 -113 131q-60 0 -98.5 -32.5t-38.5 -90.5v-320zM161 584h-62q2 44 29.5 79t68.5 35q27 0 76 -21.5t65 -21.5q24 0 32 46h61q-17 -112 -100 -112q-24 0 -68 21.5t-70 21.5q-11 0 -20.5 -15
t-11.5 -33z" />
    <glyph glyph-name="ograve" unicode="&#xf2;" horiz-adv-x="532" 
d="M261 446q-145 0 -145 -195t145 -195q143 0 143 195t-143 195zM261 511q112 0 170 -66.5t58 -193.5q0 -128 -58 -194.5t-170 -66.5q-113 0 -171.5 66.5t-58.5 194.5q0 127 58.5 193.5t171.5 66.5zM182 710h109l83 -139h-79z" />
    <glyph glyph-name="oacute" unicode="&#xf3;" horiz-adv-x="532" 
d="M261 446q-145 0 -145 -195t145 -195q143 0 143 195t-143 195zM261 511q112 0 170 -66.5t58 -193.5q0 -128 -58 -194.5t-170 -66.5q-113 0 -171.5 66.5t-58.5 194.5q0 127 58.5 193.5t171.5 66.5zM265 710h109l-113 -139h-80z" />
    <glyph glyph-name="ocircumflex" unicode="&#xf4;" horiz-adv-x="532" 
d="M261 446q-145 0 -145 -195t145 -195q143 0 143 195t-143 195zM261 511q112 0 170 -66.5t58 -193.5q0 -128 -58 -194.5t-170 -66.5q-113 0 -171.5 66.5t-58.5 194.5q0 127 58.5 193.5t171.5 66.5zM298 723l127 -152h-98l-71 89l-74 -89h-95l130 152h81z" />
    <glyph glyph-name="otilde" unicode="&#xf5;" horiz-adv-x="532" 
d="M261 446q-145 0 -145 -195t145 -195q143 0 143 195t-143 195zM261 511q112 0 170 -66.5t58 -193.5q0 -128 -58 -194.5t-170 -66.5q-113 0 -171.5 66.5t-58.5 194.5q0 127 58.5 193.5t171.5 66.5zM149 584h-62q2 44 29.5 79t68.5 35q28 0 77 -21.5t64 -21.5q24 0 32 46h61
q-17 -112 -100 -112q-24 0 -68 21.5t-70 21.5q-11 0 -20.5 -15t-11.5 -33z" />
    <glyph glyph-name="odieresis" unicode="&#xf6;" horiz-adv-x="532" 
d="M261 446q-145 0 -145 -195t145 -195q143 0 143 195t-143 195zM261 511q112 0 170 -66.5t58 -193.5q0 -128 -58 -194.5t-170 -66.5q-113 0 -171.5 66.5t-58.5 194.5q0 127 58.5 193.5t171.5 66.5zM278 606h-86v95h86v-95zM478 606h-87v95h87v-95z" />
    <glyph glyph-name="divide" unicode="&#xf7;" horiz-adv-x="513" 
d="M477 186h-451v64h451v-64zM251 447q25 0 43 -16.5t18 -39.5t-18 -39.5t-43 -16.5q-23 0 -41.5 17t-18.5 39t18.5 39t41.5 17zM251 100q25 0 43 -16.5t18 -39.5q0 -22 -18 -39t-43 -17q-23 0 -41.5 17.5t-18.5 38.5q0 22 18.5 39t41.5 17z" />
    <glyph glyph-name="oslash" unicode="&#xf8;" horiz-adv-x="532" 
d="M438 541l-296 -587h-50l302 587h44zM261 446q-145 0 -145 -195t145 -195q143 0 143 195t-143 195zM261 511q112 0 170 -66.5t58 -193.5q0 -128 -58 -194.5t-170 -66.5q-113 0 -171.5 66.5t-58.5 194.5q0 127 58.5 193.5t171.5 66.5z" />
    <glyph glyph-name="ugrave" unicode="&#xf9;" horiz-adv-x="565" 
d="M78 192v308h84v-308q0 -67 30 -101t80 -34q69 0 106.5 36.5t37.5 106.5v300h83v-500h-83v60q-18 -32 -59 -51t-88 -19q-97 0 -144 53t-47 149zM151 710h109l83 -139h-79z" />
    <glyph glyph-name="uacute" unicode="&#xfa;" horiz-adv-x="565" 
d="M78 192v308h84v-308q0 -67 30 -101t80 -34q69 0 106.5 36.5t37.5 106.5v300h83v-500h-83v60q-18 -32 -59 -51t-88 -19q-97 0 -144 53t-47 149zM297 710h109l-113 -139h-80z" />
    <glyph glyph-name="ucircumflex" unicode="&#xfb;" horiz-adv-x="565" 
d="M78 192v308h84v-308q0 -67 30 -101t80 -34q69 0 106.5 36.5t37.5 106.5v300h83v-500h-83v60q-18 -32 -59 -51t-88 -19q-97 0 -144 53t-47 149zM329 723l127 -152h-98l-71 89l-74 -89h-95l130 152h81z" />
    <glyph glyph-name="udieresis" unicode="&#xfc;" horiz-adv-x="565" 
d="M78 192v308h84v-308q0 -67 30 -101t80 -34q69 0 106.5 36.5t37.5 106.5v300h83v-500h-83v60q-18 -32 -59 -51t-88 -19q-97 0 -144 53t-47 149zM311 606h-86v95h86v-95zM511 606h-87v95h87v-95z" />
    <glyph glyph-name="yacute" unicode="&#xfd;" horiz-adv-x="468" 
d="M460 500l-194 -499q-42 -107 -81 -145t-123 -38q-43 0 -75 10v69q37 -11 77 -11q47 0 72 26t51 105l-186 483h93l136 -374l137 374h93zM234 710h109l-113 -139h-80z" />
    <glyph glyph-name="thorn" unicode="&#xfe;" horiz-adv-x="586" 
d="M74 -182v896h83v-264q21 25 60.5 43t87.5 18q109 0 167 -68t58 -192q0 -126 -58 -193.5t-167 -67.5q-100 0 -148 61v-233h-83zM298 443q-66 0 -103.5 -49.5t-37.5 -142.5q0 -95 37.5 -144.5t103.5 -49.5q148 0 148 194q0 192 -148 192z" />
    <glyph glyph-name="ydieresis" unicode="&#xff;" horiz-adv-x="468" 
d="M460 500l-194 -499q-42 -107 -81 -145t-123 -38q-43 0 -75 10v69q37 -11 77 -11q47 0 72 26t51 105l-186 483h93l136 -374l137 374h93zM250 606h-86v95h86v-95zM450 606h-87v95h87v-95z" />
    <glyph glyph-name="dotlessi" unicode="&#x131;" horiz-adv-x="244" 
d="M162 500v-500h-84v500h84z" />
    <glyph glyph-name="Lslash" unicode="&#x141;" horiz-adv-x="508" 
d="M350 406l-169 -64v-271h318v-71h-409v305l-84 -32v82l84 32v325h91v-291l169 68v-83z" />
    <glyph glyph-name="lslash" unicode="&#x142;" horiz-adv-x="225" 
d="M153 351v-351h-83v309l-79 -40v85l79 37v314h83v-272l78 40v-82z" />
    <glyph glyph-name="OE" unicode="&#x152;" horiz-adv-x="907" 
d="M555 325v-252h311v-73h-401v35q-46 -43 -135 -43q-129 0 -207 94.5t-78 247.5q0 162 77.5 258t207.5 96q85 0 135 -43v39h405v-73h-315v-212h273v-74h-273zM330 71q92 0 135 73v389q-42 78 -135 78q-90 0 -140.5 -71.5t-50.5 -205.5q0 -123 51 -193t140 -70z" />
    <glyph glyph-name="oe" unicode="&#x153;" horiz-adv-x="881" 
d="M607 57q56 0 88.5 30.5t32.5 82.5h84q0 -83 -55 -131.5t-150 -48.5q-111 0 -175 75q-59 -75 -168 -75q-113 0 -172.5 68.5t-59.5 192.5q0 122 60 191t172 69q109 0 168 -77q67 77 176 77q103 0 157.5 -67t54.5 -170q0 -19 -2 -44h-354q3 -84 40.5 -128.5t102.5 -44.5z
M264 56q90 0 129 90q-15 40 -15 105q0 62 13 101q-34 94 -127 94q-71 0 -108.5 -50t-37.5 -145q0 -96 37.5 -145.5t108.5 -49.5zM464 298h270q-1 66 -35.5 105.5t-92.5 39.5q-62 0 -99 -41t-43 -104z" />
    <glyph glyph-name="Scaron" unicode="&#x160;" horiz-adv-x="597" 
d="M315 64q67 1 107.5 31t40.5 82q0 35 -21.5 60.5t-55.5 41t-75.5 29t-83 29t-75.5 36t-55.5 55.5t-21.5 82q0 78 63.5 127t169.5 49q105 0 163.5 -50t58.5 -139h-91q0 57 -34.5 87.5t-96.5 30.5q-71 0 -106.5 -29.5t-35.5 -75.5q0 -37 29 -63.5t72 -39.5t93.5 -31
t93.5 -37.5t72 -59.5t29 -96q0 -85 -65 -138t-175 -53q-129 0 -188 51t-59 162h91q0 -74 34.5 -107.5t121.5 -33.5zM249 764l-131 151h95l74 -89l71 89h98l-127 -151h-80z" />
    <glyph glyph-name="scaron" unicode="&#x161;" horiz-adv-x="451" 
d="M221 443q-43 0 -71 -20t-28 -54q0 -33 31 -51t75 -27t88.5 -21.5t75.5 -45t31 -86.5q0 -68 -56 -108t-142 -40q-205 0 -205 161h85q0 -51 30 -72.5t90 -21.5q49 0 81 23t32 58q0 34 -31.5 53t-76 27.5t-89.5 20.5t-76.5 43.5t-31.5 84.5q0 66 55.5 105t132.5 39
q196 0 196 -161h-83q0 51 -28 72t-85 21zM222 581l-131 151h95l74 -89l71 89h98l-127 -151h-80z" />
    <glyph glyph-name="Ydieresis" unicode="&#x178;" horiz-adv-x="565" 
d="M289 369h1l171 315h102l-228 -402v-282h-92v282l-227 402h101zM308 742h-86v95h86v-95zM508 742h-87v95h87v-95z" />
    <glyph glyph-name="Zcaron" unicode="&#x17d;" horiz-adv-x="530" 
d="M52 65l331 545h-334v74h436v-70l-326 -541h332v-73h-439v65zM249 764l-131 151h95l74 -89l71 89h98l-127 -151h-80z" />
    <glyph glyph-name="zcaron" unicode="&#x17e;" horiz-adv-x="451" 
d="M39 433v67h389v-49l-294 -383h303v-68h-419v51l294 382h-273zM222 581l-131 151h95l74 -89l71 89h98l-127 -151h-80z" />
    <glyph glyph-name="florin" unicode="&#x192;" horiz-adv-x="512" 
d="M474 702l-13 -61q-7 0 -21.5 2t-19.5 2q-33 0 -56 -28t-34 -67t-19 -96l-6 -32h119v-63h-128l-56 -364q-13 -87 -52 -132.5t-120 -45.5q-9 0 -58 7l15 69q28 -11 46 -11q31 0 56 29.5t34 85.5q31 191 53 362h-126v63h134q4 30 7 49.5t10 52.5t15 55.5t22 49.5t31 43
t41.5 27t54.5 11q28 0 71 -8z" />
    <glyph glyph-name="circumflex" unicode="&#x2c6;" horiz-adv-x="390" 
d="M237 723l127 -152h-98l-71 89l-74 -89h-95l130 152h81z" />
    <glyph glyph-name="caron" unicode="&#x2c7;" horiz-adv-x="390" 
d="M157 581l-131 151h95l74 -89l71 89h98l-127 -151h-80z" />
    <glyph glyph-name="breve" unicode="&#x2d8;" horiz-adv-x="390" 
d="M194 650q71 0 82 77h66q-4 -65 -43 -102t-105 -37t-104 37t-43 102h67q10 -77 80 -77z" />
    <glyph glyph-name="dotaccent" unicode="&#x2d9;" horiz-adv-x="390" 
d="M149 692h91v-111h-91v111z" />
    <glyph glyph-name="ring" unicode="&#x2da;" horiz-adv-x="390" 
d="M194 776q44 0 77 -30.5t33 -74.5t-33 -74t-77 -30q-45 0 -76.5 30t-31.5 74q0 45 31.5 75t76.5 30zM194 724q-22 0 -36.5 -15t-14.5 -38q0 -22 14.5 -37t36.5 -15q21 0 35.5 15t14.5 37t-14.5 37.5t-35.5 15.5z" />
    <glyph glyph-name="ogonek" unicode="&#x2db;" horiz-adv-x="390" 
d="M298 25v-28q-146 -60 -146 -121q0 -27 35 -27q39 0 113 42l24 -48q-82 -56 -154 -56q-45 0 -74.5 21t-29.5 66q0 29 17.5 53t40 38.5t59.5 28t59 19t56 12.5z" />
    <glyph glyph-name="tilde" unicode="&#x2dc;" horiz-adv-x="390" 
d="M91 584h-62q2 44 29.5 79t68.5 35q27 0 76 -21.5t65 -21.5q24 0 32 46h61q-17 -112 -100 -112q-24 0 -68 21.5t-70 21.5q-11 0 -20.5 -15t-11.5 -33z" />
    <glyph glyph-name="hungarumlaut" unicode="&#x2dd;" horiz-adv-x="390" 
d="M101 727h103l-101 -156h-81zM264 727h103l-111 -156h-82z" />
    <glyph glyph-name="Omega" unicode="&#x3a9;" horiz-adv-x="606" 
d="M325 619q-86 0 -139 -61t-53 -172q0 -65 11.5 -117t35.5 -91t44.5 -63t53.5 -55v-60h-221v68h122v5q-131 120 -131 309q0 144 80.5 227.5t196.5 83.5q117 0 197 -82.5t80 -228.5q0 -189 -131 -309v-5h122v-68h-221v60q33 31 53.5 55t44.5 63t35.5 91t11.5 117
q0 108 -53 170.5t-139 62.5z" />
    <glyph glyph-name="pi" unicode="&#x3c0;" horiz-adv-x="575" 
d="M524 74v-69q-20 -9 -61 -9q-98 0 -98 96v334h-157v-426h-85v426h-79v74h497v-74h-91v-325q0 -33 24 -33q29 0 50 6z" />
    <glyph glyph-name="uni0E00" unicode="&#xe00;" 
 />
    <glyph glyph-name="uni0E01" unicode="&#xe01;" horiz-adv-x="560" 
d="M502 0h-91v328q0 62 -35 96t-94 34q-41 0 -76 -19t-49 -39l68 -36v-53q-48 -14 -48 -55v-256h-91v252q0 54 53 81l-79 39v45q34 43 90.5 79.5t131.5 36.5q102 0 161 -50.5t59 -154.5v-328z" />
    <glyph glyph-name="uni0E02" unicode="&#xe02;" horiz-adv-x="504" 
d="M172 428q0 18 -8.5 25.5t-32.5 7.5h-54v65h67q63 0 87.5 -23t24.5 -74q0 -33 -23 -66.5l-45.5 -65.5t-22.5 -63v-79q0 -47 24.5 -67t74.5 -20q49 0 73 21t24 67v370h91v-370q0 -74 -48.5 -119t-139.5 -45q-90 0 -138.5 42.5t-48.5 118.5v97q0 36 24 69.5t47.5 60.5
t23.5 48z" />
    <glyph glyph-name="uni0E03" unicode="&#xe03;" horiz-adv-x="533" 
d="M270 474v-19q0 -45 -21 -83t-42 -70.5t-21 -64.5v-88q0 -81 97 -81q107 0 107 83v375h91v-375q0 -72 -52.5 -115.5t-145.5 -43.5q-91 0 -139.5 40.5t-48.5 115.5v96q0 30 14 57t31.5 45t31.5 46t14 60l-37 -19h-9l-63 25v68h41l46 -35l56 35q21 0 35.5 -14t14.5 -38z" />
    <glyph glyph-name="uni0E04" unicode="&#xe04;" horiz-adv-x="559" 
d="M343 221h-71q-48 0 -83.5 -47t-35.5 -136v-38h-91v321q0 102 60.5 157.5t162.5 55.5q113 0 167.5 -53t54.5 -168v-313h-91v313q0 79 -30.5 112.5t-100.5 33.5q-134 0 -134 -138v-108q28 86 121 86h71v-78z" />
    <glyph glyph-name="uni0E05" unicode="&#xe05;" horiz-adv-x="576" 
d="M292 485l90 49q76 -27 109 -77t33 -133v-324h-91v324q0 62 -12 87t-40 39l-89 -46l-89 46q-28 -14 -40 -39t-12 -87v-111q28 86 121 86h71v-78h-71q-48 0 -83.5 -47t-35.5 -136v-38h-91v322q0 85 32 135t107 77z" />
    <glyph glyph-name="uni0E06" unicode="&#xe06;" horiz-adv-x="568" 
d="M250 474v-19q0 -35 -13.5 -67t-29 -52t-29 -46.5t-13.5 -52.5v-46q14 -55 53 -90t98 -35q109 0 109 121v339h91v-344q0 -90 -48.5 -140.5t-136.5 -50.5q-35 0 -63 7t-48.5 21.5t-30.5 24t-24 26.5l-10 -70h-81v244q0 30 14 57t31.5 45t31.5 46t14 60l-36 -19h-9l-64 25
v68h41l46 -35l56 35q21 0 36 -14t15 -38z" />
    <glyph glyph-name="uni0E07" unicode="&#xe07;" horiz-adv-x="494" 
d="M357 220v208q0 41 -36 41h-64v65h80q54 0 82.5 -28.5t28.5 -76.5v-212q0 -106 -49.5 -165t-141.5 -59q-26 0 -50 3.5t-35 6.5l-11 3l-135 392h92l111 -334q9 -3 28 -3q51 0 75.5 37t24.5 122z" />
    <glyph glyph-name="uni0E08" unicode="&#xe08;" horiz-adv-x="523" 
d="M129 208h-42v78h44q61 0 85.5 -15.5t42.5 -74.5l40 -131q5 21 47.5 111t42.5 152q0 61 -33.5 96t-94.5 35q-62 0 -100 -26t-38 -73h-88q0 79 69.5 126t156.5 47q97 0 156.5 -55.5t59.5 -149.5q0 -60 -23 -116.5t-54.5 -114t-42.5 -97.5h-124l-60 177q-6 20 -15 25.5
t-29 5.5z" />
    <glyph glyph-name="uni0E09" unicode="&#xe09;" horiz-adv-x="567" 
d="M186 278v-91q0 -57 18.5 -89t77.5 -32q107 0 138 125v155q0 53 -40 83t-101 30q-58 0 -101 -26.5t-43 -72.5h-88q0 80 69 126.5t163 46.5q108 0 168.5 -49.5t60.5 -137.5v-346h-82l-11 66q-3 -3 -13.5 -16t-15.5 -18t-18 -15t-25 -14t-32.5 -8t-44.5 -4
q-86 0 -128.5 49.5t-42.5 141.5v31h-48v65h139z" />
    <glyph glyph-name="uni0E0A" unicode="&#xe0a;" horiz-adv-x="528" 
d="M77 160v90q0 36 24 69.5t47.5 60.5t23.5 48q0 18 -8.5 25.5t-32.5 7.5h-54v65h67q63 0 87.5 -23t24.5 -74q0 -33 -23 -66.5l-45.5 -65.5t-22.5 -63v-73q0 -46 29 -69.5t80 -23.5t82 24.5t31 69.5v134q0 30 -16 49.5t-47 19.5v60q80 11 80 114h91q0 -118 -84 -137
q34 -9 50.5 -32.5t16.5 -69.5v-138q0 -72 -56 -121t-148 -49q-91 0 -144 46t-53 122z" />
    <glyph glyph-name="uni0E0B" unicode="&#xe0b;" horiz-adv-x="558" 
d="M95 168v76q0 30 15 57t33.5 45t33.5 46t15 60l-43 -19h-9l-63 25v68h41l48 -35l55 35q24 0 40 -14t16 -38v-19q0 -35 -14 -67t-31.5 -52t-31.5 -46.5t-14 -52.5v-68q0 -50 33.5 -75.5t80.5 -25.5q54 0 85.5 25.5t31.5 76.5v126q0 30 -16 49.5t-47 19.5v60q80 11 80 114
h91q0 -118 -84 -137q34 -9 50.5 -32.5t16.5 -69.5v-130q0 -76 -58 -127t-150 -51q-91 0 -148 50t-57 126z" />
    <glyph glyph-name="uni0E0C" unicode="&#xe0c;" horiz-adv-x="855" 
d="M490 328v-123q13 -66 46 -102.5t80 -36.5q46 0 68 29.5t22 78.5v352h91v-357q0 -90 -40.5 -134t-124.5 -44q-52 0 -84.5 17.5t-57.5 57.5l-6 -66h-84v328q0 130 -114 130q-41 0 -78.5 -19t-50.5 -39l68 -36v-53q-51 -15 -51 -56v-151q0 -39 33 -39h54v-65h-67
q-108 0 -108 103v149q0 54 53 81l-79 39v45q33 42 92 79t134 37q204 0 204 -205z" />
    <glyph glyph-name="uni0E0D" unicode="&#xe0d;" horiz-adv-x="868" 
d="M719 49v39q-31 -57 -126 -57q-89 0 -133.5 45.5t-44.5 123.5v128q0 63 -31 96.5t-89 33.5q-41 0 -80.5 -19.5t-52.5 -38.5l68 -36v-53q-51 -16 -51 -56v-151q0 -39 33 -39h54v-65h-67q-108 0 -108 103v149q0 54 53 81l-79 39v45q32 41 93.5 78.5t136.5 37.5
q208 0 208 -205v-127q0 -50 29 -72t74 -22q51 0 82 25.5t31 76.5v317h91v-478q0 -92 -61 -143t-177 -51q-38 0 -74.5 4t-53.5 8l-18 4v74q67 -21 152 -21q141 0 141 126z" />
    <glyph glyph-name="uni0E0E" unicode="&#xe0e;" horiz-adv-x="594" 
d="M443 -114v442q0 62 -33.5 96t-91.5 34q-40 0 -75.5 -19t-48.5 -39l67 -36v-53q-52 -16 -52 -58v-153q0 -100 -113 -100h-48v65h34q34 0 34 32v160q0 24 18 45.5t41 30.5l-79 39v45q34 43 90.5 79.5t131.5 36.5q101 0 159.5 -50.5t58.5 -154.5v-444q0 -61 -33.5 -94.5
t-94.5 -33.5h-43l-79 55q-40 -50 -85 -50h-85v70h74q23 0 47 17.5t37 38.5h20l74 -51h32q43 0 43 50z" />
    <glyph glyph-name="uni0E0F" unicode="&#xe0f;" horiz-adv-x="594" 
d="M337 -120h22l56 -37q12 0 21 6.5t9 19.5v459q0 62 -34 96t-93 34q-40 0 -75.5 -19t-48.5 -39l67 -36v-53q-52 -16 -52 -58v-153q0 -100 -113 -100h-48v65h34q34 0 34 32v160q0 24 18 45.5t41 30.5l-79 39v45q34 43 90.5 79.5t131.5 36.5q101 0 159.5 -50.5t58.5 -154.5
v-466q0 -48 -33.5 -75.5t-87.5 -27.5l-65 47l-61 -50l-59 49q-30 -47 -83 -47h-50v70h38q53 0 83 52h20l53 -46z" />
    <glyph glyph-name="uni0E10" unicode="&#xe10;" horiz-adv-x="532" 
d="M308 -143h18q30 0 47 16t17 44v9q0 74 -94 74h-88l-46 160q-5 21 -14 26t-30 5h-35v78h38q64 0 90.5 -15t36.5 -75l29 -104q113 0 113 149v88q0 147 -138 147q-61 0 -97.5 -25.5t-36.5 -73.5h-88q0 79 68 126t154 47q25 0 59 -5t48 -5q48 0 48 52h91q0 -82 -82 -104
q62 -46 62 -172v-64q0 -143 -83 -199q35 -7 59 -35t24 -70v-19q0 -61 -38.5 -94t-105.5 -33h-43l-62 50q-34 -44 -85 -44h-89v70h63q62 0 87 51h33z" />
    <glyph glyph-name="uni0E11" unicode="&#xe11;" horiz-adv-x="599" 
d="M261 474v-15q44 70 147 70q62 0 97.5 -39t35.5 -107v-383h-91v386q0 60 -55 60q-31 0 -54.5 -18t-50.5 -58q-19 -28 -40 -56t-28 -38t-12 -23.5t-5 -31.5v-221h-91v235q0 37 38.5 80.5t38.5 77.5v63l-44 -23h-9l-64 25v68h35l46 -35l56 35q21 0 35.5 -14t14.5 -38z" />
    <glyph glyph-name="uni0E12" unicode="&#xe12;" horiz-adv-x="870" 
d="M532 318v-127q15 -61 41.5 -93t82.5 -32q25 0 43 7t27 17t13.5 28.5t5.5 31.5t1 37v339h91v-344q0 -191 -165 -191q-99 0 -140 75l-7 -66h-84v318q0 64 -17 93.5t-47 42.5l-75 -52l-85 50q-32 -14 -51.5 -49t-19.5 -114q0 -59 19 -128t21 -87l61 87q26 37 26 79h-75v72
h161v-48q0 -45 -7 -71.5t-30 -57.5l-97 -135h-94q-6 26 -26 78.5t-34.5 106t-14.5 104.5q0 102 38.5 159.5t118.5 87.5l86 -49l70 50q85 -16 124 -65.5t39 -153.5z" />
    <glyph glyph-name="uni0E13" unicode="&#xe13;" horiz-adv-x="829" 
d="M490 328v-149q0 -29 2 -45t10 -34t27.5 -26t50.5 -8q45 0 81 28.5t45 77.5v354h91v-526h-85l-6 66q-13 -22 -26 -36t-43.5 -26.5t-71.5 -12.5q-80 0 -122.5 48.5t-42.5 134.5v154q0 130 -114 130q-41 0 -78.5 -19t-50.5 -39l68 -36v-53q-51 -15 -51 -56v-151
q0 -39 33 -39h54v-65h-67q-108 0 -108 103v149q0 54 53 81l-79 39v45q33 42 92 79t134 37q204 0 204 -205z" />
    <glyph glyph-name="uni0E14" unicode="&#xe14;" horiz-adv-x="572" 
d="M352 312v-49q0 -45 -10.5 -74.5t-36.5 -66.5l-87 -122h-92q-4 13 -29 81t-36.5 115t-11.5 93q0 115 65.5 180t167.5 65q231 0 231 -239v-295h-91v295q0 86 -34.5 125t-105.5 39q-69 0 -106.5 -43t-37.5 -127q0 -92 45 -215l55 78q17 24 23.5 42.5t6.5 49.5h-72v68h156z
" />
    <glyph glyph-name="uni0E15" unicode="&#xe15;" horiz-adv-x="590" 
d="M225 0h-94q-6 26 -26 78.5t-34.5 106t-14.5 104.5q0 102 38.5 159.5t118.5 87.5l86 -49l70 50q85 -16 124 -65.5t39 -153.5v-318h-91v318q0 64 -17 93.5t-47 42.5l-75 -52l-85 50q-32 -14 -51.5 -49t-19.5 -114q0 -61 21 -133t23 -82l61 90q22 36 22 76h-75v72h161v-48
q0 -45 -7 -71.5t-30 -57.5z" />
    <glyph glyph-name="uni0E16" unicode="&#xe16;" horiz-adv-x="568" 
d="M174 104q0 -39 33 -39h54v-65h-67q-108 0 -108 103v149q0 54 53 81l-79 39v45q33 42 92 79t134 37q102 0 163 -51t61 -154v-328h-91v328q0 61 -37 95.5t-96 34.5q-41 0 -78.5 -19t-50.5 -39l68 -36v-53q-51 -15 -51 -56v-151z" />
    <glyph glyph-name="uni0E17" unicode="&#xe17;" horiz-adv-x="572" 
d="M156 526v-29q0 -29 -4 -46q20 32 65 56.5t105 24.5q86 0 138.5 -48t52.5 -140v-344h-91v343q0 108 -110 108q-69 0 -114 -49t-45 -129v-273h-88v526h91z" />
    <glyph glyph-name="uni0E18" unicode="&#xe18;" horiz-adv-x="546" 
d="M58 378q0 65 63 110t149 45q98 0 159 -45.5t61 -127.5h-88q0 47 -36 72.5t-96 25.5q-53 0 -87 -19.5t-34 -57.5q0 -28 24 -37.5t97 -10.5q31 -1 51 -1.5t46 -4t42.5 -9.5t34 -17t27.5 -26t16.5 -38t6.5 -52v-38q0 -68 -53.5 -111t-155.5 -43q-215 0 -215 151v77h91v-74
q0 -43 31 -60.5t93 -17.5t90 17t28 61v30q0 48 -23.5 62.5t-109.5 15.5q-122 1 -167 28.5t-45 94.5z" />
    <glyph glyph-name="uni0E19" unicode="&#xe19;" horiz-adv-x="576" 
d="M513 0h-84l-7 66q-18 -22 -33 -35t-51 -26.5t-82 -13.5q-88 0 -139.5 51t-51.5 140v344h91v-339q0 -52 27.5 -86.5t88.5 -34.5q59 0 98 35t52 90v335h91v-526z" />
    <glyph glyph-name="uni0E1A" unicode="&#xe1a;" horiz-adv-x="575" 
d="M287 -10q-113 0 -167.5 53t-54.5 168v315h91v-317q0 -77 30.5 -110.5t100.5 -33.5t101 33t31 111v317h91v-315q0 -115 -54.5 -168t-168.5 -53z" />
    <glyph glyph-name="uni0E1B" unicode="&#xe1b;" horiz-adv-x="575" 
d="M287 -10q-113 0 -167.5 53t-54.5 168v315h91v-317q0 -77 30.5 -110.5t100.5 -33.5t101 33t31 111v512h91v-510q0 -115 -54.5 -168t-168.5 -53z" />
    <glyph glyph-name="uni0E1C" unicode="&#xe1c;" horiz-adv-x="616" 
d="M164 430v-190q0 -62 -7 -101l132 164h39l132 -155q-6 65 -6 108v270h91v-526h-74l-4 12q-6 18 -46 67t-77 89l-37 41q-138 -156 -152 -197l-4 -12h-78v435q0 99 108 99h57v-65h-42q-32 0 -32 -39z" />
    <glyph glyph-name="uni0E1D" unicode="&#xe1d;" horiz-adv-x="616" 
d="M164 430v-190q0 -62 -7 -100l134 163h34l135 -154q-6 64 -6 107v465h91v-721h-78l-2 12q-2 18 -41.5 67.5t-77.5 89.5l-39 40l-40.5 -43.5t-66.5 -80t-44 -73.5l-1 -12h-82v435q0 99 108 99h57v-65h-42q-32 0 -32 -39z" />
    <glyph glyph-name="uni0E1E" unicode="&#xe1e;" horiz-adv-x="650" 
d="M300 506h47l118 -341q3 33 9 66l55 295h92l-98 -526h-77l-7 27q-3 15 -31.5 97.5l-55.5 157.5l-28 74q-110 -295 -116 -329l-7 -27h-76l-99 526h92l55 -295l9 -66z" />
    <glyph glyph-name="uni0E1F" unicode="&#xe1f;" horiz-adv-x="650" 
d="M300 506h47l118 -347q3 32 9 66l84 496h92l-127 -721h-77l-7 27q-3 15 -31.5 97.5l-55.5 157.5l-28 74q-110 -295 -116 -329l-7 -27h-76l-99 526h92l55 -301l9 -66z" />
    <glyph glyph-name="uni0E20" unicode="&#xe20;" horiz-adv-x="601" 
d="M127 97v160q0 25 16 46t39 30l-79 39v45q34 43 90.5 79.5t131.5 36.5q101 0 159 -50.5t58 -154.5v-328h-91v328q0 62 -33.5 96t-92.5 34q-41 0 -76.5 -19t-48.5 -39l68 -36v-53q-52 -16 -52 -58v-153q0 -100 -113 -100h-48v65h39q33 0 33 32z" />
    <glyph glyph-name="uni0E21" unicode="&#xe21;" horiz-adv-x="578" 
d="M149 0h-84v526h91v-335q14 -55 53 -90t98 -35q61 0 88 34.5t27 86.5v339h91v-344q0 -89 -51.5 -140t-139.5 -51q-46 0 -82 13.5t-51 26.5t-33 35z" />
    <glyph glyph-name="uni0E22" unicode="&#xe22;" horiz-adv-x="563" 
d="M66 161v17q0 38 22.5 64.5t60.5 36.5q-39 7 -63 41t-24 78q0 61 42 94.5t105 33.5h59v-67h-48q-77 0 -77 -61q0 -76 83 -76h59v-72h-55q-77 0 -77 -68v-20q0 -94 128 -94q126 0 126 102v356h91v-362q0 -75 -56.5 -123.5t-160.5 -48.5t-159.5 46t-55.5 123z" />
    <glyph glyph-name="uni0E23" unicode="&#xe23;" horiz-adv-x="511" 
d="M251 459q-50 0 -75 -21.5t-25 -55.5q0 -31 31 -48t75.5 -25.5t88.5 -20.5t75 -43.5t31 -84.5q0 -72 -48 -116t-157 -44q-88 0 -138.5 43.5t-50.5 116.5h89q0 -86 100 -86q62 0 88 19t26 60q0 29 -22.5 47t-55.5 24.5t-72.5 16t-72.5 21.5t-55.5 41.5t-22.5 74.5
q0 66 53.5 110.5t137.5 44.5q95 0 147.5 -45t52.5 -128h-88q0 50 -26.5 74.5t-85.5 24.5z" />
    <glyph glyph-name="uni0E24" unicode="&#xe24;" horiz-adv-x="559" 
d="M174 104q0 -39 33 -39h54v-65h-67q-108 0 -108 103v149q0 54 53 81l-79 39v45q33 42 92 79t134 37q101 0 157.5 -50.5t56.5 -154.5v-523h-91v523q0 63 -32.5 96.5t-90.5 33.5q-41 0 -78.5 -19t-50.5 -39l68 -36v-53q-51 -15 -51 -56v-151z" />
    <glyph glyph-name="uni0E25" unicode="&#xe25;" horiz-adv-x="567" 
d="M159 162v-11q0 -39 22.5 -62.5t64.5 -23.5l56 6v-71q-37 -7 -75 -7q-71 0 -114.5 45t-43.5 111v10q0 76 55.5 123t151.5 47q45 0 84.5 -16.5t56.5 -38.5v74q0 54 -31.5 82.5t-90.5 28.5q-62 0 -96 -25.5t-34 -73.5h-88q0 80 65.5 126.5t152.5 46.5q95 0 154 -49t59 -136
v-348h-91v143q0 50 -42 80t-99 30t-87 -23.5t-30 -67.5z" />
    <glyph glyph-name="uni0E26" unicode="&#xe26;" horiz-adv-x="588" 
d="M127 97v160q0 25 16 46t39 30l-79 39v45q34 43 90.5 79.5t131.5 36.5q101 0 159 -50.5t58 -154.5v-523h-91v523q0 62 -33.5 96t-92.5 34q-41 0 -76.5 -19t-48.5 -39l68 -36v-53q-52 -16 -52 -58v-153q0 -100 -113 -100h-48v65h39q33 0 33 32z" />
    <glyph glyph-name="uni0E27" unicode="&#xe27;" horiz-adv-x="539" 
d="M399 239v52q0 168 -134 168q-54 0 -87.5 -26t-33.5 -73h-88q0 81 60 127t149 46q222 0 222 -257v-21q0 -124 -56.5 -193.5t-169.5 -69.5q-91 0 -146 44t-55 116h84q0 -86 117 -86q63 0 100.5 41.5t37.5 131.5z" />
    <glyph glyph-name="uni0E28" unicode="&#xe28;" horiz-adv-x="559" 
d="M507 313v-313h-91v313q0 79 -30.5 112.5t-100.5 33.5q-134 0 -134 -138v-108q28 86 121 86h71v-78h-71q-48 0 -83.5 -47t-35.5 -136v-38h-91v321q0 102 60.5 157.5t162.5 55.5q24 0 58 -5.5t48 -5.5q48 0 48 52h91q0 -82 -82 -104q59 -47 59 -158z" />
    <glyph glyph-name="uni0E29" unicode="&#xe29;" horiz-adv-x="632" 
d="M559 235v-24q0 -115 -54.5 -168t-167.5 -53q-114 0 -168.5 53t-54.5 168v315h91v-317q0 -78 31 -111t101 -33t100.5 33.5t30.5 110.5v26h-133v78h133v213h91v-213h52v-71z" />
    <glyph glyph-name="uni0E2A" unicode="&#xe2a;" horiz-adv-x="567" 
d="M393 523q48 0 48 52h91q0 -82 -82 -104q56 -37 56 -123v-348h-91v143q0 50 -44 80t-102 30q-113 0 -113 -91v-11q0 -39 22.5 -62.5t64.5 -23.5l56 6v-71q-36 -7 -74 -7q-72 0 -115.5 45t-43.5 111v10q0 77 53.5 123.5t149.5 46.5q46 0 87.5 -16.5t58.5 -38.5v74
q0 52 -36.5 81.5t-89.5 29.5q-51 0 -90.5 -26.5t-39.5 -72.5h-89q0 79 66 126t153 47q24 0 57 -5t47 -5z" />
    <glyph glyph-name="uni0E2B" unicode="&#xe2b;" horiz-adv-x="585" 
d="M156 326l162 26q57 9 77.5 30.5t20.5 72.5v71h91v-78q0 -58 -23.5 -87.5t-70.5 -42.5q47 3 77 -31.5t30 -91.5v-195h-91v183q0 53 -22 74.5t-63 21.5q-21 0 -188 -28v-251h-91v526h91v-200z" />
    <glyph glyph-name="uni0E2C" unicode="&#xe2c;" horiz-adv-x="630" 
d="M555 326v-326h-77l-9 31q-2 9 -41.5 54.5l-77.5 86.5l-39 41q-158 -161 -163 -183l-9 -30h-74v526h88v-369l141 154h36l134 -142v153q0 31 -16 50t-48 19v60q81 11 81 114h91q0 -118 -85 -137q35 -9 51.5 -32.5t16.5 -69.5z" />
    <glyph glyph-name="uni0E2D" unicode="&#xe2d;" horiz-adv-x="542" 
d="M136 195v-16q0 -51 33 -81t96 -30q65 0 96.5 34t31.5 111v98q0 148 -128 148q-57 0 -93 -26t-36 -73h-88q0 79 65.5 126t151.5 47q96 0 157.5 -56.5t61.5 -165.5v-91q0 -110 -56.5 -169t-162.5 -59q-105 0 -161 50.5t-56 140.5v26q0 85 92 85h98v-78h-79
q-14 0 -18.5 -4.5t-4.5 -16.5z" />
    <glyph glyph-name="uni0E2E" unicode="&#xe2e;" horiz-adv-x="542" 
d="M484 309v-89q0 -110 -56.5 -169t-162.5 -59q-105 0 -161 50.5t-56 140.5v26q0 85 92 85h98v-78h-79q-14 0 -18.5 -4.5t-4.5 -16.5v-16q0 -51 33 -81t96 -30q65 0 96.5 34t31.5 111v98q0 148 -128 148q-57 0 -93 -26t-36 -73h-88q0 79 65.5 126t151.5 47q25 0 58 -5t47 -5
q49 0 49 52h91q0 -79 -86 -102q60 -52 60 -164z" />
    <glyph glyph-name="uni0E2F" unicode="&#xe2f;" horiz-adv-x="409" 
d="M162 0h-58v75h58q63 0 93 36t30 116v167q-39 -52 -126 -52q-64 0 -100 32t-36 91v55h81v-55q0 -28 13 -40t47 -12q53 0 87 27.5t41 79.5h80v-293q0 -111 -46.5 -169t-163.5 -58z" />
    <glyph glyph-name="uni0E30" unicode="&#xe30;" horiz-adv-x="390" 
d="M55 174h80v-36q0 -16 6 -20.5t21 -4.5h168v-71h-194q-40 0 -60.5 25t-20.5 66v41zM55 474h80v-36q0 -16 6 -20.5t21 -4.5h168v-71h-194q-40 0 -60.5 25t-20.5 66v41z" />
    <glyph glyph-name="uni0E31" unicode="&#xe31;" 
d="M-320 753h81v-43q0 -16 6 -20.5t21 -4.5h312v-71h-338q-41 0 -61.5 23.5t-20.5 63.5v52z" />
    <glyph glyph-name="uni0E32" unicode="&#xe32;" horiz-adv-x="445" 
d="M386 0h-88v348q0 111 -99 111q-47 0 -75 -25.5t-28 -73.5h-86q0 82 53 127.5t136 45.5q187 0 187 -185v-348z" />
    <glyph glyph-name="uni0E33" unicode="&#xe33;" horiz-adv-x="445" 
d="M386 0h-88v348q0 111 -99 111q-47 0 -75 -25.5t-28 -73.5h-86q0 82 53 127.5t136 45.5q187 0 187 -185v-348zM-9 684q0 -42 -27.5 -68.5t-72.5 -26.5t-72.5 26.5t-27.5 68.5t27.5 68.5t72.5 26.5t72.5 -26.5t27.5 -68.5zM-150 684q0 -41 41 -41q40 0 40 41q0 40 -40 40
q-41 0 -41 -40z" />
    <glyph glyph-name="uni0E34" unicode="&#xe34;" 
d="M-490 685h426v-71h-426v71z" />
    <glyph glyph-name="uni0E35" unicode="&#xe35;" 
d="M-146 759h82v-145h-426v71h344v74z" />
    <glyph glyph-name="uni0E36" unicode="&#xe36;" 
d="M-142 659q30 0 30 31q0 30 -30 30q-31 0 -31 -30q0 -31 31 -31zM-490 685h262q0 40 24 63.5t62 23.5q35 0 59 -23.5t24 -58.5t-21.5 -55.5t-61.5 -20.5h-348v71z" />
    <glyph glyph-name="uni0E37" unicode="&#xe37;" 
d="M-490 685h227v74h77v-74h40v74h82v-145h-426v71z" />
    <glyph glyph-name="uni0E38" unicode="&#xe38;" 
d="M-152 -299v126q0 33 -34 33h-49v65h61q54 0 77 -24.5t23 -76.5v-123h-78z" />
    <glyph glyph-name="uni0E39" unicode="&#xe39;" 
d="M-322 -211v51q0 20 -21 20h-28v65h49q53 0 66.5 -14t13.5 -61v-59q0 -34 42 -34q43 0 43 34v124h80v-126q0 -39 -33 -67t-90 -28q-65 0 -93.5 27t-28.5 68z" />
    <glyph glyph-name="uni0E3A" unicode="&#xe3a;" 
d="M-47 -112q0 -26 -16 -41t-44 -15q-27 0 -42.5 15t-15.5 41t15.5 41t42.5 15q28 0 44 -15t16 -41z" />
    <glyph glyph-name="uni0E3F" unicode="&#xe3f;" horiz-adv-x="555" 
d="M226 -107v841h70v-841h-70zM266 558h-105v-203h103q52 0 83 26.5t31 77.5q0 99 -112 99zM266 285h-105v-211h121q64 0 94 23.5t30 79.5q0 58 -33 83t-107 25zM469 459q0 -46 -26.5 -82t-68.5 -51q125 -25 125 -152q0 -85 -60 -129.5t-157 -44.5h-212v632h196
q203 0 203 -173z" />
    <glyph glyph-name="uni0E40" unicode="&#xe40;" horiz-adv-x="289" 
d="M169 526v-419q0 -19 10 -30.5t29 -11.5h35v-65h-51q-57 0 -85.5 28.5t-28.5 76.5v421h91z" />
    <glyph glyph-name="uni0E41" unicode="&#xe41;" horiz-adv-x="559" 
d="M169 526v-419q0 -19 10 -30.5t29 -11.5h35v-65h-51q-57 0 -85.5 28.5t-28.5 76.5v421h91zM426 526v-419q0 -19 10 -30.5t29 -11.5h35v-65h-50q-57 0 -86 28.5t-29 76.5v421h91z" />
    <glyph glyph-name="uni0E42" unicode="&#xe42;" horiz-adv-x="294" 
d="M169 616v-509q0 -19 10 -30.5t29 -11.5h35v-65h-51q-57 0 -85.5 28.5t-28.5 76.5v503q0 83 -27 120t-78 47v70h310v-72h-199q85 -25 85 -157z" />
    <glyph glyph-name="uni0E43" unicode="&#xe43;" horiz-adv-x="294" 
d="M78 105v411q0 31 11.5 57.5t27.5 45.5l32 36.5t27.5 37.5t11.5 40q0 23 -18 38t-52 15q-35 0 -52 -15.5t-17 -37.5v-36h-88v39q0 56 42.5 89.5t114.5 33.5q70 0 114.5 -33t44.5 -95q0 -30 -17 -59.5t-37 -50.5t-37 -49.5t-17 -55.5v-409q0 -19 10 -30.5t29 -11.5h35v-65
h-51q-57 0 -85.5 28.5t-28.5 76.5z" />
    <glyph glyph-name="uni0E44" unicode="&#xe44;" horiz-adv-x="292" 
d="M169 604v-497q0 -19 10 -30.5t29 -11.5h35v-65h-51q-57 0 -85.5 28.5t-28.5 76.5v507q0 71 23.5 107t68.5 54h-205v72h309v-70q-105 -32 -105 -171z" />
    <glyph glyph-name="uni0E45" unicode="&#xe45;" horiz-adv-x="445" 
d="M386 -195h-88v543q0 54 -24 82.5t-69 28.5q-48 0 -78.5 -26t-30.5 -73h-86q0 81 56 127t139 46q87 0 134 -48t47 -137v-543z" />
    <glyph glyph-name="uni0E46" unicode="&#xe46;" horiz-adv-x="497" 
d="M334 -195v589q0 24 -9.5 38.5t-25.5 14.5l-52 -43h-17q-43 43 -69 43q-44 0 -44 -51q0 -28 15.5 -41.5t37.5 -13.5h47v-76h-68q-47 0 -82 37t-35 94q0 63 35.5 97.5t83.5 34.5t84 -47l52 45h16q59 0 90.5 -35t31.5 -97v-589h-91z" />
    <glyph glyph-name="uni0E47" unicode="&#xe47;" 
d="M-95 671v-70h-92l-61 40l-67 -40h-35q-38 0 -66.5 30t-28.5 67v21q0 47 37 78.5t101 31.5h212v-65h-209q-65 0 -65 -45v-13q0 -17 9.5 -26t21.5 -9h23l58 31h22l70 -31h70z" />
    <glyph glyph-name="uni0E48" unicode="&#xe48;" 
d="M-69 811h-73v154h73v-154z" />
    <glyph glyph-name="uni0E49" unicode="&#xe49;" 
d="M-68 902v-30h168v-62h-246v66q0 12 -4 16t-15 4h-69v62h108q32 0 45 -13t13 -43z" />
    <glyph glyph-name="uni0E4A" unicode="&#xe4a;" 
d="M-118 915l20 21q17 13 38 13q38 0 60.5 -19.5t22.5 -50.5v-5h93v-63h-93h-65v50q0 28 -27 28h-10l-30 -27h-16l-32 27h-12q-27 0 -27 -41v-37h-72v44q0 45 24 69.5t67 24.5q24 0 40 -13z" />
    <glyph glyph-name="uni0E4B" unicode="&#xe4b;" 
d="M-3 871h-69v-60h-70v60h-70v61h70v62h70v-62h69v-61z" />
    <glyph glyph-name="uni0E4C" unicode="&#xe4c;" 
d="M-196 801v-41h-78v38q0 105 108 105h140v-71h-137q-33 0 -33 -31z" />
    <glyph glyph-name="uni0E4D" unicode="&#xe4d;" 
d="M-9 684q0 -42 -27.5 -68.5t-72.5 -26.5t-72.5 26.5t-27.5 68.5t27.5 68.5t72.5 26.5t72.5 -26.5t27.5 -68.5zM-150 684q0 -41 41 -41q40 0 40 41q0 40 -40 40q-41 0 -41 -40z" />
    <glyph glyph-name="uni0E4E" unicode="&#xe4e;" 
d="M-138 538h-40q-94 0 -94 79q0 36 21 58t59 22q-24 11 -24 43q0 63 85 63h75v-65h-51q-20 0 -25.5 -5.5t-5.5 -16.5q0 -15 25 -23l-11 -50h-42q-24 0 -32.5 -4.5t-8.5 -14.5q0 -21 35 -21h34v-65z" />
    <glyph glyph-name="uni0E4F" unicode="&#xe4f;" horiz-adv-x="619" 
d="M554 272q0 -102 -73 -169.5t-170 -67.5q-100 0 -173 67.5t-73 169.5q0 105 73 172.5t173 67.5q98 0 170.5 -68t72.5 -172zM434 276q0 -51 -35.5 -86t-86.5 -35t-87.5 35t-36.5 86q0 49 36.5 84t87.5 35t86.5 -34.5t35.5 -84.5zM485 273q0 73 -51.5 124t-124.5 51
t-124 -51t-51 -124t51 -124.5t124 -51.5t124.5 51.5t51.5 124.5zM359 274q0 21 -14 34.5t-34 13.5q-21 0 -34.5 -13.5t-13.5 -34.5q0 -20 13.5 -34t34.5 -14q20 0 34 14t14 34z" />
    <glyph glyph-name="uni0E50" unicode="&#xe50;" horiz-adv-x="549" 
d="M491 211q0 -105 -59 -163t-166 -58q-106 0 -165 58t-59 163t59 163t165 58q107 0 166 -58t59 -163zM266 61q67 0 100.5 34.5t33.5 115.5t-33.5 115t-100.5 34q-66 0 -99.5 -34t-33.5 -115t33.5 -115.5t99.5 -34.5z" />
    <glyph glyph-name="uni0E51" unicode="&#xe51;" horiz-adv-x="549" 
d="M227 251h78v-76q0 -46 -31 -72t-83 -26q-67 0 -108 43t-41 117q0 85 60.5 138.5t161.5 53.5q107 0 167 -56.5t60 -158.5q0 -123 -72.5 -194t-215.5 -71l-15 72q113 0 162.5 44t49.5 149q0 143 -136 143q-62 0 -96.5 -31t-34.5 -91q0 -80 62 -80q32 0 32 36v60z" />
    <glyph glyph-name="uni0E52" unicode="&#xe52;" horiz-adv-x="607" 
d="M283 316v-57h-80v70q0 43 25 69t68 26q27 0 45 -11t23 -22l4 -11q20 44 80 44q51 0 78.5 -28.5t27.5 -82.5v-109q0 -106 -66 -161t-186 -55q-117 0 -181 58t-64 166v262h94v-260q0 -78 36.5 -114t114.5 -36q82 0 121.5 33.5t39.5 106.5v109q0 35 -33 35q-15 0 -23.5 -7
t-30.5 -37h-15q-20 27 -29 35.5t-23 8.5q-26 0 -26 -32z" />
    <glyph glyph-name="uni0E53" unicode="&#xe53;" horiz-adv-x="572" 
d="M140 289v-185q0 -39 33 -39h36v-65h-49q-108 0 -108 103v186q0 62 36 97.5t98 35.5q66 0 97 -53q12 21 40 37t70 16q62 0 94.5 -33.5t32.5 -98.5v-290h-91v289q0 59 -44 59q-26 0 -39 -15t-13 -54v-136h-89v136q0 41 -12 55t-38 14q-50 0 -54 -59z" />
    <glyph glyph-name="uni0E54" unicode="&#xe54;" horiz-adv-x="549" 
d="M396 188h-66q-17 0 -17 -16q0 -43 29 -72t96 -29h44v-71h-50q-70 0 -114 29q-43 -29 -102 -29q-85 0 -136 50.5t-51 156.5q0 61 20 104t57 66t81 33t100 10h51q42 0 57.5 12t15.5 42h97q0 -58 -40 -95t-116 -37h-61q-87 0 -129 -30t-42 -103q0 -65 26.5 -98.5t73.5 -33.5
q37 0 48 7q-39 31 -39 90q0 39 22.5 59t56.5 20h88v-65z" />
    <glyph glyph-name="uni0E55" unicode="&#xe55;" horiz-adv-x="549" 
d="M325 439q0 15 -9.5 24.5t-24.5 9.5q-14 0 -24 -9.5t-10 -24.5q0 -14 10 -23.5t24 -9.5q15 0 24.5 9.5t9.5 23.5zM216 0q-83 0 -135 48t-52 146q0 203 169 223q-3 10 -3 21q0 39 27 63t67 24q41 0 67.5 -24t26.5 -63l-1 -14q30 0 41.5 10.5t11.5 39.5h98q0 -59 -44 -95.5
t-137 -36.5h-91q-70 0 -105.5 -33t-35.5 -113q0 -58 26.5 -88.5t73.5 -30.5q37 0 48 7q-39 31 -39 90q0 39 22.5 59t56.5 20h88v-65h-66q-17 0 -17 -16q0 -43 29 -72t96 -29h44v-71h-50q-70 0 -114 29q-43 -29 -102 -29z" />
    <glyph glyph-name="uni0E56" unicode="&#xe56;" horiz-adv-x="530" 
d="M91 51v124h84v-84q39 -26 98 -26q118 0 118 148q0 139 -115 139q-80 0 -108 -69h-78q-2 15 -5 29.5t-10.5 35l-12 33t-17.5 45l-19 48.5h97q27 -71 32 -105q14 24 45.5 39.5t75.5 15.5q97 0 151.5 -57.5t54.5 -153.5q0 -106 -56 -163t-157 -57q-114 0 -178 58z" />
    <glyph glyph-name="uni0E57" unicode="&#xe57;" horiz-adv-x="645" 
d="M146 286v-143q0 -45 14.5 -61.5t56.5 -16.5h36v-65h-49q-72 0 -109.5 37t-37.5 105v143q0 60 33.5 98.5t87.5 38.5q60 0 78 -48q9 21 33.5 34.5t54.5 13.5q54 0 80.5 -39t26.5 -98v-206q51 8 51 69v326h91v-318q0 -156 -160 -156h-73v283q0 65 -32 65q-40 0 -52 -52h-46
q-8 28 -17 40t-30 12q-18 0 -27.5 -12t-9.5 -50z" />
    <glyph glyph-name="uni0E58" unicode="&#xe58;" horiz-adv-x="549" 
d="M421 135v14q0 50 -51 50h-45v65h62q54 0 86.5 -29t32.5 -83v-17q0 -65 -35.5 -100.5t-98.5 -35.5q-40 0 -84 28t-63 28q-18 0 -26.5 -12.5t-15.5 -42.5h-70q-77 67 -77 198q0 63 19.5 108t53.5 69t73.5 34.5t86.5 10.5h79q41 0 54 11t13 43h97q0 -67 -39.5 -99.5
t-122.5 -32.5h-76q-74 0 -110.5 -32.5t-36.5 -110.5q0 -71 21 -105q25 44 76 44q36 0 82.5 -32t65.5 -32q22 0 33.5 9t13.5 20t2 32z" />
    <glyph glyph-name="uni0E59" unicode="&#xe59;" horiz-adv-x="539" 
d="M39 168v76q0 87 39.5 132t112.5 45q55 0 86 -21t52 -69l13 -27l15 76q9 49 40 71.5t70 22.5h46v-71h-19q-47 0 -59 -55l-37 -163l80 -185h-95l-131 292q-11 21 -16.5 30.5t-17 17.5t-27.5 8q-35 -1 -49.5 -25t-14.5 -77v-77q0 -56 18 -80t54 -24h49v-65h-62
q-74 0 -110.5 40.5t-36.5 127.5z" />
    <glyph glyph-name="uni0E5B" unicode="&#xe5b;" 
 />
    <glyph glyph-name="zerowidthnonjoiner" unicode="&#x200c;" 
d="M26 -330h-52v698h52v-698z" />
    <glyph glyph-name="zerowidthjoiner" unicode="&#x200d;" 
d="M26 -330h-52v577l-33 -26l-24 38l54 37l-50 43l32 33l47 -44l47 44l32 -33l-50 -43l54 -37l-26 -38l-31 26v-577z" />
    <glyph glyph-name="lefttorightmark" unicode="&#x200e;" 
d="M26 -330h-52v652h179l-30 37l34 21l61 -84l-61 -83l-34 22l30 37h-127v-602z" />
    <glyph glyph-name="righttoleftmark" unicode="&#x200f;" 
d="M26 -330h-52v602h-127l29 -37l-33 -22l-61 83l61 84l33 -21l-29 -37h179v-652z" />
    <glyph glyph-name="endash" unicode="&#x2013;" horiz-adv-x="508" 
d="M506 226h-514v63h514v-63z" />
    <glyph glyph-name="emdash" unicode="&#x2014;" horiz-adv-x="1017" 
d="M998 289v-63h-1001v63h1001z" />
    <glyph glyph-name="quoteleft" unicode="&#x2018;" horiz-adv-x="225" 
d="M159 467h-112v70q0 40 16.5 84.5t33.5 68.5l17 24l51 -8q-49 -81 -49 -134h43v-105z" />
    <glyph glyph-name="quoteright" unicode="&#x2019;" horiz-adv-x="225" 
d="M64 705h109v-69q0 -40 -16.5 -84.5t-32.5 -69.5l-17 -24l-52 7q50 82 50 136h-41v104z" />
    <glyph glyph-name="quotesinglbase" unicode="&#x201a;" horiz-adv-x="225" 
d="M64 105h109v-70q0 -40 -16.5 -84.5t-32.5 -68.5l-17 -24l-52 7q50 82 50 135h-41v105z" />
    <glyph glyph-name="quotedblleft" unicode="&#x201c;" horiz-adv-x="451" 
d="M196 467h-109v70q0 40 17.5 84.5t34.5 68.5l17 24l49 -8q-48 -81 -48 -134h39v-105zM357 467h-109v70q0 40 17 84.5t35 68.5l17 24l50 -8q-49 -81 -49 -134h39v-105z" />
    <glyph glyph-name="quotedblright" unicode="&#x201d;" horiz-adv-x="451" 
d="M244 705h110v-69q0 -40 -17 -84.5t-34 -69.5l-17 -24l-51 7q51 82 51 136h-42v104zM83 705h109v-69q0 -40 -16.5 -84.5t-33.5 -69.5l-16 -24l-52 7q51 82 51 136h-42v104z" />
    <glyph glyph-name="quotedblbase" unicode="&#x201e;" horiz-adv-x="451" 
d="M244 105h110v-70q0 -40 -17 -84.5t-34 -68.5l-17 -24l-51 7q51 82 51 135h-42v105zM83 105h109v-70q0 -40 -16.5 -84.5t-33.5 -68.5l-16 -24l-52 7q51 82 51 135h-42v105z" />
    <glyph glyph-name="dagger" unicode="&#x2020;" horiz-adv-x="508" 
d="M274 -77h-52l-18 395l16 156q-27 -3 -77.5 -9.5t-68.5 -8.5v82l147 -17l-13 194h84l-15 -194l148 17v-82l-147 18l17 -156z" />
    <glyph glyph-name="daggerdbl" unicode="&#x2021;" horiz-adv-x="508" 
d="M425 538v-82l-147 18l17 -154l-17 -155l147 16v-80l-148 15l14 -193h-83l13 191q-19 -2 -71.5 -6t-75.5 -7v80l146 -16l-16 155l16 154q-27 -3 -77.5 -9.5t-68.5 -8.5v82l147 -17l-13 194h84l-15 -194z" />
    <glyph glyph-name="bullet" unicode="&#x2022;" horiz-adv-x="428" 
d="M70 278q0 56 40.5 94.5t100.5 38.5q57 0 98 -39t41 -94t-41 -95t-98 -40q-60 0 -100.5 39.5t-40.5 95.5z" />
    <glyph glyph-name="ellipsis" unicode="&#x2026;" horiz-adv-x="1017" 
d="M229 0h-112v105h112v-105zM552 0h-107v105h107v-105zM879 0h-111v105h111v-105z" />
    <glyph glyph-name="perthousand" unicode="&#x2030;" horiz-adv-x="1097" 
d="M212 627q67 0 105.5 -40.5t38.5 -108.5q0 -67 -38.5 -107.5t-105.5 -40.5t-106.5 40.5t-39.5 107.5t40 108t106 41zM212 563q-70 0 -70 -85t70 -85q36 0 54.5 22.5t18.5 62.5q0 85 -73 85zM608 636l-370 -645h-81l368 645h83zM545 296q68 0 107.5 -41t39.5 -108
q0 -68 -39 -107.5t-108 -39.5q-66 0 -104.5 39.5t-38.5 107.5q0 67 38.5 108t104.5 41zM545 233q-68 0 -68 -86q0 -85 68 -85q71 0 71 85q0 86 -71 86zM854 296q67 0 105.5 -41t38.5 -108q0 -68 -38.5 -107.5t-105.5 -39.5q-66 0 -106 40t-40 107q0 66 40 107.5t106 41.5z
M854 233q-70 0 -70 -86q0 -85 70 -85q35 0 53.5 22.5t18.5 62.5q0 86 -72 86z" />
    <glyph glyph-name="minute" unicode="&#x2032;" horiz-adv-x="214" 
d="M143 456h-72v210h72v-210z" />
    <glyph glyph-name="second" unicode="&#x2033;" horiz-adv-x="357" 
d="M136 456h-71v210h71v-210zM292 456h-71v210h71v-210z" />
    <glyph glyph-name="guilsinglleft" unicode="&#x2039;" horiz-adv-x="339" 
d="M273 412l-130 -152l129 -159h-95l-128 159l128 152h96z" />
    <glyph glyph-name="guilsinglright" unicode="&#x203a;" horiz-adv-x="339" 
d="M60 101l130 154l-129 157h95l125 -157l-125 -154h-96z" />
    <glyph glyph-name="fraction" unicode="&#x2044;" horiz-adv-x="217" 
d="M273 614l-255 -614h-78l255 614h78z" />
    <glyph glyph-name="Euro" unicode="&#x20ac;" horiz-adv-x="569" 
d="M18 289h402v-73h-402v73zM420 383h-402v73h402v-73zM451 170h92q-10 -86 -65.5 -132t-152.5 -46q-123 0 -185 92t-62 250q0 167 61.5 260.5t185.5 93.5q99 0 152.5 -45.5t61.5 -129.5h-91q-16 98 -123 98q-86 0 -119.5 -64.5t-33.5 -212.5q0 -137 34 -200t119 -63
q56 0 87.5 26.5t38.5 72.5z" />
    <glyph glyph-name="uni2113" unicode="&#x2113;" horiz-adv-x="381" 
d="M303 88v-69q-44 -23 -102 -23q-104 0 -104 113v92l-53 -35l-30 68l83 56v272q0 69 33 101t78 32q54 0 90.5 -44t36.5 -127q0 -176 -153 -278v-137q0 -26 8.5 -35.5t30.5 -9.5q39 0 82 24zM250 520q0 49 -13.5 77t-28.5 28q-13 0 -19.5 -11t-6.5 -45v-231q34 29 51 69.5
t17 112.5z" />
    <glyph glyph-name="trademark" unicode="&#x2122;" horiz-adv-x="780" 
d="M220 339h-63v286h-105v59h269v-59h-101v-286zM702 339h-61v238l-85 -135h-45l-86 135v-238h-61v345h65l105 -173l104 173h64v-345z" />
    <glyph glyph-name="Ohm" unicode="&#x2126;" horiz-adv-x="637" 
d="M318 621q-87 0 -141.5 -61.5t-54.5 -173.5q0 -108 44 -182t115 -139v-65h-230v73h126v5q-64 58 -101 129t-37 175q0 144 81.5 227.5t197.5 83.5q117 0 198.5 -82.5t81.5 -228.5q0 -104 -37 -175t-101 -129v-5h126v-73h-230v65q45 42 75 77.5t57 102t27 141.5
q0 110 -55 172.5t-142 62.5z" />
    <glyph glyph-name="estimated" unicode="&#x212e;" horiz-adv-x="780" 
d="M728 321h-572v-155q37 -60 97.5 -94t136.5 -34q71 0 132 31.5t102 86.5l43 -30q-49 -63 -122 -99.5t-155 -36.5q-145 0 -241.5 102.5t-96.5 248.5t96.5 248.5t241.5 102.5q144 0 241 -102.5t97 -248.5v-20zM390 645q-76 0 -136.5 -34.5t-97.5 -94.5v-149h468v145
q-37 62 -97.5 97.5t-136.5 35.5z" />
    <glyph glyph-name="partialdiff" unicode="&#x2202;" horiz-adv-x="536" 
d="M79 580v74q60 30 152 30q113 0 179 -85t66 -265q0 -167 -52.5 -254t-171.5 -87q-93 0 -153 60t-60 159q0 105 54 167t157 62q90 0 137 -82q0 123 -44.5 187.5t-107.5 64.5q-82 0 -156 -31zM252 68q58 0 89.5 40.5t31.5 103.5q0 72 -33.5 114.5t-89.5 42.5
q-123 0 -123 -157q0 -62 33 -103t92 -41z" />
    <glyph glyph-name="Delta" unicode="&#x2206;" horiz-adv-x="520" 
d="M268 530l253 -530h-538zM75 52h315l-150 307z" />
    <glyph glyph-name="product" unicode="&#x220f;" horiz-adv-x="585" 
d="M528 684v-931h-89v853h-293v-853h-89v931h471z" />
    <glyph glyph-name="summation" unicode="&#x2211;" horiz-adv-x="585" 
d="M546 -144v-78h-514v71l257 391l-251 375v69h488v-78h-379l233 -355v-13l-249 -382h415z" />
    <glyph glyph-name="minus" unicode="&#x2212;" horiz-adv-x="441" 
d="M399 266v-61h-368v61h368z" />
    <glyph glyph-name="radical" unicode="&#x221a;" horiz-adv-x="460" 
d="M459 573l-221 -560h-59l-89 268h-68v61h122l70 -220l173 451h72z" />
    <glyph glyph-name="infinity" unicode="&#x221e;" horiz-adv-x="827" 
d="M224 190q38 0 76 29t60 66q-76 85 -138 85q-45 0 -69 -25.5t-24 -59.5q0 -42 24.5 -68.5t70.5 -26.5zM365 291l3 -12l-8 6zM746 272q0 -58 -39.5 -98t-118.5 -40q-93 0 -186 104q-77 -104 -180 -104q-71 0 -115.5 41t-44.5 112q0 57 40.5 97.5t119.5 40.5q88 0 186 -103
q80 103 178 103q72 0 116 -41t44 -112zM680 274q0 43 -25 69t-70 26q-38 0 -75.5 -29t-61.5 -67q80 -85 138 -85q47 0 70.5 26t23.5 60z" />
    <glyph glyph-name="integral" unicode="&#x222b;" horiz-adv-x="324" 
d="M152 -51v589q0 78 38 119t109 41q44 0 87 -17l-17 -61q-30 10 -64 10q-33 0 -50 -20.5t-17 -70.5v-586q0 -61 -36 -95t-98 -34q-59 0 -90 19l15 65q33 -13 75 -13q48 0 48 54z" />
    <glyph glyph-name="approxequal" unicode="&#x2248;" horiz-adv-x="526" 
d="M437 253l48 -54q-43 -81 -131 -81q-31 0 -103 29q-60 26 -94 26q-33 0 -82 -65l-46 53q45 79 130 79q36 0 104 -28q58 -26 93 -26t81 67zM438 412l48 -55q-42 -80 -131 -80q-35 0 -103 28q-60 26 -93 26q-37 0 -82 -65l-47 54q43 79 130 79q38 0 104 -29q60 -26 93 -26
q20 0 39 17.5t42 50.5z" />
    <glyph glyph-name="notequal" unicode="&#x2260;" horiz-adv-x="516" 
d="M75 0l78 147h-121v74h159l55 104h-214v73h254l82 152h73l-81 -152h113v-73h-152l-55 -104h207v-74h-247q-13 -27 -41 -79.5l-36 -67.5h-74z" />
    <glyph glyph-name="lessequal" unicode="&#x2264;" horiz-adv-x="459" 
d="M22 31v64h403v-64h-403zM22 281v71l403 159v-74l-320 -121l320 -121v-73z" />
    <glyph glyph-name="greaterequal" unicode="&#x2265;" horiz-adv-x="459" 
d="M428 95v-64h-403v64h403zM428 352v-71l-403 -159v73l319 121l-319 121v74z" />
    <glyph glyph-name="lozenge" unicode="&#x25ca;" horiz-adv-x="516" 
d="M252 65l169 252l-169 250l-166 -250zM286 632l211 -315l-211 -317h-65l-212 317l212 315h65z" />
    <glyph glyph-name="dottedcircle" unicode="&#x25cc;" horiz-adv-x="520" 
d="M283 478q0 -10 -6.5 -17t-17.5 -7t-18 6.5t-7 17.5q0 25 25 25q11 0 17.5 -7t6.5 -18zM283 53q0 -11 -6.5 -17.5t-17.5 -6.5t-18 6.5t-7 17.5q0 25 25 25q11 0 17.5 -7t6.5 -18zM70 266q0 -23 -25 -23q-23 0 -23 23q0 25 23 25q25 0 25 -25zM497 266q0 -10 -7 -16.5
t-18 -6.5q-24 0 -24 23q0 11 6.5 18t17.5 7t18 -7t7 -18zM87 346q0 -24 -25 -24q-23 0 -23 24t23 24q11 0 18 -6.5t7 -17.5zM133 417q0 -10 -7 -16.5t-18 -6.5q-24 0 -24 23q0 11 6.5 18t17.5 7t18 -7t7 -18zM201 463q0 -24 -24 -24t-24 24t24 24q11 0 17.5 -6.5t6.5 -17.5z
M478 346q0 -24 -23 -24q-25 0 -25 24q0 10 7 17t18 7q23 0 23 -24zM433 417q0 -23 -24 -23t-24 23q0 11 6.5 18t17.5 7q24 0 24 -25zM364 463q0 -24 -23 -24q-25 0 -25 24q0 11 7 17.5t18 6.5q23 0 23 -24zM87 186q0 -11 -7 -18t-18 -7q-10 0 -16.5 7t-6.5 18q0 23 23 23
q25 0 25 -23zM133 114q0 -10 -7 -17t-18 -7q-10 0 -17 7t-7 17q0 24 24 24q25 0 25 -24zM201 69q0 -11 -7 -18t-17 -7q-24 0 -24 25q0 23 24 23t24 -23zM456 161q-10 0 -17 7t-7 18q0 23 24 23t24 -23q0 -25 -24 -25zM411 90q-11 0 -18 6.5t-7 17.5q0 24 25 24q23 0 23 -24
t-23 -24zM342 44q-10 0 -17.5 7t-7.5 18q0 10 7 16.5t18 6.5q23 0 23 -23q0 -11 -6.5 -18t-16.5 -7z" />
    <glyph glyph-name="uni0E10.alt1" unicode="&#xf700;" horiz-adv-x="532" 
d="M478 299v-64q0 -127 -55.5 -181t-143.5 -54h-71l-46 160q-5 21 -14 26t-30 5h-35v78h38q64 0 90.5 -15t36.5 -75l29 -104q113 0 113 149v88q0 147 -138 147q-61 0 -97.5 -25.5t-36.5 -73.5h-88q0 79 68 126t154 47q25 0 59 -5t48 -5q48 0 48 58h91q0 -88 -82 -110
q62 -46 62 -172z" />
    <glyph glyph-name="uni0E34.alt1" unicode="&#xf701;" 
d="M-610 685h401v-71h-401v71z" />
    <glyph glyph-name="uni0E35.alt1" unicode="&#xf702;" 
d="M-289 759h82v-145h-400v71h318v74z" />
    <glyph glyph-name="uni0E36.alt1" unicode="&#xf703;" 
d="M-285 659q30 0 30 31q0 30 -30 30q-31 0 -31 -30q0 -31 31 -31zM-607 685h236q0 40 24 63.5t62 23.5q35 0 59 -23.5t24 -58.5t-21.5 -55.5t-61.5 -20.5h-322v71z" />
    <glyph glyph-name="uni0E37.alt1" unicode="&#xf704;" 
d="M-607 685h201v74h77v-74h40v74h82v-145h-400v71z" />
    <glyph glyph-name="uni0E48.alt1" unicode="&#xf705;" 
d="M-234 606h-85v184h85v-184z" />
    <glyph glyph-name="uni0E49.alt1" unicode="&#xf706;" 
d="M-315 699v-32h181v-65h-259v69q0 12 -2.5 15.5t-12.5 3.5h-73v65h101q65 0 65 -56z" />
    <glyph glyph-name="uni0E4A.alt1" unicode="&#xf707;" 
d="M-398 715l28 22q17 13 40 13q39 0 62.5 -20t23.5 -53v-5h96v-65h-96h-68v51q0 30 -28 30h-11l-38 -29h-16l-41 29h-11q-29 0 -29 -43v-38h-75v46q0 47 25.5 72t70.5 25q25 0 41 -13z" />
    <glyph glyph-name="uni0E4B.alt1" unicode="&#xf708;" 
d="M-364 746v72h78v-72h84v-69h-84v-71h-78v71h-85v69h85z" />
    <glyph glyph-name="uni0E4C.alt1" unicode="&#xf709;" 
d="M-343 664v-40h-78v38q0 105 108 105h133v-72h-130q-33 0 -33 -31z" />
    <glyph glyph-name="uni0E48.alt2" unicode="&#xf70a;" 
d="M-65 606h-85v184h85v-184z" />
    <glyph glyph-name="uni0E49.alt2" unicode="&#xf70b;" 
d="M-198 699v-32h181v-65h-259v69q0 12 -2.5 15.5t-12.5 3.5h-73v65h101q65 0 65 -56z" />
    <glyph glyph-name="uni0E4A.alt2" unicode="&#xf70c;" 
d="M-276 715l28 22q17 13 40 13q39 0 62.5 -20t23.5 -53v-5h96v-65h-96h-68v51q0 30 -28 30h-11l-38 -29h-16l-41 29h-11q-29 0 -29 -43v-38h-75v46q0 47 25.5 72t70.5 25q25 0 41 -13z" />
    <glyph glyph-name="uni0E4B.alt2" unicode="&#xf70d;" 
d="M-156 746v72h78v-72h84v-69h-84v-71h-78v71h-85v69h85z" />
    <glyph glyph-name="uni0E4C.alt2" unicode="&#xf70e;" 
d="M-222 664v-40h-78v38q0 105 108 105h133v-72h-130q-33 0 -33 -31z" />
    <glyph glyph-name="uni0E0D.alt1" unicode="&#xf70f;" horiz-adv-x="868" 
d="M719 174v43q-15 -28 -49 -47t-81 -19q-174 0 -174 164v20q0 58 -31.5 90.5t-88.5 32.5q-41 0 -80.5 -19.5t-52.5 -38.5l68 -36v-53q-51 -16 -51 -56v-151q0 -39 33 -39h54v-65h-67q-108 0 -108 103v149q0 54 53 81l-79 39v45q32 41 93.5 78.5t136.5 37.5q100 0 154 -49
t54 -149v-19q0 -90 99 -90q49 0 83 29.5t34 82.5v188h91v-353q0 -91 -60.5 -138.5t-177.5 -47.5q-38 0 -74.5 8.5t-53.5 17.5l-18 9v75q67 -41 152 -41q68 0 104.5 27t36.5 91z" />
    <glyph glyph-name="uni0E31.alt1" unicode="&#xf710;" 
d="M-437 753h81v-43q0 -16 6 -20.5t21 -4.5h312v-71h-338q-41 0 -61.5 23.5t-20.5 63.5v52z" />
    <glyph glyph-name="uni0E4D.alt1" unicode="&#xf711;" 
d="M-205 684q0 -42 -27.5 -68.5t-73.5 -26.5q-45 0 -72.5 26.5t-27.5 68.5t27.5 68.5t72.5 26.5q46 0 73.5 -26.5t27.5 -68.5zM-346 684q0 -41 40 -41q41 0 41 41q0 40 -41 40q-40 0 -40 -40z" />
    <glyph glyph-name="uni0E47.alt1" unicode="&#xf712;" 
d="M-189 671v-70h-92l-61 40l-67 -40h-35q-38 0 -66.5 30t-28.5 67v21q0 47 37 78.5t101 31.5h212v-65h-209q-65 0 -65 -45v-13q0 -17 9.5 -26t21.5 -9h23l58 31h22l70 -31h70z" />
    <glyph glyph-name="uni0E48.alt3" unicode="&#xf713;" 
d="M-207 811h-73v154h73v-154z" />
    <glyph glyph-name="uni0E49.alt3" unicode="&#xf714;" 
d="M-212 933v-48h181v-62h-259v82q0 11 -4 15t-15 4h-69v65h108q32 0 45 -13t13 -43z" />
    <glyph glyph-name="uni0E4A.alt3" unicode="&#xf715;" 
d="M-247 915l20 21q17 13 38 13q38 0 60.5 -19.5t22.5 -50.5v-5h93v-63h-93h-65v50q0 28 -27 28h-10l-30 -27h-16l-32 27h-12q-27 0 -27 -41v-37h-72v44q0 45 24 69.5t67 24.5q24 0 40 -13z" />
    <glyph glyph-name="uni0E4B.alt3" unicode="&#xf716;" 
d="M-142 871h-69v-60h-70v60h-70v61h70v62h70v-62h69v-61z" />
    <glyph glyph-name="uni0E4C.alt3" unicode="&#xf717;" 
d="M-335 800v-41h-78v38q0 105 108 105h140v-71h-137q-33 0 -33 -31z" />
    <glyph glyph-name="uni0E38.alt1" unicode="&#xf718;" 
d="M-152 -511v126q0 33 -34 33h-49v65h61q54 0 77 -24.5t23 -75.5v-124h-78z" />
    <glyph glyph-name="uni0E39.alt1" unicode="&#xf719;" 
d="M-322 -424v51q0 10 -4 14.5t-17 4.5h-28v65h49q53 0 66.5 -14t13.5 -60v-60q0 -33 42 -33q43 0 43 33v125h80v-126q0 -39 -33 -67t-90 -28q-65 0 -93.5 27t-28.5 68z" />
    <glyph glyph-name="uni0E3A.alt1" unicode="&#xf71a;" 
d="M-47 -346q0 -26 -16 -41t-44 -15q-27 0 -42.5 15t-15.5 41t15.5 41t42.5 15q28 0 44 -15t16 -41z" />
    <glyph glyph-name="uni0E0E.alt1" unicode="&#xf71b;" horiz-adv-x="594" 
d="M443 -75v403q0 62 -33.5 96t-91.5 34q-40 0 -75.5 -19t-48.5 -39l67 -36v-53q-52 -16 -52 -58v-153q0 -100 -113 -100h-48v65h34q34 0 34 32v160q0 24 18 45.5t41 30.5l-79 39v45q34 43 90.5 79.5t131.5 36.5q101 0 159.5 -50.5t58.5 -154.5v-405q0 -61 -33.5 -94.5
t-94.5 -33.5h-43l-79 55q-40 -50 -85 -50h-85v70h74q23 0 47 17.5t37 38.5h20l74 -51h32q43 0 43 50z" />
    <glyph glyph-name="uni0E0F.alt1" unicode="&#xf71c;" horiz-adv-x="594" 
d="M337 -81h22l56 -37q12 0 21 6.5t9 19.5v420q0 62 -34 96t-93 34q-40 0 -75.5 -19t-48.5 -39l67 -36v-53q-52 -16 -52 -58v-153q0 -100 -113 -100h-48v65h34q34 0 34 32v160q0 24 18 45.5t41 30.5l-79 39v45q34 43 90.5 79.5t131.5 36.5q101 0 159.5 -50.5t58.5 -154.5
v-427q0 -48 -33.5 -75.5t-87.5 -27.5l-65 47l-61 -50l-59 49q-30 -47 -83 -47h-50v70h38q53 0 83 52h20l53 -46z" />
    <glyph glyph-name="uni0E2C.alt1" unicode="&#xf71d;" horiz-adv-x="630" 
d="M555 300v-300h-77l-9 31q-2 9 -41.5 54.5l-77.5 86.5l-39 41q-158 -161 -163 -183l-9 -30h-74v526h88v-369l141 154h36l134 -142v127q0 31 -16 50t-48 19v60q81 11 81 114h91q0 -118 -85 -137q35 -9 51.5 -32.5t16.5 -69.5z" />
    <glyph glyph-name="apple" unicode="&#xf8ff;" horiz-adv-x="772" 
d="M772 510v-407q0 -10 -8 -13l-278 -154q-8 -2 -18 -2h-166q-7 0 -15 2l-275 152q-12 5 -12 20v0v0v0v0v0v0v0v0v0v0v0v0v0v0v0v0v0v0v0v0v0v0v0v0v0v1v0v0v0v0v0v0v0v0v0v0v1v0v0v0v0v0v0v1v0v0v0v0v0v1v0v0v0v0v1v0v0v0v1v0v0v0v1v0v0v0v1v0v0v1v0v0v1v0v0v1v0v0v1v0v0v1
v0v0v1v0v1v0v1v0v1v0v0v1v0v1v0v1v0v1v0v1v0v1v0v1v0v1v0v1v0v1v0v1v0v1v0v1v0v1v0v1v0v1v1v0v1v0v1v0v1v1v0v1v0v1v1v0v1v1v0v1v1v0v1v1v0v1v1v1v0v1v1v1v0v1v1v1v1v0v1v1v1v1v1v1v1v0v1v1v1v1v1v1v1v1v1v1v1v1v1v1v1v1v1v1v1v1v1v1v1v1v1v1v1v1v1v1v1v1v1v1v1v1v1v1v1v1v1
v1v1v1v1v1v1v1v1v1v1v1v1v1v1v1v1v1v1v1v1v1v1v1v1v1v1v1v1v1v1v1v1v1v1v1v1v1v1v1v1v1v1v1v1v1v1v1v1v1v1v1v1v1v1v1v1v1v1v1v1v1v1v1v1v1v1v1v1v1v1v1v1v1v1v1v1v1v1v1v1v1v1v1v1v1v1v1v1v1v1v1v1v1v1v1v1v1v1v1v1v1v1v1v1v1v1v1v1v1v1v1v1v1v1v1v1v1v1v1v1v1v1v1v1v1v1v1
v1v1v1v1v1v1v1v1v1v1v1v1v1v1v1v1v1v1v1v1v1v1v1v1v1v1v1v1v1v1v1v1v1v1v1v1v1v1v1v1v1v1v1v1v1v1v1v1v1v1v1v1v1v1v1v1v1v1v1v1v1v1v1v1v1v1v1v1v1v1v1v1v1v1v1v1v1v1v1v1v1v1v1v1v1v1v1v1v1v1v1v1v1v1v1v1v1v1v1v1v1v1v1v1v1v1v1v1v1v1v1v1v1v1v1v1v1v1v1v1v1v1v1v1v1v1v1
v1v1v1v1v1v1v1v1v1v1v1v1v1v1v1v1v1v1v1v1v1v1v1v1v1v1v1v1v1v1v1v1v1v1v9q0 7 8 15l408 202q6 2 9 2q5 0 9 -2l298 -151q13 -7 17 -13l22 -44q1 -3 1 -9zM721 551l-296 148l-380 -189l255 -138h173l68 36v51q0 14 11 14h107l79 44zM744 110v377l-254 -140v-156l125 68v87
q0 11 14 11q16 0 16 -11v-95q0 -11 -8 -14l-147 -77v-72l134 72q4 1 8 1q13 0 13 -14q0 -10 -8 -12l-146 -77q-12 -5 -15 -5q-13 0 -13 15v0v0v0v0v0v0v0v0v0v0v0v0v0v0v0v0v0v0v0v0v0v0v0v0v0v0v0v0v0v0v0v1v0v0v0v0v0v0v1v0v0v0v0v1v0v0v0v1v0v0v1v0v0v0v1v0v0v1v0v0v1v0
v0v1v0v1v0v0v1v0v1v0v1v0v1v0v1v0v1v0v1v0v1v0v1v0v1v0v1v0v1v0v1v0v1v1v0v1v0v1v1v0v1v1v0v1v1v0v1v1v1v1v0v1v1v1v1v1v0v1v1v1v1v1v1v1v1v1v1v1v1v1v1v1v1v1v1v1v1v1v1v1v1v1v1v1v1v1v1v1v1v1v1v1v1v1v1v1v1v1v1v1v1v1v1v1v1v1v1v1v1v1v1v1v1v1v1v1v1v1v1v1v1v1v1v1v1v1v1
v1v1v1v1v1v1v1v1v1v1v1v1v1v1v1v1v1v1v1v1v1v1v1v1v1v1v1v1v1v1v1v1v1v1v1v1v1v1v1v1v1v1v1v1v1v1v1v1v1v1v1v1v1v1v1v1v1v1v1v1v1v1v1v1v1v1v1v1v1v1v1v1v1v1v1v1v1v1v1v1v1v1v1v1v1v1v1v1v1v1v1v1v1v1v1v1v1v1v1v1v1v1v1v1v1v1v1v1v1v1v1v1v1v1v1v1v1v1v1v1v1v1v1v1v1v1v1
v1v1v1v1v1v1v1v1v1v1v1v1v1v1v1v1v1v1v1v1v1v1v1v1v1v1v10h-160q-11 0 -18 5l-255 140v-189l122 -69q7 -7 7 -15v-96q0 -14 -13 -14q-16 0 -16 14v90l-100 56v-154l253 -137v257l-171 99q-8 2 -8 12q0 15 13 15q2 0 10 -2l176 -102q8 -5 8 -13v-277h162zM318 520
q11 0 44 -19t33 -29q0 -6 -13 -15t-19 -9q-9 0 -44.5 21t-35.5 26q0 8 13 16.5t22 8.5zM472 598q11 0 44 -19t33 -29q0 -6 -13.5 -15t-20.5 -9q-8 0 -44 21t-36 26q0 8 13.5 16.5t23.5 8.5z" />
    <glyph glyph-name="uni0E33.alt1" horiz-adv-x="435" 
d="M373 0h-88v348q0 111 -86 111q-47 0 -75 -25.5t-28 -73.5h-86q0 82 53 127.5t136 45.5q174 0 174 -185v-348zM-205 684q0 -42 -28 -68.5t-71 -26.5t-71 26.5t-28 68.5t28 68.5t71 26.5t71 -26.5t28 -68.5zM-345 684q0 -41 41 -41q40 0 40 41q0 40 -40 40q-41 0 -41 -40z
" />
    <glyph glyph-name="uni0E4E.alt1" 
d="M-229 525h-40q-94 0 -94 79q0 36 21 58t59 22q-24 11 -24 43q0 63 85 63h75v-65h-51q-20 0 -25.5 -5.5t-5.5 -16.5q0 -15 25 -23l-11 -50h-42q-24 0 -32.5 -4.5t-8.5 -14.5q0 -21 35 -21h34v-65z" />
    <glyph glyph-name="B513" horiz-adv-x="4486" 
d="M305 610h-144v-229h142q50 0 82 32.5t32 84.5q0 50 -27 81t-85 31zM305 311h-144v-237h160q124 0 124 116q0 121 -140 121zM508 498q0 -47 -27 -89t-68 -57q58 -12 91.5 -53t33.5 -112q0 -86 -61 -136.5t-156 -50.5h-251v684h235q104 0 153.5 -51.5t49.5 -134.5zM2059 73
h105q93 0 149 69.5t56 195.5q0 136 -55 204.5t-150 68.5h-105v-538zM1968 684h196q135 0 216.5 -91t81.5 -255q0 -156 -83 -247t-215 -91h-196v684zM2773 64q67 1 107.5 31t40.5 82q0 35 -21.5 60.5t-55.5 41t-75 29t-82.5 29t-75.5 36t-55.5 55.5t-21.5 82q0 78 63 127
t169 49t164.5 -50t58.5 -139h-91q0 57 -35 87.5t-97 30.5q-70 0 -105.5 -29.5t-35.5 -75.5q0 -44 40 -72t97 -45t114 -37.5t97 -63.5t40 -109q0 -85 -65 -138t-175 -53q-129 0 -188 51t-59 162h91q0 -74 35 -107.5t121 -33.5zM3203 0h-99v97h99v-97zM3201 684v-121
q0 -28 -5.5 -122t-11.5 -175l-6 -80h-49q-22 314 -22 377v121h94zM3788 0h-87v61q-17 -28 -58.5 -48.5t-88.5 -20.5q-127 0 -196.5 93t-69.5 249q0 164 71.5 259t201.5 95q103 0 162 -50.5t68 -137.5h-94q-7 50 -42.5 80.5t-93.5 30.5q-178 0 -178 -277q0 -263 171 -263
q70 0 108.5 37.5t38.5 98.5v85h-133v73h220v-365zM3996 0h-91v684h115l291 -499v499h91v-684h-89l-317 549v-549zM1621 0h-513v68h124l2 547h-481l-13 -204q39 32 113 32q99 0 158 -57.5t59 -158.5q0 -110 -57 -172.5t-165 -62.5q-104 0 -158 50t-54 131h87q0 -48 33 -79.5
t92 -31.5q69 0 103 45t34 118q0 71 -34 109t-101 38q-92 0 -131 -63l-65 9l25 367h590h47v-617h305q66 0 103 33t37 89q0 69 -32 100t-105 31h-93v70h93q53 0 86 30.5t33 82.5q0 57 -30.5 87t-86.5 30q-52 0 -85 -31t-33 -79h-88q0 77 57.5 129t148.5 52t145 -49t54 -137
q0 -105 -91 -147q58 -16 85 -53t27 -114q0 -89 -60 -140.5t-165 -51.5z" />
    <glyph glyph-name="macron" horiz-adv-x="225" 
d="M-48 585v62h316v-62h-316z" />
    <glyph glyph-name="periodcentered" horiz-adv-x="283" 
d="M138 315q24 0 42.5 -17t18.5 -41q0 -23 -18.5 -40t-42.5 -17t-42.5 17t-18.5 40q0 24 18.5 41t42.5 17z" />
    <glyph glyph-name="B513DS" 
 />
    <glyph glyph-name="zero.fitted" horiz-adv-x="536" 
d="M274 62q77 0 108 63.5t31 183.5q0 130 -30.5 194.5t-108.5 64.5q-80 0 -110.5 -64t-30.5 -195q0 -79 11 -130.5t43.5 -84t86.5 -32.5zM274 -7q-225 0 -225 316q0 157 52 242t173 85q225 0 225 -327q0 -316 -225 -316z" />
    <glyph glyph-name="one.fitted" horiz-adv-x="536" 
d="M458 0h-362v68h142v478l-135 -31v65l171 53h47v-565h137v-68z" />
    <glyph glyph-name="two.fitted" horiz-adv-x="536" 
d="M268 638q93 0 146 -49.5t53 -129.5q0 -29 -12 -60.5t-31 -61.5t-59 -75l-78 -84.5l-106 -106.5h286v-71h-401v62l151 152q104 104 134.5 149t30.5 96q0 49 -28.5 79t-85.5 30q-56 0 -85.5 -33.5t-29.5 -89.5h-88q0 85 53 139t150 54z" />
    <glyph glyph-name="three.fitted" horiz-adv-x="536" 
d="M456 478q0 -108 -79 -145q99 -34 99 -148q0 -91 -53.5 -142t-157.5 -51q-103 0 -156.5 51.5t-53.5 142.5h87q0 -58 32 -91t91 -33q64 0 96 32t32 88q0 113 -125 113h-81v70h81q52 0 78.5 29.5t26.5 82.5q0 41 -27.5 66.5t-79.5 25.5t-84.5 -31t-32.5 -79h-89
q0 77 57.5 129t148.5 52q93 0 141.5 -43.5t48.5 -118.5z" />
    <glyph glyph-name="four.fitted" horiz-adv-x="536" 
d="M152 195h189v318zM53 123v62l273 448h96v-438h85v-72h-85v-123h-81v123h-288z" />
    <glyph glyph-name="five.fitted" horiz-adv-x="536" 
d="M476 214q0 -103 -54.5 -162.5t-155.5 -59.5q-104 0 -157.5 50t-53.5 131h87q0 -48 32.5 -79.5t91.5 -31.5q62 0 94.5 40t32.5 110q0 134 -124 134q-95 0 -131 -63l-64 9l23 341h336v-70h-261l-12 -167q47 21 112 21q91 0 147.5 -54t56.5 -149z" />
    <glyph glyph-name="six.fitted" horiz-adv-x="536" 
d="M283 565q-71 0 -104.5 -52t-40.5 -166q41 62 139 62q97 0 148 -60.5t51 -149.5t-56 -147.5t-146 -58.5q-122 0 -172 77.5t-50 236.5q0 329 231 329q90 0 140 -51t50 -130h-88q0 50 -26.5 80t-75.5 30zM274 62q58 0 88.5 41t30.5 96q0 140 -116 140q-67 0 -97.5 -38
t-30.5 -102q0 -55 32 -96t93 -41z" />
    <glyph glyph-name="seven.fitted" horiz-adv-x="536" 
d="M64 563v70h413v-49l-255 -584h-91l249 563h-316z" />
    <glyph glyph-name="eight.fitted" horiz-adv-x="536" 
d="M263 62q67 0 101 29.5t34 81.5q0 44 -33 72.5t-102 52.5q-69 -24 -102.5 -52.5t-33.5 -72.5q0 -111 136 -111zM149 474q0 -76 114 -107q51 14 82 41.5t31 65.5q0 44 -30 69.5t-83 25.5q-54 0 -84 -25.5t-30 -69.5zM263 -8q-98 0 -158.5 48.5t-60.5 132.5q0 52 27 90.5
t95 69.5q-101 45 -101 139q0 79 54 123.5t144 44.5q89 0 142.5 -45t53.5 -123q0 -95 -102 -139q70 -31 96.5 -69t26.5 -91q0 -84 -60 -132.5t-157 -48.5z" />
    <glyph glyph-name="nine.fitted" horiz-adv-x="536" 
d="M265 64q60 0 90 53t35 159q-53 -56 -138 -56q-97 0 -148.5 60.5t-51.5 149.5q0 90 57 148t147 58q121 0 170.5 -77.5t49.5 -236.5q0 -168 -50.5 -248.5t-160.5 -80.5q-93 0 -143.5 48.5t-50.5 120.5h88q0 -44 27.5 -71t78.5 -27zM256 567q-60 0 -90.5 -40.5t-30.5 -96.5
q0 -140 117 -140q126 0 126 140q0 56 -30.5 96.5t-91.5 40.5z" />
    <glyph glyph-name="slash.Nothai" horiz-adv-x="402" 
d="M354 511l-232 -558h-77l232 558h77z" />
    <glyph glyph-name="slash.Nothai2" horiz-adv-x="541" 
d="M303 536v-609h-77v609h77z" />
    <glyph glyph-name="EK" horiz-adv-x="1709" 
d="M690 732v32q202 55 281 86v-351q0 -23 10 -23q7 0 16 6t12 11l91 100q143 161 216 210q68 47 140 47q43 0 77.5 -18t34.5 -55q0 -25 -22 -39.5t-47 -14.5q-19 0 -52.5 13.5t-51.5 13.5q-41 0 -91 -36q-50 -38 -135 -137l-55 -64l286 -365q47 -61 87 -88q44 -28 85 -28
v-32h-392v32q39 0 63 8q21 6 21 18q0 29 -37 71l-220 274l-36 -39v-364h-155v208q-56 -52 -93 -82.5t-95.5 -69.5t-120.5 -57.5t-130 -18.5q-140 0 -226 62.5t-86 174.5q0 77 46.5 130t122.5 79q-70 23 -115 70t-45 114q0 69 47 117.5t108 68t125 19.5q35 0 76 -7
t83.5 -21.5t70.5 -42.5t28 -65q0 -28 -18 -45.5t-44 -17.5q-33 0 -55.5 22.5t-34.5 49t-41 49t-73 22.5q-60 0 -88.5 -44.5t-28.5 -106.5t28 -109t85 -47q22 0 61.5 12t59.5 12q24 0 40 -14.5t16 -37.5q0 -27 -15.5 -42t-40.5 -15q-21 0 -60 16t-61 16q-41 0 -68.5 -26.5
t-38 -61.5t-10.5 -74q0 -95 44 -141.5t140 -46.5q98 0 194.5 61t212.5 179v327q0 63 -17.5 90t-71.5 27q-26 0 -37 -1zM1607 936v-13h-15v-48h-14v48h-17v13h46zM1641 875l-12 41h-1l-3 -41h-13l5 61h16l14 -46h1l15 46h15l5 -61h-13l-2 41h-1l-13 -41h-13z" />
    <glyph glyph-name="uni0E01.001" horiz-adv-x="560" 
d="M502 0h-91v331q0 64 -36 95.5t-97 31.5q-55 0 -94 -25t-58 -64l27 -22q24 -19 24 -52v-295h-91v296q0 16 -9 25l-37 34v25q20 60 89 106.5t149 46.5q101 0 162.5 -49.5t61.5 -152.5v-331z" />
    <glyph glyph-name="uni0E02.001" horiz-adv-x="504" 
d="M172 428q0 18 -8.5 25.5t-32.5 7.5h-54v65h67q63 0 87.5 -23t24.5 -74q0 -33 -23 -66.5l-45.5 -65.5t-22.5 -63v-79q0 -47 24.5 -67t74.5 -20q49 0 73 21t24 67v370h91v-370q0 -74 -48.5 -119t-139.5 -45q-90 0 -138.5 42.5t-48.5 118.5v97q0 36 24 69.5t47.5 60.5
t23.5 48z" />
    <glyph glyph-name="uni0E03.001" horiz-adv-x="533" 
d="M270 474v-19q0 -45 -21 -83t-42 -70.5t-21 -64.5v-88q0 -81 97 -81q107 0 107 83v375h91v-375q0 -72 -52.5 -115.5t-145.5 -43.5q-91 0 -139.5 40.5t-48.5 115.5v96q0 30 14 57t31.5 45t31.5 46t14 60l-37 -19h-9l-63 25v68h41l46 -35l56 35q21 0 35.5 -14t14.5 -38z" />
    <glyph glyph-name="uni0E04.001" horiz-adv-x="559" 
d="M343 221h-71q-48 0 -83.5 -47t-35.5 -136v-38h-91v321q0 102 60.5 157.5t162.5 55.5q113 0 167.5 -53t54.5 -168v-313h-91v313q0 79 -30.5 112.5t-100.5 33.5q-134 0 -134 -138v-108q28 86 121 86h71v-78z" />
    <glyph glyph-name="uni0E05.001" horiz-adv-x="576" 
d="M151 324v-111q28 86 121 86h71v-78h-71q-48 0 -83.5 -47t-35.5 -136v-38h-91v322q0 84 34.5 134t111.5 78l88 -48l76 50q88 -17 120 -65t32 -147v-324h-91v324q0 64 -12 90.5t-41 36.5l-81 -47l-90 46q-30 -15 -44 -40.5t-14 -85.5z" />
    <glyph glyph-name="uni0E06.001" horiz-adv-x="568" 
d="M250 474v-19q0 -35 -13.5 -67t-29 -52t-29 -46.5t-13.5 -52.5v-46q14 -55 53 -90t98 -35q109 0 109 121v339h91v-344q0 -90 -48.5 -140.5t-136.5 -50.5q-35 0 -63 7t-48.5 21.5t-30.5 24t-24 26.5l-10 -70h-81v244q0 30 14 57t31.5 45t31.5 46t14 60l-36 -19h-9l-64 25
v68h41l46 -35l56 35q21 0 36 -14t15 -38z" />
    <glyph glyph-name="uni0E07.001" horiz-adv-x="494" 
d="M357 220v208q0 41 -36 41h-64v65h80q54 0 82.5 -28.5t28.5 -76.5v-212q0 -106 -49.5 -165t-141.5 -59q-26 0 -50 3.5t-35 6.5l-11 3l-135 392h92l111 -334q9 -3 28 -3q51 0 75.5 37t24.5 122z" />
    <glyph glyph-name="uni0E08.001" horiz-adv-x="523" 
d="M395 239v73q0 147 -138 147q-61 0 -97.5 -25.5t-36.5 -73.5h-88q0 79 68 126t154 47q109 0 168 -59t59 -175v-48q0 -124 -57 -187.5t-142 -63.5h-72l-45 160q-6 21 -15 26t-30 5h-35v78h38q64 0 90.5 -15t36.5 -75l29 -104q50 0 81.5 43.5t31.5 120.5z" />
    <glyph glyph-name="uni0E09.001" horiz-adv-x="567" 
d="M160 252v-78q0 -52 24 -80t85 -28q59 0 98 35t53 90v155q0 53 -40 83t-101 30q-58 0 -101 -26.5t-43 -72.5h-88q0 80 69 126.5t163 46.5q108 0 168.5 -49.5t60.5 -137.5v-346h-82l-11 66q-21 -24 -33 -35.5t-47 -25.5t-82 -14q-89 0 -136.5 44.5t-47.5 133.5v83h91z" />
    <glyph glyph-name="uni0E0A.001" horiz-adv-x="528" 
d="M77 160v90q0 36 24 69.5t47.5 60.5t23.5 48q0 18 -8.5 25.5t-32.5 7.5h-54v65h67q63 0 87.5 -23t24.5 -74q0 -33 -23 -66.5l-45.5 -65.5t-22.5 -63v-73q0 -46 29 -69.5t80 -23.5t82 24.5t31 69.5v134q0 30 -16 49.5t-47 19.5v60q80 11 80 114h91q0 -118 -84 -137
q34 -9 50.5 -32.5t16.5 -69.5v-138q0 -72 -56 -121t-148 -49q-91 0 -144 46t-53 122z" />
    <glyph glyph-name="uni0E0B.001" horiz-adv-x="558" 
d="M95 168v76q0 30 15 57t33.5 45t33.5 46t15 60l-43 -19h-9l-63 25v68h41l48 -35l55 35q24 0 40 -14t16 -38v-19q0 -35 -14 -67t-31.5 -52t-31.5 -46.5t-14 -52.5v-68q0 -50 33.5 -75.5t80.5 -25.5q54 0 85.5 25.5t31.5 76.5v126q0 30 -16 49.5t-47 19.5v60q80 11 80 114
h91q0 -118 -84 -137q34 -9 50.5 -32.5t16.5 -69.5v-130q0 -76 -58 -127t-150 -51q-91 0 -148 50t-57 126z" />
    <glyph glyph-name="uni0E0C.001" horiz-adv-x="855" 
d="M400 0v331q0 64 -35 95.5t-95 31.5q-51 0 -88 -25t-56 -64l25 -22q23 -20 23 -52v-191q0 -39 33 -39h54v-65h-67q-108 0 -108 103v193q0 16 -9 25l-37 34v25q22 62 87 107.5t143 45.5q98 0 159 -49.5t61 -152.5v-126q13 -66 46 -102.5t80 -36.5q46 0 68 29.5t22 78.5v352
h91v-357q0 -90 -40.5 -134t-124.5 -44q-52 0 -84.5 17.5t-57.5 57.5l-6 -66h-84z" />
    <glyph glyph-name="uni0E0D.001" horiz-adv-x="868" 
d="M409 200v131q0 64 -38.5 95.5t-100.5 31.5q-51 0 -88 -25t-56 -64l25 -22q23 -20 23 -52v-191q0 -39 33 -39h54v-65h-67q-108 0 -108 103v193q0 16 -9 25l-37 34v25q22 62 87 107.5t143 45.5q99 0 163.5 -50t64.5 -152v-130q0 -50 29 -72t74 -22q51 0 82 25.5t31 76.5
v317h91v-478q0 -92 -61 -143t-177 -51q-38 0 -74.5 9t-54.5 17l-17 9v76q66 -42 152 -42q141 0 141 126v39q-31 -57 -126 -57q-89 0 -134 45.5t-45 123.5z" />
    <glyph glyph-name="uni0E0E.001" horiz-adv-x="594" 
d="M443 -114v445q0 64 -36 95.5t-96 31.5q-55 0 -94 -25t-58 -64l24 -22q24 -19 24 -52v-195q0 -100 -111 -100h-48v65h34q36 0 36 32v199q0 17 -9 25l-36 34v25q20 60 89 106.5t149 46.5q100 0 161.5 -49.5t61.5 -152.5v-447q0 -62 -32.5 -95t-93.5 -33h-23l-77 40
q-27 -35 -87 -35h-73v70h61q60 0 85 36h19l74 -35h13q43 0 43 54z" />
    <glyph glyph-name="uni0E0F.001" horiz-adv-x="594" 
d="M264 -170l69 41h11l71 -37q10 0 19 9.5t9 22.5v465q0 64 -36 95.5t-96 31.5q-55 0 -94 -25t-58 -64l24 -22q24 -19 24 -52v-195q0 -100 -111 -100h-48v65h34q36 0 36 32v199q0 17 -9 25l-36 34v25q20 60 89 106.5t149 46.5q100 0 161.5 -49.5t61.5 -152.5v-469
q0 -48 -33 -75.5t-86 -27.5l-78 41l-73 -39h-12q-39 24 -66 24h-55v71h61q28 0 72 -26z" />
    <glyph glyph-name="uni0E10.001" horiz-adv-x="532" 
d="M308 -143h18q30 0 47 16t17 44v9q0 74 -94 74h-88l-46 160q-5 21 -14 26t-30 5h-35v78h38q64 0 90.5 -15t36.5 -75l29 -104q113 0 113 149v88q0 147 -138 147q-61 0 -97.5 -25.5t-36.5 -73.5h-88q0 79 68 126t154 47q25 0 59 -5t48 -5q48 0 48 58h91q0 -88 -82 -110
q62 -46 62 -172v-64q0 -143 -83 -199q35 -7 59 -35t24 -70v-19q0 -61 -38.5 -94t-105.5 -33h-43l-62 50q-34 -44 -85 -44h-89v70h63q62 0 87 51h33z" />
    <glyph glyph-name="uni0E11.001" horiz-adv-x="599" 
d="M261 474v-15q44 70 147 70q62 0 97.5 -39t35.5 -107v-383h-91v386q0 60 -55 60q-31 0 -54.5 -18t-50.5 -58q-19 -28 -40 -56t-28 -38t-12 -23.5t-5 -31.5v-221h-91v235q0 37 38.5 80.5t38.5 77.5v63l-44 -23h-9l-64 25v68h35l46 -35l56 35q21 0 35.5 -14t14.5 -38z" />
    <glyph glyph-name="uni0E12.001" horiz-adv-x="896" 
d="M532 341v-150q15 -61 41.5 -93t82.5 -32q25 0 43 7t27 17t13.5 28.5t5.5 31.5t1 37v339h91v-344q0 -191 -165 -191q-99 0 -140 75l-7 -66h-84v341q0 54 -15 78.5t-45 34.5l-76 -52l-84 50q-36 -14 -62 -58.5t-26 -124.5v-25q0 -179 145 -179l65 6v-71q-40 -7 -78 -7
q-100 0 -160.5 64t-60.5 186v26q0 205 173 267l86 -49l70 50q84 -13 121.5 -58t37.5 -138z" />
    <glyph glyph-name="uni0E13.001" horiz-adv-x="855" 
d="M400 174v154q0 66 -35 98t-96 32q-48 0 -84 -22t-54 -56l26 -16q12 -10 14.5 -18t2.5 -31v-60v-151q0 -39 33 -39h54v-65h-67q-108 0 -108 103v210q0 15 -9 25l-37 27v25q26 59 86.5 101t142.5 42q100 0 160.5 -51t60.5 -154v-149q0 -28 2 -44.5t10.5 -34.5t28 -26
t50.5 -8q45 0 78.5 35.5t46.5 89.5v335h91v-526h-85l-6 66q-61 -75 -141 -75t-122.5 48.5t-42.5 134.5z" />
    <glyph glyph-name="uni0E14.001" horiz-adv-x="572" 
d="M44 243v26q0 120 66 192.5t179 72.5q110 0 167 -57t57 -169v-308h-91v308q0 82 -32.5 116.5t-100.5 34.5q-156 0 -156 -190v-25q0 -179 145 -179l65 6v-71q-40 -7 -78 -7q-100 0 -160.5 64t-60.5 186z" />
    <glyph glyph-name="uni0E15.001" horiz-adv-x="590" 
d="M133 269v-25q0 -179 145 -179l65 6v-71q-40 -7 -78 -7q-100 0 -160.5 64t-60.5 186v26q0 205 173 267l86 -49l70 50q84 -13 121.5 -58t37.5 -138v-341h-91v341q0 54 -15 78.5t-45 34.5l-76 -52l-84 50q-36 -14 -62 -58.5t-26 -124.5z" />
    <glyph glyph-name="uni0E16.001" horiz-adv-x="568" 
d="M419 0v331q0 64 -38 95.5t-102 31.5q-54 0 -94.5 -25t-58.5 -64l25 -22q23 -20 23 -52v-191q0 -39 33 -39h54v-65h-67q-108 0 -108 103v193q0 16 -9 25l-37 34v25q20 60 89.5 106.5t149.5 46.5q104 0 167.5 -49.5t63.5 -152.5v-331h-91z" />
    <glyph glyph-name="uni0E17.001" horiz-adv-x="572" 
d="M156 526v-29q0 -29 -4 -46q20 32 65 56.5t105 24.5q86 0 138.5 -48t52.5 -140v-344h-91v343q0 108 -110 108q-69 0 -114 -49t-45 -129v-273h-88v526h91z" />
    <glyph glyph-name="uni0E18.001" horiz-adv-x="563" 
d="M66 378q0 65 62.5 110t148.5 45q98 0 159 -45.5t61 -127.5h-89q0 47 -35.5 72.5t-95.5 25.5q-53 0 -86.5 -19.5t-33.5 -57.5q0 -28 23.5 -37.5t96.5 -10.5q31 -1 51 -1.5t46 -4t42 -9.5t34 -17t27.5 -26t16 -38t6.5 -52v-38q0 -69 -53.5 -111.5t-155.5 -42.5
q-207 0 -207 151v77h91v-74q0 -44 27.5 -61t88.5 -17q62 0 90 17t28 61v30q0 48 -23 62.5t-109 15.5q-122 1 -166.5 28.5t-44.5 94.5z" />
    <glyph glyph-name="uni0E19.001" horiz-adv-x="576" 
d="M513 0h-84l-7 66q-18 -22 -33 -35t-51 -26.5t-82 -13.5q-88 0 -139.5 51t-51.5 140v344h91v-339q0 -52 27.5 -86.5t88.5 -34.5q59 0 98 35t52 90v335h91v-526z" />
    <glyph glyph-name="uni0E1A.001" horiz-adv-x="575" 
d="M287 -7q-113 0 -167.5 53.5t-54.5 167.5v312h91v-313q0 -77 30.5 -110.5t100.5 -33.5t101 33t31 111v313h91v-312q0 -114 -54.5 -167.5t-168.5 -53.5z" />
    <glyph glyph-name="uni0E1B.001" horiz-adv-x="575" 
d="M287 -7q-113 0 -167.5 53.5t-54.5 167.5v312h91v-313q0 -77 30.5 -110.5t100.5 -33.5t101 33t31 111v503h91v-502q0 -114 -54.5 -167.5t-168.5 -53.5z" />
    <glyph glyph-name="uni0E1C.001" horiz-adv-x="616" 
d="M164 430v-190q0 -62 -7 -101l132 164h39l132 -155q-6 65 -6 108v270h91v-526h-74l-4 12q-6 18 -46 67t-77 89l-37 41q-138 -156 -152 -197l-4 -12h-78v435q0 99 108 99h57v-65h-42q-32 0 -32 -39z" />
    <glyph glyph-name="uni0E1D.001" horiz-adv-x="616" 
d="M164 430v-190q0 -62 -7 -100l134 163h34l135 -154q-6 64 -6 107v460h91v-716h-78l-2 12q-2 18 -41.5 67.5t-77.5 89.5l-39 40l-40.5 -43.5t-66.5 -80t-44 -73.5l-1 -12h-82v435q0 99 108 99h57v-65h-42q-32 0 -32 -39z" />
    <glyph glyph-name="uni0E1E.001" horiz-adv-x="650" 
d="M300 506h47l121 -345q3 33 9 66l52 299h92l-98 -526h-77l-7 27q-3 15 -31.5 98l-55.5 159l-28 75q-110 -298 -116 -332l-7 -27h-76l-99 526h92l52 -299l9 -66z" />
    <glyph glyph-name="uni0E1F.001" horiz-adv-x="650" 
d="M300 506h47l118 -347q3 32 9 66l84 491h92l-127 -716h-77l-7 27q-3 15 -31.5 97.5l-55.5 157.5l-28 74q-110 -295 -116 -329l-7 -27h-76l-99 526h92l55 -301l9 -66z" />
    <glyph glyph-name="uni0E20.001" horiz-adv-x="601" 
d="M450 0v331q0 64 -36 95.5t-97 31.5q-55 0 -94 -25t-58 -64l25 -22q23 -20 23 -52v-195q0 -100 -110 -100h-48v65h33q37 0 37 32v199q0 16 -9 25l-37 34v25q20 60 89 106.5t149 46.5q101 0 162.5 -49.5t61.5 -152.5v-331h-91z" />
    <glyph glyph-name="uni0E21.001" horiz-adv-x="578" 
d="M149 0h-84v526h91v-335q14 -55 53 -90t98 -35q61 0 88 34.5t27 86.5v339h91v-344q0 -89 -51.5 -140t-139.5 -51q-46 0 -82 13.5t-51 26.5t-33 35z" />
    <glyph glyph-name="uni0E22.001" horiz-adv-x="563" 
d="M66 161v17q0 38 22.5 64.5t60.5 36.5q-39 7 -63 41t-24 78q0 61 42 94.5t105 33.5h59v-67h-48q-77 0 -77 -61q0 -76 83 -76h59v-72h-55q-77 0 -77 -68v-20q0 -94 128 -94q126 0 126 102v356h91v-362q0 -75 -56.5 -123.5t-160.5 -48.5t-159.5 46t-55.5 123z" />
    <glyph glyph-name="uni0E23.001" horiz-adv-x="524" 
d="M257 459q-50 0 -75 -21.5t-25 -55.5q0 -31 31 -48t75.5 -25.5t89 -20.5t75.5 -43.5t31 -84.5q0 -72 -48.5 -116t-157.5 -44q-88 0 -138 43.5t-50 116.5h88q0 -86 100 -86q63 0 89 19t26 60q0 29 -22.5 47t-56 24.5t-72.5 16t-72.5 21.5t-56 41.5t-22.5 74.5
q0 66 53.5 110.5t137.5 44.5q95 0 148 -45t53 -128h-89q0 50 -26.5 74.5t-85.5 24.5z" />
    <glyph glyph-name="uni0E24.001" horiz-adv-x="559" 
d="M419 -195v526q0 64 -38 95.5t-102 31.5q-54 0 -94.5 -25t-58.5 -64l25 -22q23 -20 23 -52v-191q0 -39 33 -39h54v-65h-67q-108 0 -108 103v193q0 16 -9 25l-37 34v25q20 60 89.5 106.5t149.5 46.5q104 0 167.5 -49.5t63.5 -152.5v-526h-91z" />
    <glyph glyph-name="uni0E25.001" horiz-adv-x="567" 
d="M159 162v-11q0 -39 22.5 -62.5t64.5 -23.5l56 6v-71q-37 -7 -75 -7q-71 0 -114.5 45t-43.5 111v10q0 76 55.5 123t151.5 47q45 0 84.5 -16.5t56.5 -38.5v74q0 54 -34 82.5t-94 28.5q-62 0 -96 -25.5t-34 -73.5h-89q0 79 66 126t153 47q96 0 157.5 -49t61.5 -136v-348h-91
v143q0 50 -42 80t-99 30t-87 -23.5t-30 -67.5z" />
    <glyph glyph-name="uni0E26.001" horiz-adv-x="588" 
d="M450 -196v527q0 64 -36 95.5t-97 31.5q-55 0 -94 -25t-58 -64l25 -22q23 -20 23 -52v-195q0 -100 -110 -100h-48v65h33q37 0 37 32v199q0 16 -9 25l-37 34v25q20 60 89 106.5t149 46.5q101 0 162.5 -49.5t61.5 -152.5v-527h-91z" />
    <glyph glyph-name="uni0E27.001" horiz-adv-x="539" 
d="M399 239v52q0 168 -134 168q-54 0 -87.5 -26t-33.5 -73h-88q0 81 60 127t149 46q222 0 222 -257v-21q0 -124 -56.5 -193.5t-169.5 -69.5q-91 0 -146 44t-55 116h84q0 -86 117 -86q63 0 100.5 41.5t37.5 131.5z" />
    <glyph glyph-name="uni0E28.001" horiz-adv-x="559" 
d="M507 313v-313h-91v313q0 79 -30.5 112.5t-100.5 33.5q-134 0 -134 -138v-108q28 86 121 86h71v-78h-71q-48 0 -83.5 -47t-35.5 -136v-38h-91v321q0 102 60.5 157.5t162.5 55.5q24 0 58 -5.5t48 -5.5q48 0 48 58h91q0 -88 -82 -110q59 -47 59 -158z" />
    <glyph glyph-name="uni0E29.001" horiz-adv-x="632" 
d="M559 235v-21q0 -114 -54.5 -167.5t-167.5 -53.5q-114 0 -168.5 53.5t-54.5 167.5v312h91v-313q0 -78 31 -111t101 -33t100.5 33.5t30.5 110.5v22h-133v78h133v213h91v-213h52v-71z" />
    <glyph glyph-name="uni0E2A.001" horiz-adv-x="567" 
d="M393 523q48 0 48 58h91q0 -88 -82 -110q56 -37 56 -123v-348h-91v143q0 50 -44 80t-102 30q-113 0 -113 -91v-11q0 -39 22.5 -62.5t64.5 -23.5l56 6v-71q-36 -7 -74 -7q-72 0 -115.5 45t-43.5 111v10q0 77 53.5 123.5t149.5 46.5q46 0 87.5 -16.5t58.5 -38.5v74
q0 51 -40.5 81t-88.5 30q-50 0 -90 -26.5t-40 -72.5h-88q0 80 65.5 126.5t152.5 46.5q24 0 58.5 -5t48.5 -5z" />
    <glyph glyph-name="uni0E2B.001" horiz-adv-x="585" 
d="M156 244l172 125q56 40 75 70t19 80v7h91v-7q0 -63 -19.5 -99.5t-68.5 -68.5q44 -4 69.5 -33t25.5 -79v-239h-91v226q0 65 -51 65q-25 0 -50 -17l-172 -130v-144h-91v526h91v-282z" />
    <glyph glyph-name="uni0E2C.001" horiz-adv-x="630" 
d="M555 326v-326h-77l-9 31q-2 9 -41.5 54.5l-77.5 86.5l-39 41q-158 -161 -163 -183l-9 -30h-74v526h88v-369l141 154h36l134 -142v153q0 31 -16 50t-48 19v60q81 11 81 114h91q0 -118 -85 -137q35 -9 51.5 -32.5t16.5 -69.5z" />
    <glyph glyph-name="uni0E2D.001" horiz-adv-x="542" 
d="M136 195v-16q0 -51 33 -81t96 -30q65 0 96.5 34t31.5 111v98q0 148 -128 148q-57 0 -93 -26t-36 -73h-88q0 79 65.5 126t151.5 47q96 0 157.5 -56.5t61.5 -165.5v-91q0 -110 -56.5 -169t-162.5 -59q-105 0 -161 50.5t-56 140.5v26q0 85 92 85h98v-78h-79
q-14 0 -18.5 -4.5t-4.5 -16.5z" />
    <glyph glyph-name="uni0E2E.001" horiz-adv-x="542" 
d="M484 309v-89q0 -110 -56.5 -169t-162.5 -59q-105 0 -161 50.5t-56 140.5v26q0 85 92 85h98v-78h-79q-14 0 -18.5 -4.5t-4.5 -16.5v-16q0 -51 33 -81t96 -30q65 0 96.5 34t31.5 111v98q0 148 -128 148q-57 0 -93 -26t-36 -73h-88q0 79 65.5 126t151.5 47q25 0 58 -5t47 -5
q49 0 49 58h91q0 -42 -23 -69.5t-63 -38.5q60 -52 60 -164z" />
    <glyph glyph-name="uni0E42.001" horiz-adv-x="294" 
d="M169 616v-509q0 -19 10 -30.5t29 -11.5h35v-65h-51q-57 0 -85.5 28.5t-28.5 76.5v503q0 83 -27 120t-78 47v70h310v-72h-199q85 -25 85 -157z" />
    <glyph glyph-name="uni0E43.001" horiz-adv-x="294" 
d="M78 105v411q0 31 11.5 57.5t27.5 45.5l32 36.5t27.5 37.5t11.5 40q0 23 -18 38t-52 15q-35 0 -52 -15.5t-17 -37.5v-36h-88v39q0 56 42.5 89.5t114.5 33.5q70 0 114.5 -33t44.5 -95q0 -30 -17 -59.5t-37 -50.5t-37 -49.5t-17 -55.5v-409q0 -19 10 -30.5t29 -11.5h35v-65
h-51q-57 0 -85.5 28.5t-28.5 76.5z" />
    <glyph glyph-name="uni0E44.001" horiz-adv-x="292" 
d="M169 604v-497q0 -19 10 -30.5t29 -11.5h35v-65h-51q-57 0 -85.5 28.5t-28.5 76.5v507q0 71 23.5 107t68.5 54h-205v72h309v-70q-105 -32 -105 -171z" />
    <glyph glyph-name="uni0E47.001" 
d="M-95 671v-70h-92l-61 40l-67 -40h-39q-38 0 -64.5 29.5t-26.5 67.5v21q0 48 36 79t100 31h214v-65h-212q-61 0 -61 -45v-13q0 -15 8 -25t18 -10h27l58 31h22l70 -31h70z" />
    <glyph glyph-name="uni0E48.001" 
d="M-72 824h-72v154h72v-154z" />
    <glyph glyph-name="uni0E49.001" 
d="M-81 933v-48h181v-62h-259v82q0 11 -4 15t-15 4h-69v65h108q32 0 45 -13t13 -43z" />
    <glyph glyph-name="uni0E4A.001" 
d="M-335 889q0 44 25 69t68 25q18 0 32.5 -7.5t20.5 -15.5l6 -7q15 28 58 28q30 0 51 -20.5t21 -57.5v-35h91v-62h-159v92q0 25 -23 25q-11 0 -19.5 -5.5t-12.5 -10.5l-3 -5h-11q-19 24 -44 24q-30 0 -30 -28v-8q0 -22 26 -22v-62h-31q-31 0 -48.5 22t-17.5 61z" />
    <glyph glyph-name="uni0E4B.001" 
d="M-8 892h-69v-60h-73v60h-70v61h70v62h73v-62h69v-61z" />
    <glyph glyph-name="uni0E4C.001" 
d="M-131 819v-40h-78v37q0 106 108 106h140v-72h-137q-33 0 -33 -31z" />
    <glyph glyph-name="uni0E48.alt1.001" 
d="M-238 606h-84v184h84v-184z" />
    <glyph glyph-name="uni0E49.alt1.001" 
d="M-315 712v-48h181v-62h-259v82q0 12 -2.5 15.5t-12.5 3.5h-73v65h101q65 0 65 -56z" />
    <glyph glyph-name="uni0E4A.alt1.001" 
d="M-495 690q0 44 25.5 69t67.5 25q18 0 33 -7.5t21 -14.5l5 -8q18 29 58 29q30 0 51 -21t21 -57v-36h91v-62h-159v92q0 25 -23 25q-10 0 -19 -5t-13 -11l-3 -5h-11q-19 24 -44 24q-30 0 -30 -28v-7q0 -23 26 -23v-62h-31q-31 0 -48.5 22t-17.5 61z" />
    <glyph glyph-name="uni0E4B.alt1.001" 
d="M-208 658h-78v-78h-78v78h-78v69h78v71h78v-71h78v-69z" />
    <glyph glyph-name="uni0E4C.alt1.001" 
d="M-330 664v-40h-78v38q0 105 108 105h140v-72h-137q-33 0 -33 -31z" />
    <glyph glyph-name="uni0E48.alt2.001" 
d="M-69 606h-84v184h84v-184z" />
    <glyph glyph-name="uni0E49.alt2.001" 
d="M-198 712v-48h181v-62h-259v82q0 12 -2.5 15.5t-12.5 3.5h-73v65h101q65 0 65 -56z" />
    <glyph glyph-name="uni0E4A.alt2.001" 
d="M-373 690q0 44 25.5 69t67.5 25q18 0 33 -7.5t21 -14.5l5 -8q18 29 58 29q30 0 51 -21t21 -57v-36h91v-62h-159v92q0 25 -23 25q-10 0 -19 -5t-13 -11l-3 -5h-11q-19 24 -44 24q-30 0 -30 -28v-7q0 -23 26 -23v-62h-31q-31 0 -48.5 22t-17.5 61z" />
    <glyph glyph-name="uni0E4B.alt2.001" 
d="M0 658h-78v-78h-78v78h-78v69h78v71h78v-71h78v-69z" />
    <glyph glyph-name="uni0E4C.alt2.001" 
d="M-209 664v-40h-78v38q0 105 108 105h140v-72h-137q-33 0 -33 -31z" />
    <glyph glyph-name="uni0E47.alt1.001" 
d="M-215 671v-70h-92l-61 40l-67 -40h-39q-38 0 -64.5 29.5t-26.5 67.5v21q0 48 36 79t100 31h214v-65h-212q-61 0 -61 -45v-13q0 -15 8 -25t18 -10h27l58 31h22l70 -31h70z" />
    <glyph glyph-name="uni0E48.alt3.001" 
d="M-217 811h-73v154h73v-154z" />
    <glyph glyph-name="uni0E49.alt3.001" 
d="M-136 933v-48h181v-62h-259v82q0 11 -4 15t-15 4h-69v65h108q32 0 45 -13t13 -43z" />
    <glyph glyph-name="uni0E4A.alt3.001" 
d="M-222 915l20 21q17 13 38 13q38 0 60.5 -19.5t22.5 -50.5v-5h93v-63h-93h-65v50q0 28 -27 28h-10l-30 -27h-16l-32 27h-12q-27 0 -27 -41v-37h-72v44q0 45 24 69.5t67 24.5q24 0 40 -13z" />
    <glyph glyph-name="uni0E4B.alt3.001" 
d="M-106 871h-69v-60h-70v60h-70v61h70v62h70v-62h69v-61z" />
    <glyph glyph-name="uni0E4C.alt3.001" 
d="M-274 801v-41h-78v38q0 105 108 105h140v-71h-137q-33 0 -33 -31z" />
    <glyph glyph-name="uni0E01.002" horiz-adv-x="560" 
d="M502 0h-91v328q0 62 -35 96t-94 34q-41 0 -76 -19t-49 -39l68 -36v-53q-48 -14 -48 -55v-256h-91v252q0 54 53 81l-79 39v45q34 43 90.5 79.5t131.5 36.5q102 0 161 -50.5t59 -154.5v-328z" />
    <glyph glyph-name="uni0E02.002" horiz-adv-x="504" 
d="M165 422q0 39 -34 39h-54v65h67q54 0 76.5 -25t22.5 -77q0 -27 -10.5 -50.5t-35 -59t-32.5 -48.5v-115q0 -47 24.5 -67t74.5 -20q49 0 73 21t24 67v374h91v-374q0 -74 -48.5 -119t-139.5 -45q-90 0 -138.5 42.5t-48.5 118.5v127q10 15 36 48t38.5 54.5t13.5 43.5z" />
    <glyph glyph-name="uni0E03.002" horiz-adv-x="533" 
d="M149 433h-9l-50 25h-13v68h28l46 -35l56 35h57v-71q0 -40 -16 -82t-28 -59.5t-34 -45.5v-122q0 -82 97 -82q107 0 107 83v379h91v-379q0 -72 -52.5 -115.5t-145.5 -43.5q-91 0 -139.5 40.5t-48.5 115.5v139q45 51 68 89.5t23 79.5z" />
    <glyph glyph-name="uni0E04.002" horiz-adv-x="559" 
d="M343 221h-71q-48 0 -83.5 -47t-35.5 -136v-38h-91v321q0 102 60.5 157.5t162.5 55.5q113 0 167.5 -53t54.5 -168v-313h-91v313q0 79 -30.5 112.5t-100.5 33.5q-134 0 -134 -138v-108q28 86 121 86h71v-78z" />
    <glyph glyph-name="uni0E05.002" horiz-adv-x="576" 
d="M292 485l90 49q76 -27 109 -77t33 -133v-324h-91v324q0 62 -12 87t-40 39l-89 -46l-89 46q-28 -14 -40 -39t-12 -87v-111q28 86 121 86h71v-78h-71q-48 0 -83.5 -47t-35.5 -136v-38h-91v322q0 85 32 135t107 77z" />
    <glyph glyph-name="uni0E06.002" horiz-adv-x="568" 
d="M74 0v283q45 51 68 89.5t23 79.5l-36 -19h-9l-51 25h-13v68h28l46 -35l56 35h57v-71q0 -40 -16 -82t-28 -59.5t-34 -45.5v-77q14 -55 53 -90t98 -35q109 0 109 121v339h91v-344q0 -90 -48.5 -140.5t-136.5 -50.5q-46 0 -82.5 15.5t-51 29t-33.5 37.5l-9 -73h-81z" />
    <glyph glyph-name="uni0E07.002" horiz-adv-x="494" 
d="M344 430q0 39 -32 39h-68v65h84q107 0 107 -99v-283q0 -77 -48 -118t-130 -41q-26 0 -49.5 3.5t-33.5 7.5l-10 4l-138 377h92l113 -320l10 -2q10 -2 16 -2q42 0 64.5 21t22.5 73v275z" />
    <glyph glyph-name="uni0E08.002" horiz-adv-x="523" 
d="M129 208h-42v78h44q61 0 85.5 -15.5t42.5 -74.5l40 -131q5 21 47.5 111t42.5 152q0 61 -33.5 96t-94.5 35q-62 0 -100 -26t-38 -73h-88q0 79 69.5 126t156.5 47q97 0 156.5 -55.5t59.5 -149.5q0 -60 -23 -116.5t-54.5 -114t-42.5 -97.5h-124l-60 177q-6 20 -15 25.5
t-29 5.5z" />
    <glyph glyph-name="uni0E09.002" horiz-adv-x="567" 
d="M186 278v-91q0 -57 18.5 -89t77.5 -32q107 0 138 125v155q0 53 -40 83t-101 30q-58 0 -101 -26.5t-43 -72.5h-88q0 80 69 126.5t163 46.5q108 0 168.5 -49.5t60.5 -137.5v-346h-82l-11 66q-3 -3 -13.5 -16t-15.5 -18t-18 -15t-25 -14t-32.5 -8t-44.5 -4
q-86 0 -128.5 49.5t-42.5 141.5v31h-48v65h139z" />
    <glyph glyph-name="uni0E0A.002" horiz-adv-x="528" 
d="M77 156v120l21.5 26t21 26.5l16.5 22.5t15.5 24.5t8.5 22t5 24.5q0 39 -34 39h-54v65h67q54 0 76.5 -25t22.5 -77q0 -17 -3.5 -32.5t-13.5 -34t-15.5 -27.5t-23 -33l-22.5 -31v-109q0 -46 30 -69.5t83 -23.5q52 0 80.5 24t28.5 71v176q0 34 -23 34l-21 -4l-22 56
q45 17 67.5 50.5t35.5 97.5l84 -44q-19 -91 -80 -121q50 -15 50 -78v-167q0 -74 -53 -122.5t-147 -48.5q-93 0 -147 46t-54 122z" />
    <glyph glyph-name="uni0E0B.002" horiz-adv-x="558" 
d="M95 164v119q6 6 23.5 26l25 29t20.5 26.5t19 29.5t11 27.5t5 30.5l-40 -19h-10l-59 25h-13v68h28l55 -35l60 35h57v-71q0 -25 -6 -49t-19 -46.5t-21.5 -35t-25.5 -33.5t-19 -23v-103q0 -51 31 -76t83 -25q117 0 117 102v169q0 34 -23 34l-21 -4l-22 56q45 17 67.5 50.5
t35.5 97.5l84 -44q-19 -90 -80 -121q50 -15 50 -78v-160q0 -75 -55 -126.5t-153 -51.5q-97 0 -151 49t-54 127z" />
    <glyph glyph-name="uni0E0C.002" horiz-adv-x="855" 
d="M490 328v-123q13 -66 46 -102.5t80 -36.5q46 0 68 29.5t22 78.5v352h91v-357q0 -90 -40.5 -134t-124.5 -44q-52 0 -84.5 17.5t-57.5 57.5l-6 -66h-84v328q0 130 -114 130q-41 0 -78.5 -19t-50.5 -39l68 -36v-53q-51 -15 -51 -56v-151q0 -39 33 -39h54v-65h-67
q-108 0 -108 103v149q0 54 53 81l-79 39v45q33 42 92 79t134 37q204 0 204 -205z" />
    <glyph glyph-name="uni0E0D.002" horiz-adv-x="868" 
d="M719 49v39q-31 -57 -126 -57q-89 0 -133.5 45.5t-44.5 123.5v128q0 63 -31 96.5t-89 33.5q-41 0 -80.5 -19.5t-52.5 -38.5l68 -36v-53q-51 -16 -51 -56v-151q0 -39 33 -39h54v-65h-67q-108 0 -108 103v149q0 54 53 81l-79 39v45q32 41 93.5 78.5t136.5 37.5
q208 0 208 -205v-127q0 -50 29 -72t74 -22q51 0 82 25.5t31 76.5v317h91v-478q0 -92 -61 -143t-177 -51q-38 0 -74.5 4t-53.5 8l-18 4v74q67 -21 152 -21q141 0 141 126z" />
    <glyph glyph-name="uni0E0E.002" horiz-adv-x="594" 
d="M443 -114v442q0 62 -33.5 96t-91.5 34q-40 0 -75.5 -19t-48.5 -39l67 -36v-53q-52 -16 -52 -58v-153q0 -100 -113 -100h-48v65h34q34 0 34 32v160q0 24 18 45.5t41 30.5l-79 39v45q34 43 90.5 79.5t131.5 36.5q101 0 159.5 -50.5t58.5 -154.5v-444q0 -61 -33.5 -94.5
t-94.5 -33.5h-43l-79 55q-40 -50 -85 -50h-85v70h74q23 0 47 17.5t37 38.5h20l74 -51h32q43 0 43 50z" />
    <glyph glyph-name="uni0E0F.002" horiz-adv-x="594" 
d="M337 -120h22l56 -37q12 0 21 6.5t9 19.5v459q0 62 -34 96t-93 34q-40 0 -75.5 -19t-48.5 -39l67 -36v-53q-52 -16 -52 -58v-153q0 -100 -113 -100h-48v65h34q34 0 34 32v160q0 24 18 45.5t41 30.5l-79 39v45q34 43 90.5 79.5t131.5 36.5q101 0 159.5 -50.5t58.5 -154.5
v-466q0 -48 -33.5 -75.5t-87.5 -27.5l-65 47l-61 -50l-59 49q-30 -47 -83 -47h-50v70h38q53 0 83 52h20l53 -46z" />
    <glyph glyph-name="uni0E10.002" horiz-adv-x="532" 
d="M478 299v-64q0 -127 -55.5 -181t-143.5 -54h-71l-46 160q-5 21 -14 26t-30 5h-35v78h38q64 0 90.5 -15t36.5 -75l29 -104q113 0 113 149v88q0 147 -138 147q-61 0 -97.5 -25.5t-36.5 -73.5h-88q0 79 68 126t154 47q74 0 112 -23l48 54h113l-97 -104q50 -50 50 -161z
M335 -182h-18l-70 55h-33q-26 -51 -87 -51h-63v-70h89q51 0 85 44l62 -50h43q122 0 122 97v31q0 36 -22 56.5t-62 20.5h-48v-65h17q27 0 27 -26v-10q0 -18 -9 -25t-33 -7z" />
    <glyph glyph-name="uni0E11.002" horiz-adv-x="599" 
d="M198 386v70l-45 -23h-9l-50 25h-13v68h28l46 -35l56 35h57v-63q40 66 147 66q62 0 97 -39t35 -107v-383h-91v383q0 28 -14 45.5t-38 17.5q-59 0 -108 -72l-84 -122v-252h-91v270q10 17 30.5 41.5t33.5 43t13 31.5z" />
    <glyph glyph-name="uni0E12.002" horiz-adv-x="870" 
d="M532 318v-127q15 -61 41.5 -93t82.5 -32q25 0 43 7t27 17t13.5 28.5t5.5 31.5t1 37v339h91v-344q0 -191 -165 -191q-99 0 -140 75l-7 -66h-84v318q0 64 -17 93.5t-47 42.5l-75 -52l-85 50q-32 -14 -51.5 -49t-19.5 -114q0 -59 19 -128t21 -87l61 87q26 37 26 79h-75v72
h161v-48q0 -45 -7 -71.5t-30 -57.5l-97 -135h-94q-6 26 -26 78.5t-34.5 106t-14.5 104.5q0 102 38.5 159.5t118.5 87.5l86 -49l70 50q85 -16 124 -65.5t39 -153.5z" />
    <glyph glyph-name="uni0E13.002" horiz-adv-x="829" 
d="M490 328v-149q0 -29 2 -45t10 -34t27.5 -26t50.5 -8q45 0 81 28.5t45 77.5v354h91v-526h-85l-6 66q-13 -22 -26 -36t-43.5 -26.5t-71.5 -12.5q-80 0 -122.5 48.5t-42.5 134.5v154q0 130 -114 130q-41 0 -78.5 -19t-50.5 -39l68 -36v-53q-51 -15 -51 -56v-151
q0 -39 33 -39h54v-65h-67q-108 0 -108 103v149q0 54 53 81l-79 39v45q33 42 92 79t134 37q204 0 204 -205z" />
    <glyph glyph-name="uni0E14.002" horiz-adv-x="572" 
d="M352 312v-49q0 -45 -10.5 -74.5t-36.5 -66.5l-87 -122h-92q-4 13 -29 81t-36.5 115t-11.5 93q0 115 65.5 180t167.5 65q231 0 231 -239v-295h-91v295q0 86 -34.5 125t-105.5 39q-69 0 -106.5 -43t-37.5 -127q0 -92 45 -215l55 78q17 24 23.5 42.5t6.5 49.5h-72v68h156z
" />
    <glyph glyph-name="uni0E15.002" horiz-adv-x="590" 
d="M225 0h-94q-6 26 -26 78.5t-34.5 106t-14.5 104.5q0 102 38.5 159.5t118.5 87.5l86 -49l70 50q85 -16 124 -65.5t39 -153.5v-318h-91v318q0 64 -17 93.5t-47 42.5l-75 -52l-85 50q-32 -14 -51.5 -49t-19.5 -114q0 -61 21 -133t23 -82l61 90q22 36 22 76h-75v72h161v-48
q0 -45 -7 -71.5t-30 -57.5z" />
    <glyph glyph-name="uni0E16.002" horiz-adv-x="568" 
d="M174 104q0 -39 33 -39h54v-65h-67q-108 0 -108 103v149q0 54 53 81l-79 39v45q33 42 92 79t134 37q102 0 163 -51t61 -154v-328h-91v328q0 61 -37 95.5t-96 34.5q-41 0 -78.5 -19t-50.5 -39l68 -36v-53q-51 -15 -51 -56v-151z" />
    <glyph glyph-name="uni0E17.002" horiz-adv-x="565" 
d="M156 526v-53q0 -36 -4 -49h3q21 52 68 80t112 28q81 0 126.5 -47.5t45.5 -140.5v-344h-91v343q0 108 -91 108q-69 0 -120.5 -62.5t-51.5 -167.5v-221h-88v526h91z" />
    <glyph glyph-name="uni0E18.002" horiz-adv-x="545" 
d="M149 391q0 -25 25.5 -36.5t63.5 -11t83 -3.5t83 -13.5t63.5 -42t25.5 -86.5v-55q0 -68 -53.5 -110.5t-156.5 -42.5q-206 0 -206 150v82h91v-79q0 -44 27.5 -61t87.5 -17q63 0 91 17t28 61v47q0 35 -25.5 52.5t-63.5 18.5t-83 4.5t-83 9.5t-63.5 34t-25.5 78q0 78 64 112
t168 34q107 0 183 -33v-84q-88 39 -183 39q-79 0 -110 -15.5t-31 -48.5z" />
    <glyph glyph-name="uni0E19.002" horiz-adv-x="576" 
d="M513 0h-84l-7 66q-18 -22 -33 -35t-51 -26.5t-82 -13.5q-88 0 -139.5 51t-51.5 140v344h91v-339q0 -52 27.5 -86.5t88.5 -34.5q59 0 98 35t52 90v335h91v-526z" />
    <glyph glyph-name="uni0E1A.002" horiz-adv-x="575" 
d="M287 -10q-113 0 -167.5 53t-54.5 168v315h91v-317q0 -77 30.5 -110.5t100.5 -33.5t101 33t31 111v317h91v-315q0 -115 -54.5 -168t-168.5 -53z" />
    <glyph glyph-name="uni0E1B.002" horiz-adv-x="575" 
d="M287 -10q-113 0 -167.5 53t-54.5 168v315h91v-317q0 -77 30.5 -110.5t100.5 -33.5t101 33t31 111v507h91v-505q0 -115 -54.5 -168t-168.5 -53z" />
    <glyph glyph-name="uni0E1C.002" horiz-adv-x="616" 
d="M164 430v-190q0 -62 -7 -101l132 164h39l132 -155q-6 65 -6 108v270h91v-526h-74l-4 12q-6 18 -46 67t-77 89l-37 41q-138 -156 -152 -197l-4 -12h-78v435q0 99 108 99h57v-65h-42q-32 0 -32 -39z" />
    <glyph glyph-name="uni0E1D.002" horiz-adv-x="616" 
d="M164 430v-190q0 -62 -7 -100l134 163h34l135 -154q-6 64 -6 107v460h91v-716h-78l-2 12q-2 18 -41.5 67.5t-77.5 89.5l-39 40l-40.5 -43.5t-66.5 -80t-44 -73.5l-1 -12h-82v435q0 99 108 99h57v-65h-42q-32 0 -32 -39z" />
    <glyph glyph-name="uni0E1E.002" horiz-adv-x="650" 
d="M300 506h47l113 -321q4 31 7 66l49 275h92l-85 -526h-77l-7 27q-3 15 -31.5 97.5l-55.5 157.5l-28 74q-110 -295 -116 -329l-7 -27h-76l-86 526h92l50 -275l6 -66z" />
    <glyph glyph-name="uni0E1F.002" horiz-adv-x="650" 
d="M307 506h47l119 -321q3 31 7 66l49 465h92l-85 -716h-77l-7 27q-3 15 -33.5 97.5l-59.5 157.5l-29 74q-116 -295 -122 -329l-7 -27h-76l-86 526h92l50 -275l6 -66z" />
    <glyph glyph-name="uni0E20.002" horiz-adv-x="601" 
d="M127 97v160q0 25 16 46t39 30l-79 39v45q34 43 90.5 79.5t131.5 36.5q101 0 159 -50.5t58 -154.5v-328h-91v328q0 62 -33.5 96t-92.5 34q-41 0 -76.5 -19t-48.5 -39l68 -36v-53q-52 -16 -52 -58v-153q0 -100 -113 -100h-48v65h39q33 0 33 32z" />
    <glyph glyph-name="uni0E21.002" horiz-adv-x="578" 
d="M149 0h-84v526h91v-335q14 -55 53 -90t98 -35q61 0 88 34.5t27 86.5v339h91v-344q0 -89 -51.5 -140t-139.5 -51q-46 0 -82 13.5t-51 26.5t-33 35z" />
    <glyph glyph-name="uni0E22.002" horiz-adv-x="563" 
d="M66 159v20q0 40 20 68.5t57 37.5q-34 9 -57.5 38t-23.5 75q0 61 43 94.5t109 33.5h54v-75h-41q-83 0 -83 -53q0 -34 21.5 -51.5t73.5 -17.5h52v-73h-47q-40 0 -64.5 -19.5t-24.5 -53.5v-23q0 -95 126 -95t126 103v358h91v-365q0 -75 -56.5 -123t-160.5 -48t-159.5 45.5
t-55.5 123.5z" />
    <glyph glyph-name="uni0E23.002" horiz-adv-x="503" 
d="M445 159q0 -71 -51 -117t-161 -46q-38 0 -77.5 5.5t-59.5 10.5l-21 6v79q72 -26 158 -26q123 0 123 85q0 36 -30.5 56t-74.5 28.5t-88 20t-74.5 42t-30.5 83.5q0 67 61 107t154 40q85 0 161 -33v-79q-74 34 -161 34q-54 0 -90 -18.5t-36 -49.5q0 -29 30.5 -45t74.5 -25.5
t88 -23t74.5 -47t30.5 -87.5z" />
    <glyph glyph-name="uni0E24.002" horiz-adv-x="559" 
d="M174 104q0 -39 33 -39h54v-65h-67q-108 0 -108 103v149q0 54 53 81l-79 39v45q33 42 92 79t134 37q101 0 157.5 -50.5t56.5 -154.5v-523h-91v523q0 63 -32.5 96.5t-90.5 33.5q-41 0 -78.5 -19t-50.5 -39l68 -36v-53q-51 -15 -51 -56v-151z" />
    <glyph glyph-name="uni0E25.002" horiz-adv-x="567" 
d="M170 162v-15q0 -82 76 -82l56 6v-71q-37 -7 -75 -7q-68 0 -107 43t-39 110v13q0 75 55.5 119t152.5 44q70 0 128 -43v76q0 49 -32 76.5t-90 27.5q-62 0 -96 -25.5t-34 -73.5h-88q0 80 65.5 126.5t152.5 46.5q96 0 154.5 -48t58.5 -130v-355h-91v185q-16 27 -53.5 44.5
t-74.5 17.5q-119 0 -119 -85z" />
    <glyph glyph-name="uni0E26.002" horiz-adv-x="588" 
d="M127 97v160q0 25 16 46t39 30l-79 39v45q34 43 90.5 79.5t131.5 36.5q101 0 159 -50.5t58 -154.5v-523h-91v523q0 62 -33.5 96t-92.5 34q-41 0 -76.5 -19t-48.5 -39l68 -36v-53q-52 -16 -52 -58v-153q0 -100 -113 -100h-48v65h39q33 0 33 32z" />
    <glyph glyph-name="uni0E27.002" horiz-adv-x="500" 
d="M131 6v76q51 -16 102 -16q55 0 88 31.5t33 92.5v151q0 118 -115 118q-54 0 -87.5 -26t-33.5 -73h-88q0 81 60 127t149 46q99 0 151 -51t52 -141v-151q0 -95 -57 -146.5t-152 -51.5q-52 0 -102 14z" />
    <glyph glyph-name="uni0E28.002" horiz-adv-x="559" 
d="M151 321v-108q28 86 121 86h71v-78h-71q-48 0 -83.5 -47t-35.5 -136v-38h-91v321q0 102 60.5 157.5t162.5 55.5q70 0 121 -24l39 55h113l-94 -105q43 -45 43 -147v-313h-91v313q0 79 -30.5 112.5t-100.5 33.5q-134 0 -134 -138z" />
    <glyph glyph-name="uni0E29.002" horiz-adv-x="632" 
d="M559 235v-24q0 -115 -54.5 -168t-167.5 -53q-114 0 -168.5 53t-54.5 168v315h91v-317q0 -78 31 -111t101 -33t100.5 33.5t30.5 110.5v26h-133v78h133v213h91v-213h52v-71z" />
    <glyph glyph-name="uni0E2A.002" horiz-adv-x="567" 
d="M168 162v-15q0 -82 75 -82l56 6v-71q-36 -7 -74 -7q-69 0 -108 43t-39 110v13q0 77 53 123.5t148 46.5q45 0 82 -16t54 -39v74q0 51 -40.5 81t-88.5 30q-50 0 -90 -26.5t-40 -72.5h-88q0 80 65.5 126.5t152.5 46.5q60 0 112 -25l50 56h114l-101 -106q45 -43 45 -110v-348
h-91v143q0 51 -39.5 80.5t-96.5 29.5q-111 0 -111 -91z" />
    <glyph glyph-name="uni0E2B.002" horiz-adv-x="578" 
d="M155 330q42 58 71.5 92.5t53 57t49 32t47 12t59.5 2.5h65v-80h-55q-59 0 -89 -13.5t-84 -71.5q22 15 62 15q179 0 179 -188v-188h-91v182q0 67 -26 91.5t-80 24.5q-160 0 -160 -164v-134h-91v526h91v-119q0 -64 -4 -77h3z" />
    <glyph glyph-name="uni0E2C.002" horiz-adv-x="630" 
d="M464 174v161q0 34 -23 34l-21 -4l-22 56q45 17 67.5 50.5t34.5 97.5l85 -44q-8 -39 -29 -72.5t-52 -48.5q24 -7 37.5 -28t13.5 -50v-326h-77l-9 31q-2 9 -41.5 54.5l-77.5 86.5l-39 41q-158 -161 -163 -183l-9 -30h-74v526h88v-364l141 149h36z" />
    <glyph glyph-name="uni0E2D.002" horiz-adv-x="542" 
d="M136 195v-16q0 -51 33 -81t96 -30q65 0 96.5 34t31.5 111v98q0 148 -128 148q-57 0 -93 -26t-36 -73h-88q0 79 65.5 126t151.5 47q96 0 157.5 -56.5t61.5 -165.5v-91q0 -110 -56.5 -169t-162.5 -59q-105 0 -161 50.5t-56 140.5v26q0 85 92 85h98v-78h-79
q-14 0 -18.5 -4.5t-4.5 -16.5z" />
    <glyph glyph-name="uni0E2E.002" horiz-adv-x="542" 
d="M265 533q59 0 111 -25l50 56h113l-102 -109q47 -45 47 -146v-89q0 -110 -56.5 -169t-162.5 -59q-105 0 -161 50.5t-56 140.5v26q0 85 92 85h98v-78h-79q-14 0 -18.5 -4.5t-4.5 -16.5v-16q0 -51 33 -81t96 -30q65 0 96.5 34t31.5 111v98q0 148 -128 148q-57 0 -93 -26
t-36 -73h-88q0 79 65.5 126t151.5 47z" />
    <glyph glyph-name="uni0E42.002" horiz-adv-x="294" 
d="M169 578v-471q0 -19 10 -30.5t29 -11.5h35v-65h-51q-57 0 -85.5 28.5t-28.5 76.5v473q0 114 -105 145v31q12 42 57 73.5t122 31.5q83 0 139 -22v-75q-71 24 -139 24q-78 0 -94 -35q111 -45 111 -173z" />
    <glyph glyph-name="uni0E43.002" horiz-adv-x="294" 
d="M78 105v411q0 31 11 57.5t27 45.5l31.5 36.5t26.5 37.5t11 40q0 23 -16.5 38t-50.5 15q-35 0 -51 -15.5t-16 -37.5l5 -49h-87q-8 27 -8 52q0 56 42.5 89.5t114.5 33.5q71 0 115 -32t44 -94q0 -37 -27 -74l-54 -73t-27 -70v-409q0 -19 10 -30.5t29 -11.5h35v-65h-51
q-57 0 -85.5 28.5t-28.5 76.5z" />
    <glyph glyph-name="uni0E44.002" horiz-adv-x="292" 
d="M169 560v-453q0 -19 10 -30.5t29 -11.5h35v-65h-51q-57 0 -85.5 28.5t-28.5 76.5v455q0 66 27 120.5t67 86.5l-2 4q-39 -14 -89 -14q-25 0 -54 3.5t-45 7.5l-17 3v82q62 -18 129 -18q95 0 159 18l28 -64q-112 -88 -112 -229z" />
    <glyph glyph-name="uni0E47.002" 
d="M-153 708h71v-31q0 -76 -75 -76h-43l-61 40l-67 -40h-26q-38 0 -64.5 29.5t-26.5 67.5v27q0 48 36 79.5t100 31.5h122q22 0 31 7.5t9 24.5h77q0 -97 -117 -97h-120q-61 0 -61 -46v-19q0 -15 8 -25t18 -10h14l58 31h22l70 -43q25 0 25 25v24z" />
    <glyph glyph-name="uni0E48.002" 
d="M-79 824h-61l-7 105v75h74v-75z" />
    <glyph glyph-name="uni0E49.002" 
d="M-87 931q0 -29 -33 -54q85 2 123 27.5t52 89.5h74q-7 -44 -27.5 -76.5t-46 -50.5t-61.5 -28t-66 -13t-68 -3l-51 4l-4 39q40 16 40 44q0 21 -26 21h-36v58h49q81 0 81 -58z" />
    <glyph glyph-name="uni0E4A.002" 
d="M-207 858v-52h-39q-36 0 -59 23.5t-23 59.5q0 40 24 65.5t65 25.5q16 0 30.5 -7t20.5 -14l7 -7q20 29 59 29q63 0 63 -74v-32q33 13 33 60v46h78q0 -47 -10 -79.5t-30.5 -50t-37 -25.5t-44.5 -16h-47v88q0 28 -26 28q-8 0 -15.5 -5t-11.5 -9l-4 -5h-15q-11 21 -39 21
q-18 0 -25.5 -8t-7.5 -27q0 -35 32 -35h22z" />
    <glyph glyph-name="uni0E4B.002" 
d="M-8 892h-69l-2 -60h-68l-3 60h-70v61h69v62h74v-62h69v-61z" />
    <glyph glyph-name="uni0E4C.002" 
d="M-131 832v-40h-78v37q0 106 108 106h140v-72h-137q-33 0 -33 -31z" />
    <glyph glyph-name="uni0E48.alt1.002" 
d="M-246 599h-67l-11 113v78h89v-78z" />
    <glyph glyph-name="uni0E49.alt1.002" 
d="M-315 724q0 -38 -30 -64q79 2 119.5 29.5t52.5 90.5h78q-8 -57 -34.5 -95t-68.5 -55t-80.5 -22.5t-90.5 -5.5l-56 4l-4 41q23 10 33 22t10 34t-26 22h-37v63h50q84 0 84 -64z" />
    <glyph glyph-name="uni0E4A.alt1.002" 
d="M-556 693q0 91 95 91q18 0 32.5 -7.5t19.5 -14.5l5 -8q18 29 65 29q33 0 52 -19t19 -49v-35q37 18 37 96h80q0 -63 -39 -110.5t-96 -58.5h-49v88q0 29 -26 29q-11 0 -20.5 -5t-14.5 -11l-4 -5h-11q-19 24 -44 24q-30 0 -30 -26q0 -15 6.5 -22t23.5 -7h20v-65h-42
q-37 0 -58 23.5t-21 62.5z" />
    <glyph glyph-name="uni0E4B.alt1.002" 
d="M-208 658h-78l-5 -78h-68l-5 78h-78v69h77v71h79v-71h78v-69z" />
    <glyph glyph-name="uni0E4C.alt1.002" 
d="M-330 664v-40h-78v38q0 105 108 105h140v-72h-137q-33 0 -33 -31z" />
    <glyph glyph-name="uni0E48.alt2.002" 
d="M-77 599h-67l-11 113v78h89v-78z" />
    <glyph glyph-name="uni0E49.alt2.002" 
d="M-198 724q0 -38 -30 -64q79 2 119.5 29.5t52.5 90.5h78q-8 -57 -34.5 -95t-68.5 -55t-80.5 -22.5t-90.5 -5.5l-56 4l-4 41q23 10 33 22t10 34t-26 22h-37v63h50q84 0 84 -64z" />
    <glyph glyph-name="uni0E4A.alt2.002" 
d="M-373 693q0 91 95 91q18 0 32.5 -7.5t19.5 -14.5l5 -8q18 29 65 29q33 0 52 -19t19 -49v-35q37 18 37 96h80q0 -63 -39 -110.5t-96 -58.5h-49v88q0 29 -26 29q-11 0 -20.5 -5t-13.5 -11l-5 -5h-11q-19 24 -44 24q-30 0 -30 -26q0 -15 6.5 -22t23.5 -7h20v-65h-42
q-37 0 -58 23.5t-21 62.5z" />
    <glyph glyph-name="uni0E4B.alt2.002" 
d="M0 658h-78l-5 -78h-68l-5 78h-78v69h77v71h79v-71h78v-69z" />
    <glyph glyph-name="uni0E4C.alt2.002" 
d="M-209 664v-40h-78v38q0 105 108 105h140v-72h-137q-33 0 -33 -31z" />
    <glyph glyph-name="uni0E47.alt1.002" 
d="M-284 708h71v-31q0 -76 -75 -76h-43l-61 40l-67 -40h-26q-38 0 -64.5 29.5t-26.5 67.5v27q0 48 36 79.5t100 31.5h122q22 0 31 7.5t9 24.5h77q0 -97 -117 -97h-120q-61 0 -61 -46v-19q0 -15 8 -25t18 -10h14l58 31h22l70 -43q25 0 25 25v24z" />
    <glyph glyph-name="uni0E48.alt3.002" 
d="M-217 811h-73v154h73v-154z" />
    <glyph glyph-name="uni0E49.alt3.002" 
d="M-123 902v-30h168v-62h-246v66q0 12 -4 16t-15 4h-69v62h108q32 0 45 -13t13 -43z" />
    <glyph glyph-name="uni0E4A.alt3.002" 
d="M-222 915l20 21q17 13 38 13q38 0 60.5 -19.5t22.5 -50.5v-5h93v-63h-93h-65v50q0 28 -27 28h-10l-30 -27h-16l-32 27h-12q-27 0 -27 -41v-37h-72v44q0 45 24 69.5t67 24.5q24 0 40 -13z" />
    <glyph glyph-name="uni0E4B.alt3.002" 
d="M-106 871h-69v-60h-70v60h-70v61h70v62h70v-62h69v-61z" />
    <glyph glyph-name="uni0E4C.alt3.002" 
d="M-274 801v-41h-78v38q0 105 108 105h140v-71h-137q-33 0 -33 -31z" />
    <glyph glyph-name="a.alt" horiz-adv-x="536" 
d="M365 295v46q0 48 -30.5 75t-86.5 27q-61 0 -90 -28.5t-29 -70.5h-86q0 73 52.5 120t152.5 47q97 0 150.5 -45.5t53.5 -124.5v-341h-85v64q-62 -74 -160 -74q-82 0 -129 41t-47 111q0 77 54.5 115t148.5 38h131zM365 155v72h-131q-122 0 -122 -84q0 -38 25 -62t75 -24
q51 0 94.5 29.5t58.5 68.5z" />
    <glyph glyph-name="l.alt" horiz-adv-x="234" 
d="M159 0h-86v714h86v-714z" />
    <glyph glyph-name="g.alt" horiz-adv-x="578" 
d="M270 -152q63 0 101 29.5t38 83.5v79q-57 -50 -140 -50q-113 0 -170 67t-57 194q0 126 57 193t170 67q85 0 140 -50v39h82v-539q0 -78 -57.5 -130t-163.5 -52q-102 0 -157.5 46.5t-55.5 122.5h86q0 -45 33 -72.5t94 -27.5zM269 445q-142 0 -142 -194t142 -194
q140 0 140 194t-140 194z" />
    <glyph glyph-name="a.001" horiz-adv-x="588" 
d="M502 500v-500h-85v69q-22 -37 -62.5 -58t-90.5 -21q-107 0 -163.5 67.5t-56.5 192.5t57 193t164 68q50 0 91 -20.5t61 -58.5v68h85zM276 57q66 0 103.5 49.5t37.5 143.5t-37.5 143.5t-103.5 49.5q-72 0 -109.5 -49t-37.5 -144t37.5 -144t109.5 -49z" />
    <glyph glyph-name="y.alt" horiz-adv-x="468" 
d="M181 -208h-87l93 225l-186 483h93l136 -374l137 374h93z" />
    <glyph glyph-name="quotedblleft.001" horiz-adv-x="416" 
d="M156 437h-91v65q0 50 15.5 95t31.5 65l15 20h29v-245zM338 437h-91v65q0 50 15.5 95t30.5 65l15 20h30v-245z" />
    <glyph glyph-name="quotedblright.001" horiz-adv-x="416" 
d="M260 682h91v-65q0 -49 -15.5 -94t-31.5 -65l-15 -21h-29v245zM78 682h91v-65q0 -49 -15.5 -94t-30.5 -65l-15 -21h-30v245z" />
    <glyph glyph-name="quoteleft.001" horiz-adv-x="237" 
d="M156 437h-91v65q0 50 15.5 95t31.5 65l15 20h29v-245z" />
    <glyph glyph-name="quoteright.001" horiz-adv-x="237" 
d="M81 682h91v-65q0 -49 -15.5 -94t-30.5 -65l-16 -21h-29v245z" />
    </font>
</defs>
</svg>
